<svg xmlns="http://www.w3.org/2000/svg" viewBox="0 0 283.5 523.24"><defs><style>.cls-1{fill:#ff7500;}</style></defs><g id="Layer_2" data-name="Layer 2"><g id="Layer_1-2" data-name="Layer 1"><path class="cls-1" d="M148,436.68a7.18,7.18,0,1,1-7.18-7.67A7.44,7.44,0,0,1,148,436.68Z"/><path class="cls-1" d="M134.69,460.63c0,2.61-1.82,4.72-4.07,4.72s-4.05-2.11-4.05-4.72,1.82-4.72,4.05-4.72S134.69,458,134.69,460.63Z"/><path class="cls-1" d="M161.22,420.52c0,2.19-6.06,4-13.55,4s-13.56-1.77-13.56-4,6.08-3.95,13.56-3.95S161.22,418.34,161.22,420.52Z"/><path class="cls-1" d="M174.65,378.94c0,2.62-7.66,4.75-17.1,4.75s-17.09-2.13-17.09-4.75,7.65-4.74,17.09-4.74S174.65,376.33,174.65,378.94Z"/><path class="cls-1" d="M179,334.3c0,3-8.74,5.4-19.51,5.4S140,337.29,140,334.3s8.74-5.42,19.53-5.42S179,331.29,179,334.3Z"/><path class="cls-1" d="M176.1,284.64c0,3.25-9.5,5.88-21.21,5.88s-21.23-2.63-21.23-5.88,9.5-5.88,21.23-5.88S176.1,281.39,176.1,284.64Z"/><path class="cls-1" d="M167.37,231.06c0,3.59-10.48,6.48-23.4,6.48s-23.4-2.89-23.4-6.48,10.48-6.49,23.4-6.49S167.37,227.48,167.37,231.06Z"/><path class="cls-1" d="M154.66,176.93c0,3.58-10.49,6.48-23.41,6.48s-23.41-2.9-23.41-6.48,10.48-6.48,23.41-6.48S154.66,173.35,154.66,176.93Z"/><path class="cls-1" d="M145,121.13c0,3.4-10,6.16-22.22,6.16s-22.24-2.76-22.24-6.16,10-6.16,22.24-6.16S145,117.73,145,121.13Z"/><path class="cls-1" d="M144,71.94c0,2.73-8,5-17.84,5s-17.86-2.22-17.86-5,8-5,17.86-5S144,69.21,144,71.94Z"/><path class="cls-1" d="M147.75,36.12c0,1.79-5.23,3.24-11.71,3.24s-11.71-1.45-11.71-3.24,5.25-3.24,11.71-3.24S147.75,34.33,147.75,36.12Z"/><path class="cls-1" d="M153.72,12.61c0,1.09-3.22,2-7.18,2s-7.18-.89-7.18-2,3.21-2,7.18-2S153.72,11.5,153.72,12.61Z"/><path class="cls-1" d="M141.62,450.93c0,1.46-3.43,2.65-7.67,2.65s-7.65-1.19-7.65-2.65,3.43-2.67,7.65-2.67S141.62,449.45,141.62,450.93Z"/><path class="cls-1" d="M131.81,469.78c0,1-2.36,1.82-5.24,1.82s-5.24-.81-5.24-1.82,2.35-1.83,5.24-1.83S131.81,468.77,131.81,469.78Z"/><path class="cls-1" d="M165.62,399.18a12.1,12.1,0,0,1-24.18,0c0-6.36,5.42-11.55,12.1-11.55A11.83,11.83,0,0,1,165.62,399.18Z"/><path class="cls-1" d="M175.19,356.93c0,7.62-7.11,13.8-15.9,13.8s-15.89-6.18-15.89-13.8,7.11-13.83,15.89-13.83S175.19,349.28,175.19,356.93Z"/><path class="cls-1" d="M174.87,310c0,8.45-7.63,15.32-17,15.32s-17-6.87-17-15.32,7.63-15.34,17-15.34S174.87,301.54,174.87,310Z"/><path class="cls-1" d="M167.11,257.79c0,9.09-7.63,16.47-17,16.47s-17-7.38-17-16.47,7.62-16.46,17-16.46S167.11,248.7,167.11,257.79Z"/><path class="cls-1" d="M157.13,203.45c0,9.73-8.86,17.62-19.8,17.62s-19.82-7.89-19.82-17.62,8.86-17.62,19.82-17.62S157.13,193.72,157.13,203.45Z"/><path class="cls-1" d="M144.63,149.22c0,9.72-8.39,17.61-18.73,17.61s-18.74-7.89-18.74-17.61,8.39-17.63,18.74-17.63S144.63,139.49,144.63,149.22Z"/><path class="cls-1" d="M138,96.59c0,8.92-6.76,16.17-15.09,16.17s-15.1-7.25-15.1-16.17,6.75-16.17,15.1-16.17S138,87.66,138,96.59Z"/><path class="cls-1" d="M141.46,53a11,11,0,1,1-11-11.38A11.19,11.19,0,0,1,141.46,53Z"/><path class="cls-1" d="M150.86,23.81c0,4.08-4.25,7.39-9.47,7.39s-9.46-3.31-9.46-7.39,4.23-7.38,9.46-7.38S150.86,19.73,150.86,23.81Z"/><path class="cls-1" d="M156.51,4.17c0,2.3-2.39,4.16-5.33,4.16s-5.34-1.86-5.34-4.16S148.24,0,151.18,0,156.51,1.87,156.51,4.17Z"/><path class="cls-1" d="M77.37,499.42c145.19,70.29,206.13-37.35,206.13-37.35s-2.44-8.22-9.73-2C216,515.38,156.69,500.68,156.69,500.68c23.79.53,36-1.66,43.44-12.46,6.73-9.73-2.51-12.76-2.51-12.76s-9.75,28.11-75.77-1.5C48.82,441.19-7.26,484.78.77,482.35,30.55,473.41,77.37,499.42,77.37,499.42Z"/></g></g></svg>