<svg xmlns="http://www.w3.org/2000/svg" viewBox="0 0 557.01 633.4"><defs><style>.cls-1{fill:#ff7500;}</style></defs><g id="Layer_2" data-name="Layer 2"><g id="Layer_1-2" data-name="Layer 1"><path class="cls-1" d="M286.3,436.68a7.18,7.18,0,1,1-7.17-7.67A7.44,7.44,0,0,1,286.3,436.68Z"/><path class="cls-1" d="M273,460.63c0,2.61-1.82,4.72-4.07,4.72s-4.05-2.11-4.05-4.72,1.82-4.72,4.05-4.72S273,458,273,460.63Z"/><path class="cls-1" d="M299.51,420.52c0,2.19-6.06,4-13.55,4s-13.56-1.77-13.56-4,6.08-3.95,13.56-3.95S299.51,418.34,299.51,420.52Z"/><path class="cls-1" d="M312.94,378.94c0,2.62-7.66,4.75-17.1,4.75s-17.09-2.13-17.09-4.75,7.65-4.74,17.09-4.74S312.94,376.33,312.94,378.94Z"/><path class="cls-1" d="M317.29,334.3c0,3-8.73,5.4-19.5,5.4s-19.53-2.41-19.53-5.4,8.74-5.42,19.53-5.42S317.29,331.29,317.29,334.3Z"/><path class="cls-1" d="M314.39,284.64c0,3.25-9.5,5.88-21.21,5.88S272,287.89,272,284.64s9.5-5.88,21.23-5.88S314.39,281.39,314.39,284.64Z"/><path class="cls-1" d="M305.66,231.06c0,3.59-10.48,6.48-23.4,6.48s-23.4-2.89-23.4-6.48,10.48-6.49,23.4-6.49S305.66,227.48,305.66,231.06Z"/><path class="cls-1" d="M293,176.93c0,3.58-10.49,6.48-23.41,6.48s-23.41-2.9-23.41-6.48,10.48-6.48,23.41-6.48S293,173.35,293,176.93Z"/><path class="cls-1" d="M283.24,121.13c0,3.4-10,6.16-22.22,6.16s-22.24-2.76-22.24-6.16S248.75,115,261,115,283.24,117.73,283.24,121.13Z"/><path class="cls-1" d="M282.26,71.94c0,2.73-8,5-17.84,5s-17.86-2.22-17.86-5,8-5,17.86-5S282.26,69.21,282.26,71.94Z"/><path class="cls-1" d="M286,36.12c0,1.79-5.23,3.24-11.71,3.24s-11.71-1.45-11.71-3.24,5.24-3.24,11.71-3.24S286,34.33,286,36.12Z"/><path class="cls-1" d="M292,12.61c0,1.09-3.22,2-7.18,2s-7.18-.89-7.18-2,3.21-2,7.18-2S292,11.5,292,12.61Z"/><path class="cls-1" d="M279.91,450.93c0,1.46-3.43,2.65-7.67,2.65s-7.65-1.19-7.65-2.65,3.43-2.67,7.65-2.67S279.91,449.45,279.91,450.93Z"/><path class="cls-1" d="M270.1,469.78c0,1-2.37,1.82-5.24,1.82s-5.24-.81-5.24-1.82S262,468,264.86,468,270.1,468.77,270.1,469.78Z"/><path class="cls-1" d="M303.91,399.18a12.1,12.1,0,0,1-24.18,0c0-6.36,5.42-11.55,12.1-11.55A11.84,11.84,0,0,1,303.91,399.18Z"/><path class="cls-1" d="M313.48,356.93c0,7.62-7.12,13.8-15.91,13.8s-15.89-6.18-15.89-13.8,7.12-13.83,15.89-13.83S313.48,349.28,313.48,356.93Z"/><path class="cls-1" d="M313.16,310c0,8.45-7.63,15.32-17,15.32s-17-6.87-17-15.32,7.63-15.34,17-15.34S313.16,301.54,313.16,310Z"/><path class="cls-1" d="M305.4,257.79c0,9.09-7.63,16.47-17,16.47s-17-7.38-17-16.47,7.62-16.46,17-16.46S305.4,248.7,305.4,257.79Z"/><path class="cls-1" d="M295.42,203.45c0,9.73-8.86,17.62-19.8,17.62s-19.82-7.89-19.82-17.62,8.86-17.62,19.82-17.62S295.42,193.72,295.42,203.45Z"/><path class="cls-1" d="M282.92,149.22c0,9.72-8.39,17.61-18.73,17.61s-18.75-7.89-18.75-17.61,8.4-17.63,18.75-17.63S282.92,139.49,282.92,149.22Z"/><path class="cls-1" d="M276.29,96.59c0,8.92-6.76,16.17-15.1,16.17s-15.09-7.25-15.09-16.17,6.75-16.17,15.09-16.17S276.29,87.66,276.29,96.59Z"/><path class="cls-1" d="M279.75,53a11,11,0,1,1-11-11.38A11.2,11.2,0,0,1,279.75,53Z"/><path class="cls-1" d="M289.15,23.81c0,4.08-4.25,7.39-9.47,7.39s-9.46-3.31-9.46-7.39,4.23-7.38,9.46-7.38S289.15,19.73,289.15,23.81Z"/><path class="cls-1" d="M294.8,4.17c0,2.3-2.39,4.16-5.33,4.16s-5.34-1.86-5.34-4.16S286.52,0,289.47,0,294.8,1.87,294.8,4.17Z"/><path class="cls-1" d="M215.66,499.42c145.19,70.29,206.13-37.35,206.13-37.35s-2.44-8.22-9.73-2C354.25,515.38,295,500.68,295,500.68c23.78.53,36-1.66,43.44-12.46,6.73-9.73-2.52-12.76-2.52-12.76s-9.74,28.11-75.76-1.5c-73-32.77-129.11,10.82-121.08,8.39C168.84,473.41,215.66,499.42,215.66,499.42Z"/><path class="cls-1" d="M64.19,619.62v0c0-5.35,4.22-9.34,9.87-9.34a10.93,10.93,0,0,1,7.49,2.71l-3.35,4a6,6,0,0,0-4-1.56,4,4,0,0,0-4,4.22v.05A4.07,4.07,0,0,0,74.49,624a3.7,3.7,0,0,0,2.05-.41v-1.79H73.47v-3.83h8.67v8.28a12.15,12.15,0,0,1-7.9,2.69C68.64,628.9,64.19,625.17,64.19,619.62Z"/><path class="cls-1" d="M83.94,610.61h6v17.91h-6Z"/><path class="cls-1" d="M98.26,610.49h5.93l7.55,18h-6.5l-.94-2.41H98l-.92,2.41H90.72Zm1.74-3.63c1.12-.08,1.89-.41,1.89-1.41,0-.08-.1-.46-.71-.44a1.55,1.55,0,0,0-1.28,1.18l-2.48-1.25c1.15-2.33,2.55-2.64,3.88-2.64,2,0,3.56,1.21,3.56,3.12a2.93,2.93,0,0,1-2.2,2.89l-.15,1H100.1Zm2.81,15-1.63-4.35-1.64,4.35Z"/><path class="cls-1" d="M112.54,610.61h6v17.91h-6Z"/><path class="cls-1" d="M127.12,610.61h8c4.76,0,8,2.13,8,6.37v0c0,4.33-3.3,6.63-8.14,6.63H133.1v4.86h-6Zm7.59,8.78c1.54,0,2.56-.67,2.56-2v0c0-1.31-.92-2-2.53-2H133.1v4Z"/><path class="cls-1" d="M144.46,610.61h6v6.32h5.48v-6.32h6v17.91h-6V622.1h-5.48v6.42h-6Z"/><path class="cls-1" d="M170.19,610.49h5.94l7.54,18h-6.5l-.94-2.41H170l-.92,2.41h-6.39Zm2.48-6.09,5.65,1.46-4.22,3.45h-3.88Zm2.07,17.47-1.63-4.35-1.64,4.35Z"/><path class="cls-1" d="M184.42,610.61h8.05c4.76,0,8,2.13,8,6.37v0c0,4.33-3.3,6.63-8.14,6.63H190.4v4.86h-6Zm7.59,8.78c1.54,0,2.56-.67,2.56-2v0c0-1.31-.92-2-2.53-2H190.4v4Z"/><path class="cls-1" d="M207.85,619.62v0a9.25,9.25,0,0,1,9.51-9.34,8.75,8.75,0,0,1,8.11,4.66l-4.94,2.89a3.46,3.46,0,0,0-3.25-2.18c-2,0-3.35,1.77-3.35,3.91v.06c0,2.32,1.39,4,3.35,4a3.64,3.64,0,0,0,3.38-2.25l4.94,2.79a9.49,9.49,0,0,1-17.75-4.45Z"/><path class="cls-1" d="M226.75,610.61h6v6.32h5.47v-6.32h6v17.91h-6V622.1h-5.47v6.42h-6Z"/><path class="cls-1" d="M245.84,619.62v0a9.48,9.48,0,0,1,9.79-9.34c5.52,0,9.74,4.07,9.74,9.28v.06a9.47,9.47,0,0,1-9.79,9.33C250.05,628.9,245.84,624.83,245.84,619.62Zm13.5,0v0a3.84,3.84,0,0,0-3.76-4.05,3.78,3.78,0,0,0-3.71,4v.06a3.83,3.83,0,0,0,3.76,4A3.78,3.78,0,0,0,259.34,619.62Z"/><path class="cls-1" d="M273.1,619.62v0a9.25,9.25,0,0,1,9.52-9.34,8.73,8.73,0,0,1,8.1,4.66l-4.93,2.89a3.46,3.46,0,0,0-3.25-2.18c-2,0-3.35,1.77-3.35,3.91v.06c0,2.32,1.38,4,3.35,4a3.65,3.65,0,0,0,3.38-2.25l4.93,2.79a9.49,9.49,0,0,1-17.75-4.45Z"/><path class="cls-1" d="M291.6,619.62v0a9.48,9.48,0,0,1,9.79-9.34c5.53,0,9.75,4.07,9.75,9.28v.06a9.48,9.48,0,0,1-9.8,9.33C295.82,628.9,291.6,624.83,291.6,619.62Zm7.67-14.68h4.2l3.4,4.4h-3.25l-2.28-1.44-2.27,1.44h-3.2Zm5.83,14.68v0a3.84,3.84,0,0,0-3.76-4.05,3.79,3.79,0,0,0-3.71,4v.06a3.83,3.83,0,0,0,3.76,4A3.78,3.78,0,0,0,305.1,619.62Zm-6,10.41h4.5v3.37h-4.5Z"/><path class="cls-1" d="M317.36,615.68h-5.27v-5.07h16.52v5.07h-5.27v12.84h-6Z"/><path class="cls-1" d="M335,625.83l3.2-3.81a10,10,0,0,0,6.27,2.1c1.1,0,1.53-.28,1.53-.77v-.05c0-.51-.56-.79-2.48-1.18-4-.82-7.54-2-7.54-5.75v0c0-3.4,2.68-6,7.59-6a12.32,12.32,0,0,1,8.08,2.46l-2.91,4a9.46,9.46,0,0,0-5.37-1.77c-.9,0-1.31.31-1.31.75v0c0,.48.46.81,2.38,1.15,4.58.82,7.65,2.2,7.65,5.78v0c0,3.76-3.1,6.06-7.9,6.06A13.68,13.68,0,0,1,335,625.83Z"/><path class="cls-1" d="M353,619.62v0a9.48,9.48,0,0,1,9.8-9.34c5.52,0,9.74,4.07,9.74,9.28v.06a9.47,9.47,0,0,1-9.79,9.33C357.26,628.9,353,624.83,353,619.62Zm7.68-14.68h4.19l3.4,4.4h-3.25l-2.27-1.44-2.28,1.44h-3.2Zm5.83,14.68v0a3.84,3.84,0,0,0-3.76-4.05,3.78,3.78,0,0,0-3.71,4v.06a3.83,3.83,0,0,0,3.76,4A3.79,3.79,0,0,0,366.55,619.62Zm2.66-18.34,5.65,1.46-4.22,3.45h-3.89Z"/><path class="cls-1" d="M374.22,610.61h5.6l6.37,7.91v-7.91h5.94v17.91h-5.32l-6.65-8.26v8.26h-5.94Z"/><path class="cls-1" d="M393.77,619.62v0c0-5.35,4.22-9.34,9.87-9.34a10.93,10.93,0,0,1,7.49,2.71l-3.35,4a6,6,0,0,0-4-1.56,4,4,0,0,0-4,4.22v.05a4.07,4.07,0,0,0,4.27,4.27,3.7,3.7,0,0,0,2.05-.41v-1.79h-3.07v-3.83h8.67v8.28a12.15,12.15,0,0,1-7.9,2.69C398.22,628.9,393.77,625.17,393.77,619.62Z"/><path class="cls-1" d="M420,610.61h6v6.71l5.09-6.71H438l-6.24,7.78,6.37,10.13H431l-3.5-5.68L426,624.71v3.81h-6Z"/><path class="cls-1" d="M438.64,610.61h6v6.32h5.47v-6.32h6v17.91h-6V622.1h-5.47v6.42h-6Z"/><path class="cls-1" d="M457.72,619.62v0a9.48,9.48,0,0,1,9.79-9.34c5.53,0,9.75,4.07,9.75,9.28v.06a9.48,9.48,0,0,1-9.8,9.33C461.94,628.9,457.72,624.83,457.72,619.62Zm8.49-12.76c1.12-.08,1.89-.41,1.89-1.41,0-.08-.1-.46-.71-.44a1.55,1.55,0,0,0-1.28,1.18l-2.48-1.25c1.15-2.33,2.55-2.64,3.88-2.64,2,0,3.56,1.21,3.56,3.12a2.93,2.93,0,0,1-2.2,2.89l-.15,1h-2.41Zm5,12.76v0a3.84,3.84,0,0,0-3.76-4.05,3.79,3.79,0,0,0-3.71,4v.06a3.83,3.83,0,0,0,3.76,4A3.78,3.78,0,0,0,471.22,619.62Z"/><path class="cls-1" d="M478.9,610.61h15.27v4.91h-9.39v1.82h8.75v4.32h-8.75v2h9.52v4.91H478.9Z"/><path class="cls-1" d="M91.29,540.37c-15.75,0-27.92,12-27.92,27.09v.15c0,15.14,12,26.94,27.77,26.94s27.92-12,27.92-27.09v-.15C119.06,552.17,107,540.37,91.29,540.37Zm10.57,27.24c0,6.08-4.09,11.58-10.57,11.58s-10.72-5.57-10.72-11.73v-.15c0-6.09,4.08-11.58,10.57-11.58s10.72,5.57,10.72,11.73Z"/><path class="cls-1" d="M251.59,540.37c-15.75,0-27.92,12-27.92,27.09v.15c0,15.14,12,26.94,27.77,26.94s27.92-12,27.92-27.09v-.15C279.36,552.17,267.33,540.37,251.59,540.37Zm10.57,27.24c0,6.08-4.09,11.58-10.57,11.58s-10.72-5.57-10.72-11.73v-.15c0-6.09,4.08-11.58,10.57-11.58s10.72,5.57,10.72,11.73Z"/><path class="cls-1" d="M437.32,567.31c0-15.14-12-26.94-27.78-26.94s-27.91,12-27.91,27.09v.15c0,15.14,12,26.94,27.77,26.94s27.92-12,27.92-27.09Zm-17.21.3c0,6.08-4.08,11.58-10.57,11.58s-10.71-5.57-10.71-11.73v-.15c0-6.09,4.08-11.58,10.57-11.58s10.71,5.57,10.71,11.73Z"/><path class="cls-1" d="M320.24,576.3c6-3.14,9.76-8.51,9.76-16.4v-.16c0-5.52-1.48-9.43-4.52-12.72-3.47-3.76-9-6.14-17.84-6.14h-24.2v53.67H300V579.22h3.54l9.34,15.33h18.89Zm-6.73-16.73c0,3.3-2.4,5.21-6.37,5.21H300v-10.5h7.22c3.89,0,6.29,1.69,6.29,5.14Z"/><path class="cls-1" d="M149.76,556c4.53,0,7.08,2.53,9,6.31l13.66-8.38c-4.18-8-11.47-13.51-22.44-13.51-14.79,0-26.32,11.58-26.32,27.09v.15c0,16.1,11.95,26.94,25.68,26.94a25.51,25.51,0,0,0,15.42-4.62c.22-.16.46-.31.67-.48a19.51,19.51,0,0,0,5.49-5.91,5.64,5.64,0,0,0,.91-3.6,1.77,1.77,0,0,0-.46-1,1.41,1.41,0,0,0-.23-.18,1.89,1.89,0,0,0-.38-.12,5.2,5.2,0,0,1-3.58-1.79c-.19-.2-.38-.4-.58-.65a10.41,10.41,0,0,1-1.21-1.84c-.08-.17-.14-.33-.2-.48a4.23,4.23,0,0,1-.22-1.26c0-.09,0-.18,0-.27s0-.21,0-.36a5.5,5.5,0,0,0,0-1.07,1.89,1.89,0,0,0-.55-1,2.3,2.3,0,0,0-.77-.55,1.89,1.89,0,0,0-1.32-.06,3.37,3.37,0,0,0-1.46,1.25c-3.08,5.09-3.8,5.52-5.43,6.86a8.77,8.77,0,0,1-5.71,1.63c-5.45,0-9.27-4.75-9.27-11.5v-.15C140.49,561.08,144.17,556,149.76,556Z"/><path class="cls-1" d="M29.37,540.85s-12.35.06-17.27,0h0c-.82,0-2.86-.26-8.86-2a3.63,3.63,0,0,0-2,0,1.87,1.87,0,0,0-1,.85,2.4,2.4,0,0,0-.26.89,1.87,1.87,0,0,0,.22,1.14,7.44,7.44,0,0,0,.93,1.06c.52.75,1.08,1.34,1.08,4a5.29,5.29,0,0,1-1.72,4.39A1.79,1.79,0,0,0,0,552.3a2.58,2.58,0,0,0,1.36,2.05A13.15,13.15,0,0,0,6,556a31.22,31.22,0,0,0,5.05.48H27l2.76,0a16.63,16.63,0,0,1,6.83,1.25c3.57,1.6,5.63,4.8,5.63,9.87v.15c0,7.75-4.82,11.13-12.46,11.13H27V558.1H10.4v36.45H28.8c20,0,30.08-11.2,30.08-27.16v-.15C58.88,551.28,49,540.85,29.37,540.85Z"/><path class="cls-1" d="M224.54,551.86a1.65,1.65,0,0,0-.5-1.12,5,5,0,0,1-1.65-4.12c0-2.45.5-3,1-3.7a7.22,7.22,0,0,0,.86-1,1.67,1.67,0,0,0,.2-1.07,2,2,0,0,0-.25-.84,1.75,1.75,0,0,0-.93-.78,2.54,2.54,0,0,0-1.32,0c-.15,0-.3.06-.47.11-.94.22-1.77.4-2.52.56a37.6,37.6,0,0,1-4.65.74l-1.25,0H175.36v15.25h14.58v38.66H206.5V555.89h6.66s.59,0,1.44,0a23.73,23.73,0,0,0,4.36-.37,13.9,13.9,0,0,0,2.59-.75C223.26,554.13,224.55,553.13,224.54,551.86Z"/><path class="cls-1" d="M556.82,551.86a2.54,2.54,0,0,0-.33-.5,5,5,0,0,1-1.41-2.22,7.39,7.39,0,0,1-.33-2.28c0-2.67.57-3.27,1.09-4a6.78,6.78,0,0,0,.94-1.09,1.92,1.92,0,0,0,.22-1.16,2.33,2.33,0,0,0-.26-.91,1.88,1.88,0,0,0-1-.87,3.23,3.23,0,0,0-1.91.07,49.45,49.45,0,0,1-8.29,1.39H532.1v24l-18.2-24h-16v54.3h17v-25l19,25h15.2v-37.9c.61-.07,1.23-.15,1.86-.27,3.05-.56,6.09-1.76,6.09-3.79A1.62,1.62,0,0,0,556.82,551.86Z"/><path class="cls-1" d="M357.27,540.5H347v0c-.09,0-2.77.35-9.89-1.63a7.57,7.57,0,0,0-3.16-.3,2.29,2.29,0,0,0-1.18,1,2.88,2.88,0,0,0-.31,1.06,2.23,2.23,0,0,0,.26,1.36,9.38,9.38,0,0,0,1.12,1.27c.63.89,1.3,1.59,1.3,4.7,0,3.59-1.64,4.78-2.07,5.24a2.09,2.09,0,0,0-.62,1.43c0,1.24,1,2.2,2.46,2.94a18.38,18.38,0,0,0,4.8,1.47l1,.16v.31h0v35.06h39.85V579.7H357.27Z"/><path class="cls-1" d="M455.94,540.42h17l21.65,53.86H476l-2.71-7.18h-18l-2.64,7.18H434.29Zm13.06,34-4.7-13-4.69,13Z"/></g></g></svg>