<svg xmlns="http://www.w3.org/2000/svg" viewBox="0 0 557.01 56.09"><defs><style>.cls-1{fill:#ff7500;}</style></defs><g id="Layer_2" data-name="Layer 2"><g id="Layer_1-2" data-name="Layer 1"><path class="cls-1" d="M91.29,1.91c-15.75,0-27.92,12-27.92,27.09v.15c0,15.14,12,26.94,27.77,26.94s27.92-12,27.92-27.09v-.15C119.06,13.71,107,1.91,91.29,1.91Zm10.57,27.24c0,6.08-4.09,11.58-10.57,11.58S80.57,35.16,80.57,29v-.15c0-6.09,4.08-11.58,10.57-11.58S101.86,22.84,101.86,29Z"/><path class="cls-1" d="M251.59,1.91c-15.75,0-27.92,12-27.92,27.09v.15c0,15.14,12,26.94,27.77,26.94s27.92-12,27.92-27.09v-.15C279.36,13.71,267.33,1.91,251.59,1.91Zm10.57,27.24c0,6.08-4.09,11.58-10.57,11.58S240.87,35.16,240.87,29v-.15c0-6.09,4.08-11.58,10.57-11.58S262.16,22.84,262.16,29Z"/><path class="cls-1" d="M437.32,28.85c0-15.14-12-26.94-27.78-26.94s-27.91,12-27.91,27.09v.15c0,15.14,12,26.94,27.77,26.94s27.92-12,27.92-27.09Zm-17.21.3c0,6.08-4.08,11.58-10.57,11.58S398.83,35.16,398.83,29v-.15c0-6.09,4.08-11.58,10.57-11.58S420.11,22.84,420.11,29Z"/><path class="cls-1" d="M320.24,37.84c6-3.14,9.76-8.51,9.76-16.4v-.16c0-5.51-1.48-9.43-4.52-12.72-3.47-3.76-9-6.13-17.84-6.13h-24.2V56.09H300V40.76h3.54l9.34,15.33h18.89Zm-6.73-16.73c0,3.3-2.4,5.21-6.37,5.21H300V15.82h7.22c3.89,0,6.29,1.69,6.29,5.14Z"/><path class="cls-1" d="M149.76,17.5c4.53,0,7.08,2.52,9,6.3l13.66-8.38C168.23,7.48,160.94,1.91,150,1.91c-14.79,0-26.32,11.58-26.32,27.09v.15c0,16.1,11.95,26.94,25.68,26.94a25.51,25.51,0,0,0,15.42-4.62c.22-.16.46-.31.67-.47a19.64,19.64,0,0,0,5.49-5.92,5.64,5.64,0,0,0,.91-3.6,1.71,1.71,0,0,0-.46-1,1,1,0,0,0-.23-.18,1.88,1.88,0,0,0-.38-.13,5.2,5.2,0,0,1-3.58-1.79c-.19-.2-.38-.4-.58-.65a10.41,10.41,0,0,1-1.21-1.84c-.08-.17-.14-.33-.2-.48a4.23,4.23,0,0,1-.22-1.26c0-.08,0-.18,0-.27s0-.21,0-.36a5.48,5.48,0,0,0,0-1.07,1.92,1.92,0,0,0-.55-1.05,2.63,2.63,0,0,0-.77-.55,1.89,1.89,0,0,0-1.32-.06A3.37,3.37,0,0,0,160.9,32c-3.08,5.09-3.8,5.52-5.43,6.86a8.77,8.77,0,0,1-5.71,1.63c-5.45,0-9.27-4.75-9.27-11.5v-.15C140.49,22.62,144.17,17.5,149.76,17.5Z"/><path class="cls-1" d="M29.37,2.39S17,2.45,12.1,2.36h0c-.82,0-2.86-.25-8.86-2a3.63,3.63,0,0,0-2,0,1.91,1.91,0,0,0-1,.85A2.46,2.46,0,0,0,0,2.09,1.87,1.87,0,0,0,.23,3.23,8.2,8.2,0,0,0,1.16,4.3C1.68,5,2.24,5.63,2.24,8.24A5.29,5.29,0,0,1,.52,12.63,1.79,1.79,0,0,0,0,13.84a2.58,2.58,0,0,0,1.36,2.05A13,13,0,0,0,6,17.54a31.22,31.22,0,0,0,5.05.48H27l2.76,0a16.63,16.63,0,0,1,6.83,1.25c3.57,1.61,5.63,4.8,5.63,9.87v.16c0,7.75-4.82,11.12-12.46,11.12H27V19.64H10.4V56.09H28.8c20,0,30.08-11.2,30.08-27.16v-.15C58.88,12.82,49,2.39,29.37,2.39Z"/><path class="cls-1" d="M224.54,13.4a1.65,1.65,0,0,0-.5-1.12,5,5,0,0,1-1.65-4.12c0-2.44.5-3,1-3.7a7.22,7.22,0,0,0,.86-1,1.67,1.67,0,0,0,.2-1.07,2,2,0,0,0-.25-.84,1.75,1.75,0,0,0-.93-.78,2.54,2.54,0,0,0-1.32,0c-.15,0-.3.06-.47.11-.94.22-1.77.41-2.52.56a37.6,37.6,0,0,1-4.65.74l-1.25,0H175.36V17.43h14.58V56.09H206.5V17.43h6.66s.59,0,1.44,0A23.73,23.73,0,0,0,219,17.1a13.9,13.9,0,0,0,2.59-.75C223.26,15.67,224.55,14.67,224.54,13.4Z"/><path class="cls-1" d="M556.82,13.4a2.87,2.87,0,0,0-.33-.5,5,5,0,0,1-1.41-2.21,7.46,7.46,0,0,1-.33-2.29c0-2.67.57-3.27,1.09-4a7.38,7.38,0,0,0,.94-1.1A1.92,1.92,0,0,0,557,2.11a2.33,2.33,0,0,0-.26-.91,1.88,1.88,0,0,0-1-.87,3.32,3.32,0,0,0-1.91.07,51.25,51.25,0,0,1-8.29,1.4H532.1v24l-18.2-24h-16V56.09h17V31l19,25.05h15.2V18.19q.91-.09,1.86-.27c3.05-.56,6.09-1.76,6.09-3.78A1.63,1.63,0,0,0,556.82,13.4Z"/><path class="cls-1" d="M357.27,2.05H347V2c-.09,0-2.77.35-9.89-1.63A7.74,7.74,0,0,0,334,.08a2.29,2.29,0,0,0-1.18,1,2.88,2.88,0,0,0-.31,1.06,2.22,2.22,0,0,0,.26,1.36,9.38,9.38,0,0,0,1.12,1.27c.63.89,1.3,1.59,1.3,4.7,0,3.59-1.64,4.78-2.07,5.24a2.09,2.09,0,0,0-.62,1.43c0,1.24,1,2.2,2.46,2.94a18,18,0,0,0,4.8,1.47l1,.16V21h0V56.09h39.85V41.25H357.27Z"/><path class="cls-1" d="M455.94,2h17l21.65,53.86H476l-2.71-7.18h-18l-2.64,7.18H434.29ZM469,36l-4.7-13-4.69,13Z"/></g></g></svg>