<svg width="506" height="341" viewBox="0 0 506 341" fill="none" xmlns="http://www.w3.org/2000/svg">
<path d="M472.249 340.299C479.049 318.299 482.449 295.399 482.449 272.399C482.449 145.599 379.649 42.7988 252.849 42.7988C126.049 42.7988 23.1494 145.599 23.1494 272.399C23.1494 295.399 26.5494 318.299 33.3494 340.299H472.249Z" fill="#FF7500"/>
<path d="M236.85 164.699C236.55 164.899 236.15 164.999 235.85 165.199C235.15 165.599 234.25 165.799 233.45 165.699C232.65 165.599 231.85 165.299 231.15 164.699C230.45 164.099 229.95 163.399 229.75 162.499C229.55 161.599 229.65 160.699 229.95 159.899C230.05 159.599 230.25 159.199 230.45 158.699C230.15 158.799 229.85 158.899 229.55 158.999C228.85 159.399 228.05 159.599 227.35 159.499C226.55 159.399 225.85 159.199 225.15 158.699C224.45 158.199 223.95 157.399 223.75 156.599C223.55 155.799 223.55 154.899 223.85 153.999C224.15 153.099 224.85 152.299 225.65 151.799C226.55 151.299 227.55 151.099 228.45 151.299C229.15 151.499 229.75 151.699 230.35 151.999C230.15 151.399 229.95 150.899 229.75 150.299C229.55 149.699 229.55 148.999 229.75 148.399C229.95 147.799 230.15 147.299 230.45 146.599C229.85 146.999 229.25 147.199 228.55 147.299C227.85 147.399 227.15 147.299 226.45 147.099C225.65 146.799 224.95 146.299 224.45 145.599C223.95 144.799 223.65 143.899 223.65 142.999C223.65 142.099 224.05 141.199 224.65 140.399C225.95 138.799 227.95 138.599 230.45 139.699C229.55 137.599 229.25 135.599 231.15 133.899C232.75 132.499 234.45 132.699 236.35 133.299C236.65 132.899 236.25 132.599 236.15 132.299C235.85 131.399 235.85 130.499 236.05 129.699C236.15 129.199 236.45 128.699 236.85 128.199C237.25 127.799 237.65 127.399 238.15 127.099C238.65 126.799 239.15 126.699 239.75 126.599C240.35 126.599 240.85 126.599 241.45 126.799C241.95 126.999 242.45 127.199 242.95 127.399L243.65 127.999C243.75 128.199 243.75 128.399 243.85 128.599C244.15 129.199 244.35 129.799 244.35 130.499C244.35 131.199 244.25 131.799 244.05 132.499C243.95 132.699 243.95 132.899 243.85 133.099C244.65 132.799 245.45 132.599 246.25 132.599C247.05 132.599 247.85 132.799 248.65 133.099C248.45 132.599 248.35 131.999 248.25 131.499C248.05 130.299 248.35 129.099 249.05 128.199L249.65 127.499C250.65 126.999 251.65 126.699 252.75 126.699C253.75 126.799 254.65 127.199 255.35 127.899C256.05 128.599 256.45 129.499 256.55 130.499C256.55 131.499 256.35 132.499 255.95 133.399C258.05 132.699 259.95 132.399 261.55 134.099C263.15 135.799 262.85 137.699 261.95 139.599C264.65 138.499 266.55 138.799 267.85 140.399C268.45 141.199 268.75 142.099 268.75 143.099C268.75 144.099 268.45 144.999 267.85 145.799C266.65 147.399 264.75 147.699 261.85 146.599C262.45 147.399 262.75 148.299 262.75 149.299C262.75 150.299 262.45 151.199 261.85 151.999C262.15 151.899 262.35 151.799 262.65 151.699C263.35 151.299 264.05 151.099 264.85 151.199C265.65 151.199 266.35 151.499 266.95 151.899C267.45 152.199 267.95 152.699 268.25 153.199C268.55 153.699 268.75 154.299 268.85 154.899C268.95 155.599 268.85 156.299 268.55 156.999C268.25 157.699 267.85 158.199 267.25 158.699C266.65 159.099 266.05 159.399 265.35 159.499C264.65 159.599 263.95 159.499 263.25 159.299C262.85 159.199 262.55 158.999 261.95 158.699C262.05 159.099 262.15 159.299 262.25 159.499C262.65 160.299 262.85 161.099 262.75 161.999C262.65 162.899 262.25 163.699 261.65 164.299C261.05 164.899 260.25 165.399 259.45 165.599C258.65 165.799 257.75 165.699 256.95 165.299L255.65 164.699L255.45 164.499C255.35 164.199 255.25 163.999 255.05 163.699C254.65 163.099 254.45 162.299 254.45 161.599C254.45 160.799 254.65 160.099 255.05 159.399C255.15 159.199 255.25 158.999 255.25 158.799C254.55 159.299 253.65 159.699 252.75 159.699C251.85 159.799 250.95 159.499 250.15 159.099C250.35 159.699 250.55 160.299 250.55 160.799C250.65 161.399 250.65 162.099 250.45 162.699C250.25 163.299 249.95 163.899 249.55 164.399L249.35 164.599C248.55 165.199 247.55 165.599 246.55 165.599C245.45 165.599 244.35 165.299 243.45 164.599L243.25 164.399C242.65 163.599 242.35 162.699 242.25 161.699C242.15 160.699 242.35 159.799 242.85 158.899C242.05 159.399 241.15 159.699 240.15 159.599C239.25 159.599 238.25 159.299 237.55 158.699C237.65 158.899 237.75 159.099 237.85 159.299C238.25 159.999 238.45 160.699 238.45 161.499C238.45 162.299 238.25 162.999 237.85 163.599C237.75 163.799 237.65 164.099 237.45 164.399L236.85 164.699ZM236.35 152.999C233.75 153.799 234.15 153.899 231.25 152.899C232.05 155.399 232.25 154.899 231.25 157.999C234.35 157.099 233.95 157.199 236.45 157.999C235.95 157.299 235.65 156.399 235.65 155.499C235.65 154.599 235.85 153.699 236.35 152.999ZM260.95 152.899C260.15 153.299 259.35 153.599 258.45 153.599C257.55 153.599 256.75 153.399 255.95 153.099C256.45 153.899 256.65 154.699 256.55 155.599C256.55 156.499 256.25 157.299 255.75 158.099C258.05 157.299 257.65 156.999 260.95 158.099C259.95 154.899 260.05 155.399 260.95 152.899ZM231.25 140.599C231.75 141.399 231.95 142.299 231.95 143.199C231.95 144.099 231.65 144.999 231.25 145.799C232.05 145.299 232.95 144.999 233.85 144.999C234.75 144.999 235.65 145.299 236.45 145.799C235.95 144.999 235.65 144.199 235.65 143.299C235.65 142.399 235.85 141.499 236.35 140.699C235.55 141.099 234.65 141.299 233.75 141.299C232.95 141.199 232.05 140.999 231.25 140.599ZM260.95 145.699C260.45 144.899 260.25 143.899 260.25 142.999C260.25 141.999 260.55 141.099 261.15 140.299C260.35 140.799 259.45 141.099 258.55 141.099C257.65 141.099 256.65 140.999 255.85 140.499C256.35 141.299 256.55 142.199 256.55 143.099C256.55 143.999 256.25 144.899 255.85 145.699C256.65 145.199 257.45 144.899 258.35 144.899C259.25 144.999 260.15 145.199 260.95 145.699ZM237.45 134.499C237.85 135.199 238.05 136.099 238.05 136.899C238.05 137.699 237.85 138.599 237.55 139.299C238.25 139.099 239.05 138.899 239.85 138.799C240.65 138.799 241.45 138.999 242.25 139.099C241.85 138.399 241.75 137.599 241.75 136.799C241.75 135.999 241.95 135.199 242.35 134.599C241.55 134.899 240.75 135.099 239.85 135.099C239.05 135.099 238.25 134.899 237.45 134.499ZM249.85 134.499C250.35 135.999 250.75 135.799 250.15 139.099C250.85 138.899 251.65 138.799 252.35 138.799C253.15 138.899 253.95 139.099 254.65 139.299C254.35 138.499 254.15 137.699 254.15 136.899C254.15 136.099 254.35 135.299 254.65 134.499C253.85 134.899 253.05 135.099 252.25 135.099C251.35 135.099 250.55 134.899 249.85 134.499ZM243.85 153.199C244.25 153.899 244.35 154.799 244.35 155.599C244.35 156.399 244.05 157.199 243.65 157.899C244.35 157.499 245.15 157.299 246.05 157.199C246.85 157.199 247.75 157.299 248.45 157.699C248.15 156.999 248.05 156.199 247.95 155.399C247.95 154.699 248.15 153.899 248.25 153.199C246.85 153.799 245.25 153.799 243.85 153.199ZM237.45 151.699C238.15 151.299 239.05 150.999 239.85 150.999C240.65 150.999 241.55 151.199 242.25 151.599C241.95 150.899 241.75 150.099 241.65 149.299C241.55 148.499 241.75 147.699 242.05 146.999C241.35 147.399 240.55 147.599 239.75 147.599C238.95 147.599 238.15 147.399 237.45 146.999C237.85 147.699 238.05 148.599 238.05 149.399C238.05 150.199 237.85 150.999 237.45 151.699ZM250.05 151.599C250.85 151.199 251.65 151.099 252.45 151.099C253.25 151.099 254.15 151.399 254.85 151.799C254.35 151.099 254.15 150.199 254.15 149.299C254.15 148.399 254.45 147.499 254.85 146.799C254.15 147.199 253.35 147.499 252.45 147.499C251.65 147.499 250.75 147.399 250.05 146.999C250.35 147.699 250.55 148.499 250.55 149.299C250.45 150.099 250.35 150.799 250.05 151.599ZM248.45 140.799C247.75 141.199 246.95 141.399 246.15 141.399C245.35 141.399 244.55 141.199 243.85 140.799C244.25 141.499 244.45 142.299 244.45 143.099C244.45 143.899 244.25 144.699 243.95 145.399C244.65 145.099 245.45 144.899 246.25 144.899C247.05 144.899 247.85 145.099 248.55 145.399C248.15 144.699 247.95 143.899 247.95 143.199C247.85 142.299 248.05 141.499 248.45 140.799Z" fill="#EDCEB2"/>
<path d="M81.2496 203.599C81.4496 203.899 81.5496 203.999 81.6496 204.199C81.7496 204.399 81.3496 204.599 81.2496 204.499C81.0496 204.399 80.9496 204.199 80.8496 203.999C80.8496 203.999 81.1496 203.899 81.2496 203.599Z" fill="#EDCEB2"/>
<path d="M368.15 271.899C367.95 271.699 367.75 271.499 367.85 271.399C367.85 271.299 368.15 271.099 368.25 270.999C368.35 271.099 368.65 271.299 368.55 271.399C368.55 271.399 368.35 271.699 368.15 271.899Z" fill="#EDCEB2"/>
<path d="M410.85 204.798C410.65 204.498 410.55 204.298 410.55 204.198C410.55 203.998 410.85 203.898 410.95 203.898C411.05 203.998 411.15 203.998 411.15 204.098C411.25 204.198 411.25 204.298 411.25 204.398C411.35 204.398 411.15 204.498 410.85 204.798Z" fill="#EDCEB2"/>
<path d="M234.449 320.199C234.249 320.399 234.049 320.599 233.949 320.599C233.749 320.499 233.549 320.399 233.449 320.199C233.449 320.099 233.649 319.799 233.749 319.799C233.949 319.799 234.149 319.999 234.449 320.199Z" fill="#EDCEB2"/>
<path d="M245.55 320.199C245.75 319.999 245.95 319.699 246.05 319.799C246.15 319.799 246.25 319.899 246.35 319.899C246.45 319.999 246.45 319.999 246.55 320.099C246.55 320.199 246.35 320.499 246.25 320.499C246.05 320.599 245.85 320.399 245.55 320.199Z" fill="#EDCEB2"/>
<path d="M258.85 320.299C258.55 320.399 258.35 320.599 258.15 320.599C257.95 320.599 257.85 320.299 257.85 320.199C257.85 320.099 257.85 320.099 257.85 319.999C257.85 319.899 257.95 319.899 257.95 319.899C257.95 319.899 258.05 319.799 258.15 319.799C258.25 319.799 258.25 319.799 258.35 319.799C258.55 319.799 258.65 319.999 258.85 320.299Z" fill="#EDCEB2"/>
<path d="M87.9492 75.8987C87.7492 76.0987 87.5492 76.3986 87.4492 76.2986C87.3492 76.2986 87.2492 76.1986 87.1492 76.1986C87.0492 76.0986 86.9492 76.0986 86.9492 75.9986C86.9492 75.8986 87.1492 75.5986 87.2492 75.5986C87.4492 75.5986 87.6492 75.7987 87.9492 75.8987Z" fill="#EDCEB2"/>
<path d="M75.7498 112.599C75.4498 112.799 75.3498 112.999 75.1498 112.999C74.9498 112.999 74.7498 112.699 74.8498 112.599C74.9498 112.399 75.1498 112.299 75.3498 112.199C75.3498 112.199 75.5498 112.499 75.7498 112.599Z" fill="#EDCEB2"/>
<path d="M417.65 112.699C417.35 112.899 417.15 112.999 417.05 112.999C416.95 112.999 416.75 112.699 416.75 112.599C416.75 112.499 416.75 112.499 416.75 112.399C416.75 112.299 416.85 112.299 416.85 112.299C416.85 112.299 416.95 112.199 417.05 112.199C417.15 112.199 417.15 112.199 417.25 112.199C417.25 112.299 417.35 112.499 417.65 112.699Z" fill="#EDCEB2"/>
<path d="M166.65 301.299C166.85 301.499 167.05 301.699 167.05 301.899C167.05 302.099 166.85 302.199 166.75 302.299C166.55 302.199 166.35 301.999 166.25 301.899C166.25 301.699 166.55 301.599 166.65 301.299Z" fill="#EDCEB2"/>
<path d="M325.45 302.398C325.25 302.198 325.05 301.998 325.05 301.898C325.15 301.698 325.25 301.498 325.45 301.398C325.55 301.398 325.85 301.598 325.85 301.698C325.85 301.898 325.65 302.198 325.45 302.398Z" fill="#EDCEB2"/>
<path d="M93.5498 228.099C93.7498 228.399 93.8497 228.499 93.9497 228.699C93.9497 228.899 93.6498 229.099 93.5498 228.999C93.3498 228.899 93.2497 228.699 93.1497 228.499C93.0497 228.399 93.3498 228.299 93.5498 228.099Z" fill="#EDCEB2"/>
<path d="M373.649 265.398C373.849 265.198 374.149 264.998 374.449 264.898C374.549 264.898 374.649 265.098 374.749 265.198C374.549 265.398 374.449 265.498 374.249 265.698C374.049 265.598 373.949 265.498 373.649 265.398Z" fill="#EDCEB2"/>
<path d="M124.25 271.399C124.15 271.399 124.05 271.499 123.95 271.499C123.95 271.499 123.95 271.399 123.85 271.299L124.15 271.199L124.25 271.399Z" fill="#EDCEB2"/>
<path d="M117.75 265.299L117.85 265.099C117.95 265.099 118.05 265.199 118.05 265.299L117.95 265.499L117.75 265.299Z" fill="#EDCEB2"/>
<path d="M362.049 277.199L362.249 277.299L362.049 277.499L361.949 277.399L362.049 277.199Z" fill="#EDCEB2"/>
<path d="M168.05 275.099C159.45 274.199 149.25 260.199 145.45 253.399C141.95 246.699 139.95 239.299 139.75 231.699C139.55 224.099 141.15 216.599 144.35 209.699C150.75 196.499 159.25 186.099 161.25 170.899C162.85 158.799 157.85 147.799 151.75 137.799C140.35 118.799 127.75 95.6988 137.65 73.6988C141.05 66.0988 144.75 60.1988 144.35 51.3988C143.85 40.7988 138.35 31.1988 137.85 20.5988C137.25 6.99877 148.75 -2.30124 162.45 0.498763C174.15 2.89876 184.65 15.8988 187.45 27.0988C190.75 40.3988 188.45 54.4988 192.25 67.8988C196.45 82.9988 207.45 87.2988 217.55 97.5988C237.05 117.299 237.55 147.799 227.95 171.899C222.25 186.199 223.35 194.399 228.25 208.399C232.05 219.099 236.65 231.099 236.15 242.599C235.45 258.199 219.75 275.199 204.95 278.399C195.55 280.399 179.15 281.399 168.05 275.099Z" fill="#FFE2B7"/>
<path d="M191.05 275.999C190.95 275.999 190.85 275.999 190.85 275.899C190.75 275.899 190.75 275.799 190.65 275.699C183.95 266.299 181.85 250.899 180.75 236.999C179.35 219.699 181.95 201.799 189.15 180.699C191.75 173.099 194.45 164.099 195.15 154.999C196.05 143.099 192.95 134.599 188.15 123.099C185.95 117.699 183.15 112.199 180.55 106.899C173.95 93.6992 167.25 79.9992 166.45 64.8992C166.35 60.4992 166.45 56.0992 166.85 51.6992C167.45 45.9992 167.45 40.2992 166.85 34.5992C165.75 25.9992 162.65 17.7992 157.85 10.5992C157.85 10.4992 157.75 10.4992 157.75 10.3992C157.75 10.2992 157.75 10.2992 157.75 10.1992C157.75 10.0992 157.75 10.0992 157.85 9.99921C157.95 9.89921 157.95 9.89922 157.95 9.79922C157.95 9.69922 158.05 9.69922 158.15 9.69922C158.25 9.69922 158.25 9.69922 158.35 9.69922C158.45 9.69922 158.45 9.69922 158.55 9.79922C158.65 9.79922 158.65 9.89921 158.65 9.99921C163.55 17.2992 166.65 25.5992 167.85 34.2992C168.45 40.0992 168.45 45.7992 167.85 51.5992C167.45 55.8992 167.35 60.2992 167.45 64.5992C168.15 79.3992 174.85 92.9992 181.45 106.099C184.05 111.399 186.75 116.899 189.05 122.299C193.85 133.999 197.05 142.599 196.15 154.699C195.45 163.799 192.75 172.899 190.15 180.599C182.95 201.499 180.35 219.299 181.75 236.499C182.95 250.299 184.95 265.499 191.45 274.699C191.55 274.799 191.55 274.899 191.55 275.099C191.55 275.199 191.45 275.399 191.35 275.399C191.25 275.799 191.15 275.899 191.05 275.999Z" fill="#F59300"/>
<path d="M166.549 218.099C161.349 216.599 152.549 212.199 148.949 207.899C146.049 204.399 145.749 199.999 143.749 196.099C141.349 191.299 137.949 188.799 133.849 185.599C126.449 179.999 120.949 172.199 118.149 163.299C116.749 159.399 115.949 155.399 113.449 151.899C109.949 147.199 104.649 144.599 101.949 139.299C100.249 136.099 100.349 132.999 99.4493 129.599C98.0493 124.499 95.0493 120.699 91.9493 116.499C88.4493 111.699 85.4493 106.699 84.4493 100.699C83.8493 97.299 84.4493 94.499 83.1493 91.099C80.8493 84.999 75.9493 79.999 72.7493 74.399C69.9493 69.499 70.7493 67.099 70.0493 61.999C68.5493 52.299 57.5493 47.099 55.1493 37.299C53.9493 32.499 52.8493 24.499 59.9493 26.799C67.8493 29.299 70.1493 40.599 74.0493 46.599C78.1493 52.799 83.5493 55.499 86.0493 63.099C89.0493 72.199 94.3493 72.499 101.249 78.599C108.049 84.699 108.449 93.999 113.549 101.099C117.049 105.899 122.149 109.099 125.449 113.999C128.749 118.799 127.049 121.599 128.149 126.599C129.849 134.499 140.249 136.899 142.649 144.399C143.749 147.799 142.549 151.499 144.249 154.899C146.549 159.599 152.249 162.199 156.049 165.599C160.449 169.499 160.049 171.999 161.949 176.799C163.349 180.299 165.449 180.999 168.149 183.599C173.749 188.799 177.349 198.299 178.549 205.699C179.549 212.199 175.949 222.999 166.549 218.099Z" fill="#FCEDC6"/>
<path d="M129.549 188.199C128.949 177.999 120.249 166.399 116.049 159.199C114.249 156.299 110.049 146.999 105.549 146.799C100.749 146.599 101.949 153.399 99.5491 155.499C96.7491 148.399 92.0491 141.799 88.3491 134.999C83.7491 126.499 79.9491 117.499 73.8491 109.999C62.4491 96.0991 65.6491 115.899 65.8491 122.799C62.5491 119.499 61.1491 114.099 58.9491 109.999C53.5491 100.099 47.4491 90.5991 40.6491 81.6991C37.1491 77.0991 31.3491 68.4991 24.3491 69.4991C16.7491 70.5991 18.9491 81.9991 20.8491 87.2991C24.7491 98.0991 33.7491 108.699 40.5491 117.599C43.2491 121.299 46.3491 124.799 49.7491 127.999C45.9491 127.899 39.7491 124.599 36.1491 125.999C31.1491 127.999 33.0491 134.899 35.5491 138.499C41.2491 146.599 55.8491 150.899 63.3491 155.099C58.1491 155.399 42.4491 153.399 49.5491 162.599C55.3491 170.099 67.9491 172.099 75.5491 176.899C71.9491 177.699 64.5491 176.599 62.1491 180.599C59.0491 185.799 65.5491 191.299 69.0491 193.999C80.3491 202.499 93.1491 208.499 107.549 207.499C114.449 206.999 122.349 203.899 126.749 198.399C128.849 195.299 129.849 191.699 129.549 188.199Z" fill="#FFE2B7"/>
<path d="M122.35 202.698C122.25 202.698 122.15 202.698 122.05 202.598C102.55 186.698 78.05 154.198 61.05 129.598C42.55 103.098 28.45 79.9984 28.35 79.6984C28.35 79.5984 28.25 79.5984 28.25 79.4984C28.25 79.3984 28.25 79.3984 28.25 79.2984C28.25 79.1984 28.25 79.1984 28.35 79.0984C28.35 78.9984 28.45 78.9984 28.45 78.9984C28.55 78.9984 28.55 78.8984 28.65 78.8984C28.75 78.8984 28.75 78.8984 28.85 78.8984C28.95 78.8984 28.95 78.8984 29.05 78.9984C29.15 78.9984 29.15 79.0984 29.15 79.0984C29.25 79.2984 43.35 102.398 61.85 128.898C78.85 153.398 103.25 185.798 122.65 201.598C122.75 201.698 122.85 201.798 122.85 201.898C122.85 201.998 122.85 202.198 122.75 202.298C122.75 202.398 122.65 202.398 122.55 202.398C122.45 202.598 122.45 202.698 122.35 202.698Z" fill="#F59300"/>
<path d="M337.45 275.099C346.05 274.199 356.25 260.199 360.05 253.399C363.55 246.699 365.55 239.299 365.75 231.699C365.95 224.099 364.35 216.599 361.15 209.699C354.85 196.499 346.25 186.099 344.25 170.899C342.65 158.799 347.65 147.799 353.65 137.799C365.15 118.799 377.65 95.6988 367.75 73.6988C364.35 66.0988 360.65 60.1988 361.05 51.3988C361.55 40.7988 367.15 31.1988 367.55 20.5988C368.15 6.99877 356.65 -2.30124 342.95 0.498763C331.25 2.89876 320.75 15.8988 317.95 27.0988C314.65 40.3988 316.95 54.4988 313.15 67.8988C308.85 82.9988 297.95 87.2988 287.75 97.5988C268.25 117.299 267.75 147.799 277.35 171.899C283.05 186.199 281.95 194.399 277.05 208.399C273.25 219.099 268.65 231.099 269.15 242.599C269.85 258.199 285.55 275.199 300.35 278.399C309.95 280.399 326.35 281.399 337.45 275.099Z" fill="#FFE2B7"/>
<path d="M314.45 275.999C314.35 275.999 314.25 275.999 314.15 275.899C314.05 275.899 314.05 275.799 314.05 275.799C314.05 275.699 313.95 275.699 313.95 275.599C313.95 275.499 313.95 275.499 313.95 275.399C313.95 275.299 313.95 275.299 314.05 275.199C320.55 266.099 322.65 250.799 323.75 236.999C325.15 219.799 322.55 201.999 315.35 181.099C312.75 173.399 309.95 164.299 309.25 155.199C308.35 143.099 311.45 134.499 316.35 122.799C318.65 117.399 321.35 111.899 323.95 106.599C330.45 93.3988 337.15 79.8988 337.95 65.0988C338.05 60.7988 337.95 56.3988 337.55 52.0988C336.95 46.2988 336.95 40.5988 337.55 34.7988C338.65 26.0988 341.85 17.7988 346.75 10.4988C346.75 10.3988 346.85 10.3988 346.85 10.3988C346.95 10.3988 346.95 10.2988 347.05 10.2988C347.15 10.2988 347.15 10.2988 347.25 10.2988C347.35 10.2988 347.35 10.2988 347.45 10.3988C347.55 10.3988 347.55 10.4988 347.55 10.4988C347.55 10.5988 347.65 10.5988 347.65 10.6988C347.65 10.7988 347.65 10.7988 347.65 10.8988C347.65 10.9988 347.65 10.9988 347.55 11.0988C342.75 18.2988 339.65 26.4988 338.55 35.0988C337.95 40.7988 337.95 46.4988 338.55 52.1988C338.95 56.5988 339.05 60.9988 338.95 65.3988C338.25 80.3988 331.45 94.0988 324.85 107.399C322.25 112.699 319.55 118.199 317.25 123.599C312.45 135.199 309.35 143.699 310.25 155.499C310.85 164.499 313.65 173.499 316.25 181.199C323.45 202.299 326.15 220.199 324.65 237.499C323.45 251.399 321.45 266.899 314.75 276.199C314.65 275.999 314.55 275.999 314.45 275.999Z" fill="#F59300"/>
<path d="M338.95 218.098C344.15 216.598 352.95 212.198 356.55 207.898C359.35 204.398 359.75 199.998 361.75 196.098C364.15 191.298 367.55 188.798 371.65 185.598C379.05 179.998 384.55 172.198 387.35 163.298C388.75 159.398 389.55 155.398 392.05 151.898C395.55 147.198 400.85 144.598 403.55 139.298C405.25 136.098 405.15 132.998 406.05 129.598C407.45 124.498 410.45 120.698 413.55 116.498C417.05 111.698 420.05 106.698 421.05 100.698C421.65 97.2984 421.05 94.4984 422.35 91.0984C424.65 84.9984 429.55 79.9984 432.75 74.3984C435.55 69.4984 434.75 67.0984 435.45 61.9984C436.95 52.1984 447.95 47.0984 450.45 37.1984C451.65 32.3984 452.75 24.3984 445.65 26.6984C437.75 29.1984 435.45 40.4984 431.55 46.4984C427.45 52.6984 422.05 55.3984 419.55 62.9984C416.55 72.0984 411.25 72.3984 404.35 78.4984C397.55 84.5984 397.15 93.8984 392.05 100.998C388.55 105.798 383.45 108.998 380.15 113.898C376.85 118.698 378.55 121.498 377.45 126.498C375.75 134.398 365.35 136.798 362.95 144.298C361.85 147.698 363.05 151.398 361.35 154.798C359.05 159.498 353.35 162.098 349.55 165.498C345.15 169.398 345.55 171.898 343.65 176.698C342.25 180.198 340.15 180.898 337.45 183.498C331.85 188.698 328.25 198.198 326.95 205.598C325.95 212.198 329.55 222.998 338.95 218.098Z" fill="#FCEDC6"/>
<path d="M375.95 188.199C376.55 177.999 385.25 166.399 389.45 159.199C391.25 156.299 395.45 146.999 399.95 146.799C404.75 146.599 403.65 153.399 405.95 155.499C408.75 148.399 413.45 141.799 417.15 134.999C421.75 126.499 425.55 117.499 431.65 109.999C443.05 96.0991 439.85 115.899 439.65 122.799C442.95 119.499 444.35 114.099 446.55 109.999C451.95 100.099 458.05 90.5991 464.85 81.6991C468.35 77.0991 474.15 68.4991 481.15 69.4991C488.75 70.5991 486.55 81.9991 484.65 87.2991C480.75 98.0991 471.75 108.699 464.95 117.599C462.25 121.299 459.15 124.799 455.75 127.999C459.55 127.899 465.75 124.599 469.35 125.999C474.35 127.999 472.45 134.899 469.95 138.499C464.25 146.599 449.65 150.899 442.15 155.099C447.35 155.399 463.05 153.399 455.95 162.599C450.15 170.099 437.55 172.099 429.95 176.899C433.55 177.699 440.95 176.599 443.35 180.599C446.45 185.799 439.95 191.299 436.45 193.999C425.15 202.499 412.35 208.499 397.95 207.499C391.05 206.999 383.15 203.899 378.75 198.399C376.65 195.299 375.65 191.699 375.95 188.199Z" fill="#FFE2B7"/>
<path d="M383.149 202.699C383.049 202.699 383.049 202.699 382.949 202.699C382.849 202.699 382.849 202.599 382.749 202.599C382.649 202.499 382.649 202.399 382.649 202.199C382.649 202.099 382.749 201.899 382.849 201.899C402.249 186.099 426.649 153.599 443.649 129.199C462.149 102.699 476.249 79.5992 476.349 79.3992C476.349 79.2992 476.449 79.2992 476.449 79.2992C476.549 79.2992 476.549 79.1992 476.649 79.1992C476.749 79.1992 476.749 79.1992 476.849 79.1992C476.949 79.1992 476.949 79.1992 477.049 79.2992C477.149 79.2992 477.149 79.3992 477.149 79.3992C477.149 79.4992 477.249 79.4992 477.249 79.5992C477.249 79.6992 477.249 79.6992 477.249 79.7992C477.249 79.8992 477.249 79.8992 477.149 79.9992C477.049 80.1992 462.949 103.299 444.449 129.899C427.349 154.399 402.949 186.999 383.449 202.899C383.349 202.599 383.249 202.699 383.149 202.699Z" fill="#F59300"/>
<path d="M45.0498 285.999L62.6498 278.099V285.899C62.6498 289.199 63.3498 292.499 64.6498 295.499C63.0498 295.699 61.4498 295.699 59.8498 295.399C58.7498 295.299 57.6498 294.799 56.6498 294.099L55.6498 293.199C54.3498 291.999 52.8498 290.999 51.4498 290.099L45.0498 285.999Z" fill="white"/>
<path d="M118.05 108.499C118.05 108.499 118.95 85.8991 95.0496 84.8991C95.0496 84.8991 77.7496 78.1991 69.2496 90.9991C69.2496 90.9991 56.4495 93.3991 55.1495 105.199C54.8495 107.699 55.0495 110.299 55.6495 112.699C55.6495 112.699 53.8496 129.499 63.5496 137.799C63.5496 137.799 61.7495 144.399 68.6495 149.699L65.8496 138.799L64.1495 132.199C64.1495 132.199 65.9496 129.299 65.9496 120.599C65.9496 120.599 76.5495 115.599 77.1495 110.099C77.1495 110.099 86.5496 111.999 91.9496 108.899C91.9496 108.899 99.3496 113.099 103.55 113.999C104.35 114.199 105.15 114.499 105.75 115.099C106.35 115.599 106.85 116.299 107.15 117.099C108.75 121.899 110.75 126.699 113.05 131.199L114.75 137.899C115.15 139.299 115.25 140.799 115.25 142.299C115.25 142.299 121.15 140.899 121.15 130.699C122.55 123.099 121.35 115.399 118.05 108.499Z" fill="#424242"/>
<path d="M121.25 162.999C117.95 162.399 112.45 157.799 112.45 157.799L95.0498 180.399L117.05 175.799L117.85 175.599C119.85 175.199 121.65 174.199 122.95 172.699C124.25 171.199 125.15 169.299 125.35 167.299L125.55 165.899L121.25 162.999Z" fill="#002849"/>
<path d="M80.3496 166.398C79.4496 170.998 74.4496 175.598 74.4496 175.598C74.3496 175.898 74.3496 176.198 74.3496 176.498C74.3496 177.498 74.7496 178.398 75.3496 179.198C76.0496 179.898 76.9496 180.398 77.9496 180.398L84.0496 180.798L86.5496 180.998L80.3496 166.398Z" fill="#002849"/>
<path d="M91.1498 269.699L87.1498 271.999L80.9498 272.499C74.8498 257.199 78.0498 246.699 78.0498 246.699C78.0498 246.699 84.1498 249.099 96.7498 239.399C99.6498 237.199 102.95 235.399 106.35 234.199C110.25 232.799 114.15 229.199 116.05 227.099C116.95 226.099 118.05 225.399 119.35 224.899C119.75 224.699 120.25 224.799 120.75 224.899C121.15 225.099 121.55 225.399 121.75 225.799C121.85 226.099 121.95 226.399 121.95 226.699C121.95 226.999 121.85 227.399 121.75 227.599L119.35 232.199L118.95 233.099C117.95 235.399 116.15 237.299 113.85 238.399L113.55 239.199C113.25 239.899 113.15 240.599 113.25 241.399C113.35 242.099 113.65 242.799 114.05 243.399L114.35 243.799L112.45 249.399L110.15 256.999L108.75 257.599C105.45 258.999 102.45 261.099 99.9498 263.699L96.5498 267.199L92.6498 268.599L91.1498 269.699Z" fill="white"/>
<path d="M172.05 268.699L179.65 244.799C181.25 239.799 181.55 234.399 180.45 229.199L175.05 202.599C174.65 200.399 173.95 198.299 173.05 196.299C172.15 194.299 171.05 192.399 169.75 190.599C166.85 186.599 163.05 183.399 158.75 181.099L134.65 168.699C132.45 167.599 130.15 166.499 127.95 165.599L121.35 162.999L125.65 165.899L125.45 167.299C125.25 169.299 124.35 171.199 123.05 172.699C121.65 174.199 119.95 175.199 117.95 175.599L117.15 175.799L95.1495 180.399C92.3495 180.999 89.4495 181.199 86.5495 180.999L84.0495 180.799L77.9495 180.399C76.9495 180.299 76.0495 179.899 75.3495 179.199C74.6495 178.499 74.3495 177.499 74.3495 176.499C74.3495 176.199 74.3495 175.899 74.4495 175.599L69.9495 179.699L52.8495 187.899C51.2495 188.699 49.4495 189.099 47.6495 189.199L46.4495 189.299C43.6495 189.399 40.9495 190.499 38.6495 192.199L37.3495 193.199C35.1495 194.899 33.5495 197.299 32.7495 200.099C32.1495 202.099 31.0495 203.999 29.6495 205.599C27.4495 207.899 26.1495 210.899 25.7495 214.099L25.6495 215.399L16.4495 232.899L4.04955 246.999C2.84955 248.399 2.04954 250.099 1.84954 251.899L0.0495468 266.299C-0.150453 268.299 0.249542 270.299 1.34954 271.899L10.9495 286.699C11.6495 287.699 12.5495 288.599 13.6495 289.199C14.7495 289.799 15.9495 290.199 17.1495 290.299L29.8495 291.199C32.1495 291.399 34.4495 290.999 36.6495 289.999L39.9495 288.499L40.1495 288.999C40.1495 288.999 45.1495 318.599 45.1495 319.899C45.1495 320.499 44.5495 323.899 43.9495 327.199C43.1495 331.699 43.5495 336.399 45.1495 340.699H175.05L175.65 337.199C176.15 334.599 175.95 331.799 175.25 329.299L168.75 305.899C167.95 303.099 168.05 300.199 168.95 297.499L169.65 295.599C170.25 293.799 170.35 291.899 169.95 290.099C169.55 288.299 168.65 286.599 167.35 285.299L166.55 284.399L167.15 277.999L172.05 268.699ZM59.8495 295.299C58.7495 295.199 57.6495 294.699 56.6495 293.999L55.6495 293.099C54.3495 291.999 52.9495 290.899 51.4495 289.999L45.0495 285.899L62.6495 277.999V285.799C62.6495 289.099 63.3495 292.399 64.6495 295.399C63.0495 295.599 61.4495 295.599 59.8495 295.299ZM121.85 227.799L119.45 232.399L119.05 233.299C118.05 235.599 116.25 237.499 113.95 238.599L113.65 239.399C113.35 240.099 113.25 240.799 113.35 241.599C113.45 242.299 113.75 242.999 114.15 243.599L114.45 243.999L112.45 249.599L110.15 257.199L108.75 257.799C105.45 259.199 102.45 261.299 99.9495 263.899L96.5495 267.399L92.6495 268.799L91.0495 269.699L87.0495 271.999L80.8495 272.499C74.7495 257.199 77.9495 246.699 77.9495 246.699C77.9495 246.699 84.0495 249.099 96.6495 239.399C99.5495 237.199 102.85 235.399 106.25 234.199C110.15 232.799 114.05 229.199 115.95 227.099C116.85 226.099 117.95 225.399 119.25 224.899C119.65 224.699 120.15 224.799 120.65 224.899C121.15 224.999 121.45 225.399 121.65 225.799C121.75 226.099 121.85 226.399 121.85 226.699C122.05 227.199 122.05 227.499 121.85 227.799Z" fill="#013C74"/>
<path d="M112.449 157.799L95.0492 180.399C92.2492 180.999 89.3492 181.199 86.4492 180.999L84.9492 177.399L80.2492 166.399L78.9492 161.199C82.0492 162.399 85.5492 162.599 88.7492 161.699L102.849 158.099C102.949 158.099 103.049 158.099 103.149 157.999C106.249 157.199 109.149 155.399 111.249 152.999L112.449 157.799Z" fill="#F9C7B4"/>
<path d="M110.05 129.398L90.85 128.498C87.05 128.298 83.35 129.198 80.05 130.998L65.95 138.798L64.25 132.198C64.25 132.198 66.05 129.298 66.05 120.598C66.05 120.598 76.65 115.598 77.25 110.098C77.25 110.098 86.65 111.998 92.05 108.898C92.05 108.898 99.45 113.098 103.65 113.998C104.45 114.198 105.25 114.498 105.85 115.098C106.45 115.598 106.95 116.298 107.25 117.098C108.85 121.898 110.85 126.698 113.15 131.198L114.85 137.898C115.85 141.798 115.35 145.998 113.45 149.598C107.15 143.298 110.05 129.398 110.05 129.398Z" fill="#F9C7B4"/>
<path d="M167.05 277.799L156.55 286.699L153.95 288.899C153.05 289.699 152.15 290.399 151.25 290.999C149.35 292.299 147.25 293.399 144.95 294.099C143.85 294.499 142.65 294.699 141.55 294.899C140.45 294.999 139.35 295.199 138.15 295.399C137.05 295.599 135.95 295.999 134.95 296.399C133.95 296.799 132.85 297.299 131.85 297.799L125.55 300.599C124.55 301.099 123.45 301.599 122.35 301.999C121.25 302.399 120.15 302.699 118.95 302.999C117.85 303.199 116.65 303.399 115.45 303.499L112.05 303.799L105.25 304.399L98.3498 304.999C96.0498 305.199 93.6498 304.999 91.4498 304.399C82.6498 301.899 73.8498 299.399 65.0498 296.799L78.3498 300.199L91.6498 303.699C93.8498 304.199 96.0498 304.399 98.3498 304.199L105.15 303.599L111.95 302.999L115.35 302.699C116.45 302.599 117.55 302.499 118.65 302.199C119.75 301.999 120.85 301.699 121.85 301.299C122.85 300.899 123.95 300.399 124.95 299.999L131.25 297.199C132.35 296.699 133.35 296.299 134.45 295.799C135.55 295.399 136.65 295.099 137.85 294.799C138.95 294.599 140.15 294.399 141.25 294.299C142.35 294.199 143.45 293.899 144.55 293.599C146.75 292.999 148.75 291.999 150.65 290.799C151.55 290.199 152.45 289.499 153.35 288.799L156.05 286.699L167.05 277.799Z" fill="#0063B5"/>
<path d="M80.9498 272.499C79.4498 273.099 77.9498 273.599 76.4498 274.099C74.9498 274.599 73.4498 275.099 71.9498 275.599C68.9498 276.599 65.8498 277.599 62.8498 278.499H62.9498C58.5498 280.499 54.2498 282.399 49.8498 284.299C45.4498 286.199 41.0498 287.999 36.5498 289.699C40.8498 287.499 45.1498 285.399 49.4498 283.399C53.7498 281.399 58.1498 279.399 62.5498 277.399H62.6498C65.6498 276.499 68.7498 275.699 71.8498 274.899C73.3498 274.499 74.9498 273.999 76.4498 273.699C77.9498 273.399 79.4498 272.899 80.9498 272.499Z" fill="#0063B5"/>
<path d="M18.0498 243.399C20.3498 243.299 22.6498 243.199 24.9498 243.199C27.2498 243.199 29.5498 243.099 31.8498 242.999H31.9498C36.3498 243.999 40.7498 245.099 45.1498 246.199H45.0498C47.7498 246.199 50.5498 246.199 53.2498 246.199L61.5498 246.299C67.0498 246.399 72.5498 246.499 78.0498 246.799C72.5498 247.099 67.0498 247.099 61.5498 247.199L53.2498 247.299C50.5498 247.299 47.7498 247.299 45.0498 247.299H44.9498C40.5498 246.099 36.1498 245.099 31.7498 243.899H31.8498C29.5498 243.899 27.2498 243.799 24.9498 243.799C22.6498 243.799 20.3498 243.499 18.0498 243.399Z" fill="#0063B5"/>
<path d="M32.1494 211.199L34.8494 215.299L37.4494 219.399L42.7494 227.599C44.5494 230.399 45.7494 233.599 46.2494 236.899C46.6494 240.199 46.2494 243.599 45.0494 246.599C45.4494 244.999 45.7494 243.399 45.7494 241.799C45.8494 240.199 45.7494 238.599 45.4494 236.999C44.8494 233.799 43.6494 230.799 41.8494 228.099C40.0494 225.299 38.3494 222.499 36.7494 219.699C35.2494 216.999 33.6494 214.099 32.1494 211.199Z" fill="#0063B5"/>
<path d="M66.0494 193.398C64.8494 196.498 63.4494 199.498 62.0494 202.498C60.6494 205.498 59.2494 208.498 57.8494 211.398C56.3494 214.298 54.9494 217.298 53.3494 220.198L51.0494 224.498C50.2494 225.898 49.4494 227.398 48.6494 228.798C49.2494 227.298 49.9494 225.798 50.5494 224.198L52.6494 219.698C54.0494 216.698 55.4494 213.698 56.8494 210.798C58.2494 207.898 59.7494 204.898 61.3494 201.998C62.9494 199.098 64.4494 196.298 66.0494 193.398Z" fill="#0063B5"/>
<path d="M92.0492 200.299L89.7492 205.399C88.9492 207.099 88.1492 208.799 87.4492 210.599C85.9492 214.099 84.5492 217.499 83.2492 220.999C81.9492 224.499 80.7492 227.999 79.7492 231.599C78.6492 235.199 78.1492 238.899 78.2492 242.699C78.1492 241.799 77.9492 240.799 77.9492 239.899L78.0492 237.099L78.4492 234.299C78.5492 233.399 78.8492 232.399 78.9492 231.499C79.7492 227.799 80.8492 224.199 82.2492 220.699C83.6492 217.199 85.0492 213.699 86.7492 210.299C88.3492 206.899 90.1492 203.499 92.0492 200.299Z" fill="#0063B5"/>
<path d="M161.149 195.398C158.949 196.398 156.849 197.598 154.849 198.798C153.849 199.398 152.849 199.998 151.849 200.698C150.849 201.398 149.849 201.998 148.949 202.698C145.049 205.398 141.349 208.498 137.949 211.798C137.149 212.698 136.249 213.398 135.449 214.298L133.049 216.998C132.249 217.898 131.549 218.898 130.849 219.798L129.749 221.198C129.449 221.698 129.049 222.198 128.749 222.698L126.749 225.698L125.049 228.798C124.749 229.298 124.449 229.798 124.149 230.398L123.449 231.998C122.949 233.098 122.449 234.198 121.949 235.298C123.349 230.698 125.349 226.298 127.949 222.298C130.549 218.198 133.549 214.498 137.049 211.098C140.549 207.698 144.249 204.698 148.249 202.098C152.349 199.298 156.649 197.098 161.149 195.398Z" fill="#0063B5"/>
<path d="M134.849 181.898C133.549 183.398 132.349 184.898 131.149 186.598C129.949 188.298 128.849 189.798 127.849 191.498C125.749 194.798 123.949 198.298 122.349 201.998L121.249 204.698L120.349 207.498C120.049 208.398 119.749 209.398 119.549 210.398C119.249 211.298 119.049 212.298 118.949 213.298L118.449 216.198C118.349 217.198 118.349 218.198 118.249 219.098L118.149 220.598V222.098C118.149 223.098 118.249 224.098 118.249 225.098C117.549 221.198 117.449 217.098 118.049 213.198C118.549 209.198 119.649 205.298 121.249 201.598C122.849 197.898 124.749 194.398 127.049 191.098C129.349 187.698 131.949 184.598 134.849 181.898Z" fill="#0063B5"/>
<path d="M100.05 263.799C101.85 263.299 103.75 262.899 105.65 262.799C107.55 262.699 109.45 262.699 111.35 262.799C115.15 263.099 118.85 263.899 122.45 265.399C123.35 265.799 124.15 266.199 125.05 266.599C125.95 266.999 126.75 267.399 127.55 267.999L129.95 269.499C130.75 270.099 131.45 270.699 132.15 271.299L133.25 272.199C133.65 272.499 133.95 272.799 134.25 273.199L136.25 275.199C136.95 275.899 137.45 276.699 138.05 277.399C138.65 278.099 139.25 278.899 139.85 279.599C138.45 278.299 137.25 276.899 135.85 275.599L133.75 273.799C133.35 273.499 133.05 273.199 132.65 272.899L131.55 272.099L129.35 270.399L126.95 268.999C126.15 268.499 125.35 268.099 124.55 267.699C123.65 267.299 122.85 266.899 122.05 266.599C118.55 265.199 114.95 264.299 111.25 263.899C107.55 263.099 103.75 263.199 100.05 263.799Z" fill="#0063B5"/>
<path d="M110.25 257.098C111.35 256.298 112.55 255.698 113.75 255.298C114.95 254.798 116.25 254.498 117.55 254.298C120.15 253.898 122.75 253.898 125.35 254.498L121.55 254.798C120.25 254.898 119.05 255.098 117.75 255.298C116.45 255.498 115.25 255.798 114.05 255.998C112.85 256.398 111.55 256.698 110.25 257.098Z" fill="#0063B5"/>
<path d="M58.0496 282.799C57.7496 283.799 57.6496 284.899 57.7496 285.999C57.7496 287.099 57.8496 288.099 58.0496 289.199C58.2496 290.299 58.5496 291.299 58.8496 292.299L59.8496 295.399C59.5496 294.899 59.2496 294.499 58.9496 293.999C58.6496 293.499 58.4496 292.999 58.2496 292.499C57.8496 291.499 57.5496 290.399 57.3496 289.299C57.1496 288.199 57.0496 287.099 57.1496 285.999C57.2496 284.799 57.5496 283.699 58.0496 282.799Z" fill="#6A6A69"/>
<path d="M40.25 202.799C41.05 205.199 41.65 207.599 42.25 209.999C42.85 212.399 43.35 214.899 43.75 217.299C44.15 219.799 44.55 222.299 44.65 224.799C44.75 226.099 44.75 227.299 44.85 228.599L44.75 230.499C44.75 231.099 44.65 231.799 44.55 232.399L44.45 230.499L44.25 228.599C44.15 227.399 43.95 226.099 43.75 224.899C43.35 222.399 43.05 219.999 42.55 217.499L41.35 210.099L40.75 206.399L40.25 202.799Z" fill="#0063B5"/>
<path d="M139.85 337.999C140.15 336.199 140.35 334.399 140.55 332.599C140.75 330.799 140.95 328.999 141.15 327.199C141.45 323.599 141.75 319.899 141.85 316.299C141.95 312.699 141.95 308.999 141.85 305.399C141.75 303.599 141.65 301.799 141.35 299.999C141.05 298.199 140.85 296.399 140.65 294.599C141.65 298.099 142.35 301.699 142.65 305.399C142.95 309.099 143.05 312.699 142.95 316.399C142.85 320.099 142.45 323.699 141.95 327.399C141.65 330.899 140.85 334.499 139.85 337.999Z" fill="#0063B5"/>
<path d="M51.3496 329.099C54.7496 326.599 58.3496 324.199 61.9496 321.899C65.5496 319.599 69.2496 317.599 73.0496 315.499C76.8496 313.399 80.6496 311.699 84.6496 309.999C88.5496 308.299 92.6496 306.899 96.7496 305.699C94.7496 306.499 92.7496 307.199 90.8496 308.099C88.9496 308.999 86.9496 309.799 85.0496 310.699C81.2496 312.499 77.4496 314.399 73.6496 316.399C69.8496 318.399 66.1496 320.499 62.4496 322.499C60.5496 323.499 58.7496 324.599 56.9496 325.699C55.0496 326.899 53.1496 327.999 51.3496 329.099Z" fill="#0063B5"/>
<path d="M87.0494 251.699C87.0494 253.299 87.1494 254.899 87.3494 256.499C87.4494 258.099 87.6494 259.699 87.8494 261.299C88.0494 262.899 88.3494 264.399 88.6494 265.999C89.0494 267.599 89.4494 269.099 90.0494 270.599C89.2494 269.199 88.5494 267.699 88.0494 266.199C87.5494 264.599 87.2494 262.999 87.0494 261.399C86.8494 259.799 86.7494 258.199 86.7494 256.599C86.6494 254.899 86.7494 253.299 87.0494 251.699Z" fill="#6A6A69"/>
<path d="M107.85 132.199C107.75 132.199 107.75 132.199 107.65 132.199C107.55 132.199 107.55 132.099 107.45 132.099C107.35 131.999 107.25 131.899 107.25 131.699C107.25 131.599 107.35 131.399 107.45 131.299L111.35 127.199C111.45 127.099 111.45 127.099 111.55 127.099C111.65 127.099 111.65 127.099 111.75 127.099C111.85 127.099 111.85 127.099 111.95 127.099C112.05 127.099 112.05 127.199 112.15 127.199C112.25 127.299 112.25 127.299 112.25 127.399C112.25 127.499 112.25 127.499 112.25 127.599C112.25 127.699 112.25 127.699 112.25 127.799C112.25 127.899 112.15 127.899 112.15 127.999L108.25 132.099C108.15 132.199 108.15 132.199 108.05 132.199C107.95 132.199 107.85 132.199 107.85 132.199Z" fill="white"/>
<path d="M113.549 149.599C107.149 143.199 110.049 129.299 110.049 129.299L90.8492 128.399C87.0492 128.199 83.3492 129.099 80.0492 130.899L65.9492 138.699L68.7492 149.599C69.8492 153.899 72.5492 157.499 76.3492 159.799C80.1492 161.999 84.6492 162.698 88.8492 161.598L102.949 157.998C106.249 157.198 109.149 155.399 111.349 152.899C112.149 151.899 112.949 150.799 113.549 149.599Z" fill="white"/>
<path d="M61.9492 121.899C63.5492 118.099 65.8492 114.799 68.8492 111.999C71.8492 109.199 75.4492 107.099 79.4492 105.999C83.4492 104.899 87.5492 104.699 91.6492 105.299C93.6492 105.599 95.6492 105.999 97.6492 106.599C98.6492 106.899 99.5492 107.299 100.549 107.599C101.549 107.899 102.449 108.399 103.349 108.799L100.449 107.899C99.4492 107.599 98.5492 107.399 97.5492 107.099C95.6492 106.599 93.6492 106.299 91.6492 106.099C87.7492 105.699 83.7492 105.999 79.8492 106.999C76.0492 108.099 72.4492 109.999 69.4492 112.599C66.4492 115.199 63.8492 118.399 61.9492 121.899Z" fill="#8C8C8C"/>
<path d="M103.149 157.999C100.849 163.399 95.4492 173.199 84.9492 177.399L80.2492 166.399L78.9492 161.199C82.0492 162.399 85.5492 162.599 88.7492 161.699L102.849 158.099C103.049 158.099 103.149 157.999 103.149 157.999Z" fill="#EFA794"/>
<path d="M438.15 240.999L434.75 242.399L421.75 211.399C421.55 210.899 421.55 210.399 421.75 209.999C421.95 209.599 422.25 209.199 422.75 208.999C423.15 208.799 423.75 208.799 424.15 208.999C424.55 209.199 424.95 209.499 425.15 209.999L438.15 240.999Z" fill="#F59300"/>
<path d="M399.25 142.599C399.35 144.599 398.85 146.499 399.05 148.499C399.35 150.999 400.65 153.299 401.25 155.799C401.95 157.799 402.15 159.899 402.05 161.999C401.75 163.899 400.65 165.599 400.25 167.399C399.25 172.299 403.75 174.599 406.25 177.999C408.15 180.399 409.05 183.399 408.75 186.499C408.65 187.999 410.45 192.399 409.75 193.199C407.75 195.499 402.15 190.499 400.85 189.399C397.85 186.699 396.55 187.499 392.85 188.899C390.65 189.699 388.25 189.799 385.95 189.299C383.65 188.799 381.55 187.699 379.85 185.999C376.45 182.699 377.45 175.499 377.95 171.399C378.95 163.299 381.15 155.499 385.95 148.799C389.35 143.899 393.35 141.499 399.25 142.599Z" fill="#424242"/>
<path d="M385.75 101.099C374.55 98.6989 364.15 94.3989 353.15 100.299C347.95 102.999 343.05 106.099 341.05 111.799C339.95 114.799 338.55 116.999 337.35 120.099C334.25 127.999 340.95 134.799 331.95 139.299C328.75 140.899 325.55 141.599 323.55 144.699C321.45 148.099 323.05 151.899 321.75 155.399C319.75 160.999 308.15 163.299 309.75 170.099C310.35 172.699 312.95 174.299 315.35 174.799C320.65 175.799 323.95 173.699 327.75 178.499C331.15 182.799 332.35 182.399 338.15 182.799C342.25 182.999 345.95 184.599 349.75 185.699C353.55 186.799 358.45 189.099 362.55 189.199C369.55 189.399 369.95 178.099 371.25 172.799C373.75 162.499 374.85 151.999 376.15 141.399C377.55 130.599 381.35 120.299 384.15 109.799C385.05 107.499 386.05 104.199 385.75 101.099Z" fill="#424242"/>
<path d="M401.55 251.499C401.35 251.499 382.45 248.699 368.35 226.199C368.25 225.999 358.85 207.299 353.45 204.999C353.45 204.999 353.45 204.999 353.35 204.899V204.799C353.35 204.799 353.35 204.699 353.45 204.699H353.55C359.15 206.999 368.25 225.199 368.65 225.999C373.95 234.799 381.45 242.099 390.45 247.099C393.95 248.999 397.65 250.399 401.55 251.199C405.45 237.799 399.45 199.099 399.35 198.699C399.35 198.699 399.35 198.699 399.35 198.599C399.35 198.599 399.35 198.599 399.45 198.599C399.45 198.599 399.45 198.599 399.55 198.599C399.55 198.599 399.55 198.599 399.55 198.699C399.65 199.099 405.75 237.999 401.65 251.399C401.65 251.499 401.65 251.499 401.55 251.499Z" fill="#8E4E13"/>
<path d="M505.55 234.799L468.75 283.499L468.15 282.899L460.95 279.299C460.35 278.999 459.65 278.899 459.05 279.099C458.45 279.299 457.85 279.699 457.55 280.199C457.25 280.599 457.15 281.099 457.15 281.599C457.15 281.999 457.25 282.299 457.35 282.699C457.45 282.999 457.75 283.299 457.95 283.599L458.95 284.599L455.75 281.899C455.25 281.499 454.65 281.199 453.95 281.299C453.25 281.299 452.65 281.599 452.25 282.099C451.85 282.599 451.55 283.199 451.65 283.899C451.65 284.599 451.95 285.199 452.45 285.599L456.65 289.599L460.65 294.999V295.099C460.65 295.099 460.65 295.199 460.55 295.199C460.45 295.199 460.45 295.299 460.45 295.299H460.35L453.25 291.199L450.05 288.799C449.65 288.499 449.05 288.299 448.55 288.299C448.05 288.299 447.45 288.499 447.05 288.899C446.85 289.099 446.65 289.399 446.55 289.699C446.45 289.999 446.35 290.299 446.35 290.599C446.35 291.099 446.55 291.699 446.85 292.099L449.65 295.499L452.25 297.599L449.75 295.799C449.25 295.499 448.65 295.299 448.15 295.399C447.55 295.499 447.05 295.799 446.75 296.299C446.45 296.699 446.25 297.199 446.25 297.599C446.25 298.199 446.45 298.699 446.85 299.099L449.45 301.899L452.55 304.699L444.25 315.699L442.35 318.199L421.85 317.599L387.85 316.499C388.85 315.499 400.75 299.699 414.25 281.699C424.15 268.499 434.75 254.199 442.65 243.699C443.75 242.199 444.75 240.799 445.75 239.499L447.95 236.499L449.85 233.899L454.05 228.199L505.55 234.799Z" fill="#734002"/>
<path d="M459.05 284.699L458.05 283.699C457.75 283.399 457.55 283.099 457.45 282.799C457.35 282.499 457.25 282.099 457.25 281.699C457.25 281.199 457.35 280.699 457.65 280.299C458.05 279.699 458.55 279.399 459.15 279.199C459.75 278.999 460.45 279.099 461.05 279.399L468.25 282.999L468.85 283.599L476.05 290.799C476.35 291.099 476.55 291.399 476.65 291.799C476.75 292.199 476.85 292.599 476.75 292.899L476.55 294.299C476.45 294.699 476.35 295.199 476.05 295.499C475.75 295.899 475.45 296.199 475.05 296.399C474.75 296.599 474.55 296.799 474.45 297.099C474.35 297.399 474.35 297.699 474.35 297.999L474.95 300.399C475.05 300.999 475.05 301.499 474.85 302.099C474.65 302.599 474.25 303.099 473.75 303.399L473.55 303.499C473.05 303.799 472.65 304.199 472.45 304.599C472.15 305.099 472.05 305.599 472.05 306.099C472.05 306.299 472.05 306.399 472.05 306.599C472.15 307.099 472.05 307.599 471.95 307.999C471.75 308.499 471.45 308.899 471.05 309.199L470.15 309.899C469.45 310.499 468.85 311.099 468.35 311.799C466.15 314.899 462.05 314.699 460.15 314.399C459.55 314.299 458.85 314.299 458.25 314.599C455.95 312.299 456.55 308.499 456.55 308.199L455.05 306.999L452.65 304.799L449.55 301.999L446.95 299.199C446.55 298.799 446.35 298.199 446.35 297.699C446.35 297.199 446.55 296.699 446.85 296.399C447.25 295.899 447.75 295.599 448.25 295.499C448.85 295.399 449.45 295.499 449.85 295.899L452.35 297.699L449.75 295.599L446.95 292.199C446.65 291.799 446.45 291.199 446.45 290.699C446.45 290.399 446.55 290.099 446.65 289.799C446.75 289.499 446.95 289.299 447.15 288.999C447.55 288.599 448.05 288.399 448.65 288.399C449.15 288.399 449.75 288.499 450.15 288.899L453.35 291.299L460.45 295.399H460.55C460.55 295.399 460.65 295.399 460.65 295.299L460.75 295.199V295.099L456.75 289.799L452.55 285.899C452.05 285.499 451.75 284.799 451.75 284.199C451.75 283.499 451.95 282.899 452.35 282.399C452.75 281.899 453.45 281.599 454.05 281.599C454.75 281.599 455.35 281.799 455.85 282.199L459.05 284.699Z" fill="#F9C7B4"/>
<path d="M454.95 306.999L456.45 308.199C456.45 308.499 455.75 312.299 458.15 314.599C454.05 316.099 444.25 315.799 444.25 315.799L452.55 304.799L454.95 306.999Z" fill="#F9C7B4"/>
<path d="M341.75 282.598L342.85 286.998C342.95 287.498 343.25 287.998 343.55 288.498C343.85 288.898 344.25 289.298 344.75 289.598C345.25 289.898 345.75 290.098 346.25 290.098C346.75 290.198 347.35 290.198 347.85 289.998L348.65 289.798L373.95 283.298C376.65 282.598 379.25 281.598 381.65 280.198L409.85 264.598C411.85 263.498 413.35 261.598 413.95 259.398L418.75 242.598L419.65 239.698L419.85 238.798C420.05 237.898 420.45 236.998 420.95 236.198C421.55 235.398 422.25 234.798 423.15 234.398H423.25L423.05 233.898L417.55 213.298C417.45 212.998 417.35 212.598 417.25 212.298C414.05 203.798 403.65 196.398 395.25 191.598C391.45 189.398 387.45 187.498 383.35 185.698C383.85 185.998 392.35 191.798 392.25 234.798L392.05 234.698C385.05 230.598 379.25 224.898 375.05 217.998C363.15 198.898 352.05 188.898 345.25 184.098L345.15 183.998C344.05 183.198 346.25 179.998 345.05 179.898C344.45 179.898 338.05 183.398 334.75 185.398C332.95 186.398 330.85 187.598 328.85 188.798C327.25 189.698 325.65 190.298 323.85 190.698C318.15 192.098 312.95 195.198 308.85 199.398C302.25 206.298 296.75 218.398 299.95 239.498C300.45 243.198 300.65 246.898 300.45 250.598C299.35 267.098 296.25 312.498 291.85 340.098H423.35L421.95 317.798L387.95 316.698C388.95 315.698 400.85 299.898 414.35 281.898L400.35 292.098C397.65 294.098 395.05 296.198 392.45 298.298C374.05 313.498 347.75 321.698 347.75 321.698C345.05 322.498 342.55 323.698 340.15 325.098C334.35 328.398 330.35 325.098 330.35 325.098C323.65 317.398 318.95 303.898 315.95 292.298L315.55 292.398C315.55 292.398 293.25 280.498 305.95 268.398C306.85 267.598 308.05 267.198 309.25 267.098C309.55 267.098 309.85 267.198 310.25 267.298C310.65 267.398 310.85 267.598 311.05 267.798C311.25 267.998 311.45 268.298 311.55 268.598C311.65 268.898 311.75 269.198 311.75 269.498C311.75 269.798 311.65 270.098 311.65 270.298C311.65 270.298 311.65 270.598 311.75 271.098C311.85 271.198 311.95 271.298 312.05 271.398C312.15 271.498 312.25 271.498 312.45 271.498L316.55 271.898C316.55 271.898 334.95 273.898 341.05 277.998C341.85 278.498 342.55 279.198 342.85 280.198C342.95 280.598 342.95 280.898 342.85 281.298C342.75 281.698 342.55 281.998 342.35 282.298L341.75 282.598ZM360.65 232.998C360.95 232.698 361.25 232.498 361.55 232.298C362.25 231.898 363.05 231.598 363.85 231.498C365.25 231.198 366.65 231.498 367.75 232.298C368.85 233.098 369.65 234.298 369.95 235.598C370.85 236.698 371.45 237.998 371.75 239.398C372.35 243.798 368.95 247.898 364.15 248.598C359.35 249.298 354.85 246.298 354.25 241.898C354.05 239.898 354.65 237.898 355.75 236.198C356.95 234.598 358.65 233.398 360.65 232.998Z" fill="#013C74"/>
<path d="M418.95 245.999C418.65 245.999 418.45 245.899 418.25 245.699C418.05 245.499 417.95 245.299 417.85 245.099C409.15 196.899 383.75 184.699 383.45 184.599C383.35 184.499 383.15 184.499 383.05 184.399C382.95 184.299 382.85 184.199 382.85 183.999C382.75 183.899 382.75 183.699 382.75 183.599C382.75 183.499 382.75 183.299 382.85 183.199C382.95 183.099 382.95 182.899 383.15 182.799C383.25 182.699 383.35 182.599 383.55 182.599C383.65 182.499 383.85 182.499 383.95 182.499C384.05 182.499 384.25 182.499 384.35 182.599C385.45 183.099 411.05 195.299 419.95 244.699C419.95 244.999 419.95 245.299 419.75 245.499C419.55 245.699 419.35 245.899 419.05 245.999H418.95Z" fill="#424242"/>
<path d="M342.449 280.299C342.549 280.699 342.549 280.999 342.449 281.399C342.349 281.799 342.149 282.099 341.949 282.399L341.749 282.599L340.649 278.199C341.549 278.599 342.149 279.399 342.449 280.299Z" fill="#513307"/>
<path d="M315.749 292.299L315.349 292.399C315.349 292.399 293.049 280.499 305.749 268.399C306.649 267.599 307.849 267.199 309.049 267.099C309.349 267.099 309.649 267.199 310.049 267.299C310.349 267.399 310.649 267.599 310.849 267.799C311.049 267.999 311.249 268.299 311.349 268.599C311.449 268.899 311.549 269.199 311.549 269.499C311.549 269.799 311.449 270.099 311.449 270.299C311.449 270.399 311.449 270.499 311.449 270.599C311.449 270.799 311.549 270.999 311.649 271.099C312.649 278.299 314.049 285.399 315.749 292.299Z" fill="#002849"/>
<path d="M332.649 208.199C334.249 214.099 335.549 219.999 336.849 225.999C338.149 231.999 339.049 237.999 340.049 243.999C340.949 249.999 341.649 256.099 342.049 262.099C342.549 268.199 342.649 274.299 342.549 280.299C342.349 277.299 342.249 274.199 342.049 271.199C341.849 268.199 341.549 265.199 341.249 262.099C340.549 256.099 339.849 250.099 338.949 243.999C338.049 237.999 337.049 231.999 336.049 225.999C335.549 222.999 334.949 219.999 334.449 216.999C333.849 214.199 333.149 211.199 332.649 208.199Z" fill="#0063B5"/>
<path d="M389.449 199.398C389.949 200.998 390.249 202.698 390.649 204.298C391.049 205.998 391.249 207.598 391.449 209.298C391.949 212.698 392.249 215.998 392.449 219.398C392.649 222.798 392.749 226.198 392.649 229.598C392.649 232.998 392.449 236.398 392.249 239.698C392.149 237.998 392.149 236.298 392.049 234.598L391.849 229.498C391.649 226.098 391.549 222.798 391.349 219.398C391.149 215.998 390.949 212.698 390.649 209.298C390.349 206.098 389.949 202.798 389.449 199.398Z" fill="#0063B5"/>
<path d="M361.949 199.898C364.649 202.698 367.149 205.698 369.449 208.898C371.849 211.998 373.949 215.298 376.049 218.598C378.149 221.798 380.549 224.898 383.249 227.598C385.949 230.298 389.049 232.798 392.249 234.898C390.549 233.998 388.849 232.998 387.249 231.898C385.649 230.798 384.149 229.498 382.649 228.198C379.749 225.498 377.249 222.498 375.049 219.198C372.949 215.898 370.949 212.598 368.749 209.398C366.549 206.098 364.249 202.998 361.949 199.898Z" fill="#8E4E13"/>
<path d="M311.649 199.999C310.849 205.599 310.349 211.299 309.949 216.899C309.549 222.599 309.249 228.199 309.249 233.899C309.149 236.699 309.249 239.599 309.249 242.399C309.249 245.199 309.449 248.099 309.549 250.899C309.649 252.299 309.649 253.699 309.749 255.099L310.049 259.299C310.249 262.099 310.649 264.899 310.849 267.799C309.749 262.199 309.049 256.599 308.549 250.899C308.049 245.199 307.949 239.499 307.949 233.799C307.949 228.099 308.349 222.399 308.949 216.799C309.249 213.999 309.649 211.099 309.949 208.299C310.449 205.599 310.949 202.799 311.649 199.999Z" fill="#0063B5"/>
<path d="M345.25 252.799C345.65 255.799 345.95 258.899 346.25 261.899C346.55 264.999 346.75 267.999 346.95 271.099C347.15 274.199 347.25 277.199 347.35 280.299L347.45 284.899C347.45 286.399 347.45 287.999 347.45 289.499C347.25 287.999 347.15 286.499 346.95 284.899L346.55 280.299C346.25 277.199 346.05 274.199 345.85 271.099C345.65 268.099 345.55 264.999 345.45 261.899C345.35 258.999 345.25 255.899 345.25 252.799Z" fill="#0063B5"/>
<path d="M458.449 284.099C459.649 284.699 460.749 285.199 461.749 285.899C462.849 286.599 463.849 287.299 464.849 288.099C465.849 288.899 466.749 289.799 467.549 290.699C468.449 291.599 469.249 292.499 470.049 293.499C469.049 292.799 468.049 291.999 467.149 291.099C466.249 290.199 465.249 289.399 464.349 288.599C463.349 287.799 462.449 286.999 461.449 286.299C460.349 285.699 459.349 284.899 458.449 284.099Z" fill="#EFA794"/>
<path d="M460.649 294.999C463.849 296.899 466.649 299.299 469.149 302.099C465.949 300.199 463.049 297.799 460.649 294.999Z" fill="#EFA794"/>
<path d="M452.35 297.699C453.45 298.299 454.55 298.899 455.55 299.599C456.55 300.299 457.65 300.999 458.55 301.699C460.45 303.199 462.35 304.899 464.05 306.699C461.95 305.399 459.95 303.899 458.05 302.399C457.05 301.599 456.05 300.899 455.15 300.199C454.15 299.399 453.25 298.499 452.35 297.699Z" fill="#EFA794"/>
<path d="M456.549 308.299C456.749 309.499 456.849 310.599 457.049 311.599C457.249 312.699 457.649 313.699 458.149 314.699C457.649 314.399 457.149 313.999 456.849 313.499C456.549 312.999 456.349 312.399 456.149 311.799C455.949 310.599 456.049 309.399 456.549 308.299Z" fill="#EFA794"/>
<path d="M320.65 311.499C320.65 315.999 320.35 320.399 320.05 324.799C319.65 329.199 319.15 333.599 318.25 337.999C318.25 333.499 318.55 329.099 318.85 324.699C319.25 320.199 319.75 315.899 320.65 311.499Z" fill="#0063B5"/>
<path d="M360.65 260.699C361.05 265.099 361.15 269.399 361.25 273.799C361.25 278.199 361.15 282.499 360.65 286.899C360.25 282.499 360.15 278.199 360.05 273.799C360.05 269.399 360.15 264.999 360.65 260.699Z" fill="#0063B5"/>
<path d="M447.849 236.799L445.649 239.799C444.649 241.099 443.649 242.499 442.549 243.999C434.749 254.499 424.049 268.799 414.149 281.999L400.149 292.199C397.449 294.199 394.849 296.299 392.249 298.399C373.849 313.599 347.549 321.799 347.549 321.799C344.849 322.599 342.349 323.799 339.949 325.199C334.149 328.499 330.149 325.199 330.149 325.199C323.449 317.499 318.749 303.999 315.749 292.399C313.949 285.499 312.549 278.399 311.449 271.299C311.549 271.399 311.649 271.499 311.749 271.599C311.849 271.699 311.949 271.699 312.149 271.699L316.249 272.099C316.249 272.099 334.649 274.099 340.749 278.199L341.849 282.599L342.949 286.999C343.049 287.499 343.349 287.999 343.649 288.499C343.949 288.899 344.349 289.299 344.849 289.599C345.349 289.899 345.849 290.099 346.349 290.099C346.849 290.199 347.449 290.199 347.949 289.999L348.749 289.799L374.049 283.299C376.749 282.599 379.349 281.599 381.749 280.199L409.949 264.599C411.949 263.499 413.449 261.599 414.049 259.399L418.849 242.599L419.749 239.699L419.949 238.799C420.149 237.899 420.549 236.999 421.049 236.199C421.649 235.399 422.349 234.799 423.249 234.399H423.349L424.649 233.799C424.949 233.699 425.149 233.499 425.349 233.399L435.349 226.699C436.049 226.199 436.849 225.999 437.649 225.999C438.449 225.999 439.249 226.299 439.949 226.799L449.649 234.199L447.849 236.799Z" fill="#F9C7B4"/>
<path d="M447.349 236.299C446.549 235.699 445.849 235.199 445.149 234.599C444.549 233.999 443.749 233.499 442.849 233.299C442.049 233.099 441.149 233.099 440.249 233.299L437.649 234.199C435.849 234.799 434.149 235.399 432.349 235.999C430.549 236.599 428.749 237.099 426.949 237.499C428.649 236.699 430.449 235.999 432.149 235.399C433.849 234.799 435.649 234.099 437.449 233.499C438.349 233.199 439.149 232.899 440.149 232.599C441.149 232.299 442.149 232.399 443.149 232.699C444.049 232.999 444.849 233.599 445.549 234.399C446.049 234.999 446.749 235.599 447.349 236.299Z" fill="#EFA794"/>
<path d="M424.25 245.999C425.95 244.799 427.65 243.799 429.35 242.699C431.05 241.599 432.85 240.599 434.55 239.599L437.15 238.099C437.65 237.799 438.05 237.599 438.55 237.399C439.05 237.199 439.55 237.099 440.15 237.099C441.25 237.099 442.25 237.399 443.15 237.999C443.95 238.599 444.85 239.199 445.65 239.799C443.85 238.999 442.15 237.499 440.25 237.799C439.75 237.899 439.35 237.999 438.85 238.099C438.45 238.299 437.95 238.499 437.55 238.799L434.95 240.299C433.15 241.299 431.45 242.299 429.65 243.199C427.85 244.199 426.05 245.199 424.25 245.999Z" fill="#EFA794"/>
<path d="M442.45 243.999C440.85 244.899 439.25 245.699 437.55 246.399C435.85 247.099 434.15 247.599 432.35 247.999C433.95 247.099 435.55 246.299 437.25 245.599C438.95 244.899 440.75 244.399 442.45 243.999Z" fill="#EFA794"/>
<path d="M303.65 212.599C303.65 215.599 303.45 218.499 303.25 221.499C303.05 224.499 302.85 227.399 302.55 230.399C302.25 233.299 301.95 236.299 301.65 239.199L301.05 243.599C300.85 245.099 300.65 246.499 300.35 247.999C300.35 246.499 300.45 244.999 300.45 243.599L300.75 239.199C300.95 236.199 301.15 233.299 301.45 230.299C301.75 227.299 302.05 224.399 302.35 221.499C302.85 218.499 303.25 215.599 303.65 212.599Z" fill="#0063B5"/>
<path d="M361.75 234.199C361.45 234.199 361.25 234.099 361.05 233.899C360.85 233.699 360.75 233.499 360.65 233.299C357.25 215.599 347.65 193.599 347.55 193.399C343.55 185.799 342.65 180.299 344.85 177.099C347.05 173.899 350.85 174.299 351.05 174.299C351.35 174.299 351.65 174.499 351.85 174.699C352.05 174.899 352.15 175.199 352.15 175.499C352.15 175.799 351.95 176.099 351.75 176.299C351.55 176.499 351.25 176.599 350.95 176.599C350.15 176.499 349.35 176.699 348.65 176.999C347.95 177.299 347.25 177.799 346.75 178.399C345.65 180.099 345.15 183.999 349.65 192.599C349.75 192.899 359.45 215.099 362.95 233.099C362.95 233.399 362.95 233.699 362.75 233.899C362.55 234.099 362.35 234.299 362.05 234.299C361.85 234.199 361.85 234.199 361.75 234.199Z" fill="#424242"/>
<path d="M371.749 239.399C372.349 243.799 368.949 247.899 364.149 248.599C359.349 249.299 354.849 246.299 354.249 241.899C353.649 237.499 357.049 233.399 361.849 232.699C366.649 232.099 371.049 234.999 371.749 239.399Z" fill="#A5A5A5"/>
<path d="M369.949 235.598C370.249 236.698 370.149 237.798 369.749 238.798C369.349 239.798 368.649 240.698 367.749 241.398C366.849 241.998 365.749 242.398 364.649 242.398C363.549 242.398 362.449 242.098 361.549 241.498C360.649 240.898 359.949 239.998 359.549 238.998C359.149 237.998 359.049 236.798 359.349 235.798C359.549 234.698 360.149 233.698 360.949 232.998C361.749 232.198 362.749 231.798 363.849 231.598C365.249 231.298 366.649 231.598 367.749 232.398C368.849 232.998 369.649 234.198 369.949 235.598Z" fill="#C4C4C4"/>
<path d="M362.65 102.699L357.35 123.499C356.55 123.199 355.65 122.999 354.85 122.999C353.95 122.999 353.15 123.199 352.35 123.599C351.55 123.999 350.85 124.499 350.35 125.199C349.85 125.899 349.45 126.699 349.15 127.499C348.95 128.299 348.95 129.199 349.05 130.099C349.25 130.999 349.55 131.799 350.05 132.499C350.55 133.199 351.25 133.799 351.95 134.199C352.75 134.599 353.55 134.899 354.45 134.999L351.45 146.999C350.75 149.599 350.75 152.299 351.35 154.999C351.95 157.599 353.25 159.999 355.05 162.099L352.85 170.899V171.099C352.45 172.699 351.85 174.199 350.95 175.599C349.55 177.799 347.45 179.499 344.95 180.199C344.75 181.599 344.85 182.999 345.15 184.399C352.05 189.199 363.15 199.199 375.05 218.299C379.25 225.199 385.15 230.899 392.05 234.999L392.25 235.099C392.35 192.199 383.85 186.399 383.35 185.999L383.95 183.799L387.35 170.399C389.85 169.499 392.15 167.899 393.95 165.899C395.75 163.899 397.05 161.499 397.65 158.899L400.35 147.999L408.75 114.599L362.65 102.699Z" fill="#F9C7B4"/>
<path d="M394.449 110.199C388.749 116.199 381.749 120.799 373.949 123.599C368.849 125.399 358.849 128.399 353.749 124.699C349.549 121.599 353.249 110.599 355.849 106.699C362.749 96.499 374.449 93.499 385.749 98.999C389.049 100.599 398.249 104.699 394.449 110.199Z" fill="#424242"/>
<path d="M392.049 106.499C392.049 114.499 395.649 119.199 399.549 125.899C400.949 128.199 401.949 130.699 402.549 133.299C402.949 135.299 402.549 138.299 403.749 139.899C407.249 138.199 408.749 131.299 410.149 127.899C412.149 122.699 413.349 117.099 411.549 111.599C409.849 106.499 405.849 102.199 400.249 101.399C395.949 100.899 391.449 103.299 392.049 106.499Z" fill="#424242"/>
<path d="M354.45 134.898C356.45 136.698 354.85 141.198 354.65 143.498C354.15 148.698 358.95 150.998 359.15 156.098C359.35 159.898 357.95 163.598 359.55 167.298C360.45 169.398 362.35 170.898 362.95 173.098C363.45 175.098 362.55 177.098 363.05 179.098C363.65 181.498 367.85 185.298 366.35 187.698C364.25 191.098 358.55 186.498 356.65 184.998C353.85 182.898 352.35 184.098 349.25 184.398C346.05 184.998 342.75 184.498 339.75 183.198C335.95 181.498 335.65 179.598 335.45 175.198C334.95 164.898 335.55 154.998 340.85 145.998C342.75 142.398 345.85 139.498 349.55 137.798C351.25 137.098 352.95 136.098 354.45 134.898Z" fill="#424242"/>
<path d="M387.349 170.099C387.349 170.099 376.049 172.699 366.649 165.999C366.649 165.999 371.549 179.899 383.449 185.699L387.349 170.099Z" fill="#EFA794"/>
<path d="M235.349 79.4986C230.649 74.4986 222.849 72.7986 216.149 73.9986C203.749 76.2986 196.249 87.4986 194.549 99.4986C193.649 105.499 194.349 110.899 194.949 116.799C195.349 120.199 196.049 123.599 193.849 126.599C191.849 129.299 189.449 130.499 188.249 133.999C187.449 137.099 187.249 140.299 187.949 143.399C188.449 145.799 190.649 149.099 190.049 151.599C189.749 153.199 188.249 153.799 187.149 154.899C181.849 160.699 182.049 170.399 184.949 177.299C190.049 189.299 206.749 195.499 218.649 196.999C225.349 197.999 232.249 197.499 238.749 195.499C243.649 193.899 248.149 191.399 252.149 188.199C255.349 185.499 259.449 184.199 263.649 184.399C269.449 184.999 274.549 186.199 279.149 181.299C281.549 178.599 283.049 175.199 283.249 171.499C283.449 167.899 282.449 164.299 280.449 161.299C278.249 157.899 273.549 155.599 274.049 151.399C274.549 147.199 277.849 143.599 276.949 138.899C275.949 133.299 271.049 130.299 269.349 125.299C268.249 122.199 269.549 117.499 269.949 113.999C271.349 102.899 271.749 87.8986 263.049 79.3986C258.949 75.2986 255.449 72.9986 249.649 73.2986C245.749 73.4986 242.549 74.1986 239.749 76.8986C238.749 78.1986 237.149 79.1986 235.349 79.4986Z" fill="#424242"/>
<path d="M197.449 238.999C197.549 239.699 197.749 240.299 197.849 240.999C197.049 240.999 196.149 240.799 195.449 240.499C196.149 239.999 196.849 239.599 197.449 238.999Z" fill="white"/>
<path d="M182.349 239.999C182.349 240.599 182.349 241.199 182.449 241.699L182.149 241.499C182.249 240.699 182.349 240.199 182.349 239.999Z" fill="#A5A5A5"/>
<path d="M182.35 239.998C182.35 240.198 182.25 240.698 182.05 241.498C181.75 241.298 181.45 240.998 181.25 240.698C181.05 240.398 180.95 239.998 181.05 239.598C181.15 239.298 181.25 239.098 181.45 238.798C181.65 238.598 181.95 238.398 182.25 238.398C182.35 238.898 182.35 239.398 182.35 239.998Z" fill="#A5A5A5"/>
<path d="M187.25 240.998C186.95 241.998 185.45 242.598 183.75 242.198C183.25 242.098 182.75 241.898 182.35 241.698C182.35 241.098 182.35 240.498 182.25 239.998C182.25 239.498 182.25 238.898 182.25 238.398C183.05 238.198 183.85 238.098 184.55 238.298C186.25 238.698 187.45 239.798 187.25 240.898V240.998Z" fill="#A5A5A5"/>
<path d="M203.55 238.599C202.95 237.599 203.75 236.099 205.25 235.199C206.75 234.299 208.45 234.399 209.05 235.399C209.65 236.399 208.85 237.899 207.35 238.799C205.85 239.599 204.15 239.499 203.55 238.599Z" fill="#A5A5A5"/>
<path d="M273.55 214.199C272.95 213.199 272.05 212.399 271.05 211.799C270.05 211.199 268.85 210.899 267.65 210.899H267.55C268.15 210.599 268.75 210.499 269.35 210.499C270.35 210.499 271.35 210.899 272.15 211.499C272.85 212.299 273.35 213.199 273.55 214.199Z" fill="#C4C4C4"/>
<path d="M273.549 214.198C274.349 215.498 274.749 216.998 274.549 218.498C274.349 219.998 273.749 221.398 272.649 222.598C271.549 223.698 270.249 224.398 268.749 224.698C267.249 224.898 265.649 224.698 264.349 223.898C263.049 223.198 261.949 221.998 261.349 220.598C260.749 219.198 260.549 217.598 260.949 216.198C261.349 214.698 262.149 213.398 263.349 212.398C264.549 211.398 266.049 210.898 267.549 210.898C266.849 211.198 266.249 211.698 265.749 212.298C265.349 212.898 265.049 213.698 264.949 214.398C264.849 215.198 265.049 215.898 265.349 216.598C265.649 217.298 266.249 217.898 266.849 218.298C267.449 218.698 268.249 218.998 269.049 218.998C269.849 218.998 270.549 218.898 271.249 218.498C271.949 218.098 272.449 217.598 272.849 216.898C273.249 216.198 273.449 215.498 273.449 214.698C273.549 214.598 273.549 214.398 273.549 214.198Z" fill="#A5A5A5"/>
<path d="M273.549 214.199C273.549 214.399 273.549 214.599 273.549 214.799C273.549 215.599 273.349 216.299 272.949 216.999C272.549 217.699 271.949 218.199 271.349 218.599C270.749 218.999 269.949 219.099 269.149 219.099C268.349 219.099 267.649 218.799 266.949 218.399C266.349 217.999 265.749 217.399 265.449 216.699C265.149 215.999 264.949 215.199 265.049 214.499C265.149 213.699 265.349 212.999 265.849 212.399C266.249 211.799 266.949 211.299 267.649 210.999H267.749C268.949 210.999 270.049 211.299 271.149 211.899C272.049 212.399 272.949 213.199 273.549 214.199Z" fill="#C4C4C4"/>
<path d="M259.249 177.099C261.149 177.599 263.049 178.199 264.849 179.099C267.049 180.099 269.149 181.099 271.249 182.299L264.549 167.999C260.249 165.099 256.049 161.899 252.149 158.399C250.949 157.299 250.349 156.699 250.349 156.699L253.249 165.799C254.449 169.699 254.749 173.799 254.049 177.799C252.349 187.199 249.249 205.599 247.649 221.599L249.149 221.799C253.649 213.299 263.549 199.599 268.449 192.899L271.249 189.099L266.649 184.499L259.249 177.099Z" fill="#EAEAEA"/>
<path d="M304.45 281.399L300.85 238.499C294.05 175.199 282.05 176.999 282.05 176.999C275.85 174.699 269.95 171.699 264.55 167.999L271.25 182.299C269.15 181.099 267.05 180.099 264.85 179.099C263.05 178.299 261.15 177.599 259.25 177.199L266.65 184.599L271.25 189.199L268.45 192.999C263.55 199.599 253.75 213.399 249.15 221.899L247.65 221.699C246.95 227.499 246.65 233.199 246.55 238.999L263.65 299.899L250.85 306.499V340.299H303.05L304.55 283.999C304.65 283.099 304.55 282.199 304.45 281.399ZM267.65 224.799C266.75 224.799 265.85 224.599 264.95 224.299C264.15 223.999 263.35 223.499 262.65 222.799C261.35 221.499 260.65 219.799 260.55 217.899C260.55 216.099 261.25 214.299 262.55 212.999C263.85 211.699 265.55 210.999 267.45 210.899C268.05 210.599 268.65 210.499 269.25 210.499C270.25 210.499 271.25 210.899 272.05 211.499C272.85 212.199 273.35 213.099 273.45 214.099C274.05 215.099 274.45 216.399 274.45 217.599C274.45 218.799 274.15 219.999 273.55 221.099C272.95 222.199 272.05 223.099 271.05 223.699C270.05 224.399 268.85 224.699 267.65 224.799Z" fill="white"/>
<path d="M201.35 289.398C197.55 285.598 182.85 273.798 182.85 273.798C181.05 270.898 179.15 268.398 177.55 266.398L182.85 263.398L201.25 252.798L227.25 237.798L236.55 232.498L243.75 228.398L246.75 239.098L263.85 299.898L251.05 306.498L241.15 311.598L235.25 314.698L228.45 309.598L224.65 302.598C224.65 302.498 224.55 302.498 224.65 302.398C224.65 302.298 224.65 302.298 224.75 302.198C224.85 302.198 224.85 302.098 224.95 302.098C225.05 302.098 225.05 302.098 225.15 302.198L236.15 310.398C236.45 310.698 236.95 310.798 237.35 310.798C237.65 310.798 237.95 310.698 238.25 310.598C238.55 310.498 238.75 310.298 238.95 310.098C239.25 309.698 239.45 309.198 239.45 308.698C239.45 308.198 239.25 307.698 238.85 307.298L225.95 295.298C224.95 294.298 223.65 293.798 222.25 293.798H212.95C211.95 293.798 211.05 293.598 210.05 293.298L199.25 289.498C199.65 289.198 200.55 289.198 201.35 289.398Z" fill="#734002"/>
<path d="M236.349 232.399L227.049 237.799C226.349 235.999 225.549 234.299 224.949 232.599C212.049 200.299 210.549 179.999 211.949 167.999C213.449 171.399 215.149 174.799 216.949 177.999V179.599H217.849C221.649 186.099 227.049 193.999 233.649 199.099C238.549 192.899 243.049 186.399 246.949 179.599H250.249V173.299C251.449 170.899 252.449 168.299 253.149 165.699C254.449 169.599 254.649 173.699 253.949 177.799C252.249 187.199 249.149 205.599 247.549 221.599C246.849 227.399 246.549 233.099 246.449 238.899L243.449 228.199L236.349 232.399Z" fill="#FCEDC6"/>
<path d="M250.849 306.499V340.299H242.049V339.399V313.899L240.949 311.699L250.849 306.499Z" fill="#FCEDC6"/>
<path d="M250.35 173.299V179.599H247.05C248.25 177.499 249.35 175.399 250.35 173.299Z" fill="#FCEDC6"/>
<path d="M242.05 339.399V340.299H232.15L229.55 325.599C229.85 325.499 230.05 325.299 230.25 325.099C230.45 324.899 230.55 324.599 230.65 324.399L230.85 323.699L232.65 323.999C232.85 323.999 233.15 323.999 233.35 323.999H233.45C233.95 323.899 234.35 323.599 234.65 323.299C234.95 322.899 235.15 322.499 235.15 321.999C235.15 321.799 235.15 321.599 235.05 321.399L235.15 321.499C235.45 321.699 235.85 321.799 236.25 321.799C236.55 321.799 236.95 321.699 237.25 321.599C237.55 321.499 237.85 321.199 238.05 320.999C238.25 320.699 238.45 320.399 238.45 320.099C238.55 319.799 238.55 319.399 238.45 319.099L238.15 317.999C238.05 317.499 237.75 316.999 237.25 316.699L234.85 314.899L240.75 311.799L241.85 313.999L242.05 339.399Z" fill="#FCEDC6"/>
<path d="M197.549 305.199L189.649 300.899C193.149 292.499 196.649 290.099 198.849 289.499L209.649 293.299C210.549 293.599 211.549 293.799 212.549 293.799H221.849C223.249 293.799 224.549 294.299 225.549 295.299L238.449 307.299C238.849 307.699 239.049 308.199 239.149 308.699C239.149 309.199 239.049 309.799 238.649 310.199C238.449 310.399 238.249 310.599 237.949 310.699C237.649 310.799 237.349 310.899 237.049 310.899C236.649 310.899 236.149 310.699 235.849 310.499L224.849 302.299C224.749 302.299 224.749 302.199 224.649 302.199C224.549 302.199 224.549 302.199 224.449 302.299C224.349 302.299 224.349 302.399 224.349 302.499C224.349 302.599 224.349 302.599 224.349 302.699L228.149 309.699L234.949 314.799L237.349 316.599C237.749 316.899 238.049 317.399 238.249 317.899L238.549 318.999C238.649 319.299 238.649 319.699 238.549 319.999C238.449 320.299 238.349 320.599 238.149 320.899C237.949 321.199 237.649 321.399 237.349 321.499C237.049 321.599 236.749 321.699 236.349 321.699C235.949 321.699 235.549 321.599 235.249 321.399L235.149 321.299C235.249 321.499 235.249 321.699 235.249 321.899C235.249 322.399 235.049 322.799 234.749 323.199C234.449 323.599 234.049 323.799 233.549 323.899H233.449C233.249 323.899 232.949 323.899 232.749 323.899L230.949 323.599L230.749 324.299C230.649 324.599 230.549 324.799 230.349 324.999C230.149 325.199 229.949 325.399 229.649 325.499C229.449 325.599 229.249 325.599 229.049 325.599H228.749L226.349 325.199C226.249 325.199 226.049 325.199 225.949 325.299C225.849 325.399 225.749 325.399 225.649 325.599C225.549 325.899 225.249 326.099 225.049 326.299C224.749 326.499 224.449 326.599 224.149 326.599H223.949L214.149 325.599L213.249 325.499C212.749 325.399 212.149 325.199 211.849 324.799C210.749 323.599 209.849 322.299 209.249 320.799L204.749 310.499C204.249 309.399 203.449 308.499 202.349 307.899L197.549 305.199Z" fill="#F9C7B4"/>
<path d="M229.55 325.599L232.15 340.299H185.75L214.15 325.499L223.95 326.499H224.05C224.35 326.499 224.65 326.399 224.95 326.199C225.25 325.999 225.45 325.799 225.55 325.499C225.65 325.399 225.75 325.299 225.85 325.199C225.95 325.099 226.05 325.099 226.25 325.099L228.65 325.499H228.95C229.15 325.599 229.35 325.599 229.55 325.599Z" fill="white"/>
<path d="M200.35 195.399L208.45 185.399C204.85 183.399 194.55 187.899 194.55 187.899C197.15 181.499 201.85 170.099 203.95 164.999C205.85 162.599 207.95 160.399 210.15 158.499L217.05 153.099C216.85 153.399 213.35 157.499 212.05 167.999C210.65 179.999 212.15 200.299 225.05 232.599L222.75 233.499L203.05 209.499L195.95 200.799L200.35 195.399Z" fill="#EAEAEA"/>
<path d="M217.95 179.599H217.05V177.999C217.35 178.499 217.65 178.999 217.95 179.599Z" fill="#FCEDC6"/>
<path d="M214.15 325.499L185.75 340.299L177.05 304.999L185.65 313.799C185.65 313.799 192.65 313.999 197.65 305.199L202.35 307.799C203.45 308.399 204.25 309.299 204.75 310.399L209.25 320.699C209.95 322.199 210.75 323.499 211.85 324.699C212.25 325.099 212.75 325.299 213.25 325.399L214.15 325.499Z" fill="#734002"/>
<path d="M210.05 158.499C207.75 160.499 205.65 162.699 203.85 164.999L204.95 162.399L210.05 158.499Z" fill="#EAEAEA"/>
<path d="M208.35 185.399L200.25 195.399C197.25 190.199 192.85 190.499 192.85 190.499C194.05 181.199 197.85 172.299 203.85 165.099C201.75 170.199 197.05 181.599 194.45 187.999C194.45 187.899 204.95 183.299 208.35 185.399Z" fill="white"/>
<path d="M177.45 266.398C174.85 263.098 173.05 261.098 173.05 261.098C178.65 257.898 181.35 245.798 182.15 241.398C181.85 241.198 181.55 240.898 181.35 240.598C181.15 240.298 181.05 239.898 181.15 239.498C181.25 239.198 181.35 238.998 181.55 238.698C181.75 238.498 182.05 238.298 182.35 238.298C183.15 238.098 183.95 237.998 184.65 238.198C186.35 238.598 187.55 239.698 187.35 240.798V240.898C187.05 241.898 185.55 242.498 183.85 242.098C183.35 241.998 182.85 241.798 182.45 241.598C182.65 247.998 182.75 255.298 182.75 263.298L201.15 252.698L227.15 237.698C226.45 235.898 225.65 234.198 225.05 232.498L222.75 233.398L203.05 209.398L195.95 200.698L200.35 195.298C197.35 190.098 192.95 190.398 192.95 190.398C194.15 181.098 197.95 172.198 203.95 164.998L205.05 162.398L187.25 176.198C181.35 178.098 176.05 181.498 171.75 185.898C167.95 189.898 165.35 194.898 164.15 200.298L157.35 216.198C156.25 218.598 155.75 221.298 155.75 223.998C155.75 226.198 155.45 228.298 154.85 230.398C154.25 232.498 153.45 234.498 152.35 236.298L144.65 248.998C143.35 251.198 142.85 253.798 143.25 256.398L143.85 259.898C144.05 260.698 144.05 261.598 144.05 262.498V266.798C144.05 269.898 145.25 272.798 147.45 274.998L177.15 305.098L185.75 313.898C186.75 309.498 188.15 305.198 189.85 300.998C193.35 292.598 196.85 290.198 199.05 289.598C199.85 289.298 200.65 289.298 201.45 289.498C197.65 285.698 182.95 273.898 182.95 273.898C180.95 270.998 179.05 268.398 177.45 266.398ZM205.25 235.198C206.75 234.298 208.45 234.398 209.05 235.398C209.65 236.398 208.85 237.898 207.35 238.798C205.85 239.698 204.15 239.598 203.65 238.698C203.65 238.698 203.65 238.698 203.65 238.598C202.95 237.598 203.75 236.098 205.25 235.198ZM197.45 238.998C197.55 239.698 197.75 240.298 197.85 240.998C197.05 240.998 196.25 240.798 195.45 240.498C196.15 239.998 196.85 239.598 197.45 238.998Z" fill="white"/>
<path d="M189.65 300.898L197.55 305.198C192.55 313.998 185.55 313.798 185.55 313.798C186.55 309.398 187.95 305.098 189.65 300.898Z" fill="#999999"/>
<path d="M176.95 304.999L185.65 340.299H173.85L176.95 304.999Z" fill="white"/>
<path d="M173.85 186.199C174.65 186.999 175.25 187.899 175.65 188.899C176.15 189.899 176.55 190.899 176.95 191.899C177.65 193.999 178.25 196.099 178.75 198.199C179.65 202.399 180.45 206.699 180.95 211.099C181.15 213.299 181.45 215.399 181.55 217.599C181.75 219.799 181.95 221.899 181.95 224.099C182.05 226.299 182.15 228.399 182.25 230.599C182.25 232.799 182.25 234.899 182.25 237.099C181.85 232.799 181.55 228.499 181.05 224.199C180.55 219.899 180.25 215.599 179.75 211.299C179.55 209.099 179.25 206.999 178.95 204.899C178.65 202.799 178.25 200.599 177.85 198.499C177.45 196.399 176.95 194.299 176.35 192.199C176.05 191.199 175.75 190.099 175.35 189.099C175.05 187.999 174.55 187.099 173.85 186.199Z" fill="#6A6A69"/>
<path d="M220.449 313.398C222.149 314.198 223.849 315.198 225.549 316.198C228.649 317.498 231.649 318.998 234.549 320.598C231.349 319.598 228.249 318.298 225.249 316.898C223.549 315.698 222.049 314.598 220.449 313.398Z" fill="#EFA794"/>
<path d="M216.55 318.599C217.85 319.299 219.15 320.099 220.35 320.899L220.25 320.799C222.05 321.099 223.85 321.399 225.65 321.899C227.45 322.299 229.15 322.899 230.95 323.499C229.15 323.299 227.35 322.999 225.55 322.599L222.75 322.199C221.85 321.999 220.95 321.799 220.05 321.599H219.95H219.85C218.75 320.599 217.65 319.599 216.55 318.599Z" fill="#EFA794"/>
<path d="M262.35 231.599C262.05 234.299 261.65 236.999 261.25 239.599C260.85 242.299 260.35 244.899 259.85 247.599C259.35 250.299 258.75 252.899 258.15 255.499L257.25 259.399C256.95 260.699 256.55 261.999 256.25 263.299C256.35 261.999 256.55 260.599 256.75 259.299L257.35 255.299C257.75 252.599 258.25 249.999 258.75 247.299C259.25 244.699 259.85 241.999 260.45 239.399C260.95 236.899 261.55 234.199 262.35 231.599Z" fill="#6A6A69"/>
<path d="M193.649 219.898C193.949 221.198 194.249 222.398 194.649 223.698L195.549 227.498C196.149 229.998 196.749 232.598 197.249 235.098C197.749 237.698 198.249 240.198 198.649 242.798L199.249 246.598C199.449 247.898 199.649 249.198 199.749 250.498C199.349 249.298 199.049 247.998 198.649 246.698L197.749 242.898C197.149 240.398 196.549 237.798 196.049 235.298C195.549 232.798 195.049 230.198 194.649 227.598C194.249 224.998 193.849 222.498 193.649 219.898Z" fill="#6A6A69"/>
<path d="M185.05 208.899C184.75 208.899 184.55 208.799 184.35 208.599C184.15 208.399 184.05 208.199 183.95 207.999C183.85 207.599 181.75 197.599 185.95 192.399C186.75 191.399 187.85 190.599 189.05 190.099C190.25 189.599 191.55 189.299 192.85 189.399C195.05 189.399 197.15 190.299 198.75 191.799C201.95 194.699 203.75 199.599 203.95 206.599C203.95 206.699 203.95 206.899 203.85 206.999C203.75 207.099 203.75 207.299 203.65 207.399C203.55 207.499 203.45 207.599 203.35 207.699C203.25 207.799 203.05 207.799 202.95 207.799C202.85 207.799 202.65 207.799 202.55 207.699C202.45 207.699 202.25 207.599 202.15 207.499C202.05 207.399 201.95 207.299 201.85 207.199C201.75 207.099 201.75 206.899 201.75 206.799C201.45 200.599 199.95 195.999 197.25 193.599C196.05 192.399 194.45 191.699 192.85 191.699C191.85 191.599 190.85 191.799 189.95 192.199C189.05 192.599 188.25 193.199 187.65 193.899C184.05 198.299 186.05 207.599 186.05 207.699C186.15 207.999 186.05 208.299 185.95 208.499C185.75 208.699 185.55 208.899 185.25 208.999L185.05 208.899Z" fill="#424242"/>
<path d="M198.05 241.399C197.15 241.399 196.35 241.199 195.55 240.899C186.25 236.799 184.85 209.899 184.75 208.699H185.85C185.85 208.999 187.35 236.099 195.95 239.899C198.15 240.899 200.75 240.199 203.55 237.899L204.25 238.799C202.55 240.299 200.35 241.199 198.05 241.399Z" fill="#C4C4C4"/>
<path d="M190.949 242.099C189.649 242.099 188.249 241.899 186.949 241.499L187.249 240.399C190.849 241.499 193.949 240.999 196.349 239.099C204.849 232.099 202.449 208.099 202.449 207.799L203.549 207.699C203.649 208.699 205.949 232.499 197.049 239.899C195.349 241.399 193.149 242.099 190.949 242.099Z" fill="#C4C4C4"/>
<path d="M269.15 211.699C268.95 211.699 268.75 211.599 268.65 211.599C268.55 211.499 268.45 211.399 268.35 211.299C268.25 211.199 268.15 211.099 268.15 210.899C268.15 210.799 268.05 210.599 268.05 210.499C270.45 176.799 249.35 156.399 249.15 156.199C248.95 155.999 248.85 155.699 248.85 155.399C248.85 155.099 248.95 154.799 249.15 154.599C249.35 154.399 249.65 154.299 249.95 154.299C250.25 154.299 250.55 154.399 250.75 154.599C250.95 154.799 272.85 175.899 270.35 210.599C270.35 210.899 270.25 211.199 270.05 211.299C269.65 211.599 269.35 211.699 269.15 211.699Z" fill="#424242"/>
<path d="M286.95 188.099C286.55 196.299 285.45 204.399 283.55 212.399C283.95 204.199 285.05 196.099 286.95 188.099Z" fill="#6A6A69"/>
<path d="M281.85 193.398C283.05 205.598 284.15 217.898 285.25 230.098L288.35 266.898C288.55 269.998 288.35 273.098 287.75 276.198C287.15 279.298 286.15 282.198 285.55 285.198C284.95 288.198 284.55 291.198 284.45 294.298C284.35 297.298 284.65 300.398 284.75 303.498L285.85 321.898L286.85 340.298L285.35 321.898L283.95 303.498C283.65 300.398 283.45 297.298 283.55 294.198C283.65 291.098 283.95 287.998 284.65 284.998C285.25 281.998 286.25 278.998 286.85 275.998C287.35 272.998 287.55 269.998 287.45 266.898L284.55 230.098C283.55 217.998 282.65 205.698 281.85 193.398Z" fill="#6A6A69"/>
<path d="M269.449 281.699C269.149 286.099 268.849 290.499 268.449 294.899C268.049 299.299 267.549 303.699 267.149 308.099C266.749 312.499 266.149 316.899 265.549 321.299L264.649 327.899C264.349 330.099 264.049 332.299 263.649 334.499C263.749 332.299 263.949 330.099 264.149 327.899L264.749 321.299C265.149 316.899 265.649 312.499 266.049 308.099C266.449 303.699 267.049 299.299 267.649 294.899C268.149 290.399 268.749 286.099 269.449 281.699Z" fill="#6A6A69"/>
<path d="M233.649 207.799C235.249 215.899 236.149 224.199 236.349 232.399C234.749 224.299 233.849 216.099 233.649 207.799Z" fill="#734002"/>
<path d="M242.049 313.799C242.449 318.099 242.549 322.299 242.649 326.599C242.649 330.899 242.549 335.099 242.049 339.399C241.649 335.199 241.449 330.899 241.449 326.599C241.549 322.299 241.649 318.099 242.049 313.799Z" fill="#734002"/>
<path d="M192.45 193.299C192.25 193.299 192.05 193.299 191.95 193.199C191.85 193.099 191.75 192.999 191.65 192.899C191.55 192.799 191.45 192.699 191.45 192.499C191.45 192.399 191.35 192.199 191.35 192.099C192.05 180.999 199.05 170.199 204.85 163.099C208.55 158.499 212.75 154.199 217.15 150.299C217.35 150.099 217.65 149.999 217.95 150.099C218.25 150.099 218.55 150.299 218.75 150.499C218.85 150.599 218.95 150.699 218.95 150.899C218.95 150.999 219.05 151.199 218.95 151.299C218.95 151.399 218.85 151.599 218.85 151.699C218.75 151.799 218.65 151.899 218.55 151.999C218.35 152.199 194.85 172.099 193.45 192.299C193.45 192.599 193.25 192.799 193.05 192.999C193.05 193.199 192.75 193.299 192.45 193.299Z" fill="#424242"/>
<path d="M152.149 258.399C153.849 257.899 155.649 257.599 157.449 257.599C159.249 257.499 161.049 257.599 162.849 257.799C164.649 257.999 166.449 258.399 168.149 258.999C169.849 259.499 171.549 260.299 173.049 261.199C171.349 260.699 169.649 260.199 167.949 259.899C166.249 259.499 164.549 259.199 162.749 258.999C161.049 258.799 159.249 258.599 157.449 258.499C155.749 258.399 153.949 258.299 152.149 258.399Z" fill="#6A6A69"/>
<path d="M155.55 245.398C159.25 246.598 162.75 248.398 165.95 250.598C167.55 251.698 169.05 252.998 170.35 254.498C171.75 255.898 172.65 257.698 173.05 259.598C172.25 257.898 171.15 256.298 169.65 255.098C168.25 253.798 166.85 252.598 165.25 251.498C163.75 250.398 162.05 249.398 160.45 248.398C158.85 247.398 157.25 246.298 155.55 245.398Z" fill="#6A6A69"/>
<path d="M285.649 283.099C286.349 285.499 287.049 287.899 287.649 290.299C288.249 292.699 288.749 295.099 289.349 297.499C289.849 299.899 290.349 302.299 290.749 304.799L291.349 308.499C291.549 309.699 291.749 310.899 291.849 312.199C291.449 310.999 291.149 309.799 290.849 308.599L289.949 304.999C289.349 302.599 288.849 300.199 288.249 297.799C287.749 295.399 287.249 292.999 286.849 290.499C286.349 287.999 285.949 285.599 285.649 283.099Z" fill="#6A6A69"/>
<path d="M209.25 124.299C212.55 124.299 215.15 121.599 215.15 118.399C215.15 115.199 212.45 112.499 209.25 112.499C206.05 112.499 203.35 115.199 203.35 118.399C203.35 121.599 205.95 124.299 209.25 124.299Z" fill="#EFA794"/>
<path d="M209.85 94.1992V132.599C209.85 138.899 212.35 144.999 216.85 149.499C221.35 153.999 227.35 156.499 233.75 156.499C240.05 156.499 246.15 153.999 250.65 149.499C255.15 144.999 257.65 138.999 257.65 132.599V94.1992H209.85Z" fill="#F9C7B4"/>
<path d="M206.45 112.099C210.05 113.599 215.65 110.599 218.65 108.599C220.75 107.299 222.65 105.899 224.55 104.299C225.45 103.399 226.35 102.099 227.45 101.699C226.25 103.799 224.25 105.699 223.25 107.799C224.85 108.999 227.45 107.299 229.05 106.499C232.65 104.899 236.05 102.699 238.95 100.099C241.25 97.999 243.35 95.699 245.45 93.399C243.35 97.899 246.05 103.499 249.15 106.899C249.15 105.899 249.15 104.899 249.25 103.899C251.35 108.099 253.85 111.499 258.65 112.999C260.65 113.599 262.15 113.999 262.75 112.299C264.25 108.499 261.55 101.899 260.35 98.499C258.55 93.199 255.65 88.499 250.25 86.399C243.05 83.599 234.35 85.799 227.05 87.499C219.75 89.199 206.45 91.999 204.65 100.899C204.25 103.899 204.45 108.899 206.45 112.099Z" fill="#424242"/>
<path d="M253.249 165.699C252.449 168.299 251.449 170.799 250.349 173.199C250.049 173.899 249.649 174.699 249.249 175.399C248.549 176.799 247.749 178.199 247.049 179.499C243.049 186.299 238.649 192.799 233.649 198.999C227.149 193.799 221.649 185.999 217.849 179.499L216.949 177.999C215.149 174.699 213.449 171.399 211.949 167.999C213.149 157.499 216.749 153.399 216.949 153.099V149.599C220.149 152.699 224.149 154.899 228.549 155.799C228.949 155.899 229.349 155.999 229.749 155.999C230.449 156.099 231.149 156.199 231.849 156.299H232.349C232.749 156.299 233.149 156.299 233.549 156.299C239.749 156.299 245.749 153.899 250.249 149.499V156.499L253.249 165.699Z" fill="#F9C7B4"/>
<path d="M253.25 165.699C252.45 168.299 251.45 170.799 250.35 173.199C250.05 173.899 249.65 174.699 249.25 175.399C237.25 172.299 231.25 162.399 228.55 155.799L229.75 155.999C230.45 156.099 231.15 156.199 231.85 156.299H232.35C232.75 156.299 233.15 156.299 233.55 156.299C239.75 156.299 245.75 153.899 250.25 149.499V156.499L253.25 165.699Z" fill="#EFA794"/>
<path d="M498.15 339.699H7.34961V340.899H498.25V339.699H498.15Z" fill="white"/>
</svg>
