<svg xmlns="http://www.w3.org/2000/svg" viewBox="0 0 557.01 94.94"><defs><style>.cls-1{fill:#ff7500;}</style></defs><g id="Layer_2" data-name="Layer 2"><g id="Layer_1-2" data-name="Layer 1"><path class="cls-1" d="M64.19,81.16v0c0-5.35,4.22-9.34,9.87-9.34a10.93,10.93,0,0,1,7.49,2.71l-3.35,4a6,6,0,0,0-4-1.56,4,4,0,0,0-4,4.22v0a4.08,4.08,0,0,0,4.27,4.28,3.79,3.79,0,0,0,2.05-.41V83.31H73.47V79.47h8.67v8.29a12.2,12.2,0,0,1-7.9,2.68C68.64,90.44,64.19,86.71,64.19,81.16Z"/><path class="cls-1" d="M83.94,72.16h6v17.9h-6Z"/><path class="cls-1" d="M98.26,72h5.93l7.55,18h-6.5l-.94-2.41H98l-.92,2.41H90.72ZM100,68.4c1.12-.08,1.89-.41,1.89-1.41,0-.08-.1-.46-.71-.43a1.54,1.54,0,0,0-1.28,1.17l-2.48-1.25c1.15-2.33,2.55-2.64,3.88-2.64,2,0,3.56,1.21,3.56,3.12a2.91,2.91,0,0,1-2.2,2.89l-.15,1H100.1Zm2.81,15-1.63-4.35-1.64,4.35Z"/><path class="cls-1" d="M112.54,72.16h6v17.9h-6Z"/><path class="cls-1" d="M127.12,72.16h8c4.76,0,8,2.12,8,6.36v.06c0,4.32-3.3,6.62-8.14,6.62H133.1v4.86h-6Zm7.59,8.77c1.54,0,2.56-.67,2.56-2v0c0-1.31-.92-2-2.53-2H133.1v4Z"/><path class="cls-1" d="M144.46,72.16h6v6.31h5.48V72.16h6v17.9h-6V83.64h-5.48v6.42h-6Z"/><path class="cls-1" d="M170.19,72h5.94l7.54,18h-6.5l-.94-2.41H170L169,90.06h-6.39Zm2.48-6.09,5.65,1.46-4.22,3.45h-3.88Zm2.07,17.47-1.63-4.35-1.64,4.35Z"/><path class="cls-1" d="M184.42,72.16h8.05c4.76,0,8,2.12,8,6.36v.06c0,4.32-3.3,6.62-8.14,6.62H190.4v4.86h-6ZM192,80.93c1.54,0,2.56-.67,2.56-2v0c0-1.31-.92-2-2.53-2H190.4v4Z"/><path class="cls-1" d="M207.85,81.16v0a9.25,9.25,0,0,1,9.51-9.34,8.75,8.75,0,0,1,8.11,4.66l-4.94,2.89a3.46,3.46,0,0,0-3.25-2.18c-2,0-3.35,1.77-3.35,3.92v0c0,2.32,1.39,4,3.35,4a3.64,3.64,0,0,0,3.38-2.25l4.94,2.79a9.49,9.49,0,0,1-17.75-4.45Z"/><path class="cls-1" d="M226.75,72.16h6v6.31h5.47V72.16h6v17.9h-6V83.64h-5.47v6.42h-6Z"/><path class="cls-1" d="M245.84,81.16v0a9.48,9.48,0,0,1,9.79-9.34c5.52,0,9.74,4.07,9.74,9.29v0a9.47,9.47,0,0,1-9.79,9.33C250.05,90.44,245.84,86.38,245.84,81.16Zm13.5,0v0a3.83,3.83,0,0,0-3.76-4,3.77,3.77,0,0,0-3.71,4v0a3.83,3.83,0,0,0,3.76,4A3.77,3.77,0,0,0,259.34,81.16Z"/><path class="cls-1" d="M273.1,81.16v0a9.25,9.25,0,0,1,9.52-9.34,8.73,8.73,0,0,1,8.1,4.66l-4.93,2.89a3.46,3.46,0,0,0-3.25-2.18c-2,0-3.35,1.77-3.35,3.92v0c0,2.32,1.38,4,3.35,4a3.65,3.65,0,0,0,3.38-2.25l4.93,2.79a9.49,9.49,0,0,1-17.75-4.45Z"/><path class="cls-1" d="M291.6,81.16v0a9.48,9.48,0,0,1,9.79-9.34c5.53,0,9.75,4.07,9.75,9.29v0a9.48,9.48,0,0,1-9.8,9.33C295.82,90.44,291.6,86.38,291.6,81.16Zm7.67-14.68h4.2l3.4,4.4h-3.25l-2.28-1.43-2.27,1.43h-3.2Zm5.83,14.68v0a3.83,3.83,0,0,0-3.76-4,3.78,3.78,0,0,0-3.71,4v0a3.83,3.83,0,0,0,3.76,4A3.77,3.77,0,0,0,305.1,81.16Zm-6,10.41h4.5v3.37h-4.5Z"/><path class="cls-1" d="M317.36,77.22h-5.27V72.16h16.52v5.06h-5.27V90.06h-6Z"/><path class="cls-1" d="M335,87.37l3.2-3.81a10,10,0,0,0,6.27,2.1c1.1,0,1.53-.28,1.53-.77v0c0-.51-.56-.79-2.48-1.18-4-.81-7.54-2-7.54-5.75v0c0-3.4,2.68-6,7.59-6a12.32,12.32,0,0,1,8.08,2.46l-2.91,4a9.46,9.46,0,0,0-5.37-1.77c-.9,0-1.31.31-1.31.75v0c0,.48.46.82,2.38,1.15,4.58.82,7.65,2.2,7.65,5.78v0c0,3.76-3.1,6.06-7.9,6.06A13.68,13.68,0,0,1,335,87.37Z"/><path class="cls-1" d="M353,81.16v0a9.48,9.48,0,0,1,9.8-9.34c5.52,0,9.74,4.07,9.74,9.29v0a9.47,9.47,0,0,1-9.79,9.33C357.26,90.44,353,86.38,353,81.16Zm7.68-14.68h4.19l3.4,4.4h-3.25l-2.27-1.43-2.28,1.43h-3.2Zm5.83,14.68v0a3.83,3.83,0,0,0-3.76-4,3.77,3.77,0,0,0-3.71,4v0a3.83,3.83,0,0,0,3.76,4A3.78,3.78,0,0,0,366.55,81.16Zm2.66-18.34,5.65,1.46-4.22,3.45h-3.89Z"/><path class="cls-1" d="M374.22,72.16h5.6l6.37,7.9v-7.9h5.94v17.9h-5.32l-6.65-8.26v8.26h-5.94Z"/><path class="cls-1" d="M393.77,81.16v0c0-5.35,4.22-9.34,9.87-9.34a10.93,10.93,0,0,1,7.49,2.71l-3.35,4a6,6,0,0,0-4-1.56,4,4,0,0,0-4,4.22v0a4.08,4.08,0,0,0,4.27,4.28,3.79,3.79,0,0,0,2.05-.41V83.31h-3.07V79.47h8.67v8.29a12.2,12.2,0,0,1-7.9,2.68C398.22,90.44,393.77,86.71,393.77,81.16Z"/><path class="cls-1" d="M420,72.16h6v6.7l5.09-6.7H438l-6.24,7.77,6.37,10.13H431l-3.5-5.68L426,86.25v3.81h-6Z"/><path class="cls-1" d="M438.64,72.16h6v6.31h5.47V72.16h6v17.9h-6V83.64h-5.47v6.42h-6Z"/><path class="cls-1" d="M457.72,81.16v0a9.48,9.48,0,0,1,9.79-9.34c5.53,0,9.75,4.07,9.75,9.29v0a9.48,9.48,0,0,1-9.8,9.33C461.94,90.44,457.72,86.38,457.72,81.16Zm8.49-12.76c1.12-.08,1.89-.41,1.89-1.41,0-.08-.1-.46-.71-.43a1.54,1.54,0,0,0-1.28,1.17l-2.48-1.25c1.15-2.33,2.55-2.64,3.88-2.64,2,0,3.56,1.21,3.56,3.12a2.91,2.91,0,0,1-2.2,2.89l-.15,1h-2.41Zm5,12.76v0a3.83,3.83,0,0,0-3.76-4,3.78,3.78,0,0,0-3.71,4v0a3.83,3.83,0,0,0,3.76,4A3.77,3.77,0,0,0,471.22,81.16Z"/><path class="cls-1" d="M478.9,72.16h15.27v4.91h-9.39v1.81h8.75V83.2h-8.75v2h9.52v4.91H478.9Z"/><path class="cls-1" d="M91.29,1.91c-15.75,0-27.92,12-27.92,27.09v.15c0,15.14,12,26.94,27.77,26.94s27.92-12,27.92-27.09v-.15C119.06,13.71,107,1.91,91.29,1.91Zm10.57,27.24c0,6.08-4.09,11.58-10.57,11.58S80.57,35.16,80.57,29v-.15c0-6.09,4.08-11.58,10.57-11.58S101.86,22.84,101.86,29Z"/><path class="cls-1" d="M251.59,1.91c-15.75,0-27.92,12-27.92,27.09v.15c0,15.14,12,26.94,27.77,26.94s27.92-12,27.92-27.09v-.15C279.36,13.71,267.33,1.91,251.59,1.91Zm10.57,27.24c0,6.08-4.09,11.58-10.57,11.58S240.87,35.16,240.87,29v-.15c0-6.09,4.08-11.58,10.57-11.58S262.16,22.84,262.16,29Z"/><path class="cls-1" d="M437.32,28.85c0-15.14-12-26.94-27.78-26.94s-27.91,12-27.91,27.09v.15c0,15.14,12,26.94,27.77,26.94s27.92-12,27.92-27.09Zm-17.21.3c0,6.08-4.08,11.58-10.57,11.58S398.83,35.16,398.83,29v-.15c0-6.09,4.08-11.58,10.57-11.58S420.11,22.84,420.11,29Z"/><path class="cls-1" d="M320.24,37.84c6-3.14,9.76-8.51,9.76-16.4v-.16c0-5.51-1.48-9.43-4.52-12.72-3.47-3.76-9-6.13-17.84-6.13h-24.2V56.09H300V40.76h3.54l9.34,15.33h18.89Zm-6.73-16.73c0,3.3-2.4,5.21-6.37,5.21H300V15.82h7.22c3.89,0,6.29,1.69,6.29,5.14Z"/><path class="cls-1" d="M149.76,17.5c4.53,0,7.08,2.52,9,6.3l13.66-8.38C168.23,7.48,160.94,1.91,150,1.91c-14.79,0-26.32,11.58-26.32,27.09v.15c0,16.1,11.95,26.94,25.68,26.94a25.51,25.51,0,0,0,15.42-4.62c.22-.16.46-.31.67-.47a19.64,19.64,0,0,0,5.49-5.92,5.64,5.64,0,0,0,.91-3.6,1.71,1.71,0,0,0-.46-1,1,1,0,0,0-.23-.18,1.88,1.88,0,0,0-.38-.13,5.2,5.2,0,0,1-3.58-1.79c-.19-.2-.38-.4-.58-.65a10.41,10.41,0,0,1-1.21-1.84c-.08-.17-.14-.33-.2-.48a4.23,4.23,0,0,1-.22-1.26c0-.08,0-.18,0-.27s0-.21,0-.36a5.48,5.48,0,0,0,0-1.07,1.92,1.92,0,0,0-.55-1.05,2.63,2.63,0,0,0-.77-.55,1.89,1.89,0,0,0-1.32-.06A3.37,3.37,0,0,0,160.9,32c-3.08,5.09-3.8,5.52-5.43,6.86a8.77,8.77,0,0,1-5.71,1.63c-5.45,0-9.27-4.75-9.27-11.5v-.15C140.49,22.62,144.17,17.5,149.76,17.5Z"/><path class="cls-1" d="M29.37,2.39S17,2.45,12.1,2.36h0c-.82,0-2.86-.25-8.86-2a3.63,3.63,0,0,0-2,0,1.91,1.91,0,0,0-1,.85A2.46,2.46,0,0,0,0,2.09,1.87,1.87,0,0,0,.23,3.23,8.2,8.2,0,0,0,1.16,4.3C1.68,5,2.24,5.63,2.24,8.24A5.29,5.29,0,0,1,.52,12.63,1.79,1.79,0,0,0,0,13.84a2.58,2.58,0,0,0,1.36,2.05A13,13,0,0,0,6,17.54a31.22,31.22,0,0,0,5.05.48H27l2.76,0a16.63,16.63,0,0,1,6.83,1.25c3.57,1.61,5.63,4.8,5.63,9.87v.16c0,7.75-4.82,11.12-12.46,11.12H27V19.64H10.4V56.09H28.8c20,0,30.08-11.2,30.08-27.16v-.15C58.88,12.82,49,2.39,29.37,2.39Z"/><path class="cls-1" d="M224.54,13.4a1.65,1.65,0,0,0-.5-1.12,5,5,0,0,1-1.65-4.12c0-2.44.5-3,1-3.7a7.22,7.22,0,0,0,.86-1,1.67,1.67,0,0,0,.2-1.07,2,2,0,0,0-.25-.84,1.75,1.75,0,0,0-.93-.78,2.54,2.54,0,0,0-1.32,0c-.15,0-.3.06-.47.11-.94.22-1.77.41-2.52.56a37.6,37.6,0,0,1-4.65.74l-1.25,0H175.36V17.43h14.58V56.09H206.5V17.43h6.66s.59,0,1.44,0A23.73,23.73,0,0,0,219,17.1a13.9,13.9,0,0,0,2.59-.75C223.26,15.67,224.55,14.67,224.54,13.4Z"/><path class="cls-1" d="M556.82,13.4a2.87,2.87,0,0,0-.33-.5,5,5,0,0,1-1.41-2.21,7.46,7.46,0,0,1-.33-2.29c0-2.67.57-3.27,1.09-4a7.38,7.38,0,0,0,.94-1.1A1.92,1.92,0,0,0,557,2.11a2.33,2.33,0,0,0-.26-.91,1.88,1.88,0,0,0-1-.87,3.32,3.32,0,0,0-1.91.07,51.25,51.25,0,0,1-8.29,1.4H532.1v24l-18.2-24h-16V56.09h17V31l19,25.05h15.2V18.19q.91-.09,1.86-.27c3.05-.56,6.09-1.76,6.09-3.78A1.63,1.63,0,0,0,556.82,13.4Z"/><path class="cls-1" d="M357.27,2.05H347V2c-.09,0-2.77.35-9.89-1.63A7.74,7.74,0,0,0,334,.08a2.29,2.29,0,0,0-1.18,1,2.88,2.88,0,0,0-.31,1.06,2.22,2.22,0,0,0,.26,1.36,9.38,9.38,0,0,0,1.12,1.27c.63.89,1.3,1.59,1.3,4.7,0,3.59-1.64,4.78-2.07,5.24a2.09,2.09,0,0,0-.62,1.43c0,1.24,1,2.2,2.46,2.94a18,18,0,0,0,4.8,1.47l1,.16V21h0V56.09h39.85V41.25H357.27Z"/><path class="cls-1" d="M455.94,2h17l21.65,53.86H476l-2.71-7.18h-18l-2.64,7.18H434.29ZM469,36l-4.7-13-4.69,13Z"/></g></g></svg>