<svg width="24" height="24" viewBox="0 0 24 24" fill="none" xmlns="http://www.w3.org/2000/svg">
<path d="M20.3415 9.22137C20.0851 7.42855 19.2613 5.77344 17.9577 4.47C16.365 2.87719 14.2473 2 11.9947 2C9.74217 2 7.62447 2.87719 6.03169 4.46996C4.72821 5.77344 3.90434 7.42859 3.64793 9.22133C2.69434 9.51801 2 10.4088 2 11.4587V13.9574C2 15.249 3.05086 16.2999 4.34251 16.2999H6.68501V9.11621H5.24903C5.50649 7.78254 6.15427 6.55598 7.13595 5.57422C8.43377 4.27641 10.1594 3.56168 11.9948 3.56168C15.3334 3.56168 18.123 5.95516 18.739 9.11621H17.3045V16.2999H18.8661V16.5341C18.8661 17.8258 17.8153 18.8766 16.5236 18.8766H14.203C13.8806 17.9678 13.0127 17.315 11.9948 17.315C10.7031 17.315 9.65225 18.3658 9.65225 19.6575C9.65225 20.9491 10.7031 22 11.9948 22C13.0127 22 13.8806 21.3471 14.203 20.4383H16.5236C18.6764 20.4383 20.4278 18.6869 20.4278 16.5341V16.1656C21.3366 15.8432 21.9895 14.9753 21.9895 13.9574V11.4587C21.9895 10.4088 21.2952 9.51805 20.3415 9.22137ZM5.12337 14.7382H4.34254C3.912 14.7382 3.56172 14.388 3.56172 13.9574V11.4587C3.56172 11.0282 3.912 10.6779 4.34254 10.6779H5.12337V14.7382ZM11.9948 20.4383C11.5642 20.4383 11.2139 20.088 11.2139 19.6575C11.2139 19.227 11.5642 18.8767 11.9948 18.8767C12.4253 18.8767 12.7756 19.227 12.7756 19.6575C12.7756 20.088 12.4253 20.4383 11.9948 20.4383ZM20.4278 13.9574C20.4278 14.3879 20.0775 14.7382 19.647 14.7382H18.8661V10.6779H19.647C20.0775 10.6779 20.4278 11.0282 20.4278 11.4587V13.9574Z" fill="black"/>
</svg>
