<svg width="24" height="24" viewBox="0 0 24 24" fill="none" xmlns="http://www.w3.org/2000/svg">
<path d="M9.75224 6.67919L9.38006 8.54041L12.9197 12.08C13.1514 12.3117 13.1514 12.687 12.9197 12.9186C12.8039 13.0344 12.6525 13.0923 12.5004 13.0923C12.3483 13.0923 12.1969 13.0344 12.0811 12.9186L8.54144 9.37895L6.68029 9.75121C6.55069 9.77714 6.41667 9.7365 6.32321 9.64312L4.78118 8.1011C4.55789 7.87788 4.67357 7.49582 4.9832 7.43391L6.76782 7.07699C6.9243 7.04567 7.04662 6.92335 7.07793 6.76687L7.43485 4.98219C7.49676 4.67255 7.87883 4.55695 8.10212 4.78017L9.64407 6.32219C9.73753 6.41565 9.77817 6.54959 9.75224 6.67919Z" fill="#7B7A79"/>
<path d="M4 12.5C4 11.8162 4.08998 11.1545 4.24314 10.517L5.25785 11.5317C5.21555 11.8493 5.18605 12.171 5.18605 12.5001C5.18605 16.5331 8.46699 19.814 12.5 19.814C16.5331 19.814 19.814 16.5331 19.814 12.5001C19.814 8.46705 16.5331 5.18605 12.5 5.18605C12.171 5.18605 11.8494 5.21546 11.5317 5.25784L10.517 4.24314C11.1544 4.08998 11.8162 4 12.5 4C17.187 4 21 7.81298 21 12.5C21 17.187 17.187 21 12.5 21C7.81292 21 4 17.187 4 12.5ZM12.5 16.6512C10.2272 16.6512 8.37914 14.8133 8.35352 12.5464L7.49403 11.6869L7.22306 11.7412C7.18748 11.9898 7.16273 12.2418 7.16273 12.5001C7.16273 15.4428 9.55721 17.8373 12.5 17.8373C15.4427 17.8373 17.8372 15.4428 17.8372 12.5001C17.8372 9.55734 15.4427 7.16287 12.5 7.16287C12.2417 7.16287 11.9897 7.18754 11.7411 7.2232L11.6868 7.49417L12.5463 8.35366C14.8132 8.3792 16.6511 10.2273 16.6511 12.5002C16.6511 14.7888 14.7887 16.6512 12.5 16.6512Z" fill="#7B7A79"/>
</svg>
