<svg width="512" height="512" viewBox="0 0 512 512" fill="none" xmlns="http://www.w3.org/2000/svg">
<path d="M177.777 461.754C176.061 461.754 174.375 461.306 172.885 460.453C171.396 459.6 170.155 458.372 169.286 456.892C132.482 394.191 34.4096 260.746 33.423 259.405C32.0217 257.5 31.3527 255.155 31.5382 252.798C31.7237 250.44 32.7513 248.229 34.4332 246.567L64.5801 216.777C66.218 215.159 68.3712 214.165 70.6655 213.97C72.9598 213.775 75.25 214.39 77.1379 215.708L175.724 284.548C241.268 200.348 302.179 142.239 342.213 108C387.087 69.6164 415.617 52.3689 416.81 51.6502C418.34 50.7315 420.091 50.2462 421.876 50.2461H470.646C472.643 50.2458 474.592 50.8522 476.235 51.9849C477.879 53.1177 479.139 54.7233 479.85 56.5888C480.56 58.4544 480.686 60.4917 480.212 62.4308C479.738 64.3699 478.686 66.119 477.195 67.4463C404.894 131.84 329.724 234.155 279.398 308.644C224.689 389.612 186.711 456.118 186.334 456.781C185.479 458.282 184.244 459.531 182.754 460.404C181.263 461.277 179.57 461.742 177.842 461.753L177.777 461.754Z" fill="#FF7500"/>
</svg>
