<svg width="120" height="120" viewBox="0 0 120 120" fill="none" xmlns="http://www.w3.org/2000/svg">
<path d="M102.334 104.601H96.9789V37.4729H98.8015C100.178 37.4568 101.493 36.8986 102.461 35.9195C103.428 34.9403 103.971 33.619 103.971 32.2423C103.971 30.8656 103.428 29.5444 102.46 28.5652C101.493 27.5861 100.178 27.028 98.8013 27.0119H84.198C83.753 27.02 83.3289 27.2025 83.017 27.5201C82.7052 27.8377 82.5305 28.265 82.5305 28.7102C82.5305 29.1553 82.7052 29.5826 83.0171 29.9002C83.329 30.2177 83.7531 30.4002 84.1981 30.4083H98.8015C99.2816 30.4179 99.7388 30.6153 100.075 30.9583C100.411 31.3012 100.599 31.7623 100.599 32.2425C100.599 32.7227 100.411 33.1837 100.075 33.5267C99.7387 33.8696 99.2815 34.067 98.8014 34.0766C96.5638 34.0908 86.6539 34.0663 84.1979 34.0766C83.7475 34.0766 83.3156 34.2555 82.9972 34.574C82.6787 34.8925 82.4998 35.3244 82.4998 35.7748C82.4998 36.2252 82.6788 36.6571 82.9972 36.9756C83.3157 37.294 83.7476 37.4729 84.198 37.4729H93.5826V104.601H75.82V76.3234C75.8179 74.4707 75.081 72.6944 73.7708 71.3844C72.4607 70.0744 70.6844 69.3377 68.8317 69.3359H51.2002C49.3474 69.3377 47.5711 70.0744 46.261 71.3844C44.9508 72.6944 44.2139 74.4707 44.2118 76.3234V104.601H26.4492V37.4729H35.8338C36.2784 37.4642 36.7019 37.2815 37.0133 36.964C37.3247 36.6464 37.4991 36.2194 37.4991 35.7747C37.4991 35.33 37.3247 34.903 37.0133 34.5854C36.7019 34.2679 36.2783 34.0852 35.8337 34.0766C33.3972 34.0872 23.524 34.0688 21.2304 34.0766C20.7507 34.0663 20.2941 33.8686 19.9585 33.5257C19.6229 33.1828 19.4349 32.7221 19.4349 32.2423C19.435 31.7625 19.623 31.3018 19.9586 30.959C20.2943 30.6162 20.7509 30.4185 21.2305 30.4083H35.8339C36.28 30.4018 36.7056 30.22 37.0188 29.9022C37.332 29.5845 37.5076 29.1562 37.5076 28.7101C37.5075 28.2639 37.332 27.8356 37.0188 27.5179C36.7056 27.2001 36.2799 27.0184 35.8338 27.0119H21.2304C20.5432 27.0057 19.8619 27.1381 19.227 27.4012C18.5922 27.6644 18.0169 28.0529 17.5356 28.5434C16.8188 29.2802 16.3335 30.2108 16.1397 31.2204C15.9459 32.2299 16.0521 33.2741 16.4451 34.2239C16.8382 35.1737 17.5009 35.9876 18.3514 36.565C19.2018 37.1424 20.2028 37.458 21.2306 37.4728L23.053 37.4729V104.601H17.6981C17.2478 104.601 16.8158 104.78 16.4974 105.098C16.1789 105.417 16 105.849 16 106.299C16 106.75 16.1789 107.181 16.4974 107.5C16.8158 107.818 17.2478 107.997 17.6981 107.997H102.334C102.779 107.989 103.202 107.806 103.514 107.489C103.825 107.171 104 106.744 104 106.299C104 105.854 103.825 105.427 103.514 105.11C103.202 104.792 102.779 104.609 102.334 104.601ZM72.4237 104.601H47.6082V76.3234C47.6095 75.3712 47.9883 74.4584 48.6617 73.7851C49.3351 73.1119 50.248 72.7332 51.2002 72.7321H68.8317C69.7839 72.7332 70.6968 73.1119 71.3702 73.7851C72.0436 74.4584 72.4224 75.3712 72.4237 76.3234V104.601Z" fill="#FF7500"/>
<path d="M60.0157 51.5839C65.1435 51.5781 70.0597 49.5385 73.6857 45.9125C77.3116 42.2865 79.3512 37.3703 79.357 32.2424C78.2948 6.58212 41.7325 6.58958 40.6743 32.2425C40.6801 37.3704 42.7198 42.2866 46.3457 45.9125C49.9716 49.5385 54.8878 51.5781 60.0157 51.5839ZM60.0157 16.2964C64.2432 16.3012 68.2962 17.9828 71.2855 20.9722C74.2747 23.9617 75.9561 28.0148 75.9607 32.2424C75.1005 53.3897 44.9276 53.3836 44.0707 32.2422C44.0753 28.0146 45.7567 23.9616 48.746 20.9722C51.7352 17.9828 55.7882 16.3012 60.0157 16.2964Z" fill="#FF7500"/>
<path d="M52.9627 33.9401H58.3175V39.295C58.319 39.7444 58.4985 40.175 58.8168 40.4923C59.1351 40.8096 59.5663 40.9878 60.0157 40.9878C60.4652 40.9878 60.8963 40.8096 61.2146 40.4923C61.5329 40.175 61.7124 39.7444 61.7139 39.295V33.9401H67.0687C67.519 33.9401 67.951 33.7612 68.2694 33.4427C68.5879 33.1242 68.7668 32.6923 68.7668 32.2419C68.7668 31.7915 68.5879 31.3596 68.2694 31.0411C67.951 30.7227 67.519 30.5438 67.0687 30.5438H61.7139V25.1889C61.7124 24.7395 61.5329 24.3089 61.2146 23.9916C60.8963 23.6743 60.4652 23.4961 60.0157 23.4961C59.5663 23.4961 59.1351 23.6743 58.8168 23.9916C58.4985 24.3089 58.319 24.7395 58.3175 25.1889V30.5438H52.9627C52.5181 30.5524 52.0946 30.7352 51.7832 31.0527C51.4718 31.3702 51.2974 31.7972 51.2974 32.2419C51.2974 32.6867 51.4718 33.1137 51.7832 33.4312C52.0946 33.7487 52.5181 33.9314 52.9627 33.9401Z" fill="#FF7500"/>
</svg>
