<svg width="24" height="24" viewBox="0 0 24 24" fill="none" xmlns="http://www.w3.org/2000/svg">
<path d="M16.6835 7.7899L17.6224 6.85092C17.6851 6.7882 17.7348 6.71373 17.7688 6.63178C17.8027 6.54983 17.8202 6.46199 17.8202 6.37329C17.8202 6.28458 17.8027 6.19675 17.7688 6.11479C17.7348 6.03284 17.6851 5.95838 17.6224 5.89565C17.5597 5.83293 17.4852 5.78317 17.4033 5.74923C17.3213 5.71528 17.2335 5.69781 17.1448 5.69781C17.0561 5.69781 16.9683 5.71528 16.8863 5.74923C16.8044 5.78317 16.7299 5.83293 16.6672 5.89565L15.5817 6.98118C14.5949 6.37212 13.4802 6.00051 12.3254 5.89565V4.26736H13.1123C13.2003 4.27552 13.289 4.26523 13.3727 4.23716C13.4565 4.2091 13.5335 4.16386 13.5987 4.10435C13.664 4.04484 13.7162 3.97236 13.7518 3.89155C13.7875 3.81074 13.806 3.72337 13.806 3.63504C13.806 3.5467 13.7875 3.45933 13.7518 3.37852C13.7162 3.29771 13.664 3.22523 13.5987 3.16572C13.5335 3.10621 13.4565 3.06098 13.3727 3.03291C13.289 3.00484 13.2003 2.99456 13.1123 3.00271H10.0296C9.87206 3.01733 9.72561 3.09027 9.619 3.20723C9.51239 3.3242 9.45329 3.47677 9.45329 3.63504C9.45329 3.7933 9.51239 3.94587 9.619 4.06284C9.72561 4.1798 9.87206 4.25274 10.0296 4.26736H10.822V5.89565C9.66493 6.00876 8.55005 6.3897 7.56566 7.00832L6.48021 5.92279C6.35248 5.79814 6.18108 5.72836 6.00261 5.72836C5.82414 5.72836 5.65274 5.79814 5.52501 5.92279C5.462 5.98535 5.41199 6.05976 5.37786 6.14174C5.34373 6.22371 5.32616 6.31163 5.32616 6.40042C5.32616 6.48922 5.34373 6.57714 5.37786 6.65911C5.41199 6.74109 5.462 6.8155 5.52501 6.87806L6.47478 7.7899C5.54215 8.64155 4.8365 9.71226 4.42164 10.9052C4.00678 12.0981 3.8958 13.3757 4.09874 14.6223C4.30167 15.8689 4.81212 17.0453 5.58393 18.045C6.35573 19.0447 7.36454 19.8363 8.51914 20.3481C9.67373 20.8599 10.9377 21.0759 12.1967 20.9764C13.4557 20.8769 14.6701 20.4651 15.7299 19.7783C16.7898 19.0915 17.6618 18.1513 18.267 17.0427C18.8723 15.9342 19.1916 14.6923 19.1963 13.4292C19.1974 12.3654 18.9742 11.3133 18.5412 10.3416C18.1082 9.36987 17.4752 8.50039 16.6835 7.7899ZM11.5656 19.3671C10.3911 19.3617 9.24458 19.0085 8.27075 18.3519C7.29691 17.6954 6.53943 16.765 6.09395 15.6782C5.64847 14.5914 5.53496 13.397 5.76776 12.2458C6.00056 11.0946 6.56923 10.0381 7.40197 9.20986C8.2347 8.38161 9.29416 7.81868 10.4466 7.59216C11.599 7.36565 12.7927 7.48569 13.8769 7.93714C14.9611 8.38859 15.8873 9.1512 16.5385 10.1287C17.1896 11.1062 17.5366 12.2547 17.5355 13.4292C17.5356 14.2118 17.3809 14.9866 17.0805 15.7091C16.7801 16.4316 16.3398 17.0877 15.785 17.6395C15.2302 18.1913 14.5718 18.628 13.8477 18.9245C13.1236 19.221 12.348 19.3714 11.5656 19.3671Z" fill="#7B7A79"/>
<path d="M11.707 9.0332V13.6297H16.2069C16.1991 12.4296 15.7254 11.2795 14.8859 10.422C14.0464 9.56445 12.9066 9.06651 11.707 9.0332Z" fill="#7B7A79"/>
</svg>
