<svg width="24" height="24" viewBox="0 0 24 24" fill="none" xmlns="http://www.w3.org/2000/svg">
<path d="M12.0359 9.50596C11.5386 9.5015 11.0511 9.64468 10.6352 9.91737C10.2193 10.1901 9.89368 10.58 9.6995 11.0379C9.50532 11.4957 9.45134 12.0009 9.54438 12.4894C9.63743 12.9779 9.87332 13.4279 10.2222 13.7823C10.5711 14.1367 11.0173 14.3797 11.5043 14.4804C11.9913 14.5811 12.4973 14.5351 12.9581 14.3482C13.419 14.1612 13.814 13.8418 14.0932 13.4302C14.3724 13.0187 14.5232 12.5335 14.5266 12.0362C14.5296 11.7064 14.4675 11.3793 14.3439 11.0735C14.2202 10.7678 14.0375 10.4894 13.8061 10.2544C13.5748 10.0194 13.2993 9.83228 12.9956 9.70385C12.6918 9.57542 12.3657 9.50818 12.0359 9.50596ZM12.0359 13.2053C11.7983 13.2098 11.5648 13.1431 11.3654 13.0139C11.166 12.8847 11.0098 12.6989 10.9168 12.4802C10.8238 12.2616 10.7983 12.0201 10.8436 11.7868C10.8889 11.5536 11.0028 11.3392 11.1708 11.1712C11.3388 11.0032 11.5532 10.8892 11.7865 10.844C12.0197 10.7987 12.2612 10.8242 12.4799 10.9172C12.6985 11.0102 12.8844 11.1664 13.0136 11.3658C13.1428 11.5652 13.2095 11.7987 13.205 12.0362C13.2006 12.3449 13.076 12.6398 12.8577 12.8581C12.6394 13.0764 12.3446 13.201 12.0359 13.2053Z" fill="#7B7A79"/>
<path d="M19.6671 10.4439C19.5055 10.4128 19.3551 10.3394 19.2311 10.2313C19.1071 10.1232 19.014 9.98412 18.9611 9.82832C18.8358 9.42077 18.6732 9.02563 18.4754 8.64791C18.4017 8.50115 18.3686 8.33735 18.3795 8.17349C18.3904 8.00963 18.445 7.85168 18.5375 7.716L19.3226 6.58642L17.4644 4.69437L16.3348 5.47943C16.1996 5.5731 16.0415 5.62834 15.8774 5.63928C15.7133 5.65022 15.5493 5.61645 15.4029 5.54156C15.0247 5.3432 14.6297 5.17877 14.2225 5.05019C14.0659 4.99969 13.9262 4.90713 13.8186 4.78263C13.711 4.65813 13.6397 4.50647 13.6125 4.3442L13.3301 3H10.7038L10.444 4.36115C10.4145 4.52337 10.3417 4.67462 10.2334 4.79889C10.125 4.92317 9.98507 5.01585 9.82837 5.06713C9.42066 5.19438 9.02552 5.35886 8.64794 5.5585C8.50151 5.63339 8.33751 5.66717 8.1734 5.65623C8.0093 5.64529 7.85123 5.59004 7.71603 5.49638L6.57515 4.69437L4.69438 6.57513L5.47945 7.70471C5.57795 7.83951 5.63743 7.99884 5.65138 8.16521C5.66533 8.33158 5.6332 8.49859 5.55852 8.64791C5.35919 9.02367 5.19472 9.4169 5.06715 9.82267C5.01586 9.97938 4.92318 10.1193 4.79891 10.2277C4.67463 10.336 4.52338 10.4088 4.36115 10.4383L3 10.7037V13.33L4.36115 13.5898C4.52342 13.6171 4.67508 13.6884 4.79958 13.7959C4.92409 13.9035 5.01664 14.0432 5.06715 14.1998C5.19573 14.607 5.36016 15.002 5.55852 15.3802C5.63341 15.5266 5.66718 15.6906 5.65624 15.8548C5.6453 16.0189 5.59006 16.1769 5.49639 16.3121L4.69438 17.4643L6.55821 19.3225L7.68779 18.5374C7.82654 18.4395 7.98966 18.3819 8.15911 18.3709C8.32856 18.36 8.49774 18.3961 8.64794 18.4753C9.02385 18.6728 9.41709 18.8354 9.82272 18.961C9.97852 19.0139 10.1175 19.107 10.2257 19.231C10.3338 19.355 10.4072 19.5054 10.4383 19.667L10.6981 21.0281H13.3244L13.5842 19.667C13.6132 19.5054 13.6852 19.3546 13.7925 19.2304C13.8998 19.1062 14.0386 19.0131 14.1942 18.961C14.6013 18.8343 14.9963 18.6718 15.3746 18.4753C15.5214 18.4016 15.6852 18.3685 15.8491 18.3794C16.0129 18.3903 16.1709 18.4449 16.3066 18.5374L17.4361 19.3225L19.2943 17.4643L18.5093 16.3347C18.4167 16.199 18.3622 16.0411 18.3512 15.8772C18.3403 15.7134 18.3734 15.5496 18.4471 15.4028C18.6437 15.0245 18.8062 14.6295 18.9329 14.2224C18.985 14.0667 19.078 13.928 19.2023 13.8207C19.3265 13.7133 19.4773 13.6414 19.6388 13.6124L21 13.3526V10.7037L19.6671 10.4439ZM12.0367 17.3344C10.9825 17.3389 9.95079 17.0301 9.07241 16.4472C8.19402 15.8643 7.5086 15.0336 7.10312 14.0605C6.69763 13.0874 6.59037 12.0158 6.79494 10.9817C6.9995 9.94755 7.50668 8.99749 8.2521 8.25207C8.99753 7.50665 9.94759 6.99948 10.9817 6.79491C12.0159 6.59035 13.0875 6.69761 14.0606 7.10309C15.0337 7.50857 15.8644 8.19399 16.4473 9.07237C17.0301 9.95074 17.339 10.9825 17.3345 12.0367C17.33 13.4403 16.7704 14.7852 15.7779 15.7778C14.7853 16.7703 13.4404 17.3299 12.0367 17.3344Z" fill="#7B7A79"/>
<path d="M12.0366 8.08398C11.2546 8.08398 10.4902 8.31586 9.84009 8.75028C9.18993 9.1847 8.68319 9.80215 8.38396 10.5246C8.08472 11.247 8.00643 12.0419 8.15898 12.8088C8.31153 13.5757 8.68807 14.2802 9.24098 14.8331C9.7939 15.386 10.4984 15.7625 11.2653 15.9151C12.0322 16.0676 12.8271 15.9893 13.5495 15.6901C14.272 15.3909 14.8894 14.8841 15.3238 14.234C15.7583 13.5838 15.9901 12.8195 15.9901 12.0375C15.9901 10.989 15.5736 9.98338 14.8322 9.24195C14.0907 8.50052 13.0851 8.08398 12.0366 8.08398ZM12.0366 15.4263C11.3663 15.4263 10.7112 15.2275 10.1539 14.8552C9.59659 14.4828 9.16225 13.9535 8.90576 13.3343C8.64927 12.7151 8.58216 12.0338 8.71292 11.3764C8.84367 10.7191 9.16642 10.1152 9.64035 9.64132C10.1143 9.16739 10.7181 8.84464 11.3755 8.71389C12.0328 8.58313 12.7142 8.65024 13.3334 8.90673C13.9526 9.16321 14.4819 9.59756 14.8542 10.1548C15.2266 10.7121 15.4253 11.3673 15.4253 12.0375C15.4253 12.9363 15.0683 13.7982 14.4328 14.4337C13.7973 15.0692 12.9353 15.4263 12.0366 15.4263Z" fill="#7B7A79"/>
</svg>
