<svg width="121" height="120" viewBox="0 0 121 120" fill="none" xmlns="http://www.w3.org/2000/svg">
<g id="health-insurance 1">
<g id="healthcare-covid19-coronavirus-hand-hearth">
<path id="Vector" d="M70.2738 30.2734H65.6367V25.6363C65.6367 25.2263 65.4738 24.8332 65.1839 24.5433C64.8941 24.2534 64.5009 24.0906 64.091 24.0906H57.9082C57.4982 24.0906 57.1051 24.2534 56.8152 24.5433C56.5253 24.8332 56.3625 25.2263 56.3625 25.6363V30.2734H51.7254C51.3154 30.2734 50.9223 30.4362 50.6324 30.7261C50.3425 31.016 50.1797 31.4091 50.1797 31.8191V38.0019C50.1797 38.4119 50.3425 38.805 50.6324 39.0949C50.9223 39.3848 51.3154 39.5476 51.7254 39.5476H56.3625V44.1847C56.3625 44.5947 56.5253 44.9878 56.8152 45.2777C57.1051 45.5676 57.4982 45.7304 57.9082 45.7304H64.091C64.5009 45.7304 64.8941 45.5676 65.1839 45.2777C65.4738 44.9878 65.6367 44.5947 65.6367 44.1847V39.5476H70.2738C70.6837 39.5476 71.0769 39.3848 71.3667 39.0949C71.6566 38.805 71.8195 38.4119 71.8195 38.0019V31.8191C71.8195 31.4091 71.6566 31.016 71.3667 30.7261C71.0769 30.4362 70.6837 30.2734 70.2738 30.2734ZM68.7281 36.4562H64.091C63.681 36.4562 63.2879 36.6191 62.998 36.9089C62.7081 37.1988 62.5453 37.592 62.5453 38.0019V42.639H59.4539V38.0019C59.4539 37.592 59.291 37.1988 59.0012 36.9089C58.7113 36.6191 58.3181 36.4562 57.9082 36.4562H53.2711V33.3648H57.9082C58.3181 33.3648 58.7113 33.2019 59.0012 32.9121C59.291 32.6222 59.4539 32.229 59.4539 31.8191V27.182H62.5453V31.8191C62.5453 32.229 62.7081 32.6222 62.998 32.9121C63.2879 33.2019 63.681 33.3648 64.091 33.3648H68.7281V36.4562Z" fill="#FF7500"/>
<path id="Vector_2" d="M103.862 38.5562C103.894 38.2843 103.909 38.0107 103.909 37.737C103.901 36.3202 103.41 34.9484 102.516 33.8492C101.622 32.75 100.379 31.9893 98.9935 31.6933C97.4262 31.395 95.8041 31.7031 94.4553 32.5554C93.1066 33.4076 92.132 34.7404 91.7287 36.284L84.9276 55.8526C84.8268 55.8927 84.7287 55.9391 84.6339 55.9918L70.97 63.9985C68.8791 65.2267 67.1448 66.9791 65.9385 69.0827C64.7322 71.1863 64.0956 73.5682 64.0916 75.9932V90.5537C63.6817 90.5537 63.2885 90.7165 62.9986 91.0064C62.7087 91.2963 62.5459 91.6894 62.5459 92.0994V104.465C62.5459 104.875 62.7087 105.268 62.9986 105.558C63.2885 105.848 63.6817 106.011 64.0916 106.011H85.7314C86.1413 106.011 86.5345 105.848 86.8243 105.558C87.1142 105.268 87.2771 104.875 87.2771 104.465V92.0994C87.2771 91.6894 87.1142 91.2963 86.8243 91.0064C86.5345 90.7165 86.1413 90.5537 85.7314 90.5537V87.1531C85.7343 86.5003 85.8732 85.8552 86.1393 85.2591C86.4055 84.6629 86.793 84.1288 87.2771 83.6908L97.726 74.4011C98.8689 73.401 99.6871 72.0823 100.075 70.6141L106.784 45.5273C106.927 45.0035 107 44.4629 107 43.9198C106.994 42.829 106.701 41.759 106.15 40.8175C105.599 39.8759 104.81 39.096 103.862 38.5562ZM94.681 37.196C94.8707 36.3966 95.3547 35.6981 96.0365 35.2398C96.7184 34.7814 97.5479 34.5968 98.3597 34.7229C99.0525 34.868 99.6746 35.2464 100.122 35.795C100.569 36.3436 100.815 37.0291 100.817 37.737V37.7679C99.4367 37.7935 98.1022 38.2694 97.0168 39.1232C95.9314 39.977 95.1547 41.1619 94.8046 42.4978L90.4921 55.8063C89.8392 55.4966 89.1392 55.298 88.4209 55.2189L94.681 37.196ZM84.1857 102.919H65.6373V93.6451H84.1857V102.919ZM103.801 44.7236L97.0768 69.8258C96.8442 70.6981 96.3604 71.4828 95.6857 72.0825L85.2213 81.3722C84.4116 82.1024 83.7636 82.994 83.319 83.9896C82.8745 84.9852 82.6432 86.0628 82.64 87.1531V90.5537H67.183V75.9932C67.1907 74.1073 67.6875 72.2557 68.6249 70.6193C69.5623 68.9829 70.9082 67.6177 72.5311 66.6571L86.1796 58.6658C86.5315 58.4608 86.9205 58.3273 87.3241 58.2731C87.7278 58.2188 88.1382 58.2449 88.5317 58.3497C88.9253 58.4546 89.2943 58.6362 89.6174 58.884C89.9406 59.1319 90.2116 59.4412 90.4148 59.7942C90.8163 60.5084 90.927 61.3499 90.724 62.1437C90.6166 62.5356 90.433 62.9025 90.1837 63.2235C89.9344 63.5444 89.6242 63.813 89.271 64.014L80.4142 69.1302C80.0777 69.3441 79.8369 69.6797 79.7421 70.0669C79.6472 70.4542 79.7057 70.8631 79.9052 71.2082C80.1047 71.5534 80.4298 71.8081 80.8127 71.9192C81.1956 72.0303 81.6066 71.9891 81.9599 71.8043L90.8167 66.688C91.5246 66.2864 92.1451 65.7471 92.6415 65.1021C93.1379 64.457 93.5002 63.7192 93.7072 62.932C94.1279 61.3504 93.9056 59.6666 93.0889 58.2485L92.9961 58.1094L97.7724 43.3788C97.9621 42.5794 98.4461 41.881 99.1279 41.4226C99.8097 40.9642 100.639 40.7797 101.451 40.9057C102.144 41.0508 102.766 41.4293 103.213 41.9779C103.661 42.5265 103.906 43.212 103.909 43.9198C103.914 44.1917 103.877 44.4627 103.801 44.7236Z" fill="#FF7500"/>
<path id="Vector_3" d="M57.9086 90.5545V75.9939C57.9046 73.569 57.268 71.1871 56.0617 69.0835C54.8554 66.9799 53.1211 65.2275 51.0302 63.9993L37.3662 55.9771C37.2735 55.9307 37.1653 55.8998 37.0726 55.8534L30.3179 36.393C29.9253 34.8269 28.9507 33.4692 27.5925 32.5963C26.2342 31.7233 24.5944 31.4007 23.0067 31.6941C21.6211 31.9901 20.3783 32.7508 19.4844 33.85C18.5904 34.9492 18.0989 36.3209 18.0914 37.7378C18.091 38.0115 18.1065 38.2851 18.1378 38.557C17.1899 39.0968 16.4009 39.8767 15.8501 40.8183C15.2992 41.7598 15.0061 42.8298 15 43.9206C15.003 44.4625 15.0705 45.0021 15.2009 45.5281L21.9247 70.5994C22.309 72.0738 23.1275 73.3986 24.2742 74.4019L34.7076 83.6916C35.1966 84.1265 35.5883 84.6597 35.8573 85.2563C36.1263 85.8529 36.2665 86.4995 36.2688 87.1539V90.5545C35.8589 90.5545 35.4657 90.7173 35.1758 91.0072C34.886 91.2971 34.7231 91.6902 34.7231 92.1002V104.466C34.7231 104.876 34.886 105.269 35.1758 105.559C35.4657 105.849 35.8589 106.012 36.2688 106.012H57.9086C58.3185 106.012 58.7117 105.849 59.0015 105.559C59.2914 105.269 59.4543 104.876 59.4543 104.466V92.1002C59.4543 91.6902 59.2914 91.2971 59.0015 91.0072C58.7117 90.7173 58.3185 90.5545 57.9086 90.5545ZM21.1828 37.7378C21.1847 37.0321 21.428 36.3483 21.8723 35.8C22.3165 35.2517 22.935 34.8719 23.625 34.7237C24.4591 34.6026 25.3082 34.8013 26.002 35.2801C26.6957 35.7588 27.1828 36.4821 27.3656 37.305L33.5793 55.2197C32.861 55.2988 32.161 55.4974 31.5081 55.8071L27.2265 42.5758C26.878 41.2268 26.0997 40.0279 25.0093 39.1606C23.9189 38.2933 22.5756 37.8047 21.1828 37.7687V37.7378ZM36.7634 81.373L26.3145 72.0833C25.636 71.4804 25.1519 70.6896 24.9234 69.8111L18.1841 44.7244C18.1202 44.4613 18.089 44.1913 18.0914 43.9206C18.0933 43.2149 18.3366 42.5311 18.7809 41.9828C19.2251 41.4345 19.8436 41.0547 20.5336 40.9065C21.3619 40.7822 22.2065 40.9761 22.8976 41.4493C23.5887 41.9224 24.075 42.6397 24.2587 43.4569L29.004 58.1102L28.9113 58.2493C28.0945 59.6674 27.8722 61.3512 28.293 62.9328C28.5 63.72 28.8623 64.4578 29.3587 65.1029C29.8551 65.7479 30.4755 66.2871 31.1835 66.6888L40.0403 71.8051C40.3936 71.9899 40.8046 72.031 41.1874 71.92C41.5703 71.8089 41.8955 71.5542 42.095 71.209C42.2945 70.8638 42.3529 70.455 42.2581 70.0677C42.1632 69.6805 41.9224 69.3449 41.586 69.131L32.7292 64.0147C32.3759 63.8138 32.0658 63.5452 31.8165 63.2243C31.5672 62.9033 31.3836 62.5364 31.2762 62.1444C31.0731 61.3507 31.1839 60.5092 31.5853 59.795C31.7873 59.4428 32.0566 59.1338 32.378 58.8857C32.6994 58.6376 33.0665 58.4553 33.4583 58.3491C33.8502 58.2429 34.2591 58.2149 34.6617 58.2667C35.0644 58.3185 35.4529 58.4492 35.8051 58.6512L49.4691 66.6579C51.092 67.6185 52.4379 68.9837 53.3753 70.6201C54.3127 72.2565 54.8095 74.1081 54.8172 75.9939V90.5545H39.3602V87.1539C39.3576 86.062 39.125 84.9829 38.6775 83.9869C38.2301 82.9908 37.5779 82.1002 36.7634 81.373ZM56.3629 102.92H37.8145V93.6459H56.3629V102.92Z" fill="#FF7500"/>
<path id="Vector_4" d="M82.8664 18.1109C81.4315 16.6734 79.7272 15.5331 77.851 14.755C75.9748 13.977 73.9637 13.5766 71.9326 13.5768C69.9015 13.5769 67.8904 13.9776 66.0144 14.7559C64.1383 15.5342 62.4342 16.6748 60.9994 18.1124C59.5648 16.6747 57.8608 15.5341 55.9848 14.7559C54.1088 13.9776 52.0977 13.577 50.0667 13.577C48.0357 13.577 46.0246 13.9776 44.1486 14.7559C42.2726 15.5341 40.5686 16.6747 39.134 18.1124C36.241 21.0117 34.6162 24.9402 34.6162 29.0359C34.6162 33.1317 36.241 37.0602 39.134 39.9594L59.9082 60.7337C60.198 61.0234 60.5911 61.1862 61.001 61.1862C61.4108 61.1862 61.8039 61.0234 62.0938 60.7337L82.868 39.9594C85.7609 37.0597 87.3854 33.1308 87.3851 29.0348C87.3848 24.9388 85.7597 21.0102 82.8664 18.1109ZM60.9994 57.4552L41.3181 37.7738C39.5902 36.0435 38.4141 33.8398 37.9384 31.4413C37.4628 29.0427 37.7089 26.557 38.6458 24.2983C39.5826 22.0396 41.1681 20.1094 43.2018 18.7516C45.2355 17.3939 47.6261 16.6696 50.0713 16.6703C51.6957 16.6647 53.3049 16.9826 54.8051 17.6055C56.3053 18.2283 57.6664 19.1436 58.8092 20.2981L59.9066 21.3955C60.1965 21.6853 60.5896 21.8481 60.9994 21.8481C61.4093 21.8481 61.8024 21.6853 62.0922 21.3955L63.1928 20.295C64.3403 19.1454 65.7033 18.2333 67.2037 17.611C68.7041 16.9887 70.3125 16.6684 71.9368 16.6684C73.5611 16.6684 75.1695 16.9887 76.6699 17.611C78.1703 18.2333 79.5333 19.1454 80.6808 20.295C82.9961 22.6135 84.2966 25.7562 84.2966 29.0328C84.2966 32.3095 82.9961 35.4522 80.6808 37.7707L60.9994 57.4552Z" fill="#FF7500"/>
</g>
</g>
</svg>
