<svg width="40" height="40" viewBox="0 0 40 40" fill="none" xmlns="http://www.w3.org/2000/svg">
<path d="M2.5 3.75V11.25H4.375V13.75H5.625V11.25H14.375V13.75H15.625V11.25H17.5V3.75H2.5ZM15.625 9.375H4.375V8.125H15.625V9.375ZM15.625 6.875H4.375V5.625H15.625V6.875Z" fill="black"/>
<path d="M2.5 15H37.5V16.25H2.5V15Z" fill="black"/>
<path d="M20 3.125H37.5V4.375H20V3.125Z" fill="black"/>
<path d="M2.5 36.875H5.625V29.375H9.375V36.875H10.625V29.375H14.375V36.875H30.625V29.375H34.375V36.875H37.5V17.5L2.5 16.875V36.875ZM30.625 19.375H34.375V21.25H30.625V19.375ZM30.625 25.625H34.375V27.5H30.625V25.625ZM21.875 31.875H18.125V29.375H21.875V31.875ZM26.875 31.875H23.125V29.375H26.875V31.875ZM25.625 19.375H29.375V21.25H25.625V19.375ZM25.625 25.625H29.375V27.5H25.625V25.625ZM20.625 19.375H24.375V21.25H20.625V19.375ZM20.625 25.625H24.375V27.5H20.625V25.625ZM15.625 19.375H19.375V21.25H15.625V19.375ZM15.625 25.625H19.375V27.5H15.625V25.625ZM10.625 19.375H14.375V21.25H10.625V19.375ZM10.625 25.625H14.375V27.5H10.625V25.625ZM5.625 19.375H9.375V21.25H5.625V19.375ZM30.625 22.5H34.375V24.375H30.625V22.5ZM25.625 22.5H29.375V24.375H25.625V22.5ZM20.625 22.5H24.375V24.375H20.625V22.5ZM15.625 22.5H19.375V24.375H15.625V22.5ZM10.625 22.5H14.375V24.375H10.625V22.5ZM5.625 22.5H9.375V24.375H5.625V22.5ZM5.625 25.625H9.375V27.5H5.625V25.625Z" fill="black"/>
<path d="M36.875 8.4375V5.625H20.625V8.4375V11.5625V13.75H36.875V11.5625V8.4375ZM25.625 12.5H21.875V10.3125H25.625V12.5ZM25.625 9.0625H21.875V6.875H25.625V9.0625ZM30.625 12.5H26.875V10.3125H30.625V12.5ZM30.625 9.0625H26.875V6.875H30.625V9.0625ZM35.625 12.5H31.875V10.3125H35.625V12.5ZM35.625 9.0625H31.875V6.875H35.625V9.0625Z" fill="black"/>
</svg>
