<svg width="40" height="40" viewBox="0 0 40 40" fill="none" xmlns="http://www.w3.org/2000/svg">
<g clip-path="url(#clip0_926_42304)">
<path d="M31.8358 21.497C33.2298 19.3934 35.8802 15.3762 36.1376 14.8554C36.5816 13.9573 36.8067 12.9911 36.8067 11.9834C36.8067 8.40516 33.8956 5.49414 30.3174 5.49414C26.7392 5.49414 23.8281 8.40516 23.8281 11.9834C23.8281 13.1668 24.1502 14.3255 24.7597 15.3344C24.9734 15.6881 27.6105 19.6902 28.802 21.497H31.8358Z" fill="black"/>
<path d="M15.9639 23.8418H37.4222V27.2399H15.9639V23.8418Z" fill="black"/>
<path d="M15.9639 29.584H37.4222V31.915H15.9639V29.584Z" fill="black"/>
<path d="M37.4219 37.6562V34.2581H15.9635V37.6562H13.6198V21.4977H21.3307V0H2.4193V37.6562H0V40H40V37.6562H37.4219ZM7.78648 25.6641V21.4974H10.1302V25.6641H7.78648ZM10.1302 29.8307V33.9973H7.78648V29.8307H10.1302ZM7.78648 17.3307V13.1641H10.1302V17.3307H7.78648ZM7.78648 8.99734V4.8307H10.1302V8.99734H7.78648ZM15.9635 17.3307H13.6198V13.1641H15.9635V17.3307ZM15.9635 8.99734H13.6198V4.8307H15.9635V8.99734Z" fill="black"/>
</g>
<defs>
<clipPath id="clip0_926_42304">
<rect width="40" height="40" fill="white"/>
</clipPath>
</defs>
</svg>
