<svg width="24" height="24" viewBox="0 0 24 24" fill="none" xmlns="http://www.w3.org/2000/svg">
<path d="M11.9998 5.8291C9.7001 5.8291 7.8291 7.70012 7.8291 9.99987C7.8291 12.2996 9.7001 14.1706 11.9998 14.1706C14.2995 14.1706 16.1705 12.2996 16.1705 9.99987C16.1705 7.70012 14.2996 5.8291 11.9998 5.8291ZM11.9998 12.4145C10.6684 12.4145 9.58518 11.3313 9.58518 9.99987C9.58518 8.66843 10.6684 7.5852 11.9998 7.5852C13.3312 7.5852 14.4145 8.66843 14.4145 9.99987C14.4145 11.3313 13.3312 12.4145 11.9998 12.4145Z" fill="black"/>
<path d="M12 1C7.03738 1 3 5.03747 3 10.0001V10.2489C3 12.7587 4.43893 15.6835 7.27695 18.9418C9.33429 21.3038 11.3629 22.9509 11.4482 23.0198L12 23.4657L12.5518 23.0199C12.6372 22.9509 14.6658 21.3039 16.7231 18.9418C19.561 15.6835 21 12.7588 21 10.2489V10.0002C21 5.03747 16.9626 1 12 1ZM19.2439 10.2489C19.2439 14.4904 13.7789 19.6249 12 21.1835C10.2206 19.6244 4.75608 14.4901 4.75608 10.2489V10.0002C4.75608 6.00582 8.00571 2.75614 12 2.75614C15.9943 2.75614 19.2439 6.00582 19.2439 10.0002V10.2489Z" fill="black"/>
</svg>
