<svg width="121" height="120" viewBox="0 0 121 120" fill="none" xmlns="http://www.w3.org/2000/svg">
<g id="health-insurance 2">
<g id="Consultation">
<path id="Vector" d="M105.128 57.8527H89.1041V24.6439C89.1016 22.3592 88.1929 20.1689 86.5773 18.5535C84.9617 16.9381 82.7713 16.0296 80.4867 16.0273H19.6175C17.3328 16.0296 15.1424 16.9381 13.5269 18.5535C11.9113 20.1689 11.0025 22.3592 11 24.6438V63.7746C11.0025 66.0591 11.9111 68.2493 13.5264 69.8647C15.1418 71.4801 17.332 72.3887 19.6165 72.3911H27.3863V81.8003C27.3778 82.5861 27.6068 83.3562 28.0435 84.0096C28.4802 84.663 29.1041 85.1692 29.8334 85.4619C30.3216 85.6672 30.8456 85.7736 31.3751 85.7748C31.8925 85.773 32.4044 85.6684 32.8811 85.4673C33.3578 85.2661 33.7898 84.9723 34.1521 84.6029L46.3639 72.3911H61.7225V87.8531C61.724 89.41 62.3431 90.9027 63.4439 92.0036C64.5447 93.1046 66.0373 93.7239 67.5942 93.7257H88.4044L95.7704 101.093C96.0482 101.372 96.3784 101.593 96.7421 101.744C97.1057 101.895 97.4957 101.973 97.8894 101.972C98.285 101.972 98.6767 101.894 99.0423 101.743C99.5915 101.516 100.061 101.132 100.391 100.638C100.721 100.144 100.897 99.5628 100.896 98.9687V93.7257H105.128C106.685 93.7239 108.178 93.1046 109.279 92.0036C110.379 90.9027 110.998 89.41 111 87.8531V63.7253C110.998 62.1684 110.379 60.6757 109.279 59.5747C108.178 58.4737 106.685 57.8544 105.128 57.8527ZM45.7609 69.4785C45.3747 69.4786 45.0043 69.6321 44.7312 69.9052L32.0928 82.5436C31.9458 82.6905 31.7585 82.7905 31.5547 82.831C31.3509 82.8715 31.1396 82.8506 30.9476 82.7711C30.7556 82.6915 30.5915 82.5568 30.4761 82.384C30.3606 82.2113 30.299 82.0081 30.299 81.8003V70.9348C30.2989 70.5486 30.1454 70.1783 29.8723 69.9052C29.5992 69.6321 29.2289 69.4786 28.8426 69.4785H19.6165C18.1042 69.4769 16.6544 68.8754 15.585 67.8061C14.5157 66.7368 13.9142 65.2869 13.9126 63.7746V24.6438C13.9143 23.1314 14.5159 21.6814 15.5854 20.6121C16.655 19.5427 18.105 18.9413 19.6175 18.9399H80.4867C81.9991 18.9413 83.4492 19.5427 84.5187 20.6121C85.5882 21.6814 86.1898 23.1314 86.1915 24.6438V57.8526H67.5942C66.0376 57.8542 64.5452 58.4732 63.4444 59.5738C62.3436 60.6744 61.7244 62.1667 61.7225 63.7233V69.4784L45.7609 69.4785ZM108.087 87.8531C108.087 88.6378 107.775 89.3901 107.22 89.945C106.665 90.5 105.913 90.8121 105.128 90.813H99.4396C99.0534 90.8131 98.683 90.9666 98.4099 91.2397C98.1368 91.5128 97.9834 91.8831 97.9833 92.2694L97.8297 99.0332L90.0371 91.2397C89.764 90.9666 89.3936 90.8132 89.0074 90.813H67.5942C66.8095 90.8121 66.0572 90.4999 65.5025 89.945C64.9477 89.3901 64.6358 88.6377 64.6351 87.853V63.7234C64.6362 62.939 64.9483 62.1871 65.503 61.6325C66.0577 61.078 66.8098 60.7661 67.5942 60.7653H105.128C105.913 60.7662 106.665 61.0784 107.22 61.6333C107.775 62.1883 108.087 62.9406 108.087 63.7253V87.8531Z" fill="#FF7500"/>
<path id="Vector_2" d="M67.7828 48.182V40.2367C67.7817 39.381 67.4413 38.5608 66.8363 37.9558C66.2313 37.3508 65.4111 37.0104 64.5554 37.0093H57.252V29.7049C57.2509 28.8493 56.9105 28.0291 56.3055 27.4241C55.7005 26.819 54.8803 26.4787 54.0246 26.4775H46.0794C45.2238 26.4787 44.4036 26.8191 43.7986 27.4241C43.1936 28.0291 42.8532 28.8493 42.8521 29.7049V37.0093H35.5487C34.6931 37.0104 33.8728 37.3508 33.2678 37.9558C32.6628 38.5608 32.3224 39.381 32.3213 40.2367V48.182C32.3224 49.0376 32.6628 49.8579 33.2678 50.4629C33.8728 51.0679 34.6931 51.4083 35.5487 51.4094H42.8521V58.7118C42.8532 59.5674 43.1936 60.3877 43.7986 60.9927C44.4036 61.5977 45.2238 61.9381 46.0794 61.9392H54.0247C54.8803 61.9381 55.7006 61.5977 56.3056 60.9927C56.9106 60.3877 57.251 59.5674 57.2521 58.7118V51.4093H64.5555C65.4111 51.4082 66.2313 51.0678 66.8363 50.4628C67.4413 49.8578 67.7817 49.0376 67.7828 48.182ZM55.7958 48.4968C55.4096 48.4969 55.0392 48.6503 54.7661 48.9234C54.493 49.1965 54.3396 49.5669 54.3395 49.9531V58.7118C54.3395 58.7532 54.3314 58.7941 54.3156 58.8323C54.2997 58.8705 54.2766 58.9052 54.2473 58.9345C54.2181 58.9637 54.1834 58.9869 54.1452 59.0027C54.107 59.0185 54.066 59.0266 54.0247 59.0266H46.0794C46.0381 59.0266 45.9972 59.0185 45.959 59.0027C45.9208 58.9869 45.886 58.9637 45.8568 58.9344C45.8276 58.9052 45.8044 58.8705 45.7886 58.8323C45.7728 58.7941 45.7647 58.7532 45.7647 58.7118V49.953C45.7646 49.5668 45.6111 49.1964 45.338 48.9234C45.0649 48.6503 44.6946 48.4968 44.3084 48.4967H35.5487C35.5073 48.4967 35.4664 48.4886 35.4282 48.4728C35.39 48.457 35.3553 48.4338 35.326 48.4045C35.2968 48.3753 35.2736 48.3406 35.2578 48.3024C35.242 48.2642 35.2339 48.2233 35.2339 48.1819V40.2367C35.2339 40.1953 35.242 40.1544 35.2578 40.1162C35.2736 40.078 35.2968 40.0433 35.326 40.014C35.3553 39.9848 35.39 39.9616 35.4282 39.9458C35.4664 39.93 35.5073 39.9219 35.5487 39.9219H44.3084C44.6946 39.9218 45.0649 39.7683 45.338 39.4952C45.6111 39.2221 45.7646 38.8518 45.7647 38.4656V29.7049C45.7647 29.6636 45.7728 29.6227 45.7886 29.5845C45.8044 29.5463 45.8276 29.5115 45.8568 29.4823C45.886 29.4531 45.9208 29.4299 45.959 29.4141C45.9972 29.3983 46.0381 29.3901 46.0794 29.3902H54.0247C54.066 29.3901 54.107 29.3983 54.1452 29.4141C54.1834 29.4299 54.2181 29.4531 54.2473 29.4823C54.2766 29.5115 54.2997 29.5463 54.3156 29.5845C54.3314 29.6227 54.3395 29.6636 54.3395 29.7049V38.4656C54.3396 38.8518 54.493 39.2221 54.7661 39.4952C55.0392 39.7683 55.4096 39.9218 55.7958 39.9219H64.5555C64.5968 39.9219 64.6378 39.93 64.676 39.9458C64.7142 39.9616 64.7489 39.9848 64.7781 40.014C64.8074 40.0433 64.8305 40.078 64.8463 40.1162C64.8622 40.1544 64.8703 40.1953 64.8703 40.2367V48.182C64.8703 48.2233 64.8622 48.2643 64.8463 48.3025C64.8305 48.3407 64.8074 48.3754 64.7781 48.4046C64.7489 48.4339 64.7142 48.457 64.676 48.4729C64.6378 48.4887 64.5968 48.4968 64.5555 48.4968H55.7958Z" fill="#FF7500"/>
<path id="Vector_3" d="M99.735 69.0729H72.9866C72.6003 69.0729 72.2299 69.2263 71.9568 69.4994C71.6837 69.7725 71.5303 70.143 71.5303 70.5292C71.5303 70.9154 71.6837 71.2858 71.9568 71.559C72.2299 71.8321 72.6003 71.9855 72.9866 71.9855H99.735C100.121 71.9855 100.492 71.8321 100.765 71.559C101.038 71.2858 101.191 70.9154 101.191 70.5292C101.191 70.143 101.038 69.7725 100.765 69.4994C100.492 69.2263 100.121 69.0729 99.735 69.0729Z" fill="#FF7500"/>
<path id="Vector_4" d="M99.735 79.5913H72.9866C72.6003 79.5913 72.2299 79.7447 71.9568 80.0179C71.6837 80.291 71.5303 80.6614 71.5303 81.0476C71.5303 81.4339 71.6837 81.8043 71.9568 82.0774C72.2299 82.3505 72.6003 82.5039 72.9866 82.5039H99.735C100.121 82.5039 100.492 82.3505 100.765 82.0774C101.038 81.8043 101.191 81.4339 101.191 81.0476C101.191 80.6614 101.038 80.291 100.765 80.0179C100.492 79.7447 100.121 79.5913 99.735 79.5913Z" fill="#FF7500"/>
</g>
</g>
</svg>
