<svg width="24" height="24" viewBox="0 0 24 24" fill="none" xmlns="http://www.w3.org/2000/svg">
<path d="M20.9994 16.5033V19.2184C21.0005 19.4704 20.9488 19.7199 20.8479 19.9509C20.7469 20.1818 20.5988 20.3891 20.413 20.5595C20.2273 20.7299 20.008 20.8596 19.7693 20.9404C19.5305 21.0211 19.2775 21.0511 19.0265 21.0284C16.2415 20.7258 13.5664 19.7742 11.216 18.25C9.02929 16.8604 7.17534 15.0065 5.7858 12.8198C4.25627 10.4587 3.30442 7.77054 3.00735 4.97307C2.98473 4.7228 3.01447 4.47056 3.09468 4.23241C3.17489 3.99426 3.30381 3.77542 3.47323 3.58983C3.64265 3.40424 3.84885 3.25595 4.07872 3.15442C4.30858 3.05288 4.55707 3.00032 4.80837 3.00009H7.52347C7.96269 2.99576 8.3885 3.1513 8.72152 3.4377C9.05455 3.72411 9.27207 4.12183 9.33354 4.55675C9.44814 5.42565 9.66067 6.27879 9.96707 7.09991C10.0888 7.42385 10.1152 7.7759 10.043 8.11435C9.97082 8.4528 9.80313 8.76347 9.5598 9.00954L8.41041 10.1589C9.69877 12.4247 11.5748 14.3008 13.8406 15.5892L14.99 14.4398C15.2361 14.1964 15.5467 14.0287 15.8852 13.9566C16.2236 13.8844 16.5757 13.9107 16.8996 14.0325C17.7207 14.3389 18.5739 14.5514 19.4428 14.666C19.8824 14.7281 20.2839 14.9495 20.5709 15.2882C20.858 15.627 21.0105 16.0594 20.9994 16.5033Z" stroke="black" stroke-width="1.81007" stroke-linecap="round" stroke-linejoin="round"/>
</svg>
