<svg width="24" height="24" viewBox="0 0 24 24" fill="none" xmlns="http://www.w3.org/2000/svg">
<g clip-path="url(#clip0_44_1027)">
<path d="M18.5196 14.3182C16.8153 14.3182 15.4287 15.7047 15.4287 17.4091C15.4287 19.1134 16.8153 20.5 18.5196 20.5C20.2243 20.5 21.6106 19.1134 21.6106 17.4091C21.6106 15.7047 20.224 14.3182 18.5196 14.3182ZM18.5196 18.9545C17.6673 18.9545 16.9742 18.2614 16.9742 17.4091C16.9742 16.5568 17.6673 15.8636 18.5196 15.8636C19.3719 15.8636 20.0651 16.5568 20.0651 17.4091C20.0651 18.2614 19.3719 18.9545 18.5196 18.9545Z" fill="black"/>
<path d="M7.95909 14.3182C6.25472 14.3182 4.86816 15.7047 4.86816 17.4091C4.86816 19.1134 6.25472 20.5 7.95909 20.5C9.66346 20.5 11.05 19.1134 11.05 17.4091C11.05 15.7047 9.66346 14.3182 7.95909 14.3182ZM7.95909 18.9545C7.10678 18.9545 6.41363 18.2614 6.41363 17.4091C6.41363 16.5568 7.10678 15.8636 7.95909 15.8636C8.81115 15.8636 9.50455 16.5568 9.50455 17.4091C9.50455 18.2614 8.81139 18.9545 7.95909 18.9545Z" fill="black"/>
<path d="M20.6011 5.47097C20.4697 5.21005 20.2026 5.04544 19.9105 5.04544H15.8408V6.5909H19.434L21.5381 10.776L22.9193 10.0815L20.6011 5.47097Z" fill="black"/>
<path d="M16.2016 16.6621H10.3546V18.2076H16.2016V16.6621Z" fill="black"/>
<path d="M5.64092 16.6621H2.96216C2.53534 16.6621 2.18945 17.0081 2.18945 17.4348C2.18945 17.8617 2.53538 18.2076 2.96216 18.2076H5.64096C6.06779 18.2076 6.41367 17.8616 6.41367 17.4348C6.41367 17.008 6.06774 16.6621 5.64092 16.6621Z" fill="black"/>
<path d="M24.359 11.9382L22.8391 9.98059C22.6931 9.79204 22.4677 9.68179 22.2289 9.68179H16.6137V4.27271C16.6137 3.84588 16.2678 3.5 15.841 3.5H2.96216C2.53534 3.5 2.18945 3.84593 2.18945 4.27271C2.18945 4.69948 2.53538 5.04541 2.96216 5.04541H15.0682V10.4545C15.0682 10.8813 15.4142 11.2272 15.8409 11.2272H21.8505L22.9758 12.6768V16.662H20.8379C20.4111 16.662 20.0652 17.008 20.0652 17.4348C20.0652 17.8616 20.4111 18.2075 20.8379 18.2075H23.7485C24.1753 18.2075 24.5212 17.8615 24.5213 17.4348V12.4121C24.5213 12.2406 24.4641 12.0737 24.359 11.9382Z" fill="black"/>
<path d="M5.58937 12.747H2.03479C1.60797 12.747 1.26208 13.0929 1.26208 13.5197C1.26208 13.9465 1.60802 14.2924 2.03479 14.2924H5.58932C6.01614 14.2924 6.36203 13.9465 6.36203 13.5197C6.36208 13.0929 6.01614 12.747 5.58937 12.747Z" fill="black"/>
<path d="M7.36667 9.70755H0.772707C0.345932 9.70755 0 10.0535 0 10.4803C0 10.9071 0.345932 11.253 0.772707 11.253H7.36667C7.7935 11.253 8.13938 10.9071 8.13938 10.4803C8.13938 10.0535 7.7935 9.70755 7.36667 9.70755Z" fill="black"/>
<path d="M8.62876 6.66815H2.03479C1.60797 6.66815 1.26208 7.01408 1.26208 7.44086C1.26208 7.86768 1.60802 8.21356 2.03479 8.21356H8.62876C9.05558 8.21356 9.40147 7.86763 9.40147 7.44086C9.40151 7.01408 9.05558 6.66815 8.62876 6.66815Z" fill="black"/>
</g>
<defs>
<clipPath id="clip0_44_1027">
<rect width="24" height="24" fill="white"/>
</clipPath>
</defs>
</svg>
