<svg width="24" height="25" viewBox="0 0 24 25" fill="none" xmlns="http://www.w3.org/2000/svg">
<g id="icon/line/email">
<path id="Vector" d="M4.5 7.63867C4.15625 7.63867 3.875 7.91992 3.875 8.26367V9.12695L10.6133 14.6582C11.4219 15.3223 12.582 15.3223 13.3906 14.6582L20.125 9.12695V8.26367C20.125 7.91992 19.8438 7.63867 19.5 7.63867H4.5ZM3.875 11.5527V18.2637C3.875 18.6074 4.15625 18.8887 4.5 18.8887H19.5C19.8438 18.8887 20.125 18.6074 20.125 18.2637V11.5527L14.5781 16.1074C13.0781 17.3379 10.918 17.3379 9.42188 16.1074L3.875 11.5527ZM2 8.26367C2 6.88477 3.12109 5.76367 4.5 5.76367H19.5C20.8789 5.76367 22 6.88477 22 8.26367V18.2637C22 19.6426 20.8789 20.7637 19.5 20.7637H4.5C3.12109 20.7637 2 19.6426 2 18.2637V8.26367Z" fill="#363636"/>
</g>
</svg>
