<svg width="32" height="32" viewBox="0 0 32 32" fill="none" xmlns="http://www.w3.org/2000/svg">
<rect width="32" height="32" rx="16" fill="white"/>
<path d="M16 27C22.0751 27 27 22.0751 27 16C27 9.92487 22.0751 5 16 5C9.92487 5 5 9.92487 5 16C5 22.0751 9.92487 27 16 27Z" fill="#3A559F"/>
<path d="M19.4852 14.6975L19.264 16.6138C19.2548 16.7012 19.2138 16.7822 19.1488 16.8414C19.0839 16.9007 18.9994 16.9339 18.9115 16.935H16.9115L16.9015 22.6162C16.9022 22.6836 16.8763 22.7485 16.8295 22.7969C16.7827 22.8453 16.7188 22.8734 16.6515 22.875H14.6252C14.5915 22.875 14.5582 22.8682 14.5272 22.8551C14.4962 22.8419 14.4682 22.8226 14.4448 22.7983C14.4215 22.774 14.4033 22.7452 14.3913 22.7137C14.3794 22.6823 14.3739 22.6487 14.3752 22.615V16.935H12.8752C12.8281 16.9345 12.7816 16.9247 12.7382 16.9063C12.6949 16.8878 12.6556 16.8609 12.6226 16.8273C12.5897 16.7936 12.5637 16.7538 12.5461 16.7101C12.5285 16.6664 12.5197 16.6196 12.5202 16.5725L12.5127 14.6562C12.5121 14.609 12.5207 14.562 12.5382 14.5181C12.5557 14.4742 12.5817 14.4341 12.6146 14.4002C12.6476 14.3663 12.6869 14.3393 12.7303 14.3206C12.7738 14.3019 12.8205 14.2919 12.8677 14.2913H14.3752V12.4412C14.3752 10.2937 15.6502 9.125 17.5202 9.125H19.0527C19.1001 9.12549 19.1469 9.13533 19.1905 9.15395C19.2341 9.17258 19.2735 9.19962 19.3066 9.23353C19.3397 9.26744 19.3658 9.30755 19.3834 9.35156C19.4009 9.39557 19.4096 9.44262 19.409 9.49V11.1025C19.4096 11.1499 19.4009 11.1969 19.3834 11.2409C19.3658 11.2849 19.3397 11.3251 19.3066 11.359C19.2735 11.3929 19.2341 11.4199 19.1905 11.4385C19.1469 11.4572 19.1001 11.467 19.0527 11.4675H18.1127C17.0965 11.4675 16.899 11.9675 16.899 12.69V14.2913H19.1327C19.1835 14.2919 19.2336 14.3033 19.2797 14.3246C19.3258 14.346 19.3668 14.3769 19.4001 14.4153C19.4334 14.4537 19.4582 14.4986 19.4729 14.5473C19.4876 14.5959 19.4918 14.6471 19.4852 14.6975Z" fill="white"/>
</svg>
