<?xml version="1.0" encoding="utf-8"?>
<!-- Generator: Adobe Illustrator 24.2.1, SVG Export Plug-In . SVG Version: 6.00 Build 0)  -->
<svg version="1.1" id="Layer_1" xmlns="http://www.w3.org/2000/svg" xmlns:xlink="http://www.w3.org/1999/xlink" x="0px" y="0px"
	 viewBox="0 0 24 24" style="enable-background:new 0 0 24 24;" xml:space="preserve">
<style type="text/css">
	.st0{stroke:#000000;stroke-width:0.25;stroke-miterlimit:10;}
	.st1{fill:#FFFFFF;filter:url(#Adobe_OpacityMaskFilter);}
	.st2{mask:url(#mask0_52_827_2_);}
	.st3{fill:none;stroke:#010101;stroke-width:1.2305;stroke-miterlimit:10;}
	.st4{fill:none;stroke:#010101;stroke-width:1.2305;stroke-linejoin:round;stroke-miterlimit:10;}
	.st5{fill:#010101;stroke:#000000;stroke-width:0.25;stroke-miterlimit:10;}
	.st6{fill:#010101;}
	.st7{fill-rule:evenodd;clip-rule:evenodd;fill:#010101;stroke:#000000;stroke-width:0.25;stroke-miterlimit:10;}
</style>
<defs>
	<filter id="Adobe_OpacityMaskFilter" filterUnits="userSpaceOnUse" x="3.08" y="1.5" width="17.84" height="21">
		<feColorMatrix  type="matrix" values="1 0 0 0 0  0 1 0 0 0  0 0 1 0 0  0 0 0 1 0"/>
	</filter>
</defs>
<mask maskUnits="userSpaceOnUse" x="3.08" y="1.5" width="17.84" height="21" id="mask0_52_827_2_">
	<path class="st1" d="M1.5,1.5h21v21h-21V1.5z"/>
</mask>
<g class="st2">
	<path class="st3" d="M20.28,7.21c-0.01-0.53-0.02-1.04-0.02-1.53c0-0.38-0.31-0.69-0.69-0.69c-2.96,0-5.21-0.85-7.09-2.68
		c-0.27-0.26-0.7-0.26-0.96,0C9.64,4.14,7.39,4.99,4.43,4.99c-0.38,0-0.69,0.31-0.69,0.69c0,0.49-0.01,0.99-0.02,1.53
		c-0.09,4.97-0.22,11.77,8.06,14.64c0.07,0.03,0.15,0.04,0.23,0.04c0.08,0,0.15-0.01,0.23-0.04C20.51,18.98,20.38,12.17,20.28,7.21z
		"/>
	<path class="st4" d="M13.23,10.57v-2.6h-2.46v2.6h-2.6v2.46h2.6v2.6h2.46v-2.6h2.59v-2.46H13.23z"/>
</g>
</svg>
