<?xml version="1.0" encoding="utf-8"?>
<!-- Generator: Adobe Illustrator 24.2.1, SVG Export Plug-In . SVG Version: 6.00 Build 0)  -->
<svg version="1.1" id="Layer_1" xmlns="http://www.w3.org/2000/svg" xmlns:xlink="http://www.w3.org/1999/xlink" x="0px" y="0px"
	 viewBox="0 0 24 24" style="enable-background:new 0 0 24 24;" xml:space="preserve">
<style type="text/css">
	.st0{stroke:#000000;stroke-width:0.25;stroke-miterlimit:10;}
	.st1{fill:#FFFFFF;filter:url(#Adobe_OpacityMaskFilter);}
	.st2{mask:url(#mask0_52_827_2_);}
	.st3{fill:none;stroke:#010101;stroke-width:1.2305;stroke-miterlimit:10;}
	.st4{fill:none;stroke:#010101;stroke-width:1.2305;stroke-linejoin:round;stroke-miterlimit:10;}
	.st5{fill:#010101;stroke:#000000;stroke-width:0.25;stroke-miterlimit:10;}
	.st6{fill:#010101;}
	.st7{fill-rule:evenodd;clip-rule:evenodd;fill:#010101;stroke:#000000;stroke-width:0.25;stroke-miterlimit:10;}
</style>
<g>
	<path class="st0" d="M21.32,7.38c0.01-0.06,0.01-0.12,0.01-0.18c0-0.31-0.11-0.61-0.3-0.85c-0.19-0.24-0.46-0.4-0.77-0.47
		c-0.34-0.06-0.69,0-0.99,0.19c-0.29,0.19-0.51,0.48-0.59,0.81l-1.48,4.25c-0.02,0.01-0.04,0.02-0.06,0.03l-2.97,1.74
		c-0.45,0.27-0.83,0.65-1.09,1.11c-0.26,0.46-0.4,0.98-0.4,1.5v3.17c-0.09,0-0.17,0.04-0.24,0.1c-0.06,0.06-0.1,0.15-0.1,0.24v2.69
		c0,0.09,0.04,0.17,0.1,0.24c0.06,0.06,0.15,0.1,0.24,0.1h4.7c0.09,0,0.17-0.04,0.24-0.1c0.06-0.06,0.1-0.15,0.1-0.24v-2.69
		c0-0.09-0.04-0.17-0.1-0.24c-0.06-0.06-0.15-0.1-0.24-0.1v-0.74c0-0.14,0.03-0.28,0.09-0.41c0.06-0.13,0.14-0.25,0.25-0.34
		l2.27-2.02c0.25-0.22,0.43-0.5,0.51-0.82l1.46-5.45C21.98,8.78,22,8.67,22,8.55c0-0.24-0.07-0.47-0.18-0.67
		C21.7,7.67,21.52,7.5,21.32,7.38z M19.32,7.09c0.04-0.17,0.15-0.33,0.29-0.43c0.15-0.1,0.33-0.14,0.51-0.11
		c0.15,0.03,0.29,0.11,0.38,0.23c0.1,0.12,0.15,0.27,0.15,0.42v0.01c-0.3,0.01-0.59,0.11-0.83,0.29c-0.24,0.19-0.4,0.44-0.48,0.73
		l-0.94,2.89c-0.14-0.07-0.29-0.11-0.45-0.13L19.32,7.09z M17.04,21.38h-4.03v-2.02h4.03V21.38z M21.3,8.72l-1.46,5.46
		c-0.05,0.19-0.16,0.36-0.3,0.49l-2.27,2.02c-0.18,0.16-0.32,0.35-0.41,0.57c-0.1,0.22-0.15,0.45-0.15,0.69v0.74h-3.36v-3.17
		c0-0.41,0.11-0.81,0.31-1.17c0.2-0.36,0.5-0.65,0.85-0.86l2.97-1.74c0.08-0.04,0.16-0.07,0.25-0.09c0.09-0.01,0.18-0.01,0.26,0.02
		c0.09,0.02,0.17,0.06,0.24,0.12c0.07,0.05,0.13,0.12,0.17,0.2c0.09,0.16,0.11,0.34,0.07,0.51c-0.02,0.09-0.06,0.16-0.12,0.23
		c-0.05,0.07-0.12,0.13-0.2,0.17l-1.93,1.11c-0.07,0.05-0.13,0.12-0.15,0.2c-0.02,0.08-0.01,0.17,0.04,0.25s0.11,0.13,0.2,0.15
		c0.08,0.02,0.17,0.02,0.25-0.02l1.93-1.11c0.15-0.09,0.29-0.2,0.4-0.34c0.11-0.14,0.19-0.3,0.23-0.47
		c0.09-0.34,0.04-0.71-0.13-1.02l-0.02-0.03l1.04-3.2c0.04-0.17,0.15-0.33,0.29-0.43c0.15-0.1,0.33-0.14,0.5-0.11
		c0.15,0.03,0.29,0.11,0.38,0.23c0.1,0.12,0.15,0.27,0.15,0.42C21.33,8.61,21.32,8.67,21.3,8.72z"/>
	<path class="st0" d="M11.33,18.69v-3.17c0-0.53-0.14-1.05-0.4-1.5c-0.26-0.46-0.64-0.84-1.09-1.11l-2.97-1.74
		c-0.02-0.01-0.04-0.02-0.06-0.03L5.33,6.91c-0.09-0.34-0.3-0.64-0.59-0.83c-0.3-0.19-0.65-0.26-1-0.2
		c-0.3,0.06-0.57,0.23-0.77,0.47C2.78,6.6,2.67,6.9,2.67,7.21c0,0.06,0,0.12,0.01,0.18C2.48,7.5,2.3,7.67,2.18,7.87
		C2.07,8.08,2,8.31,2,8.55C2,8.67,2.02,8.78,2.04,8.9l1.46,5.45c0.08,0.32,0.26,0.61,0.51,0.83l2.27,2.02
		c0.11,0.09,0.19,0.21,0.25,0.34c0.06,0.13,0.09,0.27,0.09,0.41v0.74c-0.09,0-0.17,0.04-0.24,0.1c-0.06,0.06-0.1,0.15-0.1,0.24v2.69
		c0,0.09,0.04,0.17,0.1,0.24c0.06,0.06,0.15,0.1,0.24,0.1h4.7c0.09,0,0.17-0.04,0.24-0.1c0.06-0.06,0.1-0.15,0.1-0.24v-2.69
		c0-0.09-0.04-0.17-0.1-0.24C11.5,18.72,11.42,18.69,11.33,18.69z M3.34,7.21c0-0.15,0.05-0.3,0.15-0.42
		c0.1-0.12,0.23-0.2,0.38-0.23c0.18-0.03,0.37,0.02,0.52,0.12c0.15,0.1,0.26,0.26,0.3,0.44l1.35,3.89
		c-0.16,0.02-0.31,0.06-0.45,0.13L4.66,8.26C4.58,7.96,4.41,7.7,4.18,7.51S3.65,7.22,3.34,7.21L3.34,7.21z M6.73,16.69l-2.27-2.02
		c-0.15-0.13-0.25-0.3-0.3-0.49L2.69,8.72C2.68,8.67,2.67,8.61,2.67,8.55c0-0.15,0.05-0.3,0.15-0.42s0.23-0.2,0.38-0.23
		c0.18-0.03,0.36,0.02,0.51,0.12c0.15,0.1,0.26,0.26,0.3,0.44l1.03,3.19l-0.02,0.03c-0.18,0.31-0.23,0.67-0.13,1.02
		c0.04,0.17,0.12,0.33,0.23,0.47c0.11,0.14,0.24,0.26,0.4,0.34l1.93,1.11c0.08,0.04,0.17,0.05,0.25,0.02
		c0.08-0.02,0.15-0.08,0.2-0.15c0.04-0.08,0.06-0.16,0.04-0.25c-0.02-0.08-0.07-0.16-0.15-0.2l-1.93-1.11
		c-0.08-0.04-0.14-0.1-0.2-0.17c-0.05-0.07-0.09-0.15-0.12-0.23C5.49,12.34,5.52,12.16,5.61,12c0.04-0.08,0.1-0.14,0.17-0.2
		s0.15-0.09,0.23-0.12c0.09-0.02,0.17-0.03,0.26-0.02c0.09,0.01,0.17,0.04,0.25,0.08l2.97,1.74c0.35,0.21,0.65,0.51,0.85,0.86
		c0.2,0.36,0.31,0.76,0.31,1.17v3.17H7.3v-0.74c0-0.24-0.05-0.47-0.15-0.69C7.05,17.04,6.91,16.85,6.73,16.69z M10.99,21.38H6.96
		v-2.02h4.03V21.38z"/>
	<path class="st0" d="M16.75,2.94c-0.31-0.31-0.68-0.56-1.09-0.73c-0.41-0.17-0.85-0.26-1.29-0.26c-0.44,0-0.88,0.09-1.29,0.26
		C12.68,2.38,12.31,2.63,12,2.94c-0.31-0.31-0.68-0.56-1.09-0.73c-0.41-0.17-0.84-0.26-1.29-0.26c-0.44,0-0.88,0.09-1.29,0.26
		C7.93,2.38,7.56,2.63,7.25,2.94C6.62,3.57,6.26,4.42,6.26,5.31s0.35,1.74,0.98,2.37l4.52,4.52c0.06,0.06,0.15,0.1,0.24,0.1
		c0.09,0,0.17-0.04,0.24-0.1l4.52-4.52c0.63-0.63,0.98-1.48,0.98-2.37C17.74,4.42,17.38,3.57,16.75,2.94z M12,11.49L7.72,7.21
		C7.35,6.84,7.09,6.36,6.99,5.84c-0.1-0.52-0.05-1.06,0.15-1.55c0.2-0.49,0.55-0.91,0.99-1.21c0.44-0.3,0.96-0.45,1.49-0.45
		c0.35,0,0.7,0.07,1.03,0.2c0.33,0.14,0.62,0.33,0.87,0.59l0.24,0.24c0.06,0.06,0.15,0.1,0.24,0.1s0.17-0.04,0.24-0.1l0.24-0.24
		c0.25-0.25,0.55-0.45,0.87-0.58c0.33-0.14,0.68-0.2,1.03-0.2s0.7,0.07,1.03,0.2c0.33,0.14,0.62,0.33,0.87,0.58
		c0.5,0.5,0.79,1.19,0.79,1.9c0,0.71-0.28,1.4-0.79,1.9L12,11.49z"/>
</g>
</svg>
