<?xml version="1.0" encoding="utf-8"?>
<!-- Generator: Adobe Illustrator 24.2.1, SVG Export Plug-In . SVG Version: 6.00 Build 0)  -->
<svg version="1.1" id="Layer_1" xmlns="http://www.w3.org/2000/svg" xmlns:xlink="http://www.w3.org/1999/xlink" x="0px" y="0px"
	 viewBox="0 0 24 24" style="enable-background:new 0 0 24 24;" xml:space="preserve">
<style type="text/css">
	.st0{stroke:#000000;stroke-width:0.25;stroke-miterlimit:10;}
	.st1{fill:#FFFFFF;filter:url(#Adobe_OpacityMaskFilter);}
	.st2{mask:url(#mask0_52_827_2_);}
	.st3{fill:none;stroke:#010101;stroke-width:1.2305;stroke-miterlimit:10;}
	.st4{fill:none;stroke:#010101;stroke-width:1.2305;stroke-linejoin:round;stroke-miterlimit:10;}
	.st5{fill:#010101;stroke:#000000;stroke-width:0.25;stroke-miterlimit:10;}
	.st6{fill:#010101;}
	.st7{fill-rule:evenodd;clip-rule:evenodd;fill:#010101;stroke:#000000;stroke-width:0.25;stroke-miterlimit:10;}
</style>
<g>
	<path class="st5" d="M13.59,18.56l0.88-0.38c1.82-0.79,3.89-0.78,5.7,0.04l0.69,0.31l0.28-0.61l-0.69-0.31
		c-1.98-0.9-4.25-1.92-6.25-1.04l-0.5,1.22l0.09-0.08c1.4-1.29,3.4-2.67,5.17-1.98l1.25,0.48l0.24-0.62L19.2,15.1
		c-2.01-0.78-4.28-0.35-5.86,1.11L12,17.44l-1.34-1.23C9.08,14.75,6.8,14.32,4.8,15.1l-1.25,0.48l0.24,0.62l1.25-0.48
		c1.77-0.69,3.78,0.69,5.17,1.98l0.09,0.08l-0.5-1.22c-1.99-0.87-4.26,0.14-6.25,1.04l-0.69,0.31l0.28,0.61l0.69-0.31
		c1.81-0.82,3.88-0.84,5.7-0.04l0.88,0.38H2v2.67h20v-2.67H13.59z M11.67,20.56h-9v-1.33h9V20.56z M21.33,20.56h-9v-1.33h9V20.56z"
		/>
	<path class="st5" d="M12,16.02l-6.18-5.83C4.58,8.95,4.2,7.08,4.87,5.46c0.67-1.62,2.25-2.68,4.01-2.68c1.21,0,2.33,0.87,3.06,1.6
		L12,4.44l0.05-0.05c0.73-0.74,1.86-1.61,3.07-1.61c1.75,0,3.33,1.05,4,2.67c0.67,1.62,0.31,3.48-0.93,4.72l-0.01,0.01L12,16.02z
		 M8.88,3.44c-1.48,0-2.82,0.89-3.39,2.26c-0.57,1.37-0.25,2.95,0.79,4L12,15.1l5.72-5.41c1.04-1.05,1.35-2.63,0.78-3.99
		c-0.57-1.37-1.91-2.26-3.39-2.26c-0.77,0-1.69,0.5-2.6,1.42L12,5.38l-0.53-0.53C10.83,4.21,9.86,3.44,8.88,3.44z"/>
</g>
</svg>
