<svg width="24" height="24" viewBox="0 0 24 24" fill="none" xmlns="http://www.w3.org/2000/svg">
<path d="M22.0617 10.5863L18.9694 7.4939V3.9217C18.9694 3.2758 18.446 2.75235 17.7991 2.75235C17.1537 2.75235 16.6303 3.2758 16.6303 3.9217V5.1549L14.3278 2.85231C13.1894 1.71455 11.2102 1.71656 10.0744 2.85437L2.34233 10.5863C1.88589 11.0436 1.88589 11.7836 2.34233 12.2403C2.79898 12.6975 3.54043 12.6975 3.99692 12.2403L11.7282 4.50817C11.9801 4.25763 12.424 4.25763 12.6746 4.50743L20.4072 12.2403C20.6365 12.4689 20.9354 12.5826 21.2343 12.5826C21.5337 12.5826 21.8332 12.4688 22.0618 12.2403C22.5184 11.7837 22.5184 11.0436 22.0617 10.5863Z" fill="black"/>
<path d="M12.6079 6.72789C12.3833 6.50338 12.0195 6.50338 11.7956 6.72789L4.99442 13.527C4.88705 13.6343 4.82617 13.7809 4.82617 13.9338V18.8928C4.82617 20.0565 5.7697 21 6.93333 21H10.3006V15.7852H14.1021V21H17.4694C18.633 21 19.5765 20.0565 19.5765 18.8929V13.9338C19.5765 13.7809 19.5162 13.6343 19.4083 13.527L12.6079 6.72789Z" fill="black"/>
</svg>
