<svg width="24" height="24" viewBox="0 0 24 24" fill="none" xmlns="http://www.w3.org/2000/svg">
<path d="M4.61907 9.28094H2.58594C2.26234 9.28094 2 9.54329 2 9.86688V22H4.61907V9.28094Z" fill="black"/>
<path d="M21.414 9.28094H19.3809V22H21.9999V9.86688C21.9999 9.54329 21.7376 9.28094 21.414 9.28094Z" fill="black"/>
<path d="M13.0195 18.0848V22H10.9817V18.0848H13.0195Z" fill="black"/>
<path d="M17.6232 4.40664H15.7785V2.58594C15.7785 2.26234 15.5162 2 15.1926 2H8.89055C8.56696 2 8.30461 2.26234 8.30461 2.58594V4.40664H6.37695C6.05336 4.40664 5.79102 4.66898 5.79102 4.99258V22H9.8093V17.4989C9.8093 17.1753 10.0716 16.913 10.3952 16.913H13.6049C13.9285 16.913 14.1909 17.1753 14.1909 17.4989V22H18.2092V4.99258C18.2092 4.66898 17.9468 4.40664 17.6232 4.40664ZM9.34684 14.8881H8.71583C8.39223 14.8881 8.12989 14.6257 8.12989 14.3021C8.12989 13.9786 8.39223 13.7162 8.71583 13.7162H9.34684C9.67044 13.7162 9.93278 13.9786 9.93278 14.3021C9.93278 14.6257 9.67044 14.8881 9.34684 14.8881ZM9.34684 12.5443H8.71583C8.39223 12.5443 8.12989 12.282 8.12989 11.9584C8.12989 11.6348 8.39223 11.3725 8.71583 11.3725H9.34684C9.67044 11.3725 9.93278 11.6348 9.93278 11.9584C9.93278 12.282 9.67044 12.5443 9.34684 12.5443ZM9.34684 10.2006H8.71583C8.39223 10.2006 8.12989 9.93824 8.12989 9.61465C8.12989 9.29105 8.39223 9.02871 8.71583 9.02871H9.34684C9.67044 9.02871 9.93278 9.29105 9.93278 9.61465C9.93278 9.93824 9.67044 10.2006 9.34684 10.2006ZM12.3156 14.8881H11.6846C11.361 14.8881 11.0986 14.6257 11.0986 14.3021C11.0986 13.9786 11.361 13.7162 11.6846 13.7162H12.3156C12.6392 13.7162 12.9015 13.9786 12.9015 14.3021C12.9015 14.6257 12.6392 14.8881 12.3156 14.8881ZM12.3156 12.5443H11.6846C11.361 12.5443 11.0986 12.282 11.0986 11.9584C11.0986 11.6348 11.361 11.3725 11.6846 11.3725H12.3156C12.6392 11.3725 12.9015 11.6348 12.9015 11.9584C12.9015 12.282 12.6392 12.5443 12.3156 12.5443ZM12.3156 10.2006H11.6846C11.361 10.2006 11.0986 9.93824 11.0986 9.61465C11.0986 9.29105 11.361 9.02871 11.6846 9.02871H12.3156C12.6392 9.02871 12.9015 9.29105 12.9015 9.61465C12.9015 9.93824 12.6392 10.2006 12.3156 10.2006ZM13.181 6.69652H12.586V7.29148C12.586 7.61508 12.3237 7.87742 12.0001 7.87742C11.6765 7.87742 11.4141 7.61508 11.4141 7.29148V6.69652H10.8192C10.4956 6.69652 10.2332 6.43418 10.2332 6.11059C10.2332 5.78699 10.4956 5.52465 10.8192 5.52465H11.4141V4.92969C11.4141 4.60609 11.6765 4.34375 12.0001 4.34375C12.3237 4.34375 12.586 4.60609 12.586 4.92969V5.52465H13.181C13.5046 5.52465 13.7669 5.78699 13.7669 6.11059C13.7669 6.43418 13.5046 6.69652 13.181 6.69652ZM15.2844 14.8881H14.6533C14.3297 14.8881 14.0674 14.6257 14.0674 14.3021C14.0674 13.9786 14.3297 13.7162 14.6533 13.7162H15.2844C15.6079 13.7162 15.8703 13.9786 15.8703 14.3021C15.8703 14.6257 15.6079 14.8881 15.2844 14.8881ZM15.2844 12.5443H14.6533C14.3297 12.5443 14.0674 12.282 14.0674 11.9584C14.0674 11.6348 14.3297 11.3725 14.6533 11.3725H15.2844C15.6079 11.3725 15.8703 11.6348 15.8703 11.9584C15.8703 12.282 15.6079 12.5443 15.2844 12.5443ZM15.2844 10.2006H14.6533C14.3297 10.2006 14.0674 9.93824 14.0674 9.61465C14.0674 9.29105 14.3297 9.02871 14.6533 9.02871H15.2844C15.6079 9.02871 15.8703 9.29105 15.8703 9.61465C15.8703 9.93824 15.6079 10.2006 15.2844 10.2006Z" fill="black"/>
</svg>
