<svg width="40" height="40" viewBox="0 0 40 40" fill="none" xmlns="http://www.w3.org/2000/svg">
<path d="M33.541 8.94258C33.3703 6.7402 31.525 5 29.2797 5H9.27558C6.91802 5 5 6.91802 5 9.27558V29.0577C5 31.4153 6.91802 33.3333 9.27558 33.3333H32.3853C34.7428 33.3333 36.661 31.4153 36.661 29.0577V13.0581C36.6608 11.1011 35.3387 9.44817 33.541 8.94258ZM9.27558 6.99735H29.2798C30.3667 6.99735 31.2777 7.76265 31.5037 8.78262H9.27558C8.4385 8.78262 7.65747 9.02535 6.99735 9.4428V9.27558C6.99735 8.01937 8.01937 6.99735 9.27558 6.99735ZM32.3853 31.336H9.27558C8.01937 31.336 6.99735 30.314 6.99735 29.0577V13.0581C6.99735 11.8019 8.01937 10.7799 9.27558 10.7799H32.3853C33.6415 10.7799 34.6635 11.8019 34.6635 13.0581V16.5434H28.2953C25.7718 16.5434 23.7188 18.5965 23.7188 21.12C23.7188 23.6435 25.772 25.6967 28.2953 25.6967H34.6635V29.0577C34.6635 30.314 33.6415 31.336 32.3853 31.336ZM34.6635 23.6993H28.2953C26.8732 23.6993 25.7162 22.5423 25.7162 21.12C25.7162 19.6978 26.8732 18.5407 28.2953 18.5407H34.6635V23.6993Z" fill="#0E1111"/>
<path d="M28.6663 22.2357C29.2405 22.2357 29.706 21.7702 29.706 21.1961C29.706 20.6217 29.2405 20.1562 28.6663 20.1562C28.092 20.1562 27.6265 20.6217 27.6265 21.1961C27.6265 21.7702 28.092 22.2357 28.6663 22.2357Z" fill="#0E1111"/>
</svg>
