<svg width="24" height="24" viewBox="0 0 24 24" fill="none" xmlns="http://www.w3.org/2000/svg">
<path d="M15.75 5.5H18.25C18.9414 5.5 19.5 6.05859 19.5 6.75V16.75C19.5 17.4414 18.9414 18 18.25 18H15.75C15.0586 18 14.5 18.5586 14.5 19.25C14.5 19.9414 15.0586 20.5 15.75 20.5H18.25C20.3203 20.5 22 18.8203 22 16.75V6.75C22 4.67969 20.3203 3 18.25 3H15.75C15.0586 3 14.5 3.55859 14.5 4.25C14.5 4.94141 15.0586 5.5 15.75 5.5ZM15.3828 12.6328C15.8711 12.1445 15.8711 11.3516 15.3828 10.8633L10.3828 5.86328C9.89453 5.375 9.10156 5.375 8.61328 5.86328C8.125 6.35156 8.125 7.14453 8.61328 7.63281L11.4805 10.5H3.25C2.55859 10.5 2 11.0586 2 11.75C2 12.4414 2.55859 13 3.25 13H11.4805L8.61328 15.8672C8.125 16.3555 8.125 17.1484 8.61328 17.6367C9.10156 18.125 9.89453 18.125 10.3828 17.6367L15.3828 12.6367V12.6328Z" fill="#0E1111"/>
</svg>
