<svg width="41" height="40" viewBox="0 0 41 40" fill="none" xmlns="http://www.w3.org/2000/svg">
<path d="M34.4027 15.3696C33.9753 12.3816 32.6023 9.62305 30.4297 7.45065C27.7752 4.79597 24.2457 3.33398 20.4913 3.33398C16.7371 3.33398 13.2076 4.79597 10.553 7.45058C8.38051 9.62305 7.0074 12.3816 6.58005 15.3695C4.99073 15.864 3.8335 17.3487 3.8335 19.0985V23.263C3.8335 25.4157 5.58493 27.1672 7.73768 27.1672H11.6418V15.1943H9.24855C9.67765 12.9716 10.7573 10.9273 12.3934 9.29102C14.5564 7.128 17.4325 5.93678 20.4915 5.93678C26.0558 5.93678 30.7052 9.92592 31.7318 15.1943H29.341V27.1672H31.9437V27.5575C31.9437 29.7103 30.1923 31.4617 28.0395 31.4617H24.1718C23.6345 29.947 22.188 28.859 20.4915 28.859C18.3387 28.859 16.5872 30.6103 16.5872 32.7631C16.5872 34.9158 18.3387 36.6673 20.4915 36.6673C22.188 36.6673 23.6345 35.5791 24.1718 34.0645H28.0395C31.6275 34.0645 34.5465 31.1455 34.5465 27.5575V26.9433C36.0612 26.406 37.1493 24.9595 37.1493 23.263V19.0985C37.1493 17.3487 35.9922 15.8641 34.4027 15.3696ZM9.03911 24.5643H7.73773C7.02016 24.5643 6.43636 23.9807 6.43636 23.263V19.0985C6.43636 18.381 7.02016 17.7972 7.73773 17.7972H9.03911V24.5643ZM20.4915 34.0645C19.7738 34.0645 19.19 33.4806 19.19 32.7631C19.19 32.0456 19.7738 31.4618 20.4915 31.4618C21.209 31.4618 21.7928 32.0456 21.7928 32.7631C21.7928 33.4806 21.209 34.0645 20.4915 34.0645ZM34.5465 23.263C34.5465 23.9805 33.9627 24.5643 33.2452 24.5643H31.9437V17.7972H33.2452C33.9627 17.7972 34.5465 18.381 34.5465 19.0985V23.263Z" fill="#0E1111"/>
</svg>
