<svg width="24" height="24" viewBox="0 0 24 24" fill="none" xmlns="http://www.w3.org/2000/svg">
<path d="M21.8734 11.9851C21.6947 11.7406 17.4376 6.00037 12.0004 6.00037C6.56324 6.00037 2.30588 11.7406 2.1274 11.9848C1.95818 12.2167 1.95818 12.5312 2.1274 12.7631C2.30588 13.0075 6.56324 18.7478 12.0004 18.7478C17.4376 18.7478 21.6947 13.0075 21.8734 12.7633C22.0429 12.5314 22.0429 12.2167 21.8734 11.9851ZM12.0004 17.4291C7.99535 17.4291 4.52655 13.6191 3.49971 12.3736C4.52522 11.127 7.98676 7.31906 12.0004 7.31906C16.0053 7.31906 19.4738 11.1283 20.5011 12.3745C19.4756 13.6211 16.014 17.4291 12.0004 17.4291Z" fill="#464646"/>
<path d="M12.0005 8.41833C9.81916 8.41833 8.04443 10.1931 8.04443 12.3744C8.04443 14.5558 9.81916 16.3305 12.0005 16.3305C14.1818 16.3305 15.9566 14.5558 15.9566 12.3744C15.9566 10.1931 14.1818 8.41833 12.0005 8.41833ZM12.0005 15.0118C10.5462 15.0118 9.36315 13.8287 9.36315 12.3744C9.36315 10.9202 10.5462 9.73706 12.0005 9.73706C13.4548 9.73706 14.6379 10.9202 14.6379 12.3744C14.6379 13.8287 13.4548 15.0118 12.0005 15.0118Z" fill="#464646"/>
</svg>
