<svg width="24" height="24" viewBox="0 0 24 24" fill="none" xmlns="http://www.w3.org/2000/svg">
<path d="M11.9926 4.00001C10.6036 3.99796 9.23815 4.35843 8.03119 5.0458C6.82423 5.73317 5.81756 6.72363 5.11071 7.91927C4.40386 9.1149 4.02131 10.4743 4.00086 11.8631C3.98042 13.2519 4.3228 14.622 4.99415 15.8379L4.0307 19.0493C3.9982 19.1578 3.9915 19.2724 4.01115 19.3839C4.0308 19.4954 4.07625 19.6008 4.14388 19.6916C4.2115 19.7825 4.29942 19.8563 4.40062 19.9071C4.50183 19.9579 4.61351 19.9844 4.72676 19.9844C4.79762 19.9843 4.86809 19.974 4.93602 19.9539L8.14752 18.9904C9.21577 19.5796 10.4047 19.9165 11.6233 19.9751C12.8418 20.0338 14.0577 19.8127 15.1776 19.3288C16.2975 18.845 17.2918 18.1112 18.0842 17.1837C18.8767 16.2562 19.4463 15.1595 19.7494 13.9779C20.0525 12.7962 20.0811 11.5608 19.8329 10.3664C19.5847 9.17193 19.0664 8.05016 18.3176 7.08702C17.5689 6.12387 16.6096 5.34491 15.5132 4.80982C14.4169 4.27474 13.2126 3.99772 11.9926 4.00001ZM11.9926 18.5313C10.8013 18.5297 9.63321 18.2015 8.61544 17.5824C8.50155 17.5139 8.3712 17.4778 8.23834 17.4777C8.16769 17.4774 8.0974 17.4877 8.02981 17.5083L5.81083 18.1745L6.47638 15.9549C6.50527 15.8582 6.51373 15.7567 6.50122 15.6566C6.48871 15.5565 6.45551 15.4601 6.40372 15.3736C5.6577 14.1374 5.3422 12.689 5.50651 11.2545C5.67081 9.82011 6.30567 8.4805 7.31189 7.44503C8.31811 6.40956 9.639 5.73656 11.0682 5.53119C12.4974 5.32582 13.9543 5.59965 15.2114 6.30989C16.4685 7.02012 17.4549 8.12676 18.0165 9.45689C18.5781 10.787 18.6832 12.2657 18.3155 13.6619C17.9478 15.0581 17.1279 16.2932 15.9839 17.1742C14.84 18.0551 13.4365 18.5323 11.9926 18.5313Z" fill="#464646"/>
</svg>
