<svg width="24" height="24" viewBox="0 0 24 24" fill="none" xmlns="http://www.w3.org/2000/svg">
<path fill-rule="evenodd" clip-rule="evenodd" d="M8.19665 4.62268C8.19665 3.17421 9.37086 2 10.8194 2H13.1806C14.6291 2 15.8033 3.17422 15.8033 4.62269C15.8033 5.17771 16.4042 5.52464 16.8848 5.24711C18.1392 4.52287 19.7433 4.95264 20.4675 6.20708L21.6482 8.25197C22.3724 9.50639 21.9426 11.1104 20.6882 11.8347C20.2075 12.1122 20.2075 12.806 20.6882 13.0836C21.9426 13.8078 22.3724 15.4118 21.6482 16.6662L20.4675 18.7111C19.7433 19.9655 18.1393 20.3954 16.8849 19.6711C16.4042 19.3936 15.8033 19.7405 15.8033 20.2956C15.8033 21.7441 14.6291 22.9183 13.1806 22.9183H10.8194C9.37086 22.9183 8.19665 21.7441 8.19665 20.2956C8.19665 19.7405 7.59576 19.3936 7.1151 19.6711C5.86069 20.3954 4.25668 19.9655 3.53244 18.7112L2.35181 16.6662C1.62758 15.4118 2.05737 13.8078 3.31179 13.0836C3.79248 12.806 3.79248 12.1122 3.31179 11.8347C2.05737 11.1104 1.62758 9.50639 2.35181 8.25197L3.53244 6.20706C4.25668 4.95263 5.86071 4.52286 7.11511 5.2471C7.5958 5.52463 8.19665 5.1777 8.19665 4.62268ZM10.8194 3.90167C10.4212 3.90167 10.0984 4.22447 10.0984 4.62268C10.0984 6.64165 7.91271 7.90345 6.16428 6.89399C5.81941 6.69487 5.37843 6.81303 5.17932 7.15789L3.9987 9.2028C3.79959 9.54767 3.91775 9.98865 4.26262 10.1878C6.01109 11.1972 6.01109 13.7209 4.26262 14.7304C3.91775 14.9295 3.79958 15.3705 3.9987 15.7154L5.17932 17.7603C5.37843 18.1052 5.8194 18.2233 6.16427 18.0242C7.91276 17.0147 10.0984 18.2767 10.0984 20.2956C10.0984 20.6939 10.4212 21.0167 10.8194 21.0167H13.1806C13.5788 21.0167 13.9017 20.6939 13.9017 20.2956C13.9017 18.2767 16.0872 17.0147 17.8357 18.0242C18.1806 18.2233 18.6216 18.1051 18.8207 17.7603L20.0012 15.7154C20.2003 15.3705 20.0823 14.9295 19.7374 14.7304C17.9889 13.7209 17.9889 11.1972 19.7374 10.1878C20.0823 9.98865 20.2003 9.54767 20.0012 9.2028L18.8207 7.15791C18.6216 6.81305 18.1806 6.69487 17.8356 6.894C16.0872 7.90346 13.9017 6.64167 13.9017 4.62269C13.9017 4.22448 13.5788 3.90167 13.1806 3.90167H10.8194ZM12 9.60667C10.4246 9.60667 9.14748 10.8837 9.14748 12.4592C9.14748 14.0346 10.4246 15.3117 12 15.3117C13.5753 15.3117 14.8525 14.0346 14.8525 12.4592C14.8525 10.8837 13.5753 9.60667 12 9.60667ZM7.24582 12.4592C7.24582 9.83352 9.37433 7.705 12 7.705C14.6256 7.705 16.7542 9.83352 16.7542 12.4592C16.7542 15.0848 14.6256 17.2133 12 17.2133C9.37433 17.2133 7.24582 15.0848 7.24582 12.4592Z" fill="#0E1111"/>
</svg>
