<svg width="24" height="24" viewBox="0 0 24 24" fill="none" xmlns="http://www.w3.org/2000/svg">
<path d="M8.42188 8.3805H13.3429M10.8824 5.91992V10.8411" stroke="#0E1111" stroke-width="2.30677" stroke-miterlimit="10" stroke-linecap="round" stroke-linejoin="round"/>
<path d="M8.87012 15.3145L16.028 15.3145" stroke="#0E1111" stroke-width="1.67765" stroke-miterlimit="10" stroke-linecap="round" stroke-linejoin="round"/>
<path d="M8.87012 17.999L16.028 17.999" stroke="#0E1111" stroke-width="1.67765" stroke-miterlimit="10" stroke-linecap="round" stroke-linejoin="round"/>
<path d="M19.6051 6.065V19.0769C19.6051 20.4588 18.5836 21.5791 17.3235 21.5791H6.67611C5.41603 21.5791 4.39453 20.4588 4.39453 19.0769V4.39681C4.39453 3.01484 5.41603 1.89453 6.67611 1.89453H15.9329C16.3363 1.89453 16.7232 2.07027 17.0084 2.38314L19.1595 4.74229C19.4448 5.05516 19.6051 5.47947 19.6051 5.92187V6.065ZM19.6051 6.065H17.3235C16.4834 6.065 15.8024 5.31811 15.8024 4.39681V1.89453" stroke="#0E1111" stroke-width="1.67765" stroke-miterlimit="10" stroke-linecap="round" stroke-linejoin="round"/>
</svg>
