<svg width="32" height="32" viewBox="0 0 32 32" fill="none" xmlns="http://www.w3.org/2000/svg">
<rect width="32" height="32" rx="16" fill="white"/>
<path d="M26.9999 16.1273C26.9999 10.0876 22.1037 5.19141 16.0639 5.19141C10.0241 5.19141 5.12793 10.0876 5.12793 16.1273C5.12793 22.1671 10.0241 27.0633 16.0639 27.0633C22.1037 27.0633 26.9999 22.1671 26.9999 16.1273Z" fill="url(#paint0_linear_870_42115)"/>
<path opacity="0.1" d="M24.2948 8.93194C22.7004 11.8587 20.4456 14.8776 17.6282 17.6951C14.8107 20.5125 11.7918 22.763 8.86929 24.3573C8.68607 24.1981 8.50812 24.0321 8.33544 23.8595C7.29171 22.8506 6.45929 21.644 5.8867 20.3101C5.31411 18.9762 5.01282 17.5416 5.0004 16.09C4.98798 14.6385 5.26467 13.199 5.81435 11.8554C6.36403 10.5119 7.17568 9.29128 8.202 8.26468C9.22831 7.23809 10.4487 6.4261 11.7921 5.87605C13.1355 5.326 14.5749 5.04891 16.0265 5.06092C17.4781 5.07294 18.9127 5.37382 20.2468 5.94604C21.5809 6.51825 22.7877 7.35033 23.7969 8.39378C23.9696 8.56645 24.1355 8.74584 24.2948 8.93194Z" fill="white"/>
<path d="M18.654 10.3711H13.4738C12.6342 10.3711 11.829 10.7046 11.2353 11.2983C10.6416 11.892 10.3081 12.6972 10.3081 13.5368V18.7169C10.3081 19.5565 10.6416 20.3617 11.2353 20.9554C11.829 21.5491 12.6342 21.8826 13.4738 21.8826H18.654C19.4936 21.8826 20.2988 21.5491 20.8925 20.9554C21.4861 20.3617 21.8197 19.5565 21.8197 18.7169V13.5368C21.8197 12.6972 21.4861 11.892 20.8925 11.2983C20.2988 10.7046 19.4936 10.3711 18.654 10.3711ZM20.8124 18.2622C20.8124 18.9553 20.5371 19.6199 20.047 20.11C19.557 20.6 18.8923 20.8753 18.1993 20.8753H13.9285C13.2354 20.8753 12.5708 20.6 12.0807 20.11C11.5907 19.6199 11.3154 18.9553 11.3154 18.2622V13.9915C11.3154 13.2984 11.5907 12.6338 12.0807 12.1437C12.5708 11.6537 13.2354 11.3784 13.9285 11.3784H18.1993C18.8923 11.3784 19.557 11.6537 20.047 12.1437C20.5371 12.6338 20.8124 13.2984 20.8124 13.9915V18.2622Z" fill="white"/>
<path d="M18.1634 14.0488L18.1361 14.0215L18.1131 13.9984C17.569 13.4563 16.8321 13.152 16.064 13.1523C15.6761 13.155 15.2926 13.234 14.9352 13.3849C14.5779 13.5359 14.2538 13.7557 13.9815 14.0319C13.7091 14.3081 13.4939 14.6353 13.348 14.9947C13.2022 15.3541 13.1286 15.7388 13.1314 16.1266C13.1308 16.9138 13.4411 17.6694 13.9948 18.2289C14.266 18.5034 14.5891 18.7211 14.9454 18.8694C15.3017 19.0176 15.6839 19.0934 16.0698 19.0923C16.6486 19.0801 17.2113 18.8998 17.6894 18.5734C18.1675 18.2469 18.5402 17.7883 18.7622 17.2537C18.9842 16.719 19.0457 16.1313 18.9394 15.5622C18.8331 14.9931 18.5635 14.4673 18.1634 14.0488ZM16.064 18.0778C15.677 18.0833 15.2971 17.9734 14.9726 17.7624C14.6482 17.5513 14.3938 17.2485 14.2419 16.8925C14.0901 16.5364 14.0475 16.1433 14.1197 15.763C14.1918 15.3827 14.3755 15.0325 14.6472 14.7569C14.919 14.4813 15.2666 14.2927 15.6458 14.2152C16.0251 14.1376 16.4188 14.1746 16.7769 14.3215C17.135 14.4683 17.4414 14.7184 17.657 15.0398C17.8727 15.3613 17.9878 15.7396 17.9879 16.1266C17.9898 16.3811 17.9415 16.6334 17.8458 16.8692C17.7501 17.1051 17.6089 17.3197 17.4303 17.5009C17.2516 17.6821 17.039 17.8263 16.8045 17.9253C16.5701 18.0243 16.3185 18.0761 16.064 18.0778Z" fill="white"/>
<path d="M19.8668 13.0156C19.8676 13.108 19.8501 13.1995 19.8154 13.2851C19.7808 13.3707 19.7295 13.4486 19.6647 13.5144C19.5999 13.5801 19.5227 13.6324 19.4377 13.6683C19.3526 13.7042 19.2613 13.723 19.1689 13.7236C19.0774 13.7235 18.9867 13.7053 18.9023 13.67C18.8178 13.6347 18.7412 13.583 18.6768 13.5178C18.5793 13.4189 18.513 13.2936 18.4861 13.1573C18.4592 13.0211 18.4729 12.8799 18.5254 12.7514C18.578 12.6229 18.6671 12.5126 18.7817 12.4342C18.8964 12.3558 19.0315 12.3128 19.1704 12.3105C19.3329 12.3105 19.4903 12.3676 19.615 12.4717L19.6294 12.4861C19.6526 12.505 19.6738 12.5262 19.6927 12.5494L19.7085 12.5667C19.8115 12.6936 19.8675 12.8522 19.8668 13.0156Z" fill="white"/>
<defs>
<linearGradient id="paint0_linear_870_42115" x1="8.33102" y1="8.39448" x2="23.7967" y2="23.8603" gradientUnits="userSpaceOnUse">
<stop stop-color="#FAE100"/>
<stop offset="0.15" stop-color="#FCB720"/>
<stop offset="0.3" stop-color="#FF7950"/>
<stop offset="0.5" stop-color="#FF1C74"/>
<stop offset="1" stop-color="#6C1CD1"/>
</linearGradient>
</defs>
</svg>
