<svg xmlns="http://www.w3.org/2000/svg" xmlns:xlink="http://www.w3.org/1999/xlink" viewBox="0 0 484.49 373.25"><defs><style>.cls-1{fill:#fff;}.cls-2{fill:url(#linear-gradient);}.cls-3{fill:url(#linear-gradient-2);}.cls-4{fill:url(#linear-gradient-3);}</style><linearGradient id="linear-gradient" x1="196.25" y1="413.49" x2="197.25" y2="413.49" gradientTransform="matrix(132.87, 0, 0, -323.02, -25751.79, 133753.75)" gradientUnits="userSpaceOnUse"><stop offset="0" stop-color="#007b40"/><stop offset="1" stop-color="#55b330"/></linearGradient><linearGradient id="linear-gradient-2" x1="196.24" y1="413.53" x2="197.24" y2="413.53" gradientTransform="matrix(133.43, 0, 0, -323.02, -26160.41, 133763.75)" gradientUnits="userSpaceOnUse"><stop offset="0" stop-color="#1d2970"/><stop offset="1" stop-color="#006dba"/></linearGradient><linearGradient id="linear-gradient-3" x1="196.25" y1="413.5" x2="197.25" y2="413.5" gradientTransform="matrix(132.96, 0, 0, -323.03, -25917.27, 133761.03)" gradientUnits="userSpaceOnUse"><stop offset="0" stop-color="#6e2b2f"/><stop offset="1" stop-color="#e30138"/></linearGradient></defs><g id="Layer_2" data-name="Layer 2"><g id="Layer_1-2" data-name="Layer 1"><path class="cls-1" d="M484.49,297.89a75.35,75.35,0,0,1-75.36,75.36H0V75.37A75.36,75.36,0,0,1,75.36,0H484.48V297.89Z"/><path class="cls-2" d="M351.11,193.16c11.68.26,23.43-.51,35.07.4,11.79,2.2,14.63,20,4.16,25.89-7.14,3.85-15.63,1.43-23.38,2.11H351.11ZM392.94,161c2.6,9.16-6.24,17.39-15.06,16.13H351.11c.18-8.65-.37-18,.27-26.21,10.72.3,21.55-.62,32.21.48A12.74,12.74,0,0,1,392.94,161Zm64.43-135.9c.49,17.5.07,35.92.21,53.78q0,108.9-.06,217.79c-.47,27.21-24.58,50.85-51.6,51.39-27,.11-54.09,0-81.14.05V238.38c29.47-.16,59,.31,88.42-.23,13.66-.86,28.63-9.88,29.27-24.92,1.61-15.1-12.63-25.55-26.15-27.2-5.2-.13-5.05-1.51,0-2.12,12.89-2.78,23-16.13,19.22-29.49-3.23-14.06-18.77-19.5-31.69-19.48-26.35-.18-52.71,0-79.06-.07.17-20.49-.36-41,.28-61.48,2.09-26.71,26.81-48.75,53.44-48.27Z"/><path class="cls-3" d="M27,76.16c.67-27.16,24.89-50.61,51.87-51,26.94-.08,53.89,0,80.84,0-.08,90.88.14,181.78-.11,272.66-1,26.83-25,49.83-51.68,50.31-27,.09-54,0-81,0V234.68c26.22,6.19,53.72,8.83,80.47,4.72,16-2.57,33.49-10.43,38.9-27,4-14.19,1.74-29.12,2.34-43.69V134.87h-46.3c-.21,22.37.42,44.78-.34,67.12-1.24,13.74-14.85,22.46-27.8,22-16.06.17-47.9-11.65-47.9-11.65-.08-41.91.47-94.4.7-136.18Z"/><path class="cls-4" d="M177,148.51c-2.44.52-.49-8.3-1.12-11.64.17-21.15-.34-42.33.29-63.46,2.08-26.83,27-48.92,53.74-48.29h78.76c-.07,90.88.15,181.78-.11,272.66-1,26.83-25,49.83-51.68,50.31-27,.1-54,0-81,0V223.83c18.44,15.13,43.5,17.48,66.48,17.52,17.31,0,34.53-2.67,51.35-6.67V211.91c-18.95,9.45-41.23,15.45-62.25,10-14.65-3.65-25.29-17.81-25.05-32.94-1.7-15.72,7.52-32.33,23-37,19.19-6,40.1-1.41,58.09,6.4,3.86,2,7.77,4.52,6.23-1.92v-17.9c-30.09-7.16-62.11-9.79-92.33-2-8.75,2.46-17.28,6.21-24.38,11.95Z"/></g></g></svg>