<svg width="24" height="24" viewBox="0 0 24 24" fill="none" xmlns="http://www.w3.org/2000/svg">
<path d="M12.1504 6.95106C11.0348 7.01077 9.96544 7.41604 9.09048 8.1107C8.21551 8.80536 7.57831 9.75501 7.26719 10.828C6.95607 11.901 6.98644 13.0442 7.35409 14.0992C7.72175 15.1541 8.40848 16.0686 9.31909 16.7158C9.64724 16.9384 9.91653 17.2372 10.1039 17.5867C10.2912 17.9361 10.391 18.3258 10.3948 18.7223V19.1626H14.4579V18.7557C14.4653 18.4115 14.5428 18.0723 14.6855 17.759C14.8283 17.4457 15.0334 17.1647 15.2883 16.9332C15.3745 16.8532 15.4658 16.7787 15.5614 16.7103C16.5182 16.0379 17.2295 15.0717 17.5874 13.9584C17.9452 12.8451 17.9301 11.6455 17.5442 10.5415C17.1584 9.43761 16.4229 8.48971 15.4495 7.84171C14.476 7.19372 13.3177 6.88101 12.1504 6.95106ZM12.1504 8.80146C11.3149 8.84615 10.5234 9.19007 9.92066 9.77034C9.31788 10.3506 8.94409 11.1284 8.86764 11.9616C8.85927 12.0548 8.81626 12.1414 8.74711 12.2043C8.67797 12.2673 8.58772 12.302 8.49422 12.3016H8.44963C8.35296 12.2931 8.26357 12.2467 8.20094 12.1726C8.1383 12.0985 8.10749 12.0026 8.11522 11.9059C8.20859 10.8943 8.6624 9.94998 9.39391 9.24506C10.1254 8.54015 11.0859 8.12161 12.1003 8.06576C12.198 8.06262 12.2932 8.09741 12.366 8.16285C12.4387 8.2283 12.4833 8.31932 12.4904 8.41689C12.4927 8.46521 12.4854 8.51349 12.4689 8.55899C12.4525 8.60448 12.4272 8.64628 12.3946 8.682C12.362 8.71772 12.3227 8.74666 12.2788 8.76716C12.235 8.78766 12.1876 8.79931 12.1393 8.80146H12.1504Z" fill="#7B7A79"/>
<path d="M15.1336 18.8672H10.0339C9.9112 18.8672 9.79354 18.9159 9.70678 19.0027C9.62003 19.0894 9.57129 19.2071 9.57129 19.3298C9.57129 19.4525 9.62003 19.5701 9.70678 19.6569C9.79354 19.7437 9.9112 19.7924 10.0339 19.7924H15.1336C15.2563 19.7924 15.374 19.7437 15.4607 19.6569C15.5475 19.5701 15.5962 19.4525 15.5962 19.3298C15.5962 19.2071 15.5475 19.0894 15.4607 19.0027C15.374 18.9159 15.2563 18.8672 15.1336 18.8672Z" fill="#7B7A79"/>
<path d="M12.474 21.9996C12.3345 21.9996 12.1963 21.972 12.0675 21.9185C11.9386 21.8649 11.8216 21.7864 11.7232 21.6875C11.6248 21.5885 11.5469 21.4711 11.4941 21.342C11.4412 21.2129 11.4143 21.0746 11.4151 20.9351V20.3164H13.533V20.9351C13.5337 21.0746 13.5069 21.2129 13.454 21.342C13.4011 21.4711 13.3232 21.5885 13.2248 21.6875C13.1264 21.7864 13.0094 21.8649 12.8806 21.9185C12.7517 21.972 12.6136 21.9996 12.474 21.9996Z" fill="#7B7A79"/>
<path d="M12.4294 3C12.2816 3 12.1398 3.05872 12.0353 3.16324C11.9308 3.26777 11.8721 3.40953 11.8721 3.55735C11.8721 3.70517 11.9308 3.84693 12.0353 3.95146C12.1398 4.05598 12.2816 4.1147 12.4294 4.1147C12.5772 4.1147 12.719 4.05598 12.8235 3.95146C12.928 3.84693 12.9868 3.70517 12.9868 3.55735C12.9868 3.40953 12.928 3.26777 12.8235 3.16324C12.719 3.05872 12.5772 3 12.4294 3Z" fill="#7B7A79"/>
<path d="M7.75341 4.19973C7.68682 4.23561 7.62823 4.28468 7.58121 4.34393C7.53419 4.40318 7.49973 4.47138 7.47991 4.54439C7.4601 4.61739 7.45535 4.69366 7.46596 4.76855C7.47657 4.84345 7.50231 4.9154 7.54162 4.98002C7.57798 5.04615 7.6274 5.1042 7.68687 5.15066C7.74634 5.19712 7.81462 5.23102 7.88758 5.2503C7.96054 5.26958 8.03666 5.27385 8.11132 5.26284C8.18598 5.25183 8.25762 5.22577 8.32191 5.18624C8.38727 5.14985 8.44464 5.10068 8.4906 5.04164C8.53655 4.98261 8.57015 4.91493 8.5894 4.84264C8.60864 4.77035 8.61313 4.69492 8.60261 4.62085C8.59208 4.54678 8.56675 4.4756 8.52813 4.41153C8.49222 4.3457 8.44339 4.28779 8.38457 4.24128C8.32576 4.19476 8.25816 4.1606 8.18582 4.14082C8.11349 4.12105 8.03791 4.11607 7.96361 4.1262C7.88931 4.13632 7.81782 4.16133 7.75341 4.19973Z" fill="#7B7A79"/>
<path d="M4.29797 7.57589C4.25866 7.64052 4.23291 7.71247 4.22231 7.78736C4.2117 7.86226 4.21644 7.93853 4.23626 8.01153C4.25607 8.08453 4.29054 8.15273 4.33756 8.21198C4.38458 8.27124 4.44317 8.3203 4.50976 8.35618C4.57417 8.39458 4.64566 8.4196 4.71996 8.42972C4.79426 8.43984 4.86984 8.43486 4.94217 8.41509C5.0145 8.39532 5.0821 8.36115 5.14092 8.31463C5.19974 8.26812 5.24856 8.21022 5.28448 8.14439C5.3231 8.08032 5.34843 8.00913 5.35895 7.93506C5.36948 7.86099 5.36499 7.78557 5.34574 7.71327C5.3265 7.64098 5.2929 7.5733 5.24694 7.51427C5.20099 7.45524 5.14362 7.40606 5.07826 7.36967C5.01397 7.33015 4.94232 7.30409 4.86767 7.29307C4.79301 7.28206 4.71689 7.28633 4.64393 7.30561C4.57097 7.32489 4.50268 7.35879 4.44322 7.40525C4.38375 7.45171 4.33433 7.50976 4.29797 7.57589Z" fill="#7B7A79"/>
<path d="M2.99951 12.2292C2.99951 12.377 3.05823 12.5188 3.16276 12.6233C3.26728 12.7279 3.40904 12.7866 3.55686 12.7866C3.70468 12.7866 3.84644 12.7279 3.95097 12.6233C4.05549 12.5188 4.11421 12.377 4.11421 12.2292C4.11421 12.0814 4.05549 11.9396 3.95097 11.8351C3.84644 11.7306 3.70468 11.6719 3.55686 11.6719C3.40904 11.6719 3.26728 11.7306 3.16276 11.8351C3.05823 11.9396 2.99951 12.0814 2.99951 12.2292Z" fill="#7B7A79"/>
<path d="M4.19778 16.9348C4.23414 17.0009 4.28356 17.059 4.34303 17.1055C4.4025 17.1519 4.47078 17.1858 4.54374 17.2051C4.6167 17.2244 4.69282 17.2286 4.76748 17.2176C4.84214 17.2066 4.91378 17.1806 4.97807 17.141C5.04343 17.1046 5.1008 17.0555 5.14676 16.9964C5.19271 16.9374 5.22631 16.8697 5.24556 16.7974C5.2648 16.7251 5.26929 16.6497 5.25877 16.5756C5.24824 16.5016 5.22291 16.4304 5.18429 16.3663C5.1479 16.301 5.09872 16.2436 5.03969 16.1976C4.98066 16.1517 4.91298 16.1181 4.84069 16.0988C4.76839 16.0796 4.69296 16.0751 4.6189 16.0856C4.54483 16.0961 4.47364 16.1215 4.40957 16.1601C4.34374 16.196 4.28584 16.2448 4.23932 16.3037C4.19281 16.3625 4.15864 16.4301 4.13887 16.5024C4.11909 16.5747 4.11412 16.6503 4.12424 16.7246C4.13436 16.7989 4.15938 16.8704 4.19778 16.9348Z" fill="#7B7A79"/>
<path d="M20.3558 17.078C20.3944 17.0139 20.4197 16.9427 20.4302 16.8687C20.4408 16.7946 20.4363 16.7192 20.417 16.6469C20.3978 16.5746 20.3642 16.5069 20.3182 16.4479C20.2723 16.3888 20.2149 16.3397 20.1495 16.3033C20.0853 16.2637 20.0136 16.2377 19.939 16.2267C19.8643 16.2157 19.7882 16.2199 19.7152 16.2392C19.6423 16.2585 19.574 16.2924 19.5145 16.3388C19.455 16.3853 19.4056 16.4434 19.3693 16.5095C19.3299 16.5741 19.3042 16.6461 19.2936 16.721C19.283 16.7959 19.2877 16.8721 19.3075 16.9451C19.3274 17.0181 19.3618 17.0863 19.4088 17.1456C19.4559 17.2048 19.5145 17.2539 19.581 17.2898C19.6455 17.3282 19.7169 17.3532 19.7912 17.3633C19.8655 17.3734 19.9411 17.3685 20.0135 17.3487C20.0858 17.3289 20.1534 17.2947 20.2122 17.2482C20.271 17.2017 20.3199 17.1438 20.3558 17.078Z" fill="#7B7A79"/>
<path d="M21.6606 12.4304C21.6606 12.2826 21.6019 12.1408 21.4974 12.0363C21.3928 11.9318 21.2511 11.873 21.1032 11.873C20.9554 11.873 20.8137 11.9318 20.7091 12.0363C20.6046 12.1408 20.5459 12.2826 20.5459 12.4304C20.5459 12.5782 20.6046 12.72 20.7091 12.8245C20.8137 12.929 20.9554 12.9877 21.1032 12.9877C21.2511 12.9877 21.3928 12.929 21.4974 12.8245C21.6019 12.72 21.6606 12.5782 21.6606 12.4304Z" fill="#7B7A79"/>
<path d="M20.4564 7.75528C20.4204 7.68945 20.3716 7.63154 20.3128 7.58503C20.254 7.53851 20.1864 7.50435 20.114 7.48457C20.0417 7.4648 19.9661 7.45982 19.8918 7.46995C19.8175 7.48007 19.746 7.50508 19.6816 7.54348C19.615 7.57936 19.5565 7.62843 19.5094 7.68768C19.4624 7.74693 19.4279 7.81513 19.4081 7.88814C19.3883 7.96114 19.3836 8.03741 19.3942 8.1123C19.4048 8.1872 19.4305 8.25915 19.4698 8.32377C19.5062 8.3899 19.5556 8.44795 19.6151 8.49441C19.6746 8.54087 19.7428 8.57477 19.8158 8.59405C19.8888 8.61334 19.9649 8.6176 20.0395 8.60659C20.1142 8.59558 20.1858 8.56952 20.2501 8.52999C20.3155 8.4936 20.3729 8.44443 20.4188 8.38539C20.4648 8.32636 20.4984 8.25868 20.5176 8.18639C20.5369 8.1141 20.5414 8.03867 20.5308 7.9646C20.5203 7.89053 20.495 7.81935 20.4564 7.75528Z" fill="#7B7A79"/>
<path d="M17.0793 4.29934C17.0149 4.26094 16.9434 4.23593 16.8691 4.2258C16.7948 4.21568 16.7193 4.22066 16.6469 4.24043C16.5746 4.26021 16.507 4.29437 16.4482 4.34089C16.3894 4.3874 16.3405 4.44531 16.3046 4.51113C16.266 4.5752 16.2407 4.64639 16.2302 4.72046C16.2196 4.79453 16.2241 4.86995 16.2434 4.94225C16.2626 5.01454 16.2962 5.08222 16.3422 5.14125C16.3881 5.20029 16.4455 5.24946 16.5109 5.28585C16.5751 5.32538 16.6468 5.35144 16.7214 5.36245C16.7961 5.37346 16.8722 5.36919 16.9452 5.34991C17.0181 5.33063 17.0864 5.29673 17.1459 5.25027C17.2054 5.20381 17.2548 5.14576 17.2911 5.07963C17.3305 5.01501 17.3562 4.94305 17.3668 4.86816C17.3774 4.79327 17.3727 4.717 17.3528 4.64399C17.333 4.57099 17.2986 4.50279 17.2515 4.44354C17.2045 4.38429 17.1459 4.33522 17.0793 4.29934Z" fill="#7B7A79"/>
</svg>
