<svg width="24" height="24" viewBox="0 0 24 24" fill="none" xmlns="http://www.w3.org/2000/svg">
<path d="M10.3295 12.9326C8.50746 12.9326 4.86328 14.1716 4.86328 19.1277" stroke="black" stroke-width="0.546627" stroke-linecap="round"/>
<path d="M13.6093 18.9451L15.7958 16.3759L14.4566 15.2007L15.7958 14.736L13.6093 13.0688L13.5273 13.0142" stroke="black" stroke-width="0.546627" stroke-miterlimit="10" stroke-linecap="round" stroke-linejoin="round"/>
<path d="M13.5 13.397C13.91 14.8182 13.1447 15.3375 12.4614 18.9452" stroke="black" stroke-width="0.546627" stroke-miterlimit="10" stroke-linecap="round" stroke-linejoin="round"/>
<path d="M10.4389 18.9451L8.25244 16.3759L9.59168 15.2007L8.25244 14.736L10.4389 13.0688L10.5209 13.0142" stroke="black" stroke-width="0.546627" stroke-miterlimit="10" stroke-linecap="round" stroke-linejoin="round"/>
<path d="M10.5482 13.397C10.1382 14.8182 10.9035 15.3375 11.5868 18.9452" stroke="black" stroke-width="0.546627" stroke-miterlimit="10" stroke-linecap="round" stroke-linejoin="round"/>
<path d="M10.521 12.3037V13.0143V13.069C10.521 13.1783 10.521 13.2876 10.5483 13.3969C10.685 14.0802 11.3136 14.5995 12.0242 14.5995C12.4342 14.5995 12.8168 14.4355 13.0901 14.1622C13.2815 13.9436 13.4454 13.6976 13.5001 13.3969C13.5274 13.2876 13.5274 13.1783 13.5274 13.069V13.0143V12.249" stroke="black" stroke-width="0.546627" stroke-miterlimit="10" stroke-linecap="round" stroke-linejoin="round"/>
<path d="M14.566 9.65262C14.5114 11.4838 13.3908 12.9324 11.9969 12.9324C10.6303 12.9324 9.4824 11.4838 9.42773 9.65262C9.53706 8.86001 9.70105 8.14939 9.97436 7.60277C10.1383 7.30212 10.4663 7.13813 10.7943 7.22013C11.0949 7.27479 11.4503 7.43878 11.8056 7.6301L11.9969 7.02881C12.3522 7.35678 12.7075 7.65743 13.0901 7.68476L13.1175 7.13813C14.0194 7.76675 14.3747 8.64136 14.566 9.65262Z" stroke="black" stroke-width="0.546627" stroke-miterlimit="10" stroke-linecap="round" stroke-linejoin="round"/>
<path d="M14.5659 9.65257C14.8118 9.10595 14.9758 8.47733 14.9758 7.84871C14.9758 5.47088 13.6366 4.7876 12.024 4.7876C10.3842 4.7876 9.07227 5.44355 9.07227 7.84871C9.07227 8.47733 9.20892 9.10595 9.48224 9.65257" stroke="black" stroke-width="0.546627" stroke-miterlimit="10" stroke-linecap="round" stroke-linejoin="round"/>
<path d="M9.59139 10.6914C9.50939 10.7187 9.45473 10.6914 9.37274 10.6914C9.26341 10.6641 9.15409 10.5821 9.07209 10.5001C8.93544 10.3634 8.79878 10.1994 8.77145 9.98077C8.68945 9.54347 9.07209 9.24282 9.45473 9.35215" stroke="black" stroke-width="0.546627" stroke-miterlimit="10" stroke-linecap="round" stroke-linejoin="round"/>
<path d="M14.5659 9.35156C14.9486 9.18757 15.3859 9.51555 15.2765 9.95285" stroke="black" stroke-width="0.546627" stroke-miterlimit="10" stroke-linecap="round" stroke-linejoin="round"/>
<path d="M15.2765 9.95312C15.2218 10.1444 15.1125 10.3358 14.9758 10.4724C14.8938 10.5544 14.7845 10.6364 14.6752 10.6637C14.5932 10.6911 14.5112 10.6911 14.4292 10.6637" stroke="black" stroke-width="0.546627" stroke-miterlimit="10" stroke-linecap="round" stroke-linejoin="round"/>
<path d="M15.3042 2.5193V5.44375C15.3042 5.71706 15.5228 5.96304 15.8235 5.96304H16.4794V7.24762L17.8187 5.96304H20.4972C20.7705 5.96304 21.0164 5.74439 21.0164 5.44375V2.5193C21.0164 2.24598 20.7978 2 20.4972 2H15.8235C15.5228 2 15.3042 2.21865 15.3042 2.5193Z" stroke="black" stroke-width="0.546627" stroke-miterlimit="10" stroke-linecap="round" stroke-linejoin="round"/>
<path d="M13.6094 12.9326C15.4315 12.9326 19.0757 14.1716 19.0757 19.1277" stroke="black" stroke-width="0.546627" stroke-linecap="round"/>
<path d="M14.1279 2.95413C11.8673 2.46183 9.50599 2.76858 7.44624 3.82212C5.38649 4.87565 3.75576 6.61078 2.8319 8.73187C1.90805 10.853 1.74823 13.2288 2.37968 15.4545C3.01114 17.6802 4.39479 19.6181 6.29489 20.938C8.19498 22.2579 10.494 22.8781 12.8001 22.693C15.1062 22.5079 17.2768 21.5289 18.9421 19.9228C20.6073 18.3168 21.6641 16.183 21.9325 13.885C22.2008 11.5871 21.6641 9.2672 20.4138 7.32063L19.9098 7.64435C21.0853 9.47432 21.5898 11.6553 21.3375 13.8156C21.0853 15.9758 20.0917 17.9818 18.5262 19.4917C16.9608 21.0016 14.9202 21.922 12.7522 22.096C10.5842 22.27 8.42289 21.6869 6.63661 20.4461C4.85033 19.2052 3.54955 17.3834 2.95592 15.291C2.36229 13.1986 2.51254 10.9651 3.38105 8.97106C4.24957 6.97702 5.78263 5.34582 7.719 4.35539C9.65538 3.36496 11.8753 3.07658 14.0004 3.53939L14.1279 2.95413Z" fill="black"/>
<path d="M18.6 3.6H18.4V3.4C18.4 3.29391 18.3579 3.19217 18.2828 3.11716C18.2078 3.04214 18.1061 3 18 3C17.8939 3 17.7922 3.04214 17.7172 3.11716C17.6421 3.19217 17.6 3.29391 17.6 3.4V3.6H17.4C17.2939 3.6 17.1922 3.64214 17.1172 3.71716C17.0421 3.79217 17 3.89391 17 4C17 4.10609 17.0421 4.20783 17.1172 4.28284C17.1922 4.35786 17.2939 4.4 17.4 4.4H17.6V4.6C17.6 4.70609 17.6421 4.80783 17.7172 4.88284C17.7922 4.95786 17.8939 5 18 5C18.1061 5 18.2078 4.95786 18.2828 4.88284C18.3579 4.80783 18.4 4.70609 18.4 4.6V4.4H18.6C18.7061 4.4 18.8078 4.35786 18.8828 4.28284C18.9579 4.20783 19 4.10609 19 4C19 3.89391 18.9579 3.79217 18.8828 3.71716C18.8078 3.64214 18.7061 3.6 18.6 3.6Z" fill="black"/>
</svg>
