<?xml version="1.0" encoding="utf-8"?>
<!-- Generator: Adobe Illustrator 24.2.1, SVG Export Plug-In . SVG Version: 6.00 Build 0)  -->
<svg version="1.1" id="Layer_1" xmlns="http://www.w3.org/2000/svg" xmlns:xlink="http://www.w3.org/1999/xlink" x="0px" y="0px"
	 viewBox="0 0 24 24" style="enable-background:new 0 0 24 24;" xml:space="preserve">
<style type="text/css">
	.st0{stroke:#000000;stroke-width:0.25;stroke-miterlimit:10;}
	.st1{fill:#FFFFFF;filter:url(#Adobe_OpacityMaskFilter);}
	.st2{mask:url(#mask0_52_827_2_);}
	.st3{fill:none;stroke:#010101;stroke-width:1.2305;stroke-miterlimit:10;}
	.st4{fill:none;stroke:#010101;stroke-width:1.2305;stroke-linejoin:round;stroke-miterlimit:10;}
	.st5{fill:#010101;stroke:#000000;stroke-width:0.25;stroke-miterlimit:10;}
	.st6{fill:#010101;}
	.st7{fill-rule:evenodd;clip-rule:evenodd;fill:#010101;stroke:#000000;stroke-width:0.25;stroke-miterlimit:10;}
</style>
<g>
	<g>
		<g>
			<path class="st0" d="M23.05,14.03c-0.28-0.16-0.64-0.12-0.99,0.09l-6.37,4.01c-0.18,0.11-0.23,0.35-0.12,0.52
				c0.11,0.18,0.35,0.23,0.52,0.12l6.37-4.01c0.13-0.08,0.21-0.08,0.22-0.07c0.01,0.01,0.06,0.07,0.06,0.22c0,0.43-0.32,1-0.68,1.23
				l-6.17,3.89c-0.33,0.21-0.63,0.26-0.82,0.16c-0.19-0.11-0.31-0.39-0.31-0.78c0-0.98,0.7-2.26,1.53-2.78l7.03-4.43
				c0.11-0.07,0.18-0.19,0.18-0.32c0-0.13-0.07-0.25-0.18-0.32l-13.5-8.5c-0.12-0.08-0.28-0.08-0.4,0L2.3,7.54
				C1.29,8.17,0.5,9.61,0.5,10.8v0.2c0,1.19,0.79,2.63,1.8,3.27l10.58,6.66c0.18,0.11,0.41,0.06,0.52-0.12
				c0.11-0.18,0.06-0.41-0.12-0.52L2.71,13.63c-0.79-0.49-1.45-1.7-1.45-2.62v-0.2c0-0.93,0.66-2.13,1.45-2.62l6.91-4.35l12.79,8.06
				l-6.52,4.1C14.83,16.65,14,18.16,14,19.41c0,0.68,0.25,1.19,0.7,1.44c0.18,0.1,0.38,0.15,0.59,0.15c0.32,0,0.66-0.11,1-0.33
				l6.17-3.89c0.58-0.36,1.03-1.19,1.03-1.87C23.5,14.51,23.34,14.18,23.05,14.03z"/>
			<path class="st0" d="M18.38,12.26c0.13,0,0.25-0.06,0.32-0.18c0.11-0.18,0.06-0.41-0.12-0.52L9.82,6.05
				C9.64,5.93,9.41,5.99,9.3,6.16C9.19,6.34,9.24,6.58,9.42,6.69l8.76,5.52C18.24,12.24,18.31,12.26,18.38,12.26z"/>
			<path class="st0" d="M16.86,13.27c0.13,0,0.25-0.06,0.32-0.18c0.11-0.18,0.06-0.41-0.12-0.52l-3.7-2.32
				c-0.18-0.11-0.41-0.06-0.52,0.12c-0.11,0.18-0.06,0.41,0.12,0.52l3.7,2.32C16.72,13.25,16.79,13.27,16.86,13.27z"/>
			<path class="st0" d="M11.82,11.24c-0.18-0.11-0.41-0.06-0.52,0.12c-0.11,0.18-0.06,0.41,0.12,0.52l3.73,2.33
				c0.06,0.04,0.13,0.06,0.2,0.06c0.13,0,0.25-0.06,0.32-0.18c0.11-0.18,0.06-0.41-0.12-0.52L11.82,11.24z"/>
			<path class="st0" d="M7.84,7.04L4.69,9.02C4.58,9.09,4.51,9.21,4.51,9.34c0,0.13,0.07,0.25,0.18,0.32L8.45,12
				c0.06,0.04,0.13,0.06,0.2,0.06c0.07,0,0.14-0.02,0.21-0.06l0.84-0.54c0.18-0.11,0.23-0.35,0.11-0.52
				c-0.11-0.18-0.35-0.23-0.52-0.11l-0.64,0.41L5.61,9.34l2.44-1.53l2.99,1.88l-0.35,0.23c-0.18,0.11-0.23,0.35-0.11,0.52
				c0.11,0.18,0.35,0.23,0.52,0.11L11.95,10c0.11-0.07,0.17-0.19,0.17-0.32c0-0.13-0.07-0.25-0.18-0.32l-3.7-2.32
				C8.12,6.96,7.96,6.96,7.84,7.04z"/>
			<path class="st0" d="M14.15,15.1c0.11-0.18,0.06-0.41-0.12-0.52l-3.76-2.34c-0.18-0.11-0.41-0.06-0.52,0.12
				c-0.11,0.18-0.06,0.41,0.12,0.52l3.76,2.34c0.06,0.04,0.13,0.06,0.2,0.06C13.96,15.28,14.08,15.22,14.15,15.1z"/>
			<path class="st0" d="M3.21,10.25c-0.11,0.18-0.06,0.41,0.12,0.52l9.27,5.77c0.06,0.04,0.13,0.06,0.2,0.06
				c0.13,0,0.25-0.06,0.32-0.18c0.11-0.18,0.06-0.41-0.12-0.52l-9.27-5.77C3.55,10.02,3.32,10.07,3.21,10.25z"/>
		</g>
	</g>
</g>
</svg>
