<svg width="24" height="24" viewBox="0 0 24 24" fill="none" xmlns="http://www.w3.org/2000/svg">
<path d="M21.1281 13.6072C20.8933 13.4776 20.5954 13.5061 20.3107 13.6853L15.0514 16.9971C14.9051 17.0893 14.8611 17.2826 14.9533 17.429C15.0455 17.5753 15.2388 17.6192 15.3852 17.5271L20.6445 14.2153C20.7555 14.1454 20.8163 14.1505 20.8253 14.1555C20.8344 14.1605 20.8711 14.2092 20.8711 14.3404C20.8711 14.6932 20.6092 15.1676 20.3107 15.3556L15.2121 18.5661C14.941 18.7369 14.6932 18.7838 14.5321 18.6949C14.3711 18.606 14.2788 18.3713 14.2788 18.0509C14.2788 17.2392 14.8591 16.1881 15.5459 15.7556L21.3512 12.1C21.4423 12.0427 21.4975 11.9426 21.4975 11.835C21.4975 11.7274 21.4423 11.6273 21.3512 11.57L10.1963 4.54573C10.0943 4.4815 9.9645 4.4815 9.86253 4.54573L3.98658 8.2458C3.15159 8.77161 2.4975 9.9564 2.4975 10.9431V11.1102C2.4975 12.0969 3.15159 13.2817 3.98658 13.8075L12.7261 19.3108C12.8725 19.403 13.0659 19.359 13.1581 19.2127C13.2502 19.0663 13.2063 18.8729 13.0599 18.7808L4.32035 13.2775C3.67177 12.8691 3.12386 11.8766 3.12386 11.1102V10.9431C3.12386 10.1767 3.67177 9.18422 4.32035 8.77583L10.0294 5.18086L20.5966 11.835L15.2122 15.2255C14.3375 15.7763 13.6524 17.0173 13.6524 18.0509C13.6524 18.6144 13.8573 19.0379 14.2294 19.2433C14.3789 19.3258 14.5437 19.3667 14.7184 19.3667C14.9786 19.3667 15.2606 19.2759 15.5459 19.0962L20.6445 15.8856C21.1228 15.5844 21.4975 14.9057 21.4975 14.3404C21.4975 14.004 21.3628 13.7368 21.1281 13.6072Z" fill="black"/>
<path d="M17.2657 12.1481C17.3698 12.1481 17.4715 12.0963 17.531 12.0018C17.6232 11.8554 17.5793 11.6621 17.4329 11.5699L10.1963 7.01304C10.0499 6.92088 9.85655 6.96485 9.76439 7.11117C9.67223 7.25753 9.71616 7.45091 9.86252 7.54307L17.0991 12.0999C17.151 12.1325 17.2087 12.1481 17.2657 12.1481Z" fill="black"/>
<path d="M16.0137 12.9793C16.118 12.9793 16.2199 12.9272 16.2793 12.8324C16.3712 12.6859 16.3269 12.4926 16.1803 12.4007L13.1232 10.4838C12.9766 10.3919 12.7833 10.4363 12.6915 10.5828C12.5996 10.7294 12.6439 10.9226 12.7905 11.0145L15.8476 12.9314C15.8993 12.9638 15.9568 12.9793 16.0137 12.9793Z" fill="black"/>
<path d="M11.8472 11.3081C11.7005 11.2165 11.5073 11.2611 11.4157 11.4079C11.3241 11.5546 11.3687 11.7478 11.5155 11.8394L14.5961 13.7628C14.6477 13.795 14.705 13.8104 14.7616 13.8104C14.8661 13.8104 14.9682 13.7582 15.0276 13.663C15.1192 13.5163 15.0745 13.3231 14.9278 13.2315L11.8472 11.3081Z" fill="black"/>
<path d="M8.56111 7.83258L5.95835 9.47174C5.86703 9.52924 5.81174 9.62971 5.81207 9.73765C5.81241 9.8456 5.86824 9.94573 5.9599 10.0027L9.06396 11.9327C9.11461 11.9642 9.17195 11.98 9.22932 11.98C9.28849 11.98 9.34762 11.9632 9.39932 11.9298L10.0907 11.483C10.2359 11.3891 10.2776 11.1952 10.1837 11.05C10.0898 10.9047 9.89594 10.8631 9.75067 10.9569L9.22611 11.296L6.71567 9.73506L8.7284 8.46751L11.2023 10.0187L10.9139 10.2051C10.7686 10.299 10.727 10.4928 10.8208 10.6381C10.9148 10.7834 11.1087 10.825 11.2539 10.7312L11.9554 10.2777C12.0453 10.2196 12.0993 10.1196 12.0986 10.0125C12.0978 9.90548 12.0425 9.80622 11.9518 9.74935L8.89434 7.83229C8.79245 7.76836 8.66292 7.76848 8.56111 7.83258Z" fill="black"/>
<path d="M13.7758 14.4936C13.8671 14.3467 13.8221 14.1537 13.6752 14.0623L10.571 12.1322C10.4241 12.0409 10.231 12.0859 10.1397 12.2328C10.0484 12.3797 10.0934 12.5728 10.2403 12.6642L13.3445 14.5942C13.3959 14.6263 13.4531 14.6415 13.5095 14.6415C13.6142 14.6415 13.7165 14.5891 13.7758 14.4936Z" fill="black"/>
<path d="M4.73269 10.4857C4.64136 10.6326 4.68638 10.8257 4.83328 10.917L12.4949 15.6807C12.5464 15.7128 12.6035 15.728 12.66 15.728C12.7646 15.728 12.8669 15.6756 12.9262 15.5802C13.0176 15.4332 12.9725 15.2402 12.8256 15.1488L5.164 10.3851C5.0171 10.2937 4.82401 10.3388 4.73269 10.4857Z" fill="black"/>
</svg>
