<?xml version="1.0" encoding="utf-8"?>
<!-- Generator: Adobe Illustrator 24.2.1, SVG Export Plug-In . SVG Version: 6.00 Build 0)  -->
<svg version="1.1" id="Layer_1" xmlns="http://www.w3.org/2000/svg" xmlns:xlink="http://www.w3.org/1999/xlink" x="0px" y="0px"
	 viewBox="0 0 24 24" style="enable-background:new 0 0 24 24;" xml:space="preserve">
<style type="text/css">
	.st0{stroke:#000000;stroke-width:0.25;stroke-miterlimit:10;}
	.st1{fill:#FFFFFF;filter:url(#Adobe_OpacityMaskFilter);}
	.st2{mask:url(#mask0_52_827_2_);}
	.st3{fill:none;stroke:#010101;stroke-width:1.2305;stroke-miterlimit:10;}
	.st4{fill:none;stroke:#010101;stroke-width:1.2305;stroke-linejoin:round;stroke-miterlimit:10;}
	.st5{fill:#010101;stroke:#000000;stroke-width:0.25;stroke-miterlimit:10;}
	.st6{fill:#010101;}
	.st7{fill-rule:evenodd;clip-rule:evenodd;fill:#010101;stroke:#000000;stroke-width:0.25;stroke-miterlimit:10;}
</style>
<g>
	<path class="st6" d="M19.04,4.96C17.14,3.05,14.64,2,12,2S6.86,3.05,4.96,4.96C3.05,6.86,2,9.36,2,12s1.05,5.14,2.96,7.04
		C6.86,20.95,9.36,22,12,22s5.14-1.05,7.04-2.96C20.95,17.14,22,14.64,22,12S20.95,6.86,19.04,4.96z M18.21,5.79
		c3.35,3.35,3.48,8.51,0.4,12l-0.99-0.99c0.51-0.69,0.82-1.54,0.82-2.46c0-2.26-1.84-4.1-4.1-4.1c-0.63,0-1.22,0.14-1.76,0.4V8.48
		c0-1.62-1.31-2.93-2.93-2.93c-0.89,0-1.7,0.4-2.23,1.04L6.21,5.38C9.7,2.31,14.87,2.44,18.21,5.79z M11.41,10.59L8.25,7.43
		c0.32-0.42,0.83-0.7,1.4-0.7c0.97,0,1.76,0.79,1.76,1.76V10.59z M10.59,11.41H7.9V8.73L10.59,11.41z M7.9,12.58h2.74
		c-0.25,0.53-0.4,1.14-0.4,1.77c0,0.87,0.27,1.67,0.73,2.33c-0.33,0.37-0.81,0.59-1.32,0.59c-0.97,0-1.76-0.79-1.76-1.76V12.58z
		 M11.41,14.34c0-0.6,0.18-1.15,0.49-1.61l4.06,4.06c-0.46,0.31-1.02,0.49-1.61,0.49C12.73,17.27,11.41,15.96,11.41,14.34z
		 M12.73,11.9c0.46-0.31,1.02-0.49,1.61-0.49c1.62,0,2.93,1.31,2.93,2.93c0,0.6-0.18,1.15-0.49,1.61L12.73,11.9z M5.79,18.21
		c-3.35-3.35-3.48-8.51-0.4-12l1.46,1.46C6.77,7.93,6.73,8.2,6.73,8.48v7.03c0,1.62,1.31,2.93,2.93,2.93c0.81,0,1.57-0.34,2.12-0.91
		c0.7,0.57,1.6,0.91,2.57,0.91c0.92,0,1.77-0.3,2.46-0.82l0.99,0.99C14.3,21.69,9.13,21.56,5.79,18.21z"/>
</g>
</svg>
