<svg width="24" height="24" viewBox="0 0 24 24" fill="none" xmlns="http://www.w3.org/2000/svg">
<path d="M9.65625 20.8281H9.07031V19.6562H7.89844V20.8281H7.3125C6.98863 20.8281 6.72656 21.0902 6.72656 21.4141C6.72656 21.7379 6.98863 22 7.3125 22H9.65625C9.98012 22 10.2422 21.7379 10.2422 21.4141C10.2422 21.0902 9.98012 20.8281 9.65625 20.8281Z" fill="black"/>
<path d="M21.4141 11.375H16.1016V10.2031H20.2031C20.527 10.2031 20.7891 9.94105 20.7891 9.61719V2.58594C20.7891 2.26207 20.527 2 20.2031 2H10.8281C10.5043 2 10.2422 2.26207 10.2422 2.58594V3.48508C10.8876 3.71461 11.4902 4.06035 12.008 4.52914C13.1135 5.49215 13.7578 6.92496 13.7578 8.44531V10.2031H14.9297V11.375H12.5859V8.44531C12.5859 7.26371 12.0853 6.1502 11.2212 5.39773C10.4705 4.71797 9.49832 4.34375 8.48438 4.34375C6.22301 4.34375 4.38281 6.18395 4.38281 8.44531V11.375H2.58594C2.26207 11.375 2 11.6371 2 11.9609V21.4141C2 21.7379 2.26207 22 2.58594 22C2.9098 22 3.17188 21.7379 3.17188 21.4141V12.5469H4.38281V13.1328C4.38281 13.4567 4.64488 13.7188 4.96875 13.7188H7.89844V14.8906H6.14062C5.17133 14.8906 4.38281 15.6791 4.38281 16.6484V17.8203C4.38281 18.1442 4.64488 18.4062 4.96875 18.4062H12C12.3239 18.4062 12.5859 18.1442 12.5859 17.8203V16.6484C12.5859 15.6791 11.7974 14.8906 10.8281 14.8906H9.07031V13.7188H12C12.3239 13.7188 12.5859 13.4567 12.5859 13.1328V12.5469H13.7578V14.8906H22V11.9609C22 11.6371 21.7379 11.375 21.4141 11.375Z" fill="black"/>
<path d="M13.7578 16.0625V21.4141C13.7578 21.7379 14.0199 22 14.3438 22C14.6676 22 14.9297 21.7379 14.9297 21.4141V19.6562H20.8281V21.4141C20.8281 21.7379 21.0902 22 21.4141 22C21.7379 22 22 21.7379 22 21.4141V16.0625H13.7578Z" fill="black"/>
</svg>
