<svg xmlns="http://www.w3.org/2000/svg" viewBox="0 0 255.02 300.93"><defs><style>.cls-1{fill:#27346a;}.cls-2{fill:#2790c3;}.cls-3{fill:#1f264f;}</style></defs><g id="Layer_2" data-name="Layer 2"><g id="Layer_1-2" data-name="Layer 1"><path class="cls-1" d="M217.13,22.69C203.2,6.81,178,0,145.79,0H52.27A13.39,13.39,0,0,0,39,11.3L.1,258.26A8,8,0,0,0,8,267.54H65.77l14.5-92-.45,2.88A13.35,13.35,0,0,1,93,167.15h27.43c53.9,0,96.1-21.89,108.43-85.22.37-1.87.68-3.69,1-5.47h0c3.67-23.41,0-39.34-12.69-53.77"/><path class="cls-1" d="M102.36,68a11.79,11.79,0,0,1,5-1.14h73.32a153.12,153.12,0,0,1,24.18,1.76c2.13.34,4.18.73,6.18,1.18s3.94.94,5.82,1.49c.94.28,1.86.56,2.77.86a65.16,65.16,0,0,1,10.14,4.29c3.67-23.42,0-39.34-12.69-53.77C203.19,6.81,178,0,145.79,0H52.26A13.39,13.39,0,0,0,39,11.3L.1,258.25A8,8,0,0,0,8,267.53H65.77L95.85,76.76A11.74,11.74,0,0,1,102.36,68Z"/><path class="cls-2" d="M228.86,81.93c-12.33,63.32-54.53,85.22-108.43,85.22H93a13.33,13.33,0,0,0-13.17,11.3l-18,114.36a7,7,0,0,0,6.94,8.12h48.67A11.71,11.71,0,0,0,129,291.05l.47-2.48,9.18-58.14.59-3.21a11.71,11.71,0,0,1,11.56-9.88H158c47.15,0,84.07-19.15,94.85-74.55,4.51-23.15,2.18-42.48-9.73-56a46.39,46.39,0,0,0-13.33-10.28c-.28,1.79-.59,3.6-1,5.47Z"/><path class="cls-3" d="M216.92,71.31q-2.82-.82-5.82-1.49t-6.18-1.17a152,152,0,0,0-24.19-1.77H107.42a11.71,11.71,0,0,0-11.56,9.89l-15.58,98.8-.45,2.88A13.33,13.33,0,0,1,93,167.15h27.44c53.9,0,96.1-21.89,108.43-85.22.37-1.87.67-3.68,1-5.47a65.55,65.55,0,0,0-10.14-4.28c-.91-.3-1.83-.59-2.77-.87"/></g></g></svg>