<svg width="24" height="24" viewBox="0 0 24 24" fill="none" xmlns="http://www.w3.org/2000/svg">
<path d="M21.9965 8.66663H2V9.49996C2 9.94199 2.17559 10.3659 2.48816 10.6785C2.80072 10.991 3.22464 11.1666 3.66667 11.1666H6.16667C6.60869 11.1666 7.03262 10.991 7.34518 10.6785C7.65774 10.3659 7.83333 9.94199 7.83333 9.49996C7.83333 9.94199 8.00893 10.3659 8.32149 10.6785C8.63405 10.991 9.05797 11.1666 9.5 11.1666H14.5C14.942 11.1666 15.366 10.991 15.6785 10.6785C15.9911 10.3659 16.1667 9.94199 16.1667 9.49996C16.1667 9.94199 16.3423 10.3659 16.6548 10.6785C16.9674 10.991 17.3913 11.1666 17.8333 11.1666H20.3333C20.7754 11.1666 21.1993 10.991 21.5118 10.6785C21.8244 10.3659 22 9.94199 22 9.49996V8.66663H21.9965Z" fill="black"/>
<path d="M21.7957 7.83333L20.3017 2.60417C20.2519 2.43009 20.1468 2.27696 20.0022 2.16796C19.8577 2.05895 19.6815 1.99999 19.5005 2H15.6836L16.8503 7.83333H21.7957Z" fill="black"/>
<path d="M8.31716 2H4.50029C4.31923 1.99999 4.14309 2.05895 3.99853 2.16796C3.85396 2.27696 3.74883 2.43009 3.69904 2.60417L2.20508 7.83333H7.1505L8.31716 2Z" fill="black"/>
<path d="M13.9834 2H10.0163L8.84961 7.83333H15.15L13.9834 2Z" fill="black"/>
<path d="M17.833 11.9999C17.2177 12.0004 16.624 11.7731 16.1663 11.3618C15.7087 11.7731 15.115 12.0004 14.4997 11.9999H9.49967C8.88436 12.0004 8.29065 11.7731 7.83301 11.3618C7.37537 11.7731 6.78166 12.0004 6.16634 11.9999H3.66634C3.38227 11.9993 3.1004 11.95 2.83301 11.8541V21.1666C2.83301 21.3876 2.92081 21.5996 3.07709 21.7559C3.23337 21.9121 3.44533 21.9999 3.66634 21.9999H5.33301V14.4999C5.33301 14.2789 5.42081 14.067 5.57709 13.9107C5.73337 13.7544 5.94533 13.6666 6.16634 13.6666H10.333C10.554 13.6666 10.766 13.7544 10.9223 13.9107C11.0785 14.067 11.1663 14.2789 11.1663 14.4999V21.9999H20.333C20.554 21.9999 20.766 21.9121 20.9223 21.7559C21.0785 21.5996 21.1663 21.3876 21.1663 21.1666V11.8541C20.8989 11.95 20.6171 11.9993 20.333 11.9999H17.833ZM18.6663 16.9999C18.6663 17.221 18.5785 17.4329 18.4223 17.5892C18.266 17.7455 18.054 17.8333 17.833 17.8333H13.6663C13.4453 17.8333 13.2334 17.7455 13.0771 17.5892C12.9208 17.4329 12.833 17.221 12.833 16.9999V14.4999C12.833 14.2789 12.9208 14.067 13.0771 13.9107C13.2334 13.7544 13.4453 13.6666 13.6663 13.6666H17.833C18.054 13.6666 18.266 13.7544 18.4223 13.9107C18.5785 14.067 18.6663 14.2789 18.6663 14.4999V16.9999Z" fill="black"/>
</svg>
