<svg width="24" height="24" viewBox="0 0 24 24" fill="none" xmlns="http://www.w3.org/2000/svg">
<path d="M7.00208 1.5C7.46327 1.50142 7.90972 1.6626 8.26546 1.95611C8.62119 2.24962 8.86424 2.65733 8.95322 3.10986C9.04221 3.56238 8.97164 4.03176 8.75353 4.43812C8.53542 4.84447 8.18324 5.1627 7.75692 5.33864C7.33061 5.51458 6.8565 5.53736 6.41528 5.40311C5.97406 5.26886 5.59299 4.98587 5.33692 4.6023C5.08084 4.21873 4.9656 3.75828 5.01078 3.2993C5.05597 2.84033 5.2588 2.4112 5.58475 2.08493C5.96133 1.71031 6.4709 1.50002 7.00208 1.5ZM5.50226 6.50187H8.5019C9.03094 6.50187 9.53832 6.71204 9.91241 7.08612C10.2865 7.46021 10.4967 7.96758 10.4967 8.49663V13.251C10.4967 13.3495 10.4773 13.447 10.4396 13.538C10.4019 13.629 10.3467 13.7117 10.277 13.7813C10.2074 13.8509 10.1247 13.9062 10.0337 13.9439C9.94274 13.9815 9.84523 14.0009 9.74675 14.0009C9.54786 14.0009 9.35712 14.0799 9.21648 14.2206C9.07585 14.3612 8.99684 14.552 8.99684 14.7508V20.7501C8.99684 20.949 8.91783 21.1397 8.7772 21.2804C8.63656 21.421 8.44582 21.5 8.24693 21.5H5.74973C5.55084 21.5 5.3601 21.421 5.21946 21.2804C5.07883 21.1397 4.99982 20.949 4.99982 20.7501V14.7508C4.99982 14.552 4.92081 14.3612 4.78018 14.2206C4.63954 14.0799 4.4488 14.0009 4.24991 14.0009C4.05102 14.0009 3.86028 13.9219 3.71964 13.7813C3.57901 13.6407 3.5 13.4499 3.5 13.251V8.49663C3.5 8.23404 3.55184 7.97404 3.65256 7.73153C3.75327 7.48903 3.90087 7.26879 4.0869 7.08347C4.27293 6.89814 4.49371 6.75136 4.73659 6.65156C4.97948 6.55175 5.23967 6.50089 5.50226 6.50187ZM20.9954 7.49925H15.746C15.5471 7.49925 15.3564 7.57826 15.2158 7.71889C15.0751 7.85953 14.9961 8.05027 14.9961 8.24916V8.75159C14.9961 8.95048 15.0751 9.14122 15.2158 9.28186C15.3564 9.42249 15.5471 9.5015 15.746 9.5015H20.9954M20.9954 10.4989H18.7457C18.5468 10.4989 18.356 10.5779 18.2154 10.7185C18.0748 10.8592 17.9958 11.0499 17.9958 11.2488V11.7512C17.9958 11.9501 18.0748 12.1408 18.2154 12.2815C18.356 12.4221 18.5468 12.5011 18.7457 12.5011H20.9954M20.9954 1.5H15.746C15.5471 1.5 15.3564 1.57901 15.2158 1.71964C15.0751 1.86028 14.9961 2.05102 14.9961 2.24991V2.75234C14.9961 2.95123 15.0751 3.14197 15.2158 3.28261C15.3564 3.42324 15.5471 3.50225 15.746 3.50225H20.9954M20.9954 4.49962H18.7457C18.5468 4.49962 18.356 4.57863 18.2154 4.71927C18.0748 4.8599 17.9958 5.05064 17.9958 5.24953V5.75197C17.9958 5.95086 18.0748 6.1416 18.2154 6.28223C18.356 6.42287 18.5468 6.50187 18.7457 6.50187H20.9954M20.9954 13.4985H15.746C15.5471 13.4985 15.3564 13.5775 15.2158 13.7181C15.0751 13.8588 14.9961 14.0495 14.9961 14.2484V14.7508C14.9961 14.9497 15.0751 15.1405 15.2158 15.2811C15.3564 15.4217 15.5471 15.5007 15.746 15.5007H20.9954M20.9954 19.4977H15.746C15.5471 19.4977 15.3564 19.5768 15.2158 19.7174C15.0751 19.858 14.9961 20.0488 14.9961 20.2477V20.7501C14.9961 20.949 15.0751 21.1397 15.2158 21.2804C15.3564 21.421 15.5471 21.5 15.746 21.5H20.9954M20.9954 16.4981H18.7457C18.5468 16.4981 18.356 16.5771 18.2154 16.7178C18.0748 16.8584 17.9958 17.0491 17.9958 17.248V17.7505C17.9958 17.9494 18.0748 18.1401 18.2154 18.2807C18.356 18.4214 18.5468 18.5004 18.7457 18.5004H20.9954" fill="#FF7500"/>
</svg>
