<svg xmlns="http://www.w3.org/2000/svg" viewBox="0 0 17.5 20"><defs><style>.cls-1{fill:#020c1f;}</style></defs><g id="Layer_2" data-name="Layer 2"><g id="Layer_1-2" data-name="Layer 1"><path class="cls-1" d="M3.5,0A2,2,0,0,1,4.77.46,2,2,0,0,1,2.92,3.9a1.9,1.9,0,0,1-1.08-.8,2,2,0,0,1-.33-1.3A2.07,2.07,0,0,1,2.08.58,2,2,0,0,1,3.5,0ZM2,5H5A2,2,0,0,1,7,7v4.75a.72.72,0,0,1-.06.29.78.78,0,0,1-.16.24.82.82,0,0,1-.53.22.75.75,0,0,0-.75.75v6a.75.75,0,0,1-.75.75H2.25a.75.75,0,0,1-.75-.75v-6a.75.75,0,0,0-.75-.75A.75.75,0,0,1,0,11.75V7a2,2,0,0,1,.15-.77,2,2,0,0,1,.44-.65,1.94,1.94,0,0,1,.65-.43A2,2,0,0,1,2,5ZM17.5,6H12.25a.75.75,0,0,0-.75.75v.5a.75.75,0,0,0,.75.75H17.5m0,1H15.25a.75.75,0,0,0-.53.22.71.71,0,0,0-.22.53v.5a.71.71,0,0,0,.22.53.75.75,0,0,0,.53.22H17.5m0-11H12.25a.75.75,0,0,0-.75.75v.5a.75.75,0,0,0,.75.75H17.5m0,1H15.25a.75.75,0,0,0-.53.22.71.71,0,0,0-.22.53v.5a.71.71,0,0,0,.22.53.75.75,0,0,0,.53.22H17.5m0,7H12.25a.75.75,0,0,0-.75.75v.5a.75.75,0,0,0,.75.75H17.5m0,4H12.25a.75.75,0,0,0-.75.75v.5a.75.75,0,0,0,.75.75H17.5m0-5H15.25a.75.75,0,0,0-.53.22.71.71,0,0,0-.22.53v.5a.71.71,0,0,0,.22.53.75.75,0,0,0,.53.22H17.5"/></g></g></svg>