<svg width="24" height="24" viewBox="0 0 24 24" fill="none" xmlns="http://www.w3.org/2000/svg">
<mask id="mask0_44_955" style="mask-type:luminance" maskUnits="userSpaceOnUse" x="1" y="1" width="21" height="21">
<path d="M1 1H22V22H1V1Z" fill="white"/>
</mask>
<g mask="url(#mask0_44_955)">
<path d="M6.92746 10.6797C6.92746 12.0903 8.07093 13.2337 9.4815 13.2337C10.892 13.2337 12.0355 12.0903 12.0355 10.6797C12.0355 9.26912 10.892 8.12565 9.4815 8.12565C8.07093 8.12565 6.92746 9.26912 6.92746 10.6797ZM7.38954 4.34265L8.13061 2.61327H10.8323L11.5734 4.34265L13.9235 5.69953L15.7918 5.47661L17.1426 7.81635L16.0155 9.32281V12.0366L17.1426 13.543L15.7918 15.8828L13.9235 15.6598L11.5734 17.0167L10.8323 18.7461H8.13061L7.38954 17.0167L5.03942 15.6598L3.1712 15.8828L1.82031 13.543L2.94746 12.0366V9.32281L1.82031 7.81635L3.1712 5.47661L5.03942 5.69953L7.38954 4.34265Z" stroke="black" stroke-width="1.64062" stroke-miterlimit="10" stroke-linecap="round" stroke-linejoin="round"/>
<path d="M11.2014 17.8848L12.9645 18.9027L13.5887 20.3594H15.8644L16.4886 18.9027L18.4682 17.7598L20.0418 17.9475L21.1797 15.9767L20.2303 14.7078V12.422L21.1797 11.1531L20.0418 9.18225L18.4682 9.36998L16.7307 8.36686" stroke="black" stroke-width="1.64062" stroke-miterlimit="10" stroke-linecap="round" stroke-linejoin="round"/>
</g>
</svg>
