<svg width="24" height="24" viewBox="0 0 24 24" fill="none" xmlns="http://www.w3.org/2000/svg">
<path d="M5.60001 7.64062H18.4" stroke="#0E1111" stroke-width="2" stroke-miterlimit="10" stroke-linecap="round" stroke-linejoin="round"/>
<path d="M8.79999 7.63998V6.19999C8.79999 4.43267 10.2327 3 12 3C13.7673 3 15.2 4.43267 15.2 6.19999V7.63998" stroke="#0E1111" stroke-width="2" stroke-miterlimit="10" stroke-linecap="round" stroke-linejoin="round"/>
<path d="M15.2 10.8398C15.2 12.6072 13.7673 14.0398 12 14.0398C10.2327 14.0398 8.79999 12.6072 8.79999 10.8398" stroke="#0E1111" stroke-width="2" stroke-miterlimit="10" stroke-linecap="round" stroke-linejoin="round"/>
<path d="M18.4 7.64062L19.9874 20.0785C19.9957 20.1447 20 20.2121 20 20.2806C20 21.1642 19.2836 21.8806 18.4 21.8806H5.6C4.71636 21.8806 4 21.1642 4 20.2806C4 20.2121 4.00428 20.1447 4.01264 20.0785L5.6 7.64062" stroke="#0E1111" stroke-width="2" stroke-miterlimit="10" stroke-linecap="round" stroke-linejoin="round"/>
</svg>
