<svg width="24" height="24" viewBox="0 0 24 24" fill="none" xmlns="http://www.w3.org/2000/svg">
<path d="M5.59961 7.63965H18.3996" stroke="black" stroke-width="2" stroke-miterlimit="10" stroke-linecap="round" stroke-linejoin="round"/>
<path d="M8.7998 7.63998V6.19999C8.7998 4.43267 10.2325 3 11.9998 3C13.7671 3 15.1998 4.43267 15.1998 6.19999V7.63998" stroke="black" stroke-width="2" stroke-miterlimit="10" stroke-linecap="round" stroke-linejoin="round"/>
<path d="M15.1998 10.8398C15.1998 12.6072 13.7671 14.0398 11.9998 14.0398C10.2325 14.0398 8.7998 12.6072 8.7998 10.8398" stroke="black" stroke-width="2" stroke-miterlimit="10" stroke-linecap="round" stroke-linejoin="round"/>
<path d="M18.4 7.63965L19.9874 20.0776C19.9957 20.1437 20 20.2112 20 20.2796C20 21.1632 19.2836 21.8796 18.4 21.8796H5.6C4.71636 21.8796 4 21.1632 4 20.2796C4 20.2112 4.00428 20.1437 4.01264 20.0776L5.6 7.63965" stroke="black" stroke-width="2" stroke-miterlimit="10" stroke-linecap="round" stroke-linejoin="round"/>
</svg>
