<svg width="120" height="120" viewBox="0 0 120 120" fill="none" xmlns="http://www.w3.org/2000/svg">
<path fill-rule="evenodd" clip-rule="evenodd" d="M44.1895 45.7481C48.8672 42.9557 52 37.8437 52 32C52 23.1634 44.8366 16 36 16C27.1634 16 20 23.1634 20 32C20 37.8437 23.1328 42.9557 27.8105 45.7481C20.8483 48.8769 16 55.8724 16 64V74C16 75.1044 16.8954 76 18 76C19.1046 76 20 75.1044 20 74V64C20 55.1636 27.1634 48 36 48C44.8366 48 52 55.1636 52 64V74C52 75.1044 52.8956 76 54 76C55.1044 76 56 75.1044 56 74V64C56 55.8724 51.1517 48.8769 44.1895 45.7481ZM36 44C42.6274 44 48 38.6274 48 32C48 25.3726 42.6274 20 36 20C29.3726 20 24 25.3726 24 32C24 38.6274 29.3726 44 36 44ZM92.1896 45.7481C96.8672 42.9557 100 37.8437 100 32C100 23.1634 92.8364 16 84 16C75.1636 16 68 23.1634 68 32C68 37.8437 71.1328 42.9557 75.8104 45.7481C68.8484 48.8769 64 55.8724 64 64V74C64 75.1044 64.8956 76 66 76C67.1044 76 68 75.1044 68 74V64C68 55.1636 75.1636 48 84 48C92.8364 48 100 55.1636 100 64V74C100 75.1044 100.896 76 102 76C103.104 76 104 75.1044 104 74V64C104 55.8724 99.1516 48.8769 92.1896 45.7481ZM84 44C90.6276 44 96 38.6274 96 32C96 25.3726 90.6276 20 84 20C77.3724 20 72 25.3726 72 32C72 38.6274 77.3724 44 84 44ZM26.5858 80.5856C27.3668 79.8048 28.6332 79.8048 29.4142 80.5856C30.1953 81.3668 30.1953 82.6332 29.4142 83.4144L22.8284 90H97.1716L90.5856 83.4144C89.8048 82.6332 89.8048 81.3668 90.5856 80.5856C91.3668 79.8048 92.6332 79.8048 93.4144 80.5856L103.414 90.5856C104.195 91.3668 104.195 92.6332 103.414 93.4144L93.4144 103.414C92.6332 104.195 91.3668 104.195 90.5856 103.414C89.8048 102.633 89.8048 101.367 90.5856 100.586L97.1716 94H22.8284L29.4142 100.586C30.1953 101.367 30.1953 102.633 29.4142 103.414C28.6332 104.195 27.3668 104.195 26.5858 103.414L16.5858 93.4144C15.8047 92.6332 15.8047 91.3668 16.5858 90.5856L26.5858 80.5856Z" fill="#FF7500"/>
</svg>
