<svg width="24" height="24" viewBox="0 0 24 24" fill="none" xmlns="http://www.w3.org/2000/svg">
<path d="M16.997 5.22836C16.6633 4.82508 16.2449 4.50018 15.7715 4.27674C15.2982 4.0533 14.7814 3.93678 14.258 3.93547V2H13.6128V4.25805C13.6128 4.3436 13.6468 4.42565 13.7073 4.48615C13.7678 4.54664 13.8498 4.58063 13.9354 4.58063H14.258C14.7085 4.5817 15.1526 4.6871 15.5556 4.88858C15.9585 5.09006 16.3094 5.38214 16.5805 5.74191C16.6106 5.78197 16.6495 5.81449 16.6943 5.83688C16.7391 5.85928 16.7885 5.87094 16.8386 5.87094C18.036 5.87222 19.1839 6.34843 20.0306 7.19509C20.8772 8.04174 21.3534 9.18969 21.3547 10.387V21.9999H21.9999V10.387C21.9983 9.0461 21.4755 7.75829 20.542 6.79568C19.6084 5.83307 18.3373 5.27106 16.997 5.22836Z" fill="black"/>
<path d="M19.0766 12.1135L18.4721 11.8877L17.5044 14.4683C17.491 14.5043 17.4841 14.5423 17.484 14.5806V15.4722C17.4829 15.8965 17.3835 16.3149 17.1937 16.6944C16.9605 17.1639 16.8391 17.6809 16.8389 18.2051V21.9999H17.484V18.2051C17.4852 17.7807 17.5846 17.3624 17.7744 16.9828C17.9112 16.7033 18.0089 16.4062 18.0647 16.0999C18.3202 16.9363 18.4507 17.806 18.4518 18.6806V21.9999H19.0969V18.6799C19.0942 17.2561 18.7727 15.851 18.156 14.5677L19.0766 12.1135Z" fill="black"/>
<path d="M10.0645 4.58063C10.1501 4.58063 10.2321 4.54664 10.2926 4.48615C10.3531 4.42565 10.3871 4.3436 10.3871 4.25805V2H9.74194V3.93547C9.21848 3.93678 8.70173 4.0533 8.22837 4.27674C7.755 4.50018 7.33661 4.82508 7.0029 5.22836C5.66264 5.27106 4.39145 5.83307 3.45791 6.79568C2.52437 7.75829 2.00158 9.0461 2 10.387V21.9999H2.64516V10.387C2.64644 9.18969 3.12266 8.04174 3.96932 7.19509C4.81598 6.34843 5.96393 5.87222 7.16129 5.87094C7.21137 5.87094 7.26076 5.85928 7.30555 5.83688C7.35034 5.81449 7.38931 5.78197 7.41935 5.74191C7.69052 5.38214 8.04134 5.09006 8.4443 4.88858C8.84726 4.6871 9.29141 4.5817 9.74194 4.58063H10.0645Z" fill="black"/>
<path d="M6.51622 15.4725V14.5809C6.51626 14.5421 6.50938 14.5037 6.4959 14.4673L5.52816 11.8867L4.92364 12.1125L5.84429 14.5667C5.22737 15.8504 4.90584 17.256 4.90332 18.6802V22.0002H5.54848V18.6802C5.54959 17.8056 5.68004 16.936 5.93558 16.0996C5.99132 16.4058 6.08902 16.7029 6.2259 16.9825C6.41578 17.3622 6.51515 17.7808 6.51622 18.2054V22.0002H7.16138V18.2054C7.16118 17.6812 7.03973 17.1642 6.80655 16.6947C6.61676 16.3152 6.5174 15.8969 6.51622 15.4725Z" fill="black"/>
<path d="M13.2903 20.387C13.2903 20.3015 13.2563 20.2194 13.1958 20.1589C13.1353 20.0984 13.0532 20.0645 12.9677 20.0645H11.0322C10.9466 20.0645 10.8646 20.0984 10.8041 20.1589C10.7436 20.2194 10.7096 20.3015 10.7096 20.387V20.7096H10.0645V21.3548H10.7096V21.6773C10.7096 21.7629 10.7436 21.8449 10.8041 21.9054C10.8646 21.9659 10.9466 21.9999 11.0322 21.9999H12.9677C13.0532 21.9999 13.1353 21.9659 13.1958 21.9054C13.2563 21.8449 13.2903 21.7629 13.2903 21.6773V21.3548H13.9354V20.7096H13.2903V20.387ZM12.6451 21.3548H11.3548V20.7096H12.6451V21.3548Z" fill="black"/>
<path d="M13.2903 17.8065C13.2903 17.7209 13.2563 17.6389 13.1958 17.5784C13.1353 17.5179 13.0532 17.4839 12.9677 17.4839H11.0322C10.9466 17.4839 10.8646 17.5179 10.8041 17.5784C10.7436 17.6389 10.7096 17.7209 10.7096 17.8065V18.129H10.0645V18.7742H10.7096V19.0968C10.7096 19.1823 10.7436 19.2644 10.8041 19.3249C10.8646 19.3854 10.9466 19.4194 11.0322 19.4194H12.9677C13.0532 19.4194 13.1353 19.3854 13.1958 19.3249C13.2563 19.2644 13.2903 19.1823 13.2903 19.0968V18.7742H13.9354V18.129H13.2903V17.8065ZM12.6451 18.7742H11.3548V18.129H12.6451V18.7742Z" fill="black"/>
<path d="M13.2903 15.2259C13.2903 15.1403 13.2563 15.0583 13.1958 14.9978C13.1353 14.9373 13.0532 14.9033 12.9677 14.9033H11.0322C10.9466 14.9033 10.8646 14.9373 10.8041 14.9978C10.7436 15.0583 10.7096 15.1403 10.7096 15.2259V15.5485H10.0645V16.1936H10.7096V16.5162C10.7096 16.6018 10.7436 16.6838 10.8041 16.7443C10.8646 16.8048 10.9466 16.8388 11.0322 16.8388H12.9677C13.0532 16.8388 13.1353 16.8048 13.1958 16.7443C13.2563 16.6838 13.2903 16.6018 13.2903 16.5162V16.1936H13.9354V15.5485H13.2903V15.2259ZM12.6451 16.1936H11.3548V15.5485H12.6451V16.1936Z" fill="black"/>
<path d="M13.613 12.9679H13.0582L12.9582 12.5673C12.9408 12.4975 12.9005 12.4355 12.8438 12.3912C12.7871 12.3469 12.7172 12.3228 12.6453 12.3228H11.3549C11.283 12.3228 11.2131 12.3469 11.1564 12.3912C11.0997 12.4355 11.0595 12.4975 11.042 12.5673L10.942 12.9679H10.3872V13.6131H10.7808L10.7195 13.8576C10.7076 13.9051 10.7067 13.9547 10.7169 14.0027C10.7271 14.0506 10.7481 14.0956 10.7782 14.1342C10.8084 14.1728 10.8469 14.2041 10.891 14.2255C10.935 14.247 10.9834 14.2582 11.0324 14.2582H12.9679C13.0169 14.2582 13.0652 14.247 13.1092 14.2255C13.1533 14.2041 13.1918 14.1728 13.222 14.1342C13.2522 14.0956 13.2731 14.0506 13.2833 14.0027C13.2935 13.9547 13.2926 13.9051 13.2808 13.8576L13.2195 13.6131H13.613V12.9679ZM11.4456 13.6131L11.6069 12.9679H12.3933L12.5546 13.6131H11.4456Z" fill="black"/>
<path d="M13.613 10.3873H13.0582L12.9582 9.9867C12.9408 9.91689 12.9005 9.8549 12.8438 9.81059C12.7871 9.76628 12.7172 9.74221 12.6453 9.74219H11.3549C11.283 9.74221 11.2131 9.76628 11.1564 9.81059C11.0997 9.8549 11.0595 9.91689 11.042 9.9867L10.942 10.3873H10.3872V11.0325H10.7808L10.7195 11.277C10.7076 11.3246 10.7067 11.3742 10.7169 11.4221C10.7271 11.47 10.7481 11.515 10.7782 11.5536C10.8084 11.5922 10.8469 11.6235 10.891 11.645C10.935 11.6665 10.9834 11.6776 11.0324 11.6777H12.9679C13.0169 11.6776 13.0652 11.6665 13.1092 11.645C13.1533 11.6235 13.1918 11.5922 13.222 11.5536C13.2522 11.515 13.2731 11.47 13.2833 11.4221C13.2935 11.3742 13.2926 11.3246 13.2808 11.277L13.2195 11.0325H13.613V10.3873ZM11.4456 11.0325L11.6069 10.3873H12.3933L12.5546 11.0325H11.4456Z" fill="black"/>
<path d="M13.613 7.80629H13.0582L12.9582 7.40565C12.9408 7.33583 12.9005 7.27384 12.8438 7.22954C12.7871 7.18523 12.7172 7.16115 12.6453 7.16113H11.3549C11.283 7.16115 11.2131 7.18523 11.1564 7.22954C11.0997 7.27384 11.0595 7.33583 11.042 7.40565L10.942 7.80629H10.3872V8.45145H10.7808L10.7195 8.69596C10.7076 8.7435 10.7067 8.79312 10.7169 8.84105C10.7271 8.88898 10.7481 8.93396 10.7782 8.97258C10.8084 9.0112 10.8469 9.04243 10.891 9.06392C10.935 9.08541 10.9834 9.09659 11.0324 9.0966H12.9679C13.0169 9.09659 13.0652 9.08541 13.1092 9.06392C13.1533 9.04243 13.1918 9.0112 13.222 8.97258C13.2522 8.93396 13.2731 8.88898 13.2833 8.84105C13.2935 8.79312 13.2926 8.7435 13.2808 8.69596L13.2195 8.45145H13.613V7.80629ZM11.4456 8.45145L11.6069 7.80629H12.3933L12.5546 8.45145H11.4456Z" fill="black"/>
<path d="M10.3872 5.22572V5.87088H10.7808L10.7195 6.11539C10.7076 6.16294 10.7067 6.21256 10.7169 6.26049C10.7271 6.30841 10.7481 6.35339 10.7782 6.39201C10.8084 6.43063 10.8469 6.46187 10.891 6.48336C10.935 6.50485 10.9834 6.51602 11.0324 6.51604H12.9679C13.0169 6.51602 13.0652 6.50485 13.1092 6.48336C13.1533 6.46187 13.1918 6.43063 13.222 6.39201C13.2522 6.35339 13.2731 6.30841 13.2833 6.26049C13.2935 6.21256 13.2926 6.16294 13.2808 6.11539L13.2195 5.87088H13.613V5.22572H13.0582L12.9582 4.82508C12.9408 4.75526 12.9005 4.69327 12.8438 4.64897C12.7871 4.60466 12.7172 4.58059 12.6453 4.58057H11.3549C11.283 4.58059 11.2131 4.60466 11.1564 4.64897C11.0997 4.69327 11.0595 4.75526 11.042 4.82508L10.942 5.22572H10.3872ZM11.6069 5.22572H12.3933L12.5546 5.87088H11.4456L11.6069 5.22572Z" fill="black"/>
<path d="M14.9979 8.22333L13.7075 9.51367L14.1637 9.96987L15.4541 8.67952L14.9979 8.22333Z" fill="black"/>
<path d="M15.8712 10.3872H14.2583V11.0324H15.8712V10.3872Z" fill="black"/>
<path d="M14.1637 11.4491L13.7075 11.9053L14.9979 13.1956L15.4541 12.7394L14.1637 11.4491Z" fill="black"/>
<path d="M9.0021 8.22349L8.5459 8.67969L9.83625 9.97003L10.2925 9.51384L9.0021 8.22349Z" fill="black"/>
<path d="M9.74181 10.3872H8.12891V11.0324H9.74181V10.3872Z" fill="black"/>
<path d="M9.83625 11.4494L8.5459 12.7397L9.0021 13.1959L10.2925 11.9056L9.83625 11.4494Z" fill="black"/>
</svg>
