<svg width="24" height="24" viewBox="0 0 24 24" fill="none" xmlns="http://www.w3.org/2000/svg">
<path d="M15.8175 5.00297L18.7718 6.19888C19.6886 6.56974 20.3094 7.44896 20.3469 8.43652L20.6386 15.837C20.6511 16.187 20.7094 16.537 20.8053 16.8704C20.897 17.1912 20.9428 17.5204 20.9428 17.8496V21.5832C20.9428 21.8124 21.1303 21.9999 21.3595 21.9999C21.5887 21.9999 21.7762 21.8124 21.7762 21.5832V17.8538C21.7762 17.4454 21.7178 17.0371 21.6053 16.6454C21.5262 16.3704 21.4803 16.0912 21.472 15.8036L21.1803 8.40319C21.1261 7.08644 20.3053 5.9197 19.0844 5.42383L16.13 4.22792C15.6675 4.04041 15.3342 3.63622 15.2425 3.14452L15.0925 2.34031C15.0508 2.11529 14.8341 1.96528 14.605 2.00695C14.3799 2.04862 14.2299 2.2653 14.2716 2.49448L14.4216 3.2987C14.5674 4.06958 15.0883 4.70712 15.8175 5.00297Z" fill="black"/>
<path d="M3.41259 21.9996C3.64177 21.9996 3.82928 21.8121 3.82928 21.5829V17.8535C3.82928 17.5202 3.87512 17.191 3.96679 16.8743C4.06263 16.5368 4.11679 16.1867 4.13346 15.8409L4.42514 8.44043C4.46265 7.45287 5.08351 6.57364 6.00023 6.20279L8.95455 5.00688C9.68376 4.71103 10.2046 4.07349 10.3505 3.30261L10.5005 2.49839C10.5421 2.27337 10.3921 2.05669 10.1671 2.01086C9.94211 1.96919 9.72543 2.1192 9.67959 2.34421L9.52959 3.14843C9.43791 3.64013 9.10456 4.04432 8.64204 4.23183L5.68771 5.42774C4.47098 5.91527 3.64594 7.08618 3.59593 8.40293L3.30425 15.8034C3.29175 16.0867 3.24591 16.3701 3.17091 16.6451C3.0584 17.0368 3.00007 17.4452 3.00007 17.8535V21.5829C2.9959 21.8121 3.18341 21.9996 3.41259 21.9996Z" fill="black"/>
<path d="M18.8011 12.4698V9.67792C18.8011 9.44874 18.6136 9.26123 18.3844 9.26123C18.1552 9.26123 17.9677 9.44874 17.9677 9.67792V12.4698C17.9677 13.049 17.9135 13.6282 17.8052 14.199L16.9885 18.5576C16.8718 19.1785 16.8135 19.8077 16.8135 20.4411V21.5828C16.8135 21.812 17.001 21.9995 17.2302 21.9995C17.4593 21.9995 17.6469 21.812 17.6469 21.5828V20.4369C17.6469 19.8577 17.701 19.2785 17.8094 18.7077L17.8344 18.5701L18.5094 21.6703C18.5511 21.8662 18.7261 21.9995 18.9178 21.9995C18.9469 21.9995 18.9761 21.9954 19.0053 21.9912C19.2303 21.9412 19.3719 21.7203 19.3219 21.4953L18.2261 16.4658L18.6219 14.3532C18.7427 13.7323 18.8011 13.099 18.8011 12.4698Z" fill="black"/>
<path d="M7.59576 21.9993C7.82494 21.9993 8.01245 21.8118 8.01245 21.5826V20.4367C8.01245 19.8075 7.95411 19.1741 7.83744 18.5533L7.02073 14.1946C6.91656 13.6279 6.86239 13.0446 6.86239 12.4654V9.67353C6.86239 9.44435 6.67488 9.25684 6.4457 9.25684C6.21652 9.25684 6.02901 9.44435 6.02901 9.67353V12.4654C6.02901 13.0946 6.08735 13.7279 6.20402 14.3447L6.59988 16.4573L5.50398 21.4868C5.45398 21.7118 5.59982 21.9326 5.82067 21.9826C5.84984 21.991 5.879 21.991 5.90817 21.991C6.09985 21.991 6.27069 21.8576 6.31653 21.6618L6.99156 18.5616L7.01656 18.6991C7.12074 19.2658 7.17491 19.8492 7.17491 20.4284V21.5826C7.17907 21.8118 7.36658 21.9993 7.59576 21.9993Z" fill="black"/>
<path d="M12.7967 7.09861C12.855 7.12778 12.9217 7.14444 12.9842 7.14444C13.1383 7.14444 13.2842 7.06111 13.3592 6.91526L13.6384 6.35273C13.7425 6.14855 13.6592 5.89853 13.4509 5.79436C13.2425 5.69019 12.9967 5.77353 12.8925 5.98187L12.6133 6.54024C12.5091 6.74442 12.5925 6.99443 12.7967 7.09861Z" fill="black"/>
<path d="M12.2049 9.46133C12.2216 9.46133 12.2382 9.4655 12.2507 9.4655C12.4591 9.4655 12.6383 9.30716 12.6633 9.09464C12.7049 8.71545 12.7883 8.34043 12.9008 7.97791C12.9716 7.75706 12.8508 7.52371 12.6299 7.45287C12.4091 7.38203 12.1757 7.50288 12.1049 7.72372C11.9716 8.13625 11.8799 8.56544 11.8299 8.9988C11.809 9.22798 11.9757 9.43216 12.2049 9.46133Z" fill="black"/>
<path d="M11.9671 11.5364C11.9962 11.7447 12.1754 11.8989 12.3796 11.8989C12.3963 11.8989 12.4171 11.8989 12.4338 11.8947C12.663 11.8656 12.8213 11.6572 12.7921 11.428L12.6713 10.5113C12.6588 10.4196 12.6505 10.328 12.6421 10.2321C12.6255 10.003 12.4213 9.83211 12.1921 9.84878C11.9629 9.86545 11.7921 10.0696 11.8087 10.2988C11.8171 10.403 11.8296 10.5113 11.8421 10.6155L11.9671 11.5364Z" fill="black"/>
<path d="M12.3714 19.1242C12.4214 19.145 12.4756 19.1533 12.5256 19.1533C12.6923 19.1533 12.8465 19.0533 12.9131 18.8908C13.0756 18.4866 13.1965 18.0658 13.2757 17.6366C13.3173 17.4116 13.1673 17.1949 12.9423 17.149C12.7173 17.1074 12.5006 17.2574 12.4548 17.4824C12.3839 17.8574 12.2798 18.2241 12.1381 18.5783C12.0548 18.795 12.1589 19.0367 12.3714 19.1242Z" fill="black"/>
<path d="M12.6964 14.3284C12.7131 14.3284 12.7339 14.3284 12.7506 14.3242C12.9797 14.295 13.1381 14.0867 13.1089 13.8575L12.9506 12.6449C12.9214 12.4157 12.7131 12.2532 12.4839 12.2866C12.2547 12.3157 12.0964 12.5241 12.1255 12.7533L12.2839 13.9658C12.313 14.1742 12.4922 14.3284 12.6964 14.3284Z" fill="black"/>
<path d="M13.3339 15.5489L13.2714 15.0697C13.2422 14.8405 13.0339 14.678 12.8047 14.7114C12.5755 14.7405 12.4172 14.9489 12.4463 15.1781L12.5088 15.6573C12.538 15.8823 12.5547 16.1156 12.5588 16.349C12.563 16.5782 12.7463 16.7615 12.9755 16.7615H12.9797C13.2089 16.7573 13.3922 16.5698 13.3922 16.3406C13.3839 16.074 13.3672 15.8073 13.3339 15.5489Z" fill="black"/>
<path d="M11.5963 20.7494C11.7172 20.7494 11.838 20.6952 11.9213 20.5911C12.0588 20.416 12.1922 20.2369 12.313 20.0494C12.438 19.8577 12.3839 19.5993 12.188 19.4743C11.9922 19.3493 11.738 19.4035 11.613 19.5993C11.5088 19.7618 11.3921 19.9202 11.2713 20.0744C11.1296 20.2535 11.1588 20.5161 11.338 20.6619C11.413 20.7202 11.5046 20.7494 11.5963 20.7494Z" fill="black"/>
</svg>
