<?xml version="1.0" encoding="utf-8"?>
<!-- Generator: Adobe Illustrator 24.2.1, SVG Export Plug-In . SVG Version: 6.00 Build 0)  -->
<svg version="1.1" id="Layer_1" xmlns="http://www.w3.org/2000/svg" xmlns:xlink="http://www.w3.org/1999/xlink" x="0px" y="0px"
	 viewBox="0 0 24 24" style="enable-background:new 0 0 24 24;" xml:space="preserve">
<style type="text/css">
	.st0{stroke:#000000;stroke-width:0.25;stroke-miterlimit:10;}
	.st1{fill:#FFFFFF;filter:url(#Adobe_OpacityMaskFilter);}
	.st2{mask:url(#mask0_52_827_2_);}
	.st3{fill:none;stroke:#010101;stroke-width:1.2305;stroke-miterlimit:10;}
	.st4{fill:none;stroke:#010101;stroke-width:1.2305;stroke-linejoin:round;stroke-miterlimit:10;}
	.st5{fill:#010101;stroke:#000000;stroke-width:0.25;stroke-miterlimit:10;}
	.st6{fill:#010101;}
	.st7{fill-rule:evenodd;clip-rule:evenodd;fill:#010101;stroke:#000000;stroke-width:0.25;stroke-miterlimit:10;}
</style>
<path class="st7" d="M8.42,6.58L8,6.44C7.78,6.36,7.53,6.4,7.35,6.55L7.2,6.66C7,6.82,6.72,6.85,6.49,6.73
	C6.26,6.62,6.11,6.38,6.11,6.12V4.29c0-0.25,0.14-0.48,0.36-0.6c0.22-0.12,0.49-0.1,0.7,0.05l0.19,0.13C7.55,4,7.78,4.03,7.99,3.96
	l0.43-0.15l0.35-1.23c0.04-0.13,0.14-0.23,0.27-0.25c2.02-0.43,3.99-0.43,5.91,0c0.13,0.03,0.23,0.13,0.27,0.25l0.35,1.23l0.44,0.15
	c0.21,0.07,0.44,0.04,0.62-0.09l0.19-0.13c0.21-0.14,0.48-0.16,0.7-0.05c0.22,0.12,0.36,0.35,0.36,0.6v1.83
	c0,0.26-0.15,0.49-0.38,0.61C17.28,6.84,17,6.81,16.8,6.66l-0.15-0.11C16.47,6.4,16.22,6.36,16,6.44l-0.42,0.15l-0.35,1.23
	c-0.04,0.12-0.13,0.22-0.26,0.25c-1.89,0.47-3.87,0.47-5.93,0C8.91,8.03,8.81,7.94,8.77,7.81L8.42,6.58z M8.23,4.63L8.23,4.63
	C7.8,4.78,7.32,4.72,6.95,4.46L6.83,4.37v1.66l0.08-0.06C7.28,5.69,7.78,5.6,8.23,5.75C8.17,5.38,8.17,5.01,8.23,4.63z M15.77,4.63
	c0.05,0.37,0.05,0.75,0,1.12c0.45-0.15,0.95-0.07,1.32,0.22l0.08,0.06V4.37l-0.12,0.08C16.68,4.71,16.21,4.78,15.77,4.63L15.77,4.63
	z M14.59,2.98c-1.69-0.35-3.42-0.35-5.19,0l-0.37,1.3c-0.17,0.59-0.17,1.22,0,1.82l0.37,1.3c1.79,0.38,3.52,0.39,5.18,0l0.37-1.31
	c0.17-0.59,0.17-1.23,0-1.82L14.59,2.98z M8.42,13.38L8,13.23c-0.22-0.08-0.47-0.04-0.66,0.11L7.2,13.45
	c-0.2,0.16-0.48,0.19-0.71,0.07c-0.23-0.11-0.38-0.35-0.38-0.61v-1.83c0-0.25,0.14-0.48,0.36-0.6c0.22-0.12,0.49-0.1,0.7,0.04
	l0.19,0.13c0.18,0.13,0.42,0.16,0.63,0.09l0.43-0.15l0.35-1.23c0.04-0.13,0.14-0.23,0.27-0.25c2.02-0.43,3.99-0.43,5.91,0
	c0.13,0.03,0.23,0.13,0.27,0.25l0.35,1.23l0.44,0.15c0.21,0.07,0.44,0.04,0.62-0.09l0.19-0.13c0.21-0.14,0.48-0.16,0.7-0.04
	c0.22,0.12,0.36,0.35,0.36,0.6v1.83c0,0.26-0.15,0.49-0.38,0.61c-0.23,0.11-0.51,0.09-0.71-0.07l-0.15-0.11
	c-0.19-0.14-0.43-0.18-0.66-0.11l-0.42,0.15l-0.35,1.23c-0.04,0.12-0.13,0.22-0.26,0.25c-1.89,0.47-3.87,0.47-5.93,0
	c-0.13-0.03-0.23-0.13-0.27-0.25L8.42,13.38z M8.23,11.43L8.23,11.43c-0.43,0.15-0.9,0.08-1.27-0.18l-0.12-0.08v1.66l0.08-0.06
	c0.37-0.29,0.87-0.37,1.32-0.22C8.17,12.18,8.17,11.8,8.23,11.43z M15.77,11.42c0.05,0.37,0.05,0.75,0,1.12
	c0.45-0.15,0.95-0.07,1.32,0.22l0.08,0.06v-1.66l-0.12,0.08C16.68,11.51,16.21,11.57,15.77,11.42L15.77,11.42z M14.59,9.77
	c-1.69-0.35-3.42-0.35-5.19,0l-0.37,1.3c-0.17,0.59-0.17,1.22,0,1.82l0.37,1.3c1.79,0.38,3.52,0.39,5.18,0l0.37-1.31
	c0.17-0.59,0.17-1.22,0-1.82L14.59,9.77z M8.42,20.17L8,20.02c-0.22-0.08-0.47-0.04-0.66,0.11L7.2,20.24
	C7,20.4,6.72,20.43,6.49,20.32c-0.23-0.11-0.38-0.35-0.38-0.61v-1.83c0-0.25,0.14-0.48,0.36-0.6c0.22-0.12,0.49-0.1,0.7,0.04
	l0.19,0.13c0.18,0.13,0.41,0.16,0.62,0.09l0.43-0.15l0.35-1.23c0.04-0.13,0.14-0.23,0.27-0.25c2.02-0.43,3.99-0.43,5.91,0
	c0.13,0.03,0.23,0.13,0.27,0.25l0.35,1.23l0.44,0.15c0.21,0.07,0.44,0.04,0.63-0.09l0.19-0.13c0.21-0.14,0.48-0.16,0.7-0.04
	c0.22,0.12,0.36,0.35,0.36,0.6v1.83c0,0.26-0.15,0.49-0.38,0.61c-0.23,0.11-0.51,0.09-0.71-0.07l-0.15-0.11
	c-0.19-0.14-0.43-0.18-0.66-0.11l-0.42,0.15l-0.35,1.23c-0.04,0.12-0.13,0.22-0.26,0.25c-1.89,0.47-3.87,0.47-5.93,0
	c-0.13-0.03-0.23-0.13-0.27-0.25L8.42,20.17z M8.22,18.22L8.22,18.22c-0.43,0.15-0.9,0.08-1.27-0.18l-0.12-0.08v1.66l0.08-0.06
	c0.38-0.29,0.87-0.37,1.32-0.22C8.17,18.97,8.17,18.59,8.22,18.22z M15.77,18.22c0.05,0.37,0.05,0.75,0,1.12
	c0.45-0.15,0.95-0.07,1.32,0.22l0.08,0.06v-1.66l-0.12,0.08C16.68,18.3,16.21,18.37,15.77,18.22L15.77,18.22z M14.59,16.56
	c-1.69-0.35-3.42-0.35-5.19,0l-0.37,1.3c-0.17,0.59-0.17,1.22,0,1.82l0.37,1.3c1.79,0.38,3.52,0.39,5.18,0l0.37-1.31
	c0.17-0.59,0.17-1.23,0-1.82L14.59,16.56z"/>
</svg>
