<svg width="24" height="24" viewBox="0 0 24 24" fill="none" xmlns="http://www.w3.org/2000/svg">
<path d="M14.5621 21.9998C14.415 21.9991 14.2735 21.9434 14.1654 21.8435C14.0574 21.7436 13.9907 21.6069 13.9785 21.4603L13.898 20.4372C13.8937 20.3891 13.8716 20.3442 13.8361 20.3114C13.8006 20.2786 13.7542 20.2601 13.7058 20.2595H12.5913C12.6304 20.2943 12.6749 20.3278 12.7187 20.3622C12.9277 20.5259 13.1644 20.7115 13.1644 21.0591C13.1644 21.9318 11.68 21.9318 11.1901 21.9318C10.7002 21.9318 9.21582 21.9318 9.21582 21.0591C9.21582 20.7111 9.45294 20.5259 9.66232 20.3626C9.86194 20.2064 10.0342 20.0724 10.0342 19.8079C10.0342 19.5434 9.86194 19.4087 9.66232 19.2532C9.45294 19.0899 9.21582 18.9047 9.21582 18.5567C9.21582 17.684 10.7002 17.684 11.1901 17.684C11.68 17.684 13.1644 17.684 13.1644 18.5567C13.1644 18.7957 13.0527 18.9583 12.9144 19.0891L13.3371 19.0848C13.3859 19.085 13.4331 19.0669 13.4693 19.034C13.5055 19.0011 13.528 18.9558 13.5324 18.9071L13.5968 18.0977C13.6023 18.028 13.6217 17.9602 13.654 17.8983C13.6862 17.8363 13.7306 17.7815 13.7845 17.7371C13.8384 17.6926 13.9006 17.6595 13.9676 17.6396C14.0345 17.6198 14.1048 17.6136 14.1742 17.6215C14.2968 17.6378 14.4099 17.6961 14.4941 17.7867C14.5783 17.8772 14.6285 17.9942 14.6359 18.1176L14.6984 18.9086C14.7028 18.9568 14.7248 19.0016 14.7603 19.0345C14.7958 19.0673 14.8423 19.0858 14.8906 19.0864H15.6387C15.7944 19.0864 15.9437 19.1482 16.0539 19.2584C16.164 19.3685 16.2258 19.5178 16.2258 19.6735C16.2258 19.8292 16.164 19.9786 16.0539 20.0887C15.9437 20.1988 15.7944 20.2607 15.6387 20.2607H15.4207C15.3724 20.2612 15.3259 20.2797 15.2904 20.3126C15.2549 20.3454 15.2329 20.3902 15.2285 20.4384L15.1481 21.4607C15.1357 21.6077 15.0686 21.7446 14.9601 21.8444C14.8516 21.9443 14.7096 21.9997 14.5621 21.9998ZM12.2468 19.9329H13.7054C13.8362 19.9335 13.9619 19.9831 14.0579 20.0718C14.1539 20.1605 14.2133 20.282 14.2242 20.4122L14.3047 21.4345C14.3091 21.4998 14.3381 21.5609 14.3858 21.6055C14.4336 21.6502 14.4965 21.675 14.5619 21.675C14.6273 21.675 14.6902 21.6502 14.738 21.6055C14.7857 21.5609 14.8147 21.4998 14.8191 21.4345L14.8996 20.4122C14.9105 20.282 14.9699 20.1605 15.0659 20.0718C15.1619 19.9831 15.2876 19.9335 15.4184 19.9329H15.6363C15.6713 19.9343 15.7061 19.9286 15.7388 19.9161C15.7715 19.9037 15.8013 19.8848 15.8265 19.8605C15.8517 19.8363 15.8718 19.8072 15.8854 19.7751C15.8991 19.7429 15.9062 19.7083 15.9062 19.6733C15.9062 19.6384 15.8991 19.6038 15.8854 19.5716C15.8718 19.5394 15.8517 19.5103 15.8265 19.4861C15.8013 19.4619 15.7715 19.443 15.7388 19.4305C15.7061 19.4181 15.6713 19.4124 15.6363 19.4137H14.8887C14.7579 19.4131 14.6322 19.3636 14.5362 19.2749C14.4401 19.1862 14.3808 19.0647 14.3699 18.9344L14.3074 18.1434C14.3053 18.0962 14.2872 18.0512 14.2561 18.0157C14.225 17.9802 14.1828 17.9563 14.1363 17.9481C14.1105 17.945 14.0844 17.9472 14.0595 17.9546C14.0345 17.9619 14.0114 17.9741 13.9913 17.9906C13.9712 18.0071 13.9547 18.0275 13.9427 18.0505C13.9307 18.0735 13.9235 18.0987 13.9214 18.1246L13.8574 18.9352C13.8464 19.0655 13.7871 19.1869 13.6911 19.2756C13.5951 19.3644 13.4693 19.4139 13.3386 19.4145L12.4558 19.4235C12.4224 19.4239 12.3897 19.4142 12.3621 19.3955C12.3344 19.3768 12.3131 19.3502 12.301 19.319C12.289 19.2879 12.2867 19.2539 12.2945 19.2214C12.3023 19.189 12.3199 19.1597 12.3448 19.1376C12.4011 19.0872 12.4597 19.0415 12.5163 18.9973C12.7152 18.8411 12.837 18.7379 12.837 18.5586C12.837 18.1082 11.9417 18.0117 11.1905 18.0117C10.4393 18.0117 9.54396 18.1063 9.54396 18.5586C9.54396 18.7375 9.66584 18.8418 9.86428 18.9969C10.0862 19.17 10.362 19.3852 10.362 19.8099C10.362 20.2345 10.0862 20.4497 9.86428 20.6228C9.66544 20.779 9.54396 20.8818 9.54396 21.0611C9.54396 21.5115 10.4393 21.608 11.1905 21.608C11.9417 21.608 12.837 21.5134 12.837 21.0611C12.837 20.8818 12.7155 20.7775 12.5167 20.622C12.3667 20.5048 12.1968 20.3712 12.0991 20.1685C12.0872 20.1435 12.0817 20.1159 12.0833 20.0883C12.0849 20.0607 12.0935 20.0339 12.1083 20.0105C12.123 19.9871 12.1434 19.9678 12.1677 19.9544C12.1919 19.9411 12.2191 19.9341 12.2468 19.9341V19.9329Z" fill="black"/>
<path d="M12.6903 17.5802H12.6707L9.86752 17.44C9.80243 17.4374 9.73855 17.4216 9.67974 17.3935C9.62093 17.3655 9.56842 17.3258 9.52538 17.2769C9.48234 17.228 9.44966 17.1709 9.42933 17.109C9.409 17.0471 9.40144 16.9818 9.40709 16.9169C9.41275 16.852 9.43152 16.7889 9.46226 16.7315C9.49299 16.674 9.53506 16.6234 9.58592 16.5827C9.63677 16.542 9.69536 16.512 9.75813 16.4946C9.8209 16.4772 9.88656 16.4727 9.95112 16.4813L12.7372 16.8278C12.8321 16.8401 12.9189 16.888 12.9799 16.9619C13.0409 17.0357 13.0716 17.13 13.0658 17.2256C13.0599 17.3212 13.0179 17.411 12.9484 17.4768C12.8788 17.5427 12.7868 17.5796 12.6911 17.5802H12.6903ZM12.6872 17.2525C12.7004 17.2536 12.7136 17.2494 12.7238 17.2409C12.7339 17.2323 12.7403 17.22 12.7414 17.2068C12.7426 17.1935 12.7384 17.1803 12.7298 17.1702C12.7213 17.16 12.709 17.1536 12.6957 17.1525L9.91089 16.8048C9.89061 16.8028 9.87014 16.8048 9.85066 16.8108C9.83118 16.8168 9.81308 16.8265 9.7974 16.8395C9.78173 16.8525 9.76879 16.8685 9.75935 16.8866C9.7499 16.9046 9.74413 16.9244 9.74237 16.9447C9.74061 16.965 9.7429 16.9854 9.7491 17.0048C9.75531 17.0242 9.7653 17.0422 9.7785 17.0577C9.79171 17.0732 9.80786 17.086 9.82603 17.0952C9.84419 17.1044 9.86401 17.1099 9.88432 17.1115L12.6875 17.2517L12.6872 17.2525Z" fill="black"/>
<path d="M14.7298 17.2692C14.6883 17.2692 14.6469 17.2647 14.6064 17.2559C14.4628 17.2238 14.3364 17.1392 14.2522 17.0185C14.1679 16.8979 14.1319 16.7501 14.1513 16.6043L14.2903 15.5886C14.2963 15.5406 14.2843 15.4922 14.2566 15.4525C14.2289 15.4129 14.1874 15.385 14.1403 15.3741L13.0501 15.1362C13.0821 15.1788 13.1173 15.221 13.1528 15.264C13.3219 15.4683 13.5137 15.6999 13.4395 16.0402C13.3899 16.2668 13.2126 16.548 12.6481 16.6043C12.3168 16.6371 11.884 16.5937 11.3246 16.4719C10.7652 16.35 10.3535 16.209 10.0664 16.0421C9.57651 15.7562 9.53276 15.4261 9.58198 15.1995C9.6562 14.8597 9.9273 14.7308 10.1679 14.6136C10.3961 14.5038 10.5929 14.4093 10.6496 14.1507C10.6677 14.0754 10.6677 13.997 10.6496 13.9217C10.6389 13.8796 10.6454 13.835 10.6676 13.7977C10.6899 13.7603 10.726 13.7334 10.7681 13.7227C10.8103 13.712 10.8549 13.7185 10.8922 13.7408C10.9295 13.763 10.9565 13.7992 10.9672 13.8413C10.998 13.9657 10.9992 14.0956 10.9707 14.2206C10.8801 14.6354 10.5648 14.787 10.3109 14.9089C10.0839 15.0179 9.94254 15.0937 9.90425 15.2687C9.87964 15.382 9.88667 15.5562 10.234 15.7585C10.4879 15.9066 10.8789 16.039 11.3969 16.1523C11.9149 16.2656 12.3258 16.3086 12.618 16.2789C13.0176 16.2398 13.0969 16.0836 13.1215 15.9707C13.1606 15.7953 13.0633 15.6675 12.9024 15.4734C12.7809 15.3265 12.6434 15.1609 12.5899 14.9413C12.5834 14.9142 12.5838 14.8859 12.5913 14.8591C12.5987 14.8323 12.6129 14.8078 12.6325 14.788C12.652 14.7681 12.6763 14.7536 12.703 14.7458C12.7298 14.738 12.758 14.7371 12.7852 14.7433L14.2103 15.0558C14.337 15.0847 14.4484 15.1598 14.5228 15.2664C14.5971 15.373 14.6292 15.5034 14.6126 15.6324L14.4735 16.648C14.4637 16.7128 14.4788 16.7789 14.516 16.8329C14.5531 16.8869 14.6094 16.9248 14.6734 16.9388C14.7375 16.9527 14.8044 16.9418 14.8607 16.9082C14.9169 16.8746 14.9583 16.8208 14.9763 16.7578L15.2732 15.7761C15.3116 15.6512 15.3954 15.5451 15.5082 15.4789C15.6209 15.4127 15.7543 15.391 15.8822 15.4183L16.0951 15.4648C16.1624 15.4794 16.2328 15.4667 16.2908 15.4295C16.3488 15.3922 16.3896 15.3335 16.4043 15.2661C16.4189 15.1988 16.4062 15.1284 16.369 15.0704C16.3317 15.0124 16.273 14.9716 16.2056 14.9569L15.4748 14.7976C15.3471 14.7691 15.2348 14.6939 15.1599 14.5867C15.085 14.4796 15.053 14.3482 15.0701 14.2186L15.1779 13.4327C15.186 13.386 15.178 13.338 15.1552 13.2966C15.1324 13.2551 15.0962 13.2226 15.0525 13.2045C15.0279 13.1961 15.002 13.1927 14.9761 13.1946C14.9503 13.1964 14.925 13.2035 14.902 13.2153C14.8789 13.2271 14.8584 13.2434 14.8418 13.2633C14.8252 13.2832 14.8127 13.3063 14.8052 13.3311L14.5708 14.1096C14.5324 14.2346 14.4486 14.3406 14.3358 14.4069C14.2231 14.4731 14.0897 14.4947 13.9618 14.4675L13.0973 14.2882C13.0647 14.2814 13.035 14.2648 13.012 14.2407C12.9891 14.2166 12.974 14.186 12.9689 14.1532C12.9638 14.1203 12.9688 14.0866 12.9833 14.0566C12.9978 14.0266 13.0211 14.0018 13.0501 13.9854C13.1157 13.9464 13.1829 13.9159 13.2473 13.885C13.4747 13.7756 13.6161 13.6999 13.654 13.5248C13.7083 13.2756 13.4641 13.0502 12.9274 12.8549C12.9071 12.8476 12.8885 12.8364 12.8726 12.8219C12.8566 12.8074 12.8437 12.79 12.8345 12.7705C12.8254 12.751 12.8201 12.7299 12.8191 12.7084C12.8181 12.6869 12.8213 12.6654 12.8286 12.6451C12.8359 12.6249 12.8471 12.6062 12.8615 12.5903C12.876 12.5744 12.8935 12.5614 12.913 12.5523C12.9325 12.5431 12.9536 12.5378 12.9751 12.5368C12.9966 12.5358 13.0181 12.539 13.0383 12.5463C13.7532 12.8065 14.0677 13.1592 13.9727 13.594C13.922 13.8284 13.7774 13.9624 13.6153 14.0628L14.029 14.1487C14.0766 14.1589 14.1263 14.151 14.1683 14.1265C14.2104 14.102 14.2418 14.0627 14.2564 14.0163L14.4907 13.2377C14.5109 13.171 14.5443 13.1091 14.5889 13.0556C14.6335 13.002 14.6884 12.958 14.7504 12.9261C14.8123 12.8942 14.88 12.875 14.9495 12.8698C15.019 12.8645 15.0888 12.8733 15.1548 12.8955C15.271 12.9376 15.369 13.0187 15.432 13.125C15.495 13.2313 15.5191 13.3562 15.5001 13.4784L15.3939 14.2651C15.3879 14.3131 15.4 14.3616 15.4277 14.4012C15.4554 14.4408 15.4968 14.4687 15.5439 14.4796L16.2748 14.639C16.3501 14.6554 16.4215 14.6865 16.4848 14.7305C16.5481 14.7746 16.6021 14.8306 16.6437 14.8955C16.6854 14.9604 16.7138 15.0329 16.7275 15.1088C16.7411 15.1846 16.7397 15.2625 16.7232 15.3378C16.7068 15.4132 16.6757 15.4845 16.6317 15.5478C16.5876 15.6111 16.5316 15.6651 16.4667 15.7068C16.4018 15.7484 16.3293 15.7769 16.2534 15.7905C16.1775 15.8042 16.0997 15.8027 16.0244 15.7863L15.8115 15.7398C15.7641 15.73 15.7148 15.7381 15.6731 15.7626C15.6314 15.787 15.6003 15.8261 15.5857 15.8722L15.2888 16.8539C15.2518 16.9735 15.1777 17.0782 15.0772 17.1529C14.9767 17.2276 14.855 17.2683 14.7298 17.2692Z" fill="black"/>
<path d="M13.809 12.5527C13.7799 12.5527 13.7508 12.5489 13.7227 12.5414L13.7149 12.5391L13.159 12.3609C13.1385 12.3544 13.1194 12.3438 13.103 12.3299C13.0865 12.316 13.073 12.299 13.0631 12.2798C13.0533 12.2606 13.0473 12.2397 13.0455 12.2183C13.0437 12.1968 13.0462 12.1752 13.0527 12.1547C13.0593 12.1341 13.0698 12.1151 13.0838 12.0987C13.0977 12.0822 13.1147 12.0687 13.1338 12.0588C13.153 12.049 13.1739 12.043 13.1954 12.0412C13.2169 12.0394 13.2385 12.0418 13.259 12.0484L13.8082 12.2246C13.8177 12.2222 13.8263 12.2174 13.8332 12.2105C13.8401 12.2036 13.8449 12.195 13.8473 12.1855C13.8567 12.1551 13.8449 12.1324 13.8379 12.1301L13.2453 11.9179C13.2051 11.9028 13.1725 11.8725 13.1545 11.8335C13.1364 11.7946 13.1344 11.7501 13.1489 11.7097C13.1633 11.6692 13.1931 11.6361 13.2317 11.6174C13.2704 11.5987 13.3148 11.596 13.3555 11.6097L13.9485 11.8207C14.0366 11.8553 14.1078 11.9227 14.1473 12.0087C14.1868 12.0947 14.1914 12.1927 14.1602 12.282C14.1382 12.3587 14.0922 12.4264 14.0291 12.4751C13.9659 12.5238 13.8888 12.551 13.809 12.5527Z" fill="black"/>
<path d="M15.9517 12.5987C15.8726 12.5987 15.7943 12.5825 15.7216 12.551C15.5868 12.492 15.479 12.3846 15.4195 12.2501C15.36 12.1155 15.3531 11.9635 15.4001 11.824L15.7322 10.8537C15.7473 10.8078 15.7449 10.7578 15.7253 10.7136C15.7057 10.6694 15.6705 10.634 15.6263 10.6142L14.6036 10.1716C14.6271 10.2193 14.6532 10.2677 14.6798 10.3166C14.8064 10.5509 14.9501 10.8138 14.8118 11.1334C14.6165 11.5854 14.0696 11.6615 13.1883 11.3596C13.168 11.3526 13.1492 11.3417 13.1331 11.3275C13.117 11.3132 13.1038 11.296 13.0944 11.2766C13.0849 11.2573 13.0794 11.2363 13.078 11.2149C13.0767 11.1934 13.0796 11.1719 13.0866 11.1516C13.0936 11.1312 13.1045 11.1124 13.1187 11.0963C13.1329 11.0802 13.1502 11.067 13.1695 11.0576C13.1888 11.0481 13.2098 11.0426 13.2313 11.0413C13.2527 11.0399 13.2743 11.0428 13.2946 11.0498C13.986 11.2865 14.3954 11.2713 14.5114 11.0037C14.5825 10.8392 14.5114 10.6951 14.3919 10.4736C14.3009 10.3064 14.1966 10.1165 14.1888 9.89154C14.1877 9.86392 14.1937 9.83649 14.2062 9.81181C14.2186 9.78713 14.2371 9.76601 14.2599 9.75041C14.2828 9.73481 14.3092 9.72524 14.3367 9.72259C14.3642 9.71995 14.3919 9.72431 14.4173 9.73528L15.756 10.3146C15.8757 10.3671 15.9715 10.4626 16.0243 10.5822C16.0772 10.7018 16.0833 10.8368 16.0416 10.9607L15.7095 11.9311C15.6874 11.9928 15.6896 12.0605 15.7157 12.1206C15.7418 12.1807 15.7897 12.2287 15.8499 12.2547C15.91 12.2807 15.9778 12.2828 16.0394 12.2607C16.1011 12.2385 16.152 12.1937 16.1818 12.1354L16.6619 11.2291C16.7236 11.1138 16.8262 11.0258 16.9496 10.9824C17.0729 10.939 17.208 10.9434 17.3283 10.9947L17.5283 11.081C17.5911 11.1059 17.661 11.1054 17.7234 11.0796C17.7858 11.0537 17.8356 11.0047 17.8624 10.9427C17.8892 10.8808 17.8909 10.8108 17.867 10.7477C17.8432 10.6846 17.7957 10.6332 17.7346 10.6045L17.0482 10.3076C16.928 10.2554 16.8318 10.16 16.7786 10.0403C16.7253 9.92059 16.719 9.78525 16.7607 9.66106L17.0178 8.91025C17.0348 8.86617 17.0364 8.8176 17.0222 8.77252C17.008 8.72744 16.9789 8.68853 16.9396 8.66219C16.9171 8.64924 16.8922 8.64099 16.8663 8.63791C16.8405 8.63484 16.8143 8.63702 16.7894 8.64432C16.7644 8.65162 16.7412 8.66388 16.7211 8.68038C16.701 8.69687 16.6845 8.71726 16.6724 8.74032L16.292 9.45754C16.2303 9.57283 16.1276 9.66085 16.0043 9.70423C15.8809 9.74762 15.7458 9.74322 15.6255 9.69192L14.8114 9.34972C14.7807 9.33683 14.7547 9.31488 14.7368 9.28679C14.7188 9.2587 14.7099 9.22582 14.7112 9.19253C14.7125 9.15924 14.7239 9.12713 14.7439 9.10049C14.7639 9.07386 14.7915 9.05396 14.8232 9.04346C14.895 9.01963 14.9665 9.00088 15.0361 8.98291C15.2802 8.91923 15.4333 8.87196 15.5048 8.7075C15.5509 8.60125 15.5771 8.42897 15.2755 8.16334C15.0548 7.96802 14.6966 7.7641 14.2099 7.55355C13.7231 7.34299 13.3282 7.22228 13.0356 7.19455C12.6356 7.15548 12.5278 7.29377 12.4821 7.40002C12.411 7.56448 12.4821 7.70824 12.602 7.92934C12.7372 8.17545 12.9051 8.48406 12.7372 8.87235C12.5692 9.26065 12.2293 9.35011 11.9559 9.41925C11.8675 9.43961 11.7808 9.46651 11.6965 9.49973C11.6768 9.50827 11.6556 9.51284 11.6341 9.51318C11.6126 9.51353 11.5912 9.50963 11.5712 9.50172C11.5512 9.49382 11.533 9.48205 11.5176 9.46709C11.5021 9.45214 11.4898 9.43429 11.4813 9.41457C11.4727 9.39484 11.4681 9.37363 11.4678 9.35213C11.4675 9.33064 11.4713 9.30929 11.4793 9.28931C11.4872 9.26932 11.4989 9.25109 11.5139 9.23565C11.5288 9.22021 11.5467 9.20786 11.5664 9.19932C11.6661 9.1592 11.7688 9.12681 11.8735 9.10244C12.1184 9.03877 12.3297 8.98525 12.4348 8.74071C12.5399 8.49617 12.4348 8.30592 12.3141 8.08404C12.1867 7.84965 12.0426 7.58714 12.1809 7.2676C12.2731 7.0547 12.5012 6.81211 13.0661 6.86602C13.3973 6.89766 13.8138 7.02227 14.3392 7.2508C14.8646 7.47932 15.2415 7.69574 15.4912 7.91489C15.9169 8.28991 15.8966 8.62195 15.8037 8.83485C15.7087 9.05439 15.5415 9.15869 15.363 9.22549L15.7537 9.38917C15.7983 9.40834 15.8486 9.41015 15.8945 9.39426C15.9405 9.37836 15.9788 9.34591 16.0021 9.30323L16.3826 8.58445C16.4153 8.5227 16.46 8.46816 16.5142 8.42408C16.5684 8.38001 16.631 8.3473 16.6981 8.3279C16.7652 8.30851 16.8355 8.30283 16.9049 8.3112C16.9742 8.31957 17.0412 8.34182 17.1018 8.37663C17.2078 8.44027 17.2883 8.53879 17.3297 8.65532C17.371 8.77184 17.3705 8.89911 17.3283 9.01533L17.0732 9.76732C17.0581 9.81325 17.0605 9.86317 17.0801 9.90741C17.0997 9.95165 17.1349 9.98706 17.1791 10.0068L17.8655 10.3037C18.0084 10.3655 18.1209 10.4816 18.1782 10.6264C18.2355 10.7712 18.233 10.9328 18.1711 11.0758C18.1093 11.2187 17.9932 11.3312 17.8484 11.3885C17.7036 11.4458 17.5419 11.4433 17.399 11.3814L17.1986 11.2967C17.154 11.278 17.1041 11.2766 17.0585 11.2926C17.0129 11.3086 16.9749 11.341 16.9517 11.3834L16.4717 12.2897C16.421 12.3834 16.346 12.4617 16.2544 12.5161C16.1628 12.5705 16.0582 12.599 15.9517 12.5987Z" fill="black"/>
<path d="M15.9099 7.78062C15.8518 7.78064 15.7944 7.76727 15.7423 7.74156L13.2254 6.49971C13.1672 6.47118 13.1153 6.43118 13.0728 6.3821C13.0304 6.33302 12.9983 6.27588 12.9785 6.21411C12.9587 6.15233 12.9516 6.08719 12.9576 6.0226C12.9636 5.958 12.9826 5.89529 13.0134 5.83821C13.0443 5.78113 13.0863 5.73087 13.137 5.69044C13.1878 5.65001 13.2461 5.62024 13.3087 5.60292C13.3712 5.58561 13.4365 5.5811 13.5008 5.58967C13.5651 5.59824 13.6271 5.61971 13.6829 5.65279L16.1009 7.07747C16.1719 7.1197 16.2272 7.18404 16.2582 7.26063C16.2892 7.33723 16.2942 7.42188 16.2726 7.50162C16.2509 7.58136 16.2037 7.65182 16.1382 7.7022C16.0727 7.75259 15.9925 7.78013 15.9099 7.78062ZM15.8872 7.4474C15.893 7.45053 15.8994 7.45249 15.9059 7.45316C15.9125 7.45383 15.9191 7.45321 15.9254 7.45132C15.9317 7.44944 15.9376 7.44633 15.9427 7.44217C15.9478 7.43801 15.9521 7.43289 15.9552 7.42709C15.9583 7.42129 15.9603 7.41494 15.961 7.40838C15.9616 7.40183 15.961 7.39521 15.9591 7.3889C15.9572 7.38259 15.9541 7.37671 15.95 7.3716C15.9458 7.36649 15.9407 7.36225 15.9349 7.35912L13.5168 5.93445C13.499 5.92457 13.4795 5.91832 13.4592 5.91606C13.439 5.9138 13.4186 5.91558 13.399 5.92128C13.3795 5.92699 13.3613 5.93651 13.3454 5.94929C13.3296 5.96208 13.3165 5.97788 13.3068 5.99578C13.2971 6.01367 13.2911 6.03331 13.289 6.05356C13.287 6.07381 13.289 6.09426 13.2949 6.11373C13.3008 6.1332 13.3105 6.15131 13.3235 6.167C13.3364 6.1827 13.3524 6.19567 13.3703 6.20516L15.8872 7.44701V7.4474Z" fill="black"/>
<path d="M18.0826 8.1943C17.9698 8.19448 17.8593 8.16177 17.7647 8.10016C17.6416 8.01941 17.5533 7.89547 17.5171 7.75278C17.4809 7.61009 17.4996 7.45903 17.5693 7.32942L18.0604 6.42899C18.083 6.38625 18.089 6.33661 18.0772 6.2897C18.0654 6.24279 18.0365 6.20194 17.9963 6.17507L17.0639 5.56645C17.0787 5.61762 17.0963 5.66958 17.1146 5.72271C17.2002 5.97389 17.2971 6.25867 17.1072 6.55009C16.9662 6.7665 16.7556 6.84776 16.5213 6.84776C15.9646 6.84776 15.263 6.39031 14.9755 6.20281C14.4958 5.89029 14.161 5.61215 13.952 5.35355C13.5958 4.91212 13.6716 4.58828 13.7985 4.39374C13.9884 4.10232 14.2884 4.07693 14.5528 4.05427C14.8048 4.03279 15.0216 4.01521 15.1673 3.79254C15.313 3.56988 15.2411 3.36284 15.1591 3.12494C15.0732 2.87375 14.9755 2.58936 15.1654 2.29795C15.2919 2.10262 15.556 1.9034 16.1056 2.05145C16.4267 2.13817 16.8162 2.33271 17.2959 2.64523C17.7049 2.91204 18.9495 3.7234 18.4729 4.45429C18.3424 4.65469 18.1604 4.72774 17.9729 4.76407L18.3291 4.99103C18.37 5.01744 18.4192 5.02767 18.4671 5.01973C18.5151 5.01178 18.5584 4.98623 18.5885 4.94806L19.0858 4.30389C19.1284 4.24879 19.1816 4.20279 19.2423 4.16864C19.3031 4.13449 19.37 4.11287 19.4392 4.10508C19.5084 4.09728 19.5785 4.10346 19.6453 4.12325C19.7121 4.14305 19.7742 4.17605 19.828 4.2203C19.922 4.30069 19.9851 4.41126 20.0064 4.53306C20.0278 4.65487 20.0062 4.78031 19.9452 4.8879L19.5655 5.58442C19.5428 5.62716 19.5368 5.67679 19.5487 5.7237C19.5605 5.77061 19.5893 5.81146 19.6296 5.83834L20.2546 6.24695C20.385 6.33201 20.4763 6.4654 20.5084 6.61778C20.5405 6.77016 20.5108 6.92905 20.4257 7.05948C20.3406 7.18992 20.2072 7.28123 20.0549 7.31332C19.9025 7.34541 19.7436 7.31565 19.6132 7.23059L19.4307 7.11339C19.3899 7.08741 19.3409 7.0775 19.2932 7.08558C19.2455 7.09366 19.2025 7.11917 19.1725 7.15715L18.5475 7.96968C18.4923 8.04014 18.4217 8.09701 18.3411 8.13595C18.2606 8.17489 18.1721 8.19485 18.0826 8.1943ZM16.8646 5.07737C16.8964 5.07735 16.9275 5.08658 16.9541 5.10393L18.176 5.90084C18.2851 5.97277 18.3634 6.08296 18.3954 6.2097C18.4273 6.33644 18.4107 6.47056 18.3487 6.58564L17.858 7.48607C17.8281 7.54285 17.8205 7.60875 17.8366 7.67087C17.8527 7.733 17.8914 7.78689 17.9451 7.822C17.9988 7.85711 18.0637 7.87093 18.1271 7.86075C18.1904 7.85056 18.2477 7.81711 18.2877 7.76694L18.9127 6.9544C18.9932 6.85136 19.1093 6.78219 19.2382 6.76049C19.3672 6.7388 19.4995 6.76617 19.6093 6.83721L19.7917 6.9544C19.8493 6.98866 19.9179 6.99932 19.9832 6.98415C20.0485 6.96899 20.1054 6.92918 20.142 6.87304C20.1786 6.8169 20.1921 6.74877 20.1797 6.68291C20.1673 6.61705 20.1299 6.55854 20.0753 6.51962L19.4503 6.11101C19.3411 6.03907 19.2629 5.92889 19.2309 5.80215C19.199 5.6754 19.2156 5.54129 19.2776 5.42621L19.6573 4.72969C19.6815 4.68899 19.691 4.64127 19.6844 4.5944C19.6778 4.54754 19.6554 4.50432 19.621 4.47187C19.601 4.45528 19.578 4.44289 19.5531 4.43542C19.5283 4.42796 19.5022 4.42558 19.4764 4.42842C19.4506 4.43126 19.4257 4.43928 19.4031 4.45198C19.3805 4.46468 19.3606 4.48181 19.3448 4.50234L18.8487 5.14729C18.7682 5.25033 18.6521 5.31951 18.5232 5.3412C18.3943 5.36289 18.2619 5.33552 18.1522 5.26448L17.408 4.79063C17.3799 4.77276 17.3578 4.74671 17.3449 4.71598C17.332 4.68525 17.3287 4.6513 17.3356 4.61868C17.3425 4.58605 17.3592 4.55631 17.3834 4.53342C17.4077 4.51054 17.4383 4.4956 17.4713 4.49062C17.5459 4.47929 17.6201 4.47265 17.6916 4.46679C17.9428 4.44531 18.1018 4.4246 18.1994 4.27421C18.4455 3.89684 17.7471 3.32846 17.1178 2.91829C16.6736 2.62882 16.3048 2.44287 16.0209 2.36631C15.633 2.26123 15.504 2.37842 15.4408 2.47569C15.3431 2.62569 15.388 2.77922 15.4697 3.0179C15.5611 3.28393 15.6744 3.61519 15.4427 3.97068C15.2111 4.32616 14.8618 4.35585 14.5833 4.37968C14.3321 4.40116 14.1735 4.42187 14.0755 4.57187C14.0122 4.66914 13.9583 4.83439 14.2095 5.1469C14.3942 5.37543 14.713 5.63833 15.1572 5.92818C15.7865 6.33836 16.5881 6.74853 16.8342 6.37078C16.9322 6.22039 16.8873 6.06686 16.806 5.82818C16.7447 5.6477 16.6748 5.4434 16.7041 5.22034C16.7092 5.18088 16.7285 5.14464 16.7584 5.1184C16.7884 5.09216 16.8268 5.07771 16.8666 5.07776L16.8646 5.07737Z" fill="black"/>
<path d="M10.976 12.9282C10.6919 12.9281 10.4151 12.8381 10.1852 12.6711C9.95538 12.5041 9.7842 12.2688 9.69617 11.9986C9.60814 11.7285 9.60778 11.4375 9.69514 11.1672C9.78249 10.8968 9.95309 10.661 10.1825 10.4935C10.412 10.326 10.6885 10.2353 10.9726 10.2344C11.2567 10.2335 11.5338 10.3225 11.7643 10.4886C11.9948 10.6547 12.1668 10.8894 12.2559 11.1592C12.3449 11.429 12.3464 11.72 12.26 11.9907C12.1738 12.2634 12.0028 12.5015 11.7718 12.6701C11.5408 12.8388 11.262 12.9292 10.976 12.9282ZM10.976 10.5617C10.7191 10.5615 10.4716 10.6583 10.2829 10.8326C10.0942 11.007 9.97831 11.2461 9.9583 11.5023C9.93829 11.7584 10.0157 12.0126 10.175 12.2142C10.3343 12.4157 10.5638 12.5497 10.8176 12.5894C11.0714 12.6291 11.3308 12.5716 11.5441 12.4283C11.7573 12.285 11.9086 12.0665 11.9677 11.8165C12.0269 11.5665 11.9895 11.3034 11.863 11.0797C11.7366 10.8561 11.5304 10.6884 11.2857 10.6102C11.1861 10.5783 11.0821 10.562 10.9775 10.5617H10.976Z" fill="black"/>
<path d="M10.9758 13.5806C10.5541 13.5804 10.1432 13.4469 9.80198 13.199C9.46074 12.9512 9.20661 12.6018 9.07594 12.2008C8.94526 11.7999 8.94473 11.3678 9.07442 10.9665C9.20411 10.5652 9.45738 10.2152 9.79801 9.96653C10.1386 9.71787 10.5492 9.58329 10.9709 9.58204C11.3926 9.58079 11.804 9.71294 12.1461 9.95958C12.4882 10.2062 12.7435 10.5547 12.8756 10.9553C13.0076 11.3558 13.0096 11.7878 12.8813 12.1896C12.7533 12.5942 12.4994 12.9473 12.1566 13.1975C11.8139 13.4477 11.4002 13.582 10.9758 13.5806ZM10.9782 9.90861C10.5569 9.90927 10.1515 10.0689 9.84282 10.3555C9.53416 10.6422 9.34504 11.0347 9.31325 11.4547C9.28146 11.8748 9.40935 12.2913 9.67136 12.6212C9.93337 12.951 10.3102 13.1698 10.7265 13.2338C11.1428 13.2979 11.568 13.2025 11.917 12.9666C12.2661 12.7308 12.5132 12.372 12.6092 11.9618C12.7051 11.5517 12.6427 11.1204 12.4345 10.7542C12.2263 10.3881 11.8875 10.114 11.486 9.98674C11.3222 9.93515 11.1514 9.90906 10.9797 9.90939L10.9782 9.90861Z" fill="black"/>
<path d="M6.07661 11.1482C6.04941 11.1485 6.02256 11.1421 5.99848 11.1294L3.08823 9.59734C3.05273 9.5789 3.02521 9.5481 3.01087 9.51075C2.99654 9.47341 2.99637 9.4321 3.01041 9.39464C3.02445 9.35718 3.05173 9.32616 3.08708 9.30744C3.12243 9.28872 3.16342 9.28359 3.20229 9.29303L5.26877 9.78485L5.31135 8.91333C5.31279 8.88608 5.32102 8.85963 5.33529 8.83637C5.34957 8.81311 5.36943 8.79379 5.39307 8.78017C5.41671 8.76654 5.44338 8.75904 5.47065 8.75835C5.49793 8.75766 5.52495 8.7638 5.54925 8.77621L8.52474 10.2743C8.55998 10.2921 8.58762 10.3219 8.60258 10.3584C8.61755 10.3949 8.61882 10.4356 8.60618 10.473C8.59353 10.5104 8.56781 10.5419 8.53376 10.5618C8.4997 10.5817 8.4596 10.5887 8.42083 10.5814L6.24537 10.1708L6.24146 10.9853C6.24125 11.0286 6.22392 11.07 6.19324 11.1005C6.16257 11.1311 6.12106 11.1482 6.07778 11.1482H6.07661ZM4.39023 9.91259L5.91371 10.7142L5.91723 9.97197C5.91729 9.94783 5.9227 9.924 5.93305 9.90219C5.9434 9.88038 5.95845 9.86114 5.97712 9.84583C5.99579 9.83052 6.01761 9.81953 6.04103 9.81365C6.06444 9.80777 6.08886 9.80714 6.11255 9.81181L7.33876 10.0435L5.62738 9.1817L5.58441 9.99775C5.58323 10.0218 5.57677 10.0453 5.56549 10.0665C5.5542 10.0878 5.53838 10.1063 5.51913 10.1207C5.49988 10.1351 5.47769 10.1451 5.45414 10.15C5.43058 10.1549 5.40623 10.1545 5.38284 10.1489L4.39023 9.91259Z" fill="black"/>
<path d="M6.55057 13.9652H6.53924L3.25515 13.7347C3.21512 13.7322 3.1774 13.7151 3.14913 13.6867C3.12087 13.6582 3.10403 13.6204 3.10181 13.5804C3.0996 13.5403 3.11216 13.5009 3.13711 13.4695C3.16206 13.4381 3.19767 13.4169 3.23718 13.4101L5.32709 13.0288L5.01693 12.2143C5.00719 12.1888 5.00397 12.1613 5.00757 12.1343C5.01117 12.1072 5.02147 12.0815 5.03754 12.0595C5.05361 12.0374 5.07494 12.0197 5.09958 12.008C5.12423 11.9963 5.15141 11.991 5.17865 11.9924L8.50533 12.1667C8.54483 12.1686 8.58231 12.1847 8.61083 12.2121C8.63935 12.2395 8.65698 12.2763 8.66046 12.3157C8.66393 12.3551 8.65303 12.3945 8.62975 12.4265C8.60647 12.4584 8.5724 12.4809 8.53384 12.4897L6.37713 12.989L6.70136 13.7363C6.71219 13.7612 6.71665 13.7884 6.71432 13.8155C6.712 13.8426 6.70296 13.8686 6.68804 13.8914C6.67312 13.9141 6.65277 13.9327 6.62884 13.9456C6.60491 13.9585 6.57814 13.9652 6.55096 13.9652H6.55057ZM4.57512 13.4987L6.29392 13.6191L5.99899 12.939C5.98944 12.9169 5.98484 12.8931 5.98554 12.8691C5.98623 12.8451 5.99219 12.8215 6.003 12.8001C6.01381 12.7787 6.02921 12.7599 6.04809 12.745C6.06697 12.7302 6.08889 12.7197 6.11228 12.7143L7.32794 12.4331L5.41382 12.3327L5.70445 13.0964C5.71305 13.1189 5.71658 13.143 5.7148 13.167C5.71301 13.191 5.70596 13.2143 5.69413 13.2353C5.68231 13.2562 5.666 13.2743 5.64638 13.2883C5.62676 13.3022 5.60431 13.3117 5.58062 13.3159L4.57512 13.4987Z" fill="black"/>
<path d="M9.37128 9.6345C9.34858 9.6345 9.32612 9.62978 9.30534 9.62063C9.28456 9.61148 9.26591 9.59811 9.25057 9.58137L7.75443 7.94966L7.2634 8.60086C7.24647 8.62334 7.22403 8.64107 7.19825 8.65234C7.17247 8.66362 7.14421 8.66806 7.11621 8.66523C7.08822 8.6624 7.06142 8.65241 7.03842 8.6362C7.01541 8.62 6.99697 8.59814 6.98487 8.57273L5.56881 5.59916C5.55156 5.56316 5.54806 5.5221 5.55896 5.4837C5.56987 5.4453 5.59444 5.41221 5.62804 5.39065C5.66164 5.3691 5.70196 5.36057 5.74142 5.36667C5.78087 5.37277 5.81673 5.39307 5.84226 5.42377L7.20285 7.05509L7.75912 6.38435C7.77649 6.36318 7.7989 6.3467 7.8243 6.33643C7.84969 6.32616 7.87726 6.32243 7.90447 6.32558C7.93168 6.32873 7.95767 6.33865 7.98005 6.35445C8.00243 6.37025 8.02049 6.39141 8.03256 6.416L9.51699 9.39738C9.52944 9.42233 9.5353 9.45006 9.53402 9.47792C9.53275 9.50577 9.52438 9.53284 9.5097 9.55656C9.49503 9.58027 9.47454 9.59984 9.45017 9.61342C9.42581 9.62699 9.39839 9.63411 9.3705 9.63411L9.37128 9.6345ZM7.74193 7.5305C7.76463 7.5305 7.78709 7.53522 7.80787 7.54437C7.82865 7.55351 7.8473 7.56688 7.86264 7.58363L8.70602 8.5032L7.85092 6.7875L7.32942 7.41643C7.3141 7.43496 7.29488 7.44988 7.27314 7.46015C7.2514 7.47041 7.22767 7.47576 7.20363 7.47581C7.17962 7.4758 7.15591 7.47052 7.13417 7.46032C7.11243 7.45013 7.0932 7.43528 7.07784 7.41682L6.42431 6.6328L7.16652 8.18717L7.61341 7.59535C7.6279 7.57616 7.64644 7.56041 7.6677 7.5492C7.68897 7.53799 7.71245 7.53161 7.73646 7.5305H7.74193Z" fill="black"/>
</svg>
