<svg width="120" height="120" viewBox="0 0 120 120" fill="none" xmlns="http://www.w3.org/2000/svg">
<path fill-rule="evenodd" clip-rule="evenodd" d="M16 29.0001C16 22.3727 21.3726 17 28 17H34C35.1046 17 36 17.8954 36 19C36 20.1046 35.1046 21 34 21H28C23.5817 21 20 24.5818 20 29.0001V49.0003C20 62.2553 30.7452 73.0006 44 73.0006C57.2548 73.0006 68 62.2553 68 49.0003V29.0001C68 24.5818 64.4184 21 60 21H54C52.8956 21 52 20.1046 52 19C52 17.8954 52.8956 17 54 17H60C66.6276 17 72 22.3727 72 29.0001V49.0003C72 63.7921 60.5304 75.9046 46 76.9302V77.0007C46 89.1512 55.8496 99.0009 68 99.0009C80.1504 99.0009 90 89.1512 90 77.0007V68.8346C84.3244 67.8826 80 62.9465 80 57.0004C80 50.373 85.3724 45.0003 92 45.0003C98.6276 45.0003 104 50.373 104 57.0004C104 62.9465 99.6756 67.8826 94 68.8346V77.0007C94 91.3604 82.3596 103.001 68 103.001C53.6404 103.001 42 91.3604 42 77.0007V76.9302C27.4694 75.9046 16 63.7921 16 49.0003V29.0001ZM92 65.0005C96.4184 65.0005 100 61.4189 100 57.0004C100 52.5821 96.4184 49.0003 92 49.0003C87.5816 49.0003 84 52.5821 84 57.0004C84 61.4189 87.5816 65.0005 92 65.0005Z" fill="#FF7500"/>
</svg>
