<svg xmlns="http://www.w3.org/2000/svg" viewBox="0 0 22.27 20"><defs><style>.cls-1{fill:#020c1f;}</style></defs><g id="Layer_2" data-name="Layer 2"><g id="Layer_1-2" data-name="Layer 1"><path class="cls-1" d="M11.11,0a4.46,4.46,0,0,1,4.45,4.44A4.45,4.45,0,0,1,15,6.67h2.82A2.21,2.21,0,0,1,20,8.4c2.24,8.9,2.29,9.17,2.29,9.37a2.36,2.36,0,0,1-.17.87,2.43,2.43,0,0,1-.5.73A2.26,2.26,0,0,1,20,20H2.22a2.26,2.26,0,0,1-.85-.17,2.21,2.21,0,0,1-1.2-1.2A2.27,2.27,0,0,1,0,17.77c0-.24,0-.47,2.27-9.37a2.23,2.23,0,0,1,.79-1.24,2.18,2.18,0,0,1,1.38-.49H7.27a4.29,4.29,0,0,1-.6-2.23A4.44,4.44,0,0,1,11.11,0Zm0,2.22a2.34,2.34,0,0,0-1.41.51A2.26,2.26,0,0,0,8.94,4a2.21,2.21,0,0,0,1.33,2.48,2.18,2.18,0,0,0,1.49.07,2.21,2.21,0,0,0,1.56-2.34A2.22,2.22,0,0,0,12,2.39,2.26,2.26,0,0,0,11.11,2.22ZM4.44,8.89v8.88H6.67V15l1.1,1.11v1.66H10V15.56L7.77,13.33,10,11.11V8.89H7.77v1.67l-1.1,1.11V8.89Zm10,0a2.26,2.26,0,0,0-.85.17,2.16,2.16,0,0,0-.72.48,2.22,2.22,0,0,0-.48.72,2.26,2.26,0,0,0-.17.85v4.45a2.26,2.26,0,0,0,.17.85,2.21,2.21,0,0,0,1.2,1.2,2.07,2.07,0,0,0,.85.16h3.33V12.22H15.56v3.34H14.44V11.11h3.33V8.89Z"/></g></g></svg>