<svg width="24" height="24" viewBox="0 0 24 24" fill="none" xmlns="http://www.w3.org/2000/svg">
<path d="M12.1081 2C13.2868 2 14.4174 2.46768 15.2517 3.30039C16.0859 4.1331 16.5557 5.26281 16.5579 6.44154C16.5726 7.2196 16.3799 7.98754 15.9996 8.66648H18.8162C19.3207 8.66572 19.8103 8.83706 20.2043 9.1522C20.5982 9.46734 20.8728 9.90743 20.9828 10.3998C23.2161 19.2995 23.2661 19.5662 23.2661 19.7745C23.2673 20.0705 23.2092 20.3638 23.0952 20.637C22.9811 20.9103 22.8136 21.1579 22.6023 21.3652C22.391 21.5726 22.1403 21.7356 21.8651 21.8445C21.5898 21.9534 21.2955 22.0061 20.9995 21.9994H3.22496C2.93247 22.0005 2.64265 21.9437 2.37221 21.8323C2.10177 21.7209 1.85605 21.557 1.64923 21.3502C1.44241 21.1434 1.27856 20.8977 1.16714 20.6272C1.05571 20.3568 0.998914 20.067 1.00002 19.7745C1.00002 19.5328 1.04168 19.2995 3.27496 10.3998C3.38772 9.90886 3.66312 9.47049 4.05643 9.15584C4.44975 8.84118 4.93788 8.66873 5.44157 8.66648H8.26649C7.86621 7.9939 7.65864 7.22418 7.66651 6.44154C7.66651 5.26357 8.13446 4.13385 8.96741 3.3009C9.80036 2.46795 10.9301 2 12.1081 2ZM12.1081 4.22494C11.5956 4.22651 11.0995 4.40562 10.7042 4.73178C10.3089 5.05793 10.0388 5.51099 9.93992 6.01384C9.84104 6.5167 9.91945 7.03828 10.1618 7.48983C10.4042 7.94138 10.7955 8.295 11.2693 8.4905C11.743 8.68601 12.2698 8.71132 12.7601 8.56214C13.2504 8.41296 13.6739 8.0985 13.9584 7.67227C14.243 7.24604 14.371 6.73438 14.3208 6.22436C14.2706 5.71434 14.0452 5.23748 13.683 4.87492C13.4761 4.66842 13.2305 4.50473 12.9602 4.3932C12.69 4.28167 12.4004 4.22449 12.1081 4.22494ZM5.44157 10.8914V19.7745H7.66651V16.9996L8.77481 18.1079V19.7745H10.9998V17.5579L8.77481 15.333L10.9998 13.108V10.8914H8.77481V12.558L7.66651 13.6663V10.8914H5.44157ZM15.4413 10.8914C15.1499 10.8903 14.8612 10.9469 14.5917 11.0579C14.3223 11.1689 14.0775 11.3321 13.8715 11.5382C13.6654 11.7442 13.5022 11.989 13.3912 12.2585C13.2802 12.5279 13.2236 12.8166 13.2247 13.108V17.5579C13.2236 17.8493 13.2802 18.138 13.3912 18.4075C13.5022 18.6769 13.6654 18.9217 13.8715 19.1277C14.0775 19.3338 14.3223 19.497 14.5917 19.608C14.8612 19.719 15.1499 19.7756 15.4413 19.7745H18.7746V14.2247H16.5579V17.5579H15.4413V13.108H18.7746V10.8914H15.4413Z" fill="#FF7500"/>
</svg>
