<svg width="24" height="25" viewBox="0 0 24 25" fill="none" xmlns="http://www.w3.org/2000/svg">
<g id="icon/line/telephone">
<path id="Vector" d="M20.9994 17.2669V19.982C21.0005 20.2341 20.9488 20.4836 20.8479 20.7145C20.7469 20.9455 20.5988 21.1528 20.413 21.3232C20.2273 21.4936 20.008 21.6233 19.7693 21.7041C19.5305 21.7848 19.2775 21.8148 19.0265 21.7921C16.2415 21.4895 13.5664 20.5379 11.216 19.0137C9.02929 17.6241 7.17534 15.7702 5.7858 13.5834C4.25627 11.2224 3.30442 8.53421 3.00735 5.73674C2.98473 5.48647 3.01447 5.23423 3.09468 4.99608C3.17489 4.75793 3.30381 4.5391 3.47323 4.3535C3.64265 4.16791 3.84885 4.01962 4.07872 3.91809C4.30858 3.81655 4.55707 3.764 4.80837 3.76376H7.52347C7.96269 3.75944 8.3885 3.91497 8.72152 4.20138C9.05455 4.48778 9.27207 4.88551 9.33354 5.32043C9.44814 6.18932 9.66067 7.04247 9.96707 7.86358C10.0888 8.18752 10.1152 8.53957 10.043 8.87802C9.97082 9.21648 9.80313 9.52714 9.5598 9.77321L8.41041 10.9226C9.69877 13.1884 11.5748 15.0645 13.8406 16.3528L14.99 15.2034C15.2361 14.9601 15.5467 14.7924 15.8852 14.7202C16.2236 14.6481 16.5757 14.6744 16.8996 14.7962C17.7207 15.1026 18.5739 15.3151 19.4428 15.4297C19.8824 15.4917 20.2839 15.7132 20.5709 16.0519C20.858 16.3907 21.0105 16.8231 20.9994 17.2669Z" stroke="#363636" stroke-width="1.81007" stroke-linecap="round" stroke-linejoin="round"/>
</g>
</svg>
