<svg width="24" height="24" viewBox="0 0 24 24" fill="none" xmlns="http://www.w3.org/2000/svg">
<path d="M6.35187 6.93744H17.6487C18.664 6.93744 19.4898 6.11163 19.4898 5.09631C19.4898 4.77283 19.2275 4.51037 18.9039 4.51037C18.5804 4.51037 18.318 4.77283 18.318 5.09631C18.318 5.46542 18.0178 5.76556 17.6487 5.76556C16.2415 5.76556 15.0967 4.6207 15.0967 3.21353V2.58594C15.0967 2.2623 14.8344 2 14.5107 2H9.48999C9.16635 2 8.90405 2.2623 8.90405 2.58594V3.21353C8.90405 4.6207 7.75919 5.76556 6.35187 5.76556C5.98291 5.76556 5.68262 5.46542 5.68262 5.09631C5.68262 4.77267 5.42032 4.51037 5.09668 4.51037C4.77319 4.51037 4.51074 4.77267 4.51074 5.09631C4.51074 6.11163 5.3367 6.93744 6.35187 6.93744Z" fill="black"/>
<path d="M16.9375 13.5912H18.8622V17.7318H16.9375V13.5912Z" fill="black"/>
<path d="M5.1377 13.5912H7.06244V17.7318H5.1377V13.5912Z" fill="black"/>
<path d="M3.84113 12.4193H20.1589C21.174 12.4193 22 12.221 22 11.2058C22 10.8822 21.7375 9.99228 21.4141 9.99228C21.0904 9.99228 20.8281 10.2546 20.8281 10.5782C20.8281 10.9472 20.5278 11.2475 20.1587 11.2475C18.7516 11.2475 17.6067 10.1026 17.6067 8.69543C17.6067 8.3718 17.3444 8.1095 17.0208 8.1095H6.97925C6.65561 8.1095 6.39331 8.3718 6.39331 8.69543C6.39331 10.1026 5.24844 11.2475 3.84113 11.2475C3.47217 11.2475 3.17188 10.9472 3.17188 10.5782C3.17188 10.2546 2.90958 9.99228 2.58594 9.99228C2.2623 9.99228 2 10.2546 2 10.5782C2 11.5934 2.82596 12.4193 3.84113 12.4193Z" fill="black"/>
<path d="M20.4518 18.9037H3.54816C2.69305 18.9037 2 19.5967 2 20.4518V21.4141C2 21.7377 2.2623 22 2.58594 22H21.4141C21.7377 22 22 21.7377 22 21.4141V20.4518C22 19.5967 21.3069 18.9037 20.4518 18.9037Z" fill="black"/>
<path d="M15.7655 17.7318V13.5912H8.23438V17.7318H10.1588V16.3925C10.1588 15.3777 10.9848 14.552 11.9999 14.552C13.0151 14.552 13.8411 15.3777 13.8411 16.3925V17.7318H15.7655Z" fill="black"/>
<path d="M11.3311 16.3925V17.7318H12.6696V16.3925C12.6696 16.0239 12.3693 15.7239 12.0003 15.7239C11.6312 15.7239 11.3311 16.0239 11.3311 16.3925Z" fill="black"/>
</svg>
