<svg width="24" height="24" viewBox="0 0 24 24" fill="none" xmlns="http://www.w3.org/2000/svg">
<path d="M3.38304 9.62685C2.76668 10.0968 2 10.6819 2 11.5873C2 12.4926 2.76668 13.0777 3.38304 13.5477C3.63977 13.7201 3.87163 13.9269 4.07213 14.1623C4.05724 14.49 3.99137 14.8135 3.87685 15.1209C3.66158 15.8497 3.39351 16.7566 3.91018 17.4663C4.43059 18.1816 5.3813 18.2056 6.14509 18.2251C6.46638 18.2123 6.78783 18.2468 7.09905 18.3277C7.27015 18.5961 7.40081 18.8883 7.48683 19.1948C7.74195 19.9206 8.05933 20.8239 8.90953 21.1003C9.06017 21.1496 9.21766 21.1748 9.37621 21.1747C10.0161 21.1747 10.6004 20.7731 11.1277 20.411C11.3901 20.2015 11.6847 20.0358 12 19.9205C12.3155 20.0357 12.6102 20.2013 12.8726 20.4108C13.5255 20.8592 14.2658 21.3666 15.0908 21.1001C15.9408 20.8239 16.2582 19.921 16.5133 19.195C16.5992 18.89 16.7284 18.599 16.8971 18.3308C17.2093 18.2475 17.5323 18.2119 17.8551 18.2254C18.6189 18.2059 19.5696 18.1819 20.09 17.4666C20.6067 16.7565 20.3386 15.8495 20.1233 15.1207C20.0102 14.8149 19.9437 14.4938 19.9262 14.1682C20.1258 13.9294 20.3586 13.7205 20.6174 13.5477C21.2334 13.0777 22 12.4926 22 11.5873C22 10.6819 21.2333 10.0968 20.617 9.62682C20.3602 9.45446 20.1284 9.2477 19.9279 9.01229C19.9428 8.68454 20.0086 8.36109 20.1232 8.05365C20.3384 7.3249 20.6065 6.41795 20.0898 5.70829C19.5694 4.99296 18.6187 4.96898 17.8549 4.94943C17.5336 4.96226 17.2122 4.92771 16.901 4.84688C16.7298 4.57844 16.5992 4.28629 16.5132 3.9798C16.2583 3.254 15.9408 2.3507 15.0906 2.07438C14.2656 1.80627 13.5253 2.31566 12.8724 2.76367C12.6101 2.97313 12.3155 3.13872 12.0002 3.254C11.6847 3.13886 11.39 2.97326 11.1276 2.76367C10.4748 2.3153 9.7342 1.80745 8.9094 2.07438C8.0594 2.35066 7.74201 3.25354 7.48689 3.9795C7.40108 4.28448 7.27183 4.57553 7.10318 4.84373C6.79098 4.92702 6.46795 4.96258 6.14509 4.94913C5.38133 4.96862 4.43062 4.99267 3.91021 5.70797C3.39354 6.41805 3.66158 7.325 3.87688 8.05378C3.99006 8.35961 4.05652 8.68074 4.074 9.00635C3.87445 9.2451 3.64177 9.45404 3.38304 9.62685ZM4.39398 10.9518C4.91728 10.5527 5.45842 10.1401 5.65761 9.52647C5.8631 8.89315 5.65702 8.19631 5.47532 7.58149C5.3774 7.29528 5.31034 6.99941 5.27531 6.69896C5.57547 6.63824 5.88134 6.61032 6.18757 6.61563C6.85672 6.59897 7.54886 6.58106 8.08253 6.19285C8.61084 5.80792 8.83893 5.15974 9.05928 4.53232C9.14894 4.2362 9.2713 3.95096 9.42407 3.6819C9.69202 3.8077 9.94655 3.96031 10.1838 4.13736C10.718 4.50444 11.3237 4.92069 12 4.92069C12.6762 4.92069 13.2819 4.50486 13.8162 4.13736C14.0535 3.96021 14.3082 3.80751 14.5763 3.68164C14.7291 3.9508 14.8515 4.23616 14.941 4.53245C15.1614 5.15944 15.3893 5.80766 15.9178 6.19255C16.4515 6.58076 17.1434 6.59864 17.8126 6.61576C18.1189 6.61002 18.4249 6.63797 18.7251 6.69909C18.6899 6.99925 18.6228 7.29485 18.525 7.58084C18.3431 8.19605 18.137 8.89308 18.3426 9.52621C18.5419 10.1398 19.0829 10.5524 19.606 10.9516C19.8703 11.1324 20.1107 11.346 20.3213 11.5873C20.1105 11.8284 19.8702 12.0419 19.606 12.2229C19.0827 12.622 18.5415 13.0346 18.3423 13.6482C18.1368 14.2815 18.3429 14.9784 18.5246 15.5932C18.6225 15.8794 18.6896 16.1753 18.7246 16.4757C18.4245 16.5364 18.1186 16.5644 17.8124 16.559C17.1432 16.5757 16.4511 16.5936 15.9174 16.9818C15.3891 17.3668 15.161 18.0152 14.9407 18.6424C14.851 18.9385 14.7286 19.2237 14.5759 19.4928C14.3079 19.3669 14.0534 19.2143 13.8162 19.0372C13.2819 18.6701 12.6762 18.2539 12 18.2539C11.3237 18.2539 10.718 18.6697 10.1838 19.0372C9.94645 19.2143 9.69179 19.367 9.42371 19.4929C9.27087 19.2238 9.14851 18.9384 9.05892 18.6421C8.83857 18.0151 8.61071 17.3669 8.08217 16.982C7.5485 16.5938 6.85659 16.5759 6.18744 16.5588C5.88114 16.5645 5.57514 16.5366 5.27495 16.4755C5.31015 16.1753 5.3772 15.8797 5.47496 15.5937C5.65686 14.9785 5.86297 14.2815 5.65745 13.6483C5.45836 13.0346 4.91731 12.622 4.39424 12.2229C4.12984 12.0421 3.88941 11.8285 3.67871 11.5873C3.88951 11.3462 4.12984 11.1327 4.39405 10.9517V10.9518H4.39398Z" fill="black"/>
<path d="M10.9582 14.5039C11.1792 14.5042 11.3913 14.4164 11.5474 14.2598L15.714 10.0932C16.0436 9.77189 16.0503 9.24429 15.729 8.91477C15.4077 8.58522 14.8801 8.57853 14.5506 8.89982C14.5455 8.90474 14.5405 8.90972 14.5356 8.91477L10.9582 12.4923L9.46405 10.9981C9.14276 10.6686 8.61516 10.6619 8.28564 10.9832C7.95612 11.3045 7.94943 11.8321 8.27072 12.1616C8.27564 12.1666 8.28062 12.1716 8.28564 12.1765L10.369 14.2598C10.525 14.4164 10.7371 14.5042 10.9582 14.5039Z" fill="black"/>
</svg>
