<svg xmlns="http://www.w3.org/2000/svg" viewBox="0 0 780 500"><defs><style>.cls-1{fill:#0e4595;}.cls-2{fill:#fff;}.cls-3{fill:#f2ae14;}</style></defs><g id="Layer_2" data-name="Layer 2"><g id="Layer_1-2" data-name="Layer 1"><path class="cls-1" d="M40,0H740a40,40,0,0,1,40,40V460a40,40,0,0,1-40,40H40A40,40,0,0,1,0,460V40A40,40,0,0,1,40,0Z"/><path class="cls-2" d="M293.2,348.73,326.56,153h53.36L346.54,348.73ZM539.31,157.19A137.73,137.73,0,0,0,491.49,149c-52.73,0-89.87,26.55-90.18,64.6-.3,28.13,26.51,43.82,46.75,53.19,20.77,9.59,27.75,15.71,27.65,24.28-.13,13.12-16.58,19.12-31.92,19.12-21.36,0-32.7-3-50.22-10.28l-6.88-3.11-7.49,43.82c12.46,5.47,35.51,10.2,59.44,10.45,56.09,0,92.5-26.25,92.91-66.89.2-22.27-14-39.21-44.8-53.18-18.65-9.06-30.07-15.1-29.95-24.27,0-8.14,9.67-16.84,30.56-16.84a98.4,98.4,0,0,1,39.94,7.5l4.78,2.26ZM676.62,153H635.39c-12.78,0-22.33,3.48-27.94,16.23L528.2,348.6h56s9.16-24.12,11.24-29.42c6.12,0,60.55.09,68.33.09,1.6,6.85,6.49,29.33,6.49,29.33h49.52L676.62,153ZM611.2,279.38c4.41-11.28,21.26-54.73,21.26-54.73-.31.53,4.38-11.33,7.08-18.68l3.6,16.88s10.22,46.73,12.35,56.53ZM247.9,153l-52.24,133.5-5.56-27.13c-9.73-31.28-40-65.16-73.9-82.12L164,348.42l56.46-.06,84-195.39H247.9"/><path class="cls-3" d="M146.92,153h-86L60.2,157c66.94,16.21,111.23,55.37,129.62,102.41l-18.71-90c-3.23-12.39-12.6-16.09-24.19-16.52"/></g></g></svg>