<svg width="24" height="24" viewBox="0 0 24 24" fill="none" xmlns="http://www.w3.org/2000/svg">
<path d="M20.1246 5.36555C20.0222 4.04412 18.915 3 17.5678 3H5.56535C4.15081 3 3 4.15081 3 5.56535V17.4346C3 18.8492 4.15081 20 5.56535 20H19.4312C20.8457 20 21.9966 18.8492 21.9966 17.4346V7.83488C21.9965 6.66066 21.2032 5.6689 20.1246 5.36555ZM5.56535 4.19841H17.5679C18.22 4.19841 18.7666 4.65759 18.9022 5.26957H5.56535C5.0631 5.26957 4.59448 5.41521 4.19841 5.66568V5.56535C4.19841 4.81162 4.81162 4.19841 5.56535 4.19841ZM19.4312 18.8016H5.56535C4.81162 18.8016 4.19841 18.1884 4.19841 17.4346V7.83488C4.19841 7.08116 4.81162 6.46794 5.56535 6.46794H19.4312C20.1849 6.46794 20.7981 7.08116 20.7981 7.83488V9.92604H16.9772C15.4631 9.92604 14.2313 11.1579 14.2313 12.672C14.2313 14.1861 15.4632 15.418 16.9772 15.418H20.7981V17.4346C20.7981 18.1884 20.1849 18.8016 19.4312 18.8016ZM20.7981 14.2196H16.9772C16.1239 14.2196 15.4297 13.5254 15.4297 12.672C15.4297 11.8187 16.1239 11.1244 16.9772 11.1244H20.7981V14.2196Z" fill="black"/>
<path d="M17.1997 13.3413C17.5442 13.3413 17.8235 13.062 17.8235 12.7175C17.8235 12.3729 17.5442 12.0936 17.1997 12.0936C16.8551 12.0936 16.5758 12.3729 16.5758 12.7175C16.5758 13.062 16.8551 13.3413 17.1997 13.3413Z" fill="black"/>
</svg>
