<svg width="24" height="24" viewBox="0 0 24 24" fill="none" xmlns="http://www.w3.org/2000/svg">
<path d="M18.9933 4.00228H17.5391C17.4216 3.63595 17.236 3.29515 16.9919 2.99782C16.7093 2.67828 16.3617 2.42273 15.9724 2.24823C15.5837 2.08318 15.1654 1.99902 14.7431 2.00086H9.26357C8.82757 1.99026 8.39473 2.07734 7.99675 2.25573C7.60479 2.42931 7.2546 2.68492 6.96981 3.00532C6.71662 3.30006 6.52314 3.6412 6.40012 4.00977H4.99838C4.20316 4.00977 3.44051 4.32567 2.8782 4.88798C2.3159 5.45028 2 6.21293 2 7.00814L2 19.0016C2 19.7968 2.3159 20.5595 2.8782 21.1218C3.44051 21.6841 4.20316 22 4.99838 22H18.9933C19.7885 22 20.5512 21.6841 21.1135 21.1218C21.6758 20.5595 21.9917 19.7968 21.9917 19.0016V7.00814C21.9917 6.21293 21.6758 5.45028 21.1135 4.88798C20.5512 4.32567 19.7885 4.00977 18.9933 4.00977V4.00228ZM8.49898 4.33959C8.59235 4.23387 8.7074 4.1495 8.8363 4.09223C8.96573 4.03317 9.1063 4.0025 9.24857 4.00228H14.7431C14.8854 4.00179 15.0262 4.03249 15.1554 4.09223C15.2854 4.14752 15.4009 4.23219 15.4927 4.33959C15.5863 4.44406 15.6577 4.56647 15.7026 4.6994C15.7474 4.83451 15.7627 4.97764 15.7476 5.11917L15.2453 9.1145C15.2165 9.35778 15.0991 9.58193 14.9155 9.74416C14.7311 9.90677 14.4942 9.99729 14.2484 9.99902H12.5843L13.7237 7.60032C13.8174 7.35925 13.8174 7.09181 13.7237 6.85073C13.6268 6.61948 13.447 6.43281 13.2195 6.3274C12.992 6.22198 12.7334 6.20545 12.4943 6.28104C12.2541 6.35721 12.051 6.52026 11.9246 6.73829L10.3655 9.99902H9.76579C9.5197 9.99866 9.28231 9.90797 9.09866 9.74416C8.90438 9.58759 8.77815 9.36198 8.74635 9.1145L8.26661 5.11917C8.25146 4.97764 8.2668 4.83451 8.31158 4.6994C8.35361 4.56683 8.4225 4.44435 8.51397 4.33959H8.49898ZM19.9903 18.9941C19.9903 19.2585 19.8852 19.5121 19.6983 19.6991C19.5113 19.8861 19.2577 19.9911 18.9933 19.9911H4.99838C4.73397 19.9911 4.48039 19.8861 4.29342 19.6991C4.10645 19.5121 4.00142 19.2585 4.00142 18.9941V7.00065C4.00043 6.8691 4.02548 6.73865 4.07514 6.61683C4.1248 6.495 4.19808 6.38421 4.29076 6.29084C4.38343 6.19747 4.49367 6.12336 4.61512 6.07279C4.73656 6.02222 4.86682 5.99619 4.99838 5.99619H6.37013L6.78991 9.36936C6.88168 10.098 7.23766 10.7676 7.79033 11.2512C8.343 11.7347 9.05393 11.9987 9.78828 11.9929H14.2409C14.9752 11.9987 15.6861 11.7347 16.2388 11.2512C16.7915 10.7676 17.1475 10.098 17.2392 9.36936L17.6215 5.99619H18.9933C19.1249 5.99619 19.2551 6.02222 19.3766 6.07279C19.498 6.12336 19.6082 6.19747 19.7009 6.29084C19.7936 6.38421 19.8669 6.495 19.9165 6.61683C19.9662 6.73865 19.9912 6.8691 19.9903 7.00065V18.9941ZM13.9935 15.9958H9.99817C9.73376 15.9958 9.48018 16.1008 9.29321 16.2878C9.10625 16.4747 9.00121 16.7283 9.00121 16.9927C9.00121 17.2571 9.10625 17.5107 9.29321 17.6977C9.48018 17.8846 9.73376 17.9897 9.99817 17.9897H13.9935C14.2579 17.9897 14.5115 17.8846 14.6985 17.6977C14.8854 17.5107 14.9905 17.2571 14.9905 16.9927C14.9905 16.7283 14.8854 16.4747 14.6985 16.2878C14.5115 16.1008 14.2579 15.9958 13.9935 15.9958Z" fill="#FF7500"/>
</svg>
