<svg xmlns="http://www.w3.org/2000/svg" viewBox="0 0 19.99 20"><defs><style>.cls-1{fill:#020c1f;}</style></defs><g id="Layer_2" data-name="Layer 2"><g id="Layer_1-2" data-name="Layer 1"><path class="cls-1" d="M17,2H15.54A3.07,3.07,0,0,0,15,1a2.91,2.91,0,0,0-1-.75A3,3,0,0,0,12.74,0H7.26A2.88,2.88,0,0,0,6,.26,2.74,2.74,0,0,0,5,1,2.92,2.92,0,0,0,4.4,2H3A3,3,0,0,0,0,5V17a3,3,0,0,0,3,3H17a3,3,0,0,0,2.12-.88A3,3,0,0,0,20,17V5a3,3,0,0,0-.88-2.12A3,3,0,0,0,17,2ZM6.5,2.34a.94.94,0,0,1,.34-.25A1,1,0,0,1,7.25,2h5.49a1,1,0,0,1,.42.09.9.9,0,0,1,.33.25.88.88,0,0,1,.21.36,1,1,0,0,1,.05.42l-.5,4a1,1,0,0,1-1,.89H10.58l1.14-2.4a1,1,0,0,0,0-.75.94.94,0,0,0-.5-.52,1,1,0,0,0-.73,0,1,1,0,0,0-.57.46L8.37,8h-.6a1,1,0,0,1-.67-.26.92.92,0,0,1-.35-.63l-.48-4a1,1,0,0,1,.24-.78ZM18,17a1,1,0,0,1-1,1H3a1,1,0,0,1-.71-.29A1,1,0,0,1,2,17V5a1,1,0,0,1,.08-.38.89.89,0,0,1,.21-.33,1,1,0,0,1,.33-.22A1,1,0,0,1,3,4H4.37l.42,3.37a3,3,0,0,0,3,2.62h4.45a3,3,0,0,0,3-2.62L15.62,4H17a1,1,0,0,1,.39.07,1,1,0,0,1,.32.22,1.06,1.06,0,0,1,.22.33A1,1,0,0,1,18,5Zm-6-3H8a1,1,0,0,0-.71.29A1,1,0,0,0,7,15a1,1,0,0,0,1,1h4a1,1,0,0,0,.71-.29A1,1,0,0,0,13,15a1,1,0,0,0-.29-.7A1,1,0,0,0,12,14Z"/></g></g></svg>