<svg width="24" height="24" viewBox="0 0 24 24" fill="none" xmlns="http://www.w3.org/2000/svg">
<path d="M10.0444 16.6995C10.2004 16.6563 10.2919 16.4949 10.2487 16.3389C10.0884 15.759 9.57566 15.6688 9.32661 15.7017C9.16622 15.7231 9.05349 15.8705 9.07487 16.0309C9.09628 16.1913 9.24366 16.3041 9.40409 16.2827C9.43961 16.2777 9.62044 16.2658 9.68386 16.4951C9.71976 16.625 9.83769 16.7101 9.96616 16.7101C9.99199 16.7102 10.0183 16.7067 10.0444 16.6995Z" fill="black"/>
<path d="M13.8859 16.6995C13.7299 16.6563 13.6384 16.4949 13.6816 16.3389C13.8419 15.759 14.3547 15.6688 14.6037 15.7017C14.7641 15.7231 14.8768 15.8705 14.8555 16.0309C14.834 16.1913 14.6867 16.3041 14.5262 16.2827C14.4907 16.2777 14.3099 16.2658 14.2465 16.4951C14.2106 16.625 14.0926 16.7101 13.9642 16.7101C13.9383 16.7102 13.912 16.7067 13.8859 16.6995Z" fill="black"/>
<path d="M16.3696 18.4434C16.0963 18.4434 15.874 18.6656 15.874 18.939V19.5007C15.874 19.7739 16.0963 19.9963 16.3696 19.9963H17.3531C17.6264 19.9963 17.8487 19.774 17.8487 19.5007V18.939C17.8487 18.6657 17.6264 18.4434 17.3531 18.4434H16.3696ZM17.2626 19.4102H16.4601V19.0294H17.2626V19.4102Z" fill="black"/>
<path d="M6.51961 18.8595H7.45083C7.61271 18.8595 7.74388 18.7284 7.74388 18.5665C7.74388 18.4046 7.61271 18.2734 7.45083 18.2734H6.51961C6.35773 18.2734 6.22656 18.4046 6.22656 18.5665C6.22656 18.7284 6.35773 18.8595 6.51961 18.8595Z" fill="black"/>
<path d="M6.51961 19.8366H7.17732C7.3392 19.8366 7.47037 19.7054 7.47037 19.5435C7.47037 19.3817 7.3392 19.2505 7.17732 19.2505H6.51961C6.35773 19.2505 6.22656 19.3817 6.22656 19.5435C6.22656 19.7054 6.35773 19.8366 6.51961 19.8366Z" fill="black"/>
<path d="M5.46541 13.6412C5.30353 13.6412 5.17236 13.7724 5.17236 13.9342V20.5346C5.17236 20.6965 5.30353 20.8277 5.46541 20.8277H18.4651C18.627 20.8277 18.7582 20.6965 18.7582 20.5346V7.52254C18.7582 7.36066 18.627 7.22949 18.4651 7.22949H5.46541C5.30353 7.22949 5.17236 7.36066 5.17236 7.52254V12.7625C5.17236 12.9244 5.30353 13.0556 5.46541 13.0556C5.62729 13.0556 5.75846 12.9244 5.75846 12.7625V7.81558H18.1721V20.2415H14.709C14.7052 20.2173 14.7016 20.1935 14.6983 20.1699C14.6009 19.4823 14.935 18.8007 15.5502 18.4332L15.5682 18.4224C16.1417 18.0739 16.5174 17.4622 16.5733 16.786C16.5866 16.6247 16.4667 16.4831 16.3054 16.4698C16.1447 16.4561 16.0025 16.5764 15.9892 16.7377C15.9487 17.2276 15.6776 17.6701 15.264 17.9214L15.2491 17.9303C14.4345 18.417 13.9908 19.3233 14.1165 20.2415H13.055C13.0288 19.199 12.9645 16.6504 12.9391 15.6406L13.6331 15.2018C13.8182 15.0848 14.0158 15.0103 14.22 14.9805L14.2395 14.9777C14.8615 14.8913 15.4667 15.1935 15.7815 15.7475C15.8355 15.8425 15.9346 15.8958 16.0366 15.8958C16.0857 15.8958 16.1354 15.8835 16.1811 15.8576C16.3218 15.7776 16.371 15.5987 16.2911 15.458C15.8571 14.694 15.02 14.2777 14.1586 14.3972L14.1355 14.4005C13.8493 14.4423 13.5749 14.5452 13.3199 14.7064L12.9218 14.9581C12.9145 14.6675 12.8698 12.8928 12.8631 12.628C13.4307 12.7115 13.9582 12.9758 14.3687 13.3864L14.8377 13.8553C14.8949 13.9125 14.9699 13.9411 15.0449 13.9411C15.1199 13.9411 15.1949 13.9125 15.2522 13.8553C15.3666 13.7409 15.3666 13.5553 15.2521 13.4409L14.7832 12.972C14.259 12.4478 13.578 12.1193 12.8482 12.035C12.8438 11.8619 12.8296 11.2949 12.8249 11.1126C13.1377 11.0961 13.4459 11.096 13.7437 11.1126C14.402 11.1493 15.0225 11.4273 15.4907 11.8955L15.9596 12.3645C16.0169 12.4217 16.0919 12.4503 16.1669 12.4503C16.2419 12.4503 16.3169 12.4217 16.3741 12.3645C16.4886 12.25 16.4886 12.0645 16.3741 11.95L15.9051 11.4811C15.3348 10.9108 14.5788 10.5721 13.7762 10.5275C13.4625 10.51 13.1386 10.5098 12.8102 10.5266C12.8074 10.4171 12.7882 9.65262 12.7862 9.57459C13.4961 9.4562 14.1799 9.41435 14.8219 9.44991C15.4803 9.48656 16.1007 9.76456 16.5689 10.2328L17.0379 10.7018C17.0951 10.759 17.1702 10.7876 17.2451 10.7876C17.3201 10.7876 17.3951 10.759 17.4524 10.7018C17.5668 10.5873 17.5668 10.4018 17.4524 10.2873L16.9834 9.81833C16.4131 9.24802 15.657 8.90938 14.8545 8.86476C14.1941 8.82811 13.4945 8.86792 12.7709 8.98323C12.747 8.55448 12.3979 8.22229 11.9653 8.22229C11.5328 8.22229 11.1837 8.55444 11.1597 8.98323C10.4361 8.86792 9.73659 8.82807 9.07625 8.86476C8.2737 8.90942 7.51764 9.24806 6.94733 9.81833L6.47834 10.2873C6.36389 10.4018 6.36389 10.5873 6.47834 10.7018C6.53558 10.759 6.6106 10.7876 6.68558 10.7876C6.76056 10.7876 6.83558 10.759 6.89282 10.7018L7.36181 10.2328C7.82998 9.76456 8.45042 9.48652 9.1088 9.44991C9.75065 9.41431 10.4346 9.45616 11.1445 9.57455L11.1205 10.5265C10.7921 10.5097 10.4681 10.5099 10.1545 10.5275C9.35195 10.5721 8.59585 10.9108 8.02551 11.4811L7.55655 11.95C7.44211 12.0645 7.44211 12.25 7.55659 12.3645C7.61379 12.4217 7.68881 12.4503 7.7638 12.4503C7.83878 12.4503 7.9138 12.4217 7.97104 12.3644L8.43995 11.8955C8.9082 11.4273 9.52868 11.1492 10.187 11.1126C10.4848 11.096 10.7929 11.0961 11.1057 11.1126C11.1009 11.3024 11.0868 11.8618 11.0825 12.035C10.3526 12.1193 9.67165 12.4478 9.14756 12.972L8.67857 13.4409C8.56409 13.5553 8.56409 13.7409 8.67853 13.8553C8.73577 13.9125 8.81075 13.9411 8.88577 13.9411C8.96075 13.9411 9.03577 13.9125 9.09298 13.8553L9.56201 13.3864C9.97251 12.9758 10.5 12.7115 11.0675 12.628C11.0674 12.6326 11.0052 15.1031 11.0088 14.9581L10.6108 14.7064C10.3557 14.5452 10.0813 14.4423 9.79203 14.4001L9.77179 14.3972C9.21371 14.3197 8.65739 14.4664 8.20559 14.8102C7.74781 15.1587 7.45422 15.6642 7.37881 16.2339C7.37017 16.2993 7.36306 16.3649 7.35763 16.4289C7.28992 17.2279 7.68428 18.0104 8.36181 18.422L8.38091 18.4335C8.99557 18.8006 9.32976 19.4823 9.23235 20.17C9.22903 20.1935 9.22543 20.2174 9.22164 20.2415H5.75846V13.9342C5.75846 13.7724 5.62729 13.6412 5.46541 13.6412ZM12.3919 17.1932C12.1062 17.2921 11.8244 17.2921 11.5386 17.1932L11.5604 16.3286C11.6952 16.3621 11.8302 16.3788 11.9653 16.3788C12.1003 16.3788 12.2353 16.3621 12.3701 16.3286L12.3919 17.1932ZM11.5234 17.7997C11.6705 17.8361 11.8179 17.8543 11.9653 17.8543C12.1126 17.8543 12.2601 17.8361 12.4072 17.7997L12.429 18.6657C12.1183 18.7695 11.8122 18.7695 11.5016 18.6657L11.5234 17.7997ZM11.6346 13.3854C11.7444 13.4118 11.8548 13.425 11.9652 13.425C12.0756 13.425 12.1861 13.4118 12.2959 13.3854L12.3177 14.2496C12.0801 14.3392 11.8505 14.3392 11.6128 14.2496L11.6346 13.3854ZM12.2435 11.3065C12.0562 11.3826 11.8744 11.3826 11.687 11.3065L11.7087 10.4451C11.794 10.4648 11.8797 10.4747 11.9653 10.4747C12.0509 10.4747 12.1365 10.4648 12.2218 10.4451L12.2435 11.3065ZM11.9653 11.9497C12.0633 11.9497 12.1613 11.9382 12.2589 11.9152L12.2806 12.7779C12.0681 12.8611 11.8624 12.8611 11.6499 12.7779L11.6716 11.9152C11.7692 11.9382 11.8673 11.9497 11.9653 11.9497ZM11.9653 14.9034C12.088 14.9034 12.2106 14.8882 12.333 14.8578C12.3384 15.0719 12.3494 15.5093 12.3548 15.721C12.0939 15.8145 11.8366 15.8145 11.5757 15.721C11.5811 15.508 11.5922 15.0698 11.5975 14.8578C11.72 14.8882 11.8427 14.9034 11.9653 14.9034ZM11.4618 20.2415L11.4863 19.2712C11.6457 19.3104 11.8055 19.33 11.9653 19.33C12.125 19.33 12.2848 19.3103 12.4443 19.2711L12.4687 20.2415H11.4618ZM11.9653 8.80834C12.086 8.80834 12.183 8.90289 12.186 9.02359L12.2065 9.83536C12.0432 9.90589 11.8874 9.90589 11.7241 9.83532L11.7445 9.02363C11.7476 8.90289 11.8445 8.80834 11.9653 8.80834ZM8.68111 17.9302L8.66669 17.9214C8.17707 17.624 7.89242 17.0576 7.94154 16.4783C7.94615 16.4234 7.95228 16.3669 7.95975 16.3107C8.01449 15.897 8.22783 15.5298 8.56045 15.2765C8.88706 15.028 9.28858 14.9218 9.69083 14.9777L9.71041 14.9805C9.91476 15.0103 10.1123 15.0848 10.2975 15.2018L10.9915 15.6406C10.9739 16.3372 10.8875 19.7652 10.8755 20.2415H9.81399C9.93969 19.3233 9.49601 18.417 8.68111 17.9302Z" fill="black"/>
<path d="M19.6371 9.26007C19.799 9.26007 19.9302 9.1289 19.9302 8.96702V6.81291C19.9302 6.39636 19.5913 6.05748 19.1747 6.05748H18.0463L18.0188 5.90725C17.8615 5.04918 17.146 4.38365 16.2789 4.28886L15.0828 4.15801C14.5058 4.09491 14.0211 3.6748 13.8768 3.11262L13.6476 2.22016C13.6073 2.0634 13.4476 1.96916 13.2908 2.00921C13.134 2.0495 13.0396 2.20918 13.0799 2.36594L13.3091 3.25844C13.5138 4.05548 14.201 4.65118 15.0191 4.74062L16.2152 4.87151C16.8268 4.93837 17.3314 5.40775 17.4424 6.01294L17.4505 6.05752H6.47968L6.48785 6.01298C6.59878 5.40775 7.1034 4.93837 7.71501 4.87147L8.91107 4.74062C9.72918 4.65118 10.4164 4.05552 10.6211 3.2584L10.8503 2.36594C10.8906 2.20918 10.7961 2.0495 10.6394 2.00921C10.4827 1.9692 10.3229 2.0634 10.2826 2.22016L10.0534 3.11258C9.90907 3.6748 9.42437 4.09491 8.84738 4.15801L7.65132 4.28882C6.78418 4.38365 6.06868 5.04918 5.91141 5.90729L5.8839 6.05748H4.75547C4.33892 6.05748 4 6.39636 4 6.81291V21.2445C4 21.6611 4.33892 22 4.75547 22H19.1747C19.5913 22 19.9302 21.6611 19.9302 21.2445V10.1387C19.9302 9.97682 19.799 9.84565 19.6371 9.84565C19.4752 9.84565 19.3441 9.97682 19.3441 10.1387V21.2445C19.3441 21.3379 19.2681 21.4139 19.1747 21.4139H4.75547C4.66205 21.4139 4.58609 21.3379 4.58609 21.2445V6.81291C4.58609 6.71953 4.66205 6.64357 4.75547 6.64357H19.1747C19.2681 6.64357 19.3441 6.71953 19.3441 6.81291V8.96702C19.3441 9.12886 19.4753 9.26007 19.6371 9.26007Z" fill="black"/>
</svg>
