<svg width="24" height="24" viewBox="0 0 24 24" fill="none" xmlns="http://www.w3.org/2000/svg">
<path d="M12 7.85938C13.618 7.85938 14.9297 6.54771 14.9297 4.92969C14.9297 3.31167 13.618 2 12 2C10.382 2 9.07031 3.31167 9.07031 4.92969C9.07031 6.54771 10.382 7.85938 12 7.85938Z" fill="black"/>
<path d="M20.789 19.6562C20.789 18.3647 19.7413 17.3136 18.4155 17.3136C18.4143 17.3136 18.4138 17.3136 18.4126 17.3136C17.473 17.3748 12.3987 19.865 10.5076 20.9002L8.49805 22H18.4452C19.7379 22 20.789 20.9488 20.789 19.6562Z" fill="black"/>
<path d="M20.5693 15.0969C18.7891 13.6733 18.2554 12.057 17.8594 10.034C17.8594 8.83301 16.8858 7.85938 15.6848 7.85938H8.31523C7.11426 7.85938 6.14062 8.83297 6.14062 10.034C5.75652 11.9962 5.26207 13.6324 3.43063 15.097L2 16.1406H3.79688C5.7252 16.1406 7.64094 15.2165 8.87691 13.7791L9.53129 17.6202C10.3943 18.0213 11.2557 18.4432 11.9981 18.8157C12.7428 18.4411 13.6065 18.0165 14.4688 17.6135L15.1883 13.5468C16.43 15.1764 18.2485 16.1406 20.2031 16.1406H22L20.5693 15.0969Z" fill="black"/>
<path d="M5.5873 17.3136C5.58617 17.3136 5.58559 17.3136 5.58445 17.3136C4.25863 17.3136 3.21094 18.3647 3.21094 19.6562C3.21094 20.9488 4.26207 22 5.55469 22H5.86711C5.98879 21.9365 10.8292 19.4102 10.7075 19.4736C8.59816 18.4392 6.20379 17.3538 5.5873 17.3136Z" fill="black"/>
</svg>
