<svg width="32" height="32" viewBox="0 0 32 32" fill="none" xmlns="http://www.w3.org/2000/svg">
<rect width="32" height="32" rx="16" fill="white"/>
<g clip-path="url(#clip0_870_42153)">
<path d="M8.95066 24.1929C8.8646 24.1526 8.80245 24.1072 8.90285 24.0165C8.965 23.9662 9.03194 23.9208 9.09887 23.8755C9.72517 23.4471 10.3132 22.9785 10.7005 22.2882C11.0256 21.7137 10.973 21.3761 10.5666 20.9529C8.30045 18.5644 7.30602 15.7073 7.80323 12.3312C8.08531 10.4265 8.91241 8.7788 10.1172 7.34774C10.8439 6.48104 11.7093 5.78063 12.6559 5.19611C12.7133 5.16084 12.7945 5.15076 12.8041 5.06006C12.785 5.00967 12.7515 5.02479 12.7228 5.02479C11.1116 5.02479 9.50047 4.98952 7.89407 5.03487C6.35461 5.08525 5.02551 6.33995 5.03029 8.13885C5.03985 13.3945 5.03029 18.6501 5.03029 23.9107C5.03029 25.5433 6.21118 26.9089 7.75542 26.9694C9.06062 27.0248 10.3658 26.9794 11.6758 26.9744C11.7714 26.9794 11.867 26.9845 11.9627 26.9845H18.8663C20.5875 26.9845 22.3086 26.9946 24.0298 26.9845C25.6266 26.9845 26.9222 25.624 26.9222 23.946V23.9158V20.968C26.9222 20.8974 26.9461 20.8219 26.9031 20.7463C26.817 20.7513 26.7836 20.8269 26.7358 20.8773C25.8083 21.8599 24.7134 22.651 23.5134 23.2103C20.5731 24.5759 17.5803 24.6716 14.5444 23.5731C14.2814 23.4723 13.9946 23.4623 13.722 23.5328C13.3204 23.6386 12.9236 23.7646 12.5268 23.8906C11.3603 24.2735 10.1698 24.4449 8.95066 24.1929ZM12.4168 15.7023C12.4981 15.5914 12.5411 15.5259 12.589 15.4604C13.2153 14.624 13.8416 13.7875 14.4679 12.946C14.6495 12.7041 14.8312 12.4572 14.946 12.165C15.0798 11.8324 14.9364 11.52 14.6113 11.399C14.4679 11.3537 14.3149 11.3335 14.1619 11.3436C13.3109 11.3386 12.4551 11.3386 11.6041 11.3436C11.4846 11.3436 11.365 11.3587 11.2503 11.389C10.9826 11.4595 10.82 11.7467 10.8869 12.0339C10.9348 12.2254 11.0782 12.3766 11.2599 12.4219C11.3746 12.4522 11.4941 12.4673 11.6136 12.4623C12.13 12.4673 12.6511 12.4623 13.1675 12.4673C13.2248 12.4673 13.2965 12.427 13.3396 12.5177C13.2965 12.5782 13.2535 12.6386 13.2105 12.694C12.4694 13.6817 11.7332 14.6744 10.9921 15.662C10.8104 15.9089 10.7148 16.181 10.8487 16.4833C10.9826 16.7857 11.2551 16.8411 11.5324 16.8612C11.7523 16.8764 11.977 16.8663 12.2017 16.8663C12.9762 16.8663 13.7459 16.8713 14.5205 16.8612C14.9316 16.8562 15.1515 16.5942 15.1085 16.1911C15.075 15.8736 14.8695 15.7073 14.487 15.7023C13.8129 15.6973 13.1388 15.7023 12.4168 15.7023ZM17.9627 13.0518C17.3651 12.5026 16.7054 12.4673 16.0599 12.8704C15.2758 13.3541 14.989 14.1453 15.0846 15.0623C15.1754 15.919 15.5292 16.6194 16.3802 16.9066C16.9109 17.088 17.4034 17.0225 17.8384 16.6496C17.9532 16.5539 17.9866 16.574 18.0679 16.6798C18.2257 16.8915 18.4982 16.9721 18.7373 16.8764C18.9763 16.8008 19.1341 16.569 19.1341 16.307C19.1389 15.2992 19.1436 14.2914 19.1341 13.2836C19.1293 12.8805 18.7707 12.6235 18.3978 12.7041C18.1922 12.7495 18.0775 12.8956 17.9627 13.0518ZM21.2759 14.9213C21.2568 16.181 22.2465 17.1334 23.4895 17.0023C24.6322 16.8814 25.3732 15.9794 25.335 14.7046C25.2967 13.4449 24.4075 12.5832 23.1883 12.6235C22.0457 12.6588 21.2377 13.6263 21.2759 14.9213ZM20.8552 13.9185C20.8552 13.1274 20.86 12.3413 20.8552 11.5502C20.8552 11.1471 20.6114 10.8951 20.248 10.9002C19.8942 10.9052 19.66 11.1572 19.6552 11.5452C19.6504 11.782 19.6552 12.0138 19.6552 12.2506V16.2566C19.6552 16.569 19.8369 16.8411 20.0759 16.9066C20.4058 17.0023 20.7452 16.7957 20.8313 16.4481C20.8456 16.3876 20.8552 16.3271 20.8504 16.2616C20.86 15.4806 20.8552 14.6995 20.8552 13.9185Z" fill="#FDFEFE"/>
<path d="M11.6709 26.9791C10.3657 26.9791 9.05573 27.0245 7.75053 26.9741C6.20628 26.9086 5.02539 25.543 5.02539 23.9155C5.02539 18.6598 5.03495 13.4042 5.02539 8.14358C5.02539 6.34468 6.35927 5.08998 7.89396 5.04463C9.50035 4.99928 11.1115 5.03455 12.7227 5.03455C12.7514 5.03455 12.7896 5.01944 12.804 5.06983C12.7944 5.16053 12.7084 5.1706 12.6558 5.20588C11.7092 5.79039 10.8438 6.49081 10.1171 7.3575C8.91708 8.78856 8.08519 10.4313 7.80312 12.341C7.3059 15.7121 8.30512 18.5742 10.5665 20.9626C10.9681 21.3909 11.0207 21.7235 10.7004 22.298C10.3131 22.9883 9.72506 23.4569 9.09875 23.8852C9.03182 23.9255 8.96489 23.9759 8.89795 24.0213C8.79756 24.112 8.85971 24.1573 8.94576 24.1976C8.96489 24.243 8.98879 24.2833 9.01748 24.3236C9.56729 24.8376 10.0884 25.3868 10.6287 25.9109C10.882 26.1578 11.1354 26.4148 11.3793 26.6717C11.4797 26.7675 11.647 26.7977 11.6709 26.9791Z" fill="#0180C7"/>
<path d="M11.6709 26.9789C11.647 26.8026 11.4797 26.7724 11.3793 26.6665C11.1355 26.4045 10.8821 26.1526 10.6287 25.9057C10.0884 25.3816 9.56732 24.8324 9.01751 24.3184C8.98883 24.2781 8.96492 24.2378 8.9458 24.1924C10.1649 24.4444 11.3554 24.273 12.5267 23.8951C12.9235 23.7691 13.3204 23.6432 13.722 23.5374C13.9945 23.4618 14.2813 23.4769 14.5443 23.5777C17.5754 24.6762 20.5683 24.5754 23.5133 23.2149C24.7134 22.6555 25.8082 21.8695 26.7357 20.8869C26.7835 20.8365 26.817 20.7609 26.903 20.7559C26.9461 20.8264 26.9221 20.902 26.9221 20.9776V23.9254C26.9317 25.6084 25.6504 26.9789 24.0536 26.9941H24.0297C22.3085 27.0041 20.5874 26.9941 18.8663 26.9941H11.9578C11.8622 26.984 11.7666 26.9789 11.6709 26.9789Z" fill="#0172B1"/>
<path d="M12.4166 15.7031C13.1385 15.7031 13.8174 15.6981 14.4916 15.7031C14.8692 15.7082 15.0748 15.8744 15.1131 16.1919C15.1561 16.59 14.9362 16.857 14.525 16.8621C13.7505 16.8722 12.9808 16.8671 12.2063 16.8671C11.9816 16.8671 11.7616 16.8772 11.5369 16.8621C11.2596 16.847 10.9871 16.7865 10.8533 16.4842C10.7194 16.1818 10.815 15.9097 10.9967 15.6628C11.7329 14.6752 12.474 13.6825 13.215 12.6949C13.2581 12.6344 13.3011 12.5739 13.3441 12.5185C13.2963 12.4329 13.2294 12.4732 13.172 12.4681C12.6557 12.4631 12.1345 12.4681 11.6182 12.4631C11.4987 12.4631 11.3792 12.448 11.2644 12.4228C10.9919 12.3573 10.8246 12.0701 10.8867 11.7879C10.9297 11.5964 11.0732 11.4402 11.2549 11.3948C11.3696 11.3646 11.4891 11.3495 11.6086 11.3495C12.4596 11.3444 13.3154 11.3444 14.1664 11.3495C14.3194 11.3444 14.4676 11.3646 14.6159 11.4049C14.941 11.5208 15.0796 11.8383 14.9505 12.1708C14.8358 12.458 14.6541 12.705 14.4724 12.9519C13.8461 13.7934 13.2198 14.6298 12.5935 15.4613C12.5409 15.5268 12.4931 15.5923 12.4166 15.7031Z" fill="#0180C7"/>
<path d="M17.9625 13.0529C18.0773 12.8967 18.1968 12.7506 18.3928 12.7103C18.7705 12.6296 19.1243 12.8866 19.1291 13.2897C19.1434 14.2975 19.1386 15.3053 19.1291 16.3131C19.1291 16.5751 18.9665 16.8069 18.7323 16.8825C18.4932 16.9782 18.2207 16.9027 18.0629 16.686C17.9817 16.5802 17.9482 16.56 17.8334 16.6558C17.3984 17.0286 16.9059 17.0941 16.3753 16.9127C15.5243 16.6205 15.1752 15.9201 15.0796 15.0685C14.9792 14.1464 15.2709 13.3603 16.0549 12.8765C16.7051 12.4684 17.3649 12.5037 17.9625 13.0529ZM16.2701 14.8921C16.2796 15.1138 16.3466 15.3255 16.4709 15.5018C16.7291 15.8646 17.2215 15.9402 17.5705 15.6681C17.6279 15.6228 17.6805 15.5673 17.7283 15.5018C17.996 15.1189 17.996 14.489 17.7283 14.106C17.5944 13.9095 17.384 13.7936 17.1593 13.7886C16.6334 13.7533 16.2653 14.1816 16.2701 14.8921ZM21.2757 14.9224C21.2375 13.6273 22.0455 12.6599 23.1929 12.6246C24.412 12.5843 25.3013 13.4459 25.3395 14.7057C25.3778 15.9805 24.6367 16.8825 23.4941 17.0034C22.2463 17.1344 21.2566 16.1821 21.2757 14.9224ZM22.4757 14.8014C22.4662 15.0534 22.5379 15.3003 22.6813 15.5069C22.9443 15.8697 23.4367 15.9402 23.7809 15.658C23.8335 15.6177 23.8766 15.5673 23.9196 15.517C24.1969 15.134 24.1969 14.489 23.9244 14.106C23.7905 13.9146 23.5801 13.7936 23.3554 13.7886C22.8391 13.7584 22.4757 14.1716 22.4757 14.8014ZM20.855 13.9196C20.855 14.7006 20.8598 15.4817 20.855 16.2627C20.8598 16.6205 20.5921 16.9178 20.2526 16.9279C20.1952 16.9279 20.1331 16.9228 20.0757 16.9077C19.8367 16.8422 19.655 16.5751 19.655 16.2577V12.2517C19.655 12.0149 19.6502 11.7831 19.655 11.5463C19.6598 11.1583 19.894 10.9063 20.2478 10.9063C20.6112 10.9013 20.855 11.1532 20.855 11.5563C20.8598 12.3424 20.855 13.1335 20.855 13.9196Z" fill="#0180C7"/>
<path d="M16.2701 14.8913C16.2653 14.1808 16.6334 13.7525 17.1545 13.7828C17.3792 13.7928 17.5896 13.9087 17.7235 14.1052C17.9912 14.4832 17.9912 15.1181 17.7235 15.501C17.4653 15.8638 16.9729 15.9394 16.6239 15.6673C16.5665 15.622 16.5139 15.5665 16.4661 15.501C16.3466 15.3247 16.2796 15.113 16.2701 14.8913ZM22.4757 14.8006C22.4757 14.1758 22.8391 13.7576 23.3554 13.7878C23.5801 13.7928 23.7905 13.9138 23.9244 14.1052C24.1969 14.4882 24.1969 15.1382 23.9196 15.5161C23.6518 15.8739 23.1546 15.9344 22.8152 15.6522C22.7626 15.6119 22.7196 15.5615 22.6813 15.5061C22.5379 15.2995 22.4709 15.0526 22.4757 14.8006Z" fill="#FDFEFE"/>
<path d="M8.15693 5.05078H23.8432C25.5596 5.05078 26.9508 6.51711 26.9508 8.32609V23.5941C26.9508 25.403 25.5596 26.8694 23.8432 26.8694H8.15693C6.44057 26.8694 5.04932 25.403 5.04932 23.5941V8.32609C5.04932 6.51711 6.44057 5.05078 8.15693 5.05078Z" stroke="#0180C7" stroke-width="0.0956188" stroke-miterlimit="10"/>
</g>
<defs>
<clipPath id="clip0_870_42153">
<rect x="5" y="5" width="22" height="22" rx="11" fill="white"/>
</clipPath>
</defs>
</svg>
